%TF.GenerationSoftware,KiCad,Pcbnew,8.0.1*%
%TF.CreationDate,2024-04-24T15:17:24+01:00*%
%TF.ProjectId,Kishoof_Controls,4b697368-6f6f-4665-9f43-6f6e74726f6c,rev?*%
%TF.SameCoordinates,Original*%
%TF.FileFunction,Legend,Bot*%
%TF.FilePolarity,Positive*%
%FSLAX46Y46*%
G04 Gerber Fmt 4.6, Leading zero omitted, Abs format (unit mm)*
G04 Created by KiCad (PCBNEW 8.0.1) date 2024-04-24 15:17:24*
%MOMM*%
%LPD*%
G01*
G04 APERTURE LIST*
%ADD10C,0.100000*%
%ADD11C,0.150000*%
%ADD12C,0.120000*%
%ADD13C,0.127000*%
%ADD14C,0.200000*%
G04 APERTURE END LIST*
D10*
X124296115Y-142348609D02*
X123962782Y-142348609D01*
X123819925Y-142872419D02*
X124296115Y-142872419D01*
X124296115Y-142872419D02*
X124296115Y-141872419D01*
X124296115Y-141872419D02*
X123819925Y-141872419D01*
X123486591Y-142872419D02*
X122962782Y-142205752D01*
X123486591Y-142205752D02*
X122962782Y-142872419D01*
X122724686Y-142205752D02*
X122343734Y-142205752D01*
X122581829Y-141872419D02*
X122581829Y-142729561D01*
X122581829Y-142729561D02*
X122534210Y-142824800D01*
X122534210Y-142824800D02*
X122438972Y-142872419D01*
X122438972Y-142872419D02*
X122343734Y-142872419D01*
D11*
X58333333Y-41684819D02*
X58333333Y-42399104D01*
X58333333Y-42399104D02*
X58380952Y-42541961D01*
X58380952Y-42541961D02*
X58476190Y-42637200D01*
X58476190Y-42637200D02*
X58619047Y-42684819D01*
X58619047Y-42684819D02*
X58714285Y-42684819D01*
X57333333Y-42684819D02*
X57904761Y-42684819D01*
X57619047Y-42684819D02*
X57619047Y-41684819D01*
X57619047Y-41684819D02*
X57714285Y-41827676D01*
X57714285Y-41827676D02*
X57809523Y-41922914D01*
X57809523Y-41922914D02*
X57904761Y-41970533D01*
X58333333Y-100684819D02*
X58333333Y-101399104D01*
X58333333Y-101399104D02*
X58380952Y-101541961D01*
X58380952Y-101541961D02*
X58476190Y-101637200D01*
X58476190Y-101637200D02*
X58619047Y-101684819D01*
X58619047Y-101684819D02*
X58714285Y-101684819D01*
X57952380Y-100684819D02*
X57333333Y-100684819D01*
X57333333Y-100684819D02*
X57666666Y-101065771D01*
X57666666Y-101065771D02*
X57523809Y-101065771D01*
X57523809Y-101065771D02*
X57428571Y-101113390D01*
X57428571Y-101113390D02*
X57380952Y-101161009D01*
X57380952Y-101161009D02*
X57333333Y-101256247D01*
X57333333Y-101256247D02*
X57333333Y-101494342D01*
X57333333Y-101494342D02*
X57380952Y-101589580D01*
X57380952Y-101589580D02*
X57428571Y-101637200D01*
X57428571Y-101637200D02*
X57523809Y-101684819D01*
X57523809Y-101684819D02*
X57809523Y-101684819D01*
X57809523Y-101684819D02*
X57904761Y-101637200D01*
X57904761Y-101637200D02*
X57952380Y-101589580D01*
X58963302Y-134153833D02*
X58963302Y-134964842D01*
X58963302Y-134964842D02*
X58915596Y-135060255D01*
X58915596Y-135060255D02*
X58867890Y-135107962D01*
X58867890Y-135107962D02*
X58772477Y-135155668D01*
X58772477Y-135155668D02*
X58581651Y-135155668D01*
X58581651Y-135155668D02*
X58486238Y-135107962D01*
X58486238Y-135107962D02*
X58438532Y-135060255D01*
X58438532Y-135060255D02*
X58390825Y-134964842D01*
X58390825Y-134964842D02*
X58390825Y-134153833D01*
X57388991Y-135155668D02*
X57961468Y-135155668D01*
X57675229Y-135155668D02*
X57675229Y-134153833D01*
X57675229Y-134153833D02*
X57770642Y-134296952D01*
X57770642Y-134296952D02*
X57866055Y-134392365D01*
X57866055Y-134392365D02*
X57961468Y-134440072D01*
X56654819Y-137533333D02*
X56178628Y-137200000D01*
X56654819Y-136961905D02*
X55654819Y-136961905D01*
X55654819Y-136961905D02*
X55654819Y-137342857D01*
X55654819Y-137342857D02*
X55702438Y-137438095D01*
X55702438Y-137438095D02*
X55750057Y-137485714D01*
X55750057Y-137485714D02*
X55845295Y-137533333D01*
X55845295Y-137533333D02*
X55988152Y-137533333D01*
X55988152Y-137533333D02*
X56083390Y-137485714D01*
X56083390Y-137485714D02*
X56131009Y-137438095D01*
X56131009Y-137438095D02*
X56178628Y-137342857D01*
X56178628Y-137342857D02*
X56178628Y-136961905D01*
X56654819Y-138485714D02*
X56654819Y-137914286D01*
X56654819Y-138200000D02*
X55654819Y-138200000D01*
X55654819Y-138200000D02*
X55797676Y-138104762D01*
X55797676Y-138104762D02*
X55892914Y-138009524D01*
X55892914Y-138009524D02*
X55940533Y-137914286D01*
X123333333Y-41684819D02*
X123333333Y-42399104D01*
X123333333Y-42399104D02*
X123380952Y-42541961D01*
X123380952Y-42541961D02*
X123476190Y-42637200D01*
X123476190Y-42637200D02*
X123619047Y-42684819D01*
X123619047Y-42684819D02*
X123714285Y-42684819D01*
X122904761Y-41780057D02*
X122857142Y-41732438D01*
X122857142Y-41732438D02*
X122761904Y-41684819D01*
X122761904Y-41684819D02*
X122523809Y-41684819D01*
X122523809Y-41684819D02*
X122428571Y-41732438D01*
X122428571Y-41732438D02*
X122380952Y-41780057D01*
X122380952Y-41780057D02*
X122333333Y-41875295D01*
X122333333Y-41875295D02*
X122333333Y-41970533D01*
X122333333Y-41970533D02*
X122380952Y-42113390D01*
X122380952Y-42113390D02*
X122952380Y-42684819D01*
X122952380Y-42684819D02*
X122333333Y-42684819D01*
X123333333Y-100684819D02*
X123333333Y-101399104D01*
X123333333Y-101399104D02*
X123380952Y-101541961D01*
X123380952Y-101541961D02*
X123476190Y-101637200D01*
X123476190Y-101637200D02*
X123619047Y-101684819D01*
X123619047Y-101684819D02*
X123714285Y-101684819D01*
X122428571Y-101018152D02*
X122428571Y-101684819D01*
X122666666Y-100637200D02*
X122904761Y-101351485D01*
X122904761Y-101351485D02*
X122285714Y-101351485D01*
X66854819Y-141333333D02*
X66378628Y-141000000D01*
X66854819Y-140761905D02*
X65854819Y-140761905D01*
X65854819Y-140761905D02*
X65854819Y-141142857D01*
X65854819Y-141142857D02*
X65902438Y-141238095D01*
X65902438Y-141238095D02*
X65950057Y-141285714D01*
X65950057Y-141285714D02*
X66045295Y-141333333D01*
X66045295Y-141333333D02*
X66188152Y-141333333D01*
X66188152Y-141333333D02*
X66283390Y-141285714D01*
X66283390Y-141285714D02*
X66331009Y-141238095D01*
X66331009Y-141238095D02*
X66378628Y-141142857D01*
X66378628Y-141142857D02*
X66378628Y-140761905D01*
X65950057Y-141714286D02*
X65902438Y-141761905D01*
X65902438Y-141761905D02*
X65854819Y-141857143D01*
X65854819Y-141857143D02*
X65854819Y-142095238D01*
X65854819Y-142095238D02*
X65902438Y-142190476D01*
X65902438Y-142190476D02*
X65950057Y-142238095D01*
X65950057Y-142238095D02*
X66045295Y-142285714D01*
X66045295Y-142285714D02*
X66140533Y-142285714D01*
X66140533Y-142285714D02*
X66283390Y-142238095D01*
X66283390Y-142238095D02*
X66854819Y-141666667D01*
X66854819Y-141666667D02*
X66854819Y-142285714D01*
D12*
%TO.C,J1*%
X56670000Y-43670000D02*
X58000000Y-43670000D01*
X56670000Y-45000000D02*
X56670000Y-43670000D01*
X56670000Y-46270000D02*
X59330000Y-46270000D01*
X56670000Y-74270000D02*
X56670000Y-46270000D01*
X56670000Y-74270000D02*
X59330000Y-74270000D01*
X59330000Y-74270000D02*
X59330000Y-46270000D01*
%TO.C,J3*%
X56670000Y-102670000D02*
X58000000Y-102670000D01*
X56670000Y-104000000D02*
X56670000Y-102670000D01*
X56670000Y-105270000D02*
X59330000Y-105270000D01*
X56670000Y-128190000D02*
X56670000Y-105270000D01*
X56670000Y-128190000D02*
X59330000Y-128190000D01*
X59330000Y-128190000D02*
X59330000Y-105270000D01*
%TO.C,J14*%
X122070000Y-146170000D02*
X124730000Y-146170000D01*
X122070000Y-146230000D02*
X122070000Y-146170000D01*
X122070000Y-146230000D02*
X124730000Y-146230000D01*
X123400000Y-143570000D02*
X124730000Y-143570000D01*
X124730000Y-143570000D02*
X124730000Y-144900000D01*
X124730000Y-146230000D02*
X124730000Y-146170000D01*
D13*
%TO.C,U1*%
X57500000Y-130900000D02*
X58900000Y-130900000D01*
X58900000Y-133900000D02*
X57500000Y-133900000D01*
D14*
X59500000Y-130700000D02*
G75*
G02*
X59300000Y-130700000I-100000J0D01*
G01*
X59300000Y-130700000D02*
G75*
G02*
X59500000Y-130700000I100000J0D01*
G01*
D12*
%TO.C,R1*%
X55677500Y-140662742D02*
X55677500Y-141137258D01*
X56722500Y-140662742D02*
X56722500Y-141137258D01*
%TO.C,J2*%
X121670000Y-43670000D02*
X123000000Y-43670000D01*
X121670000Y-45000000D02*
X121670000Y-43670000D01*
X121670000Y-46270000D02*
X124330000Y-46270000D01*
X121670000Y-74270000D02*
X121670000Y-46270000D01*
X121670000Y-74270000D02*
X124330000Y-74270000D01*
X124330000Y-74270000D02*
X124330000Y-46270000D01*
%TO.C,JP1*%
X60600000Y-133000000D02*
X60600000Y-131600000D01*
X61300000Y-130900000D02*
X61900000Y-130900000D01*
X61900000Y-133700000D02*
X61300000Y-133700000D01*
X62600000Y-131600000D02*
X62600000Y-133000000D01*
X60600000Y-131600000D02*
G75*
G02*
X61300000Y-130900000I700000J0D01*
G01*
X61300000Y-133700000D02*
G75*
G02*
X60600000Y-133000000I-1J699999D01*
G01*
X61900000Y-130900000D02*
G75*
G02*
X62600000Y-131600000I0J-700000D01*
G01*
X62600000Y-133000000D02*
G75*
G02*
X61900000Y-133700000I-699999J-1D01*
G01*
%TO.C,J4*%
X121670000Y-102670000D02*
X123000000Y-102670000D01*
X121670000Y-104000000D02*
X121670000Y-102670000D01*
X121670000Y-105270000D02*
X124330000Y-105270000D01*
X121670000Y-128190000D02*
X121670000Y-105270000D01*
X121670000Y-128190000D02*
X124330000Y-128190000D01*
X124330000Y-128190000D02*
X124330000Y-105270000D01*
%TO.C,R2*%
X65777500Y-138262742D02*
X65777500Y-138737258D01*
X66822500Y-138262742D02*
X66822500Y-138737258D01*
%TD*%
M02*
