%TF.GenerationSoftware,KiCad,Pcbnew,8.0.1*%
%TF.CreationDate,2024-04-24T15:17:25+01:00*%
%TF.ProjectId,Kishoof_Controls,4b697368-6f6f-4665-9f43-6f6e74726f6c,rev?*%
%TF.SameCoordinates,Original*%
%TF.FileFunction,Soldermask,Bot*%
%TF.FilePolarity,Negative*%
%FSLAX46Y46*%
G04 Gerber Fmt 4.6, Leading zero omitted, Abs format (unit mm)*
G04 Created by KiCad (PCBNEW 8.0.1) date 2024-04-24 15:17:25*
%MOMM*%
%LPD*%
G01*
G04 APERTURE LIST*
G04 Aperture macros list*
%AMRoundRect*
0 Rectangle with rounded corners*
0 $1 Rounding radius*
0 $2 $3 $4 $5 $6 $7 $8 $9 X,Y pos of 4 corners*
0 Add a 4 corners polygon primitive as box body*
4,1,4,$2,$3,$4,$5,$6,$7,$8,$9,$2,$3,0*
0 Add four circle primitives for the rounded corners*
1,1,$1+$1,$2,$3*
1,1,$1+$1,$4,$5*
1,1,$1+$1,$6,$7*
1,1,$1+$1,$8,$9*
0 Add four rect primitives between the rounded corners*
20,1,$1+$1,$2,$3,$4,$5,0*
20,1,$1+$1,$4,$5,$6,$7,0*
20,1,$1+$1,$6,$7,$8,$9,0*
20,1,$1+$1,$8,$9,$2,$3,0*%
%AMFreePoly0*
4,1,19,0.500000,-0.750000,0.000000,-0.750000,0.000000,-0.744911,-0.071157,-0.744911,-0.207708,-0.704816,-0.327430,-0.627875,-0.420627,-0.520320,-0.479746,-0.390866,-0.500000,-0.250000,-0.500000,0.250000,-0.479746,0.390866,-0.420627,0.520320,-0.327430,0.627875,-0.207708,0.704816,-0.071157,0.744911,0.000000,0.744911,0.000000,0.750000,0.500000,0.750000,0.500000,-0.750000,0.500000,-0.750000,
$1*%
%AMFreePoly1*
4,1,19,0.000000,0.744911,0.071157,0.744911,0.207708,0.704816,0.327430,0.627875,0.420627,0.520320,0.479746,0.390866,0.500000,0.250000,0.500000,-0.250000,0.479746,-0.390866,0.420627,-0.520320,0.327430,-0.627875,0.207708,-0.704816,0.071157,-0.744911,0.000000,-0.744911,0.000000,-0.750000,-0.500000,-0.750000,-0.500000,0.750000,0.000000,0.750000,0.000000,0.744911,0.000000,0.744911,
$1*%
G04 Aperture macros list end*
%ADD10R,1.700000X1.700000*%
%ADD11O,1.700000X1.700000*%
%ADD12C,1.700000*%
%ADD13C,2.500000*%
%ADD14R,2.500000X1.000000*%
%ADD15O,0.400000X0.600000*%
%ADD16O,1.000000X1.500000*%
%ADD17R,1.800000X1.800000*%
%ADD18C,1.800000*%
%ADD19C,1.750000*%
%ADD20O,4.000000X4.000000*%
%ADD21C,3.500000*%
%ADD22C,2.000000*%
%ADD23C,3.000000*%
%ADD24R,2.775000X2.775000*%
%ADD25C,2.775000*%
%ADD26R,0.950000X0.600000*%
%ADD27RoundRect,0.200000X0.275000X-0.200000X0.275000X0.200000X-0.275000X0.200000X-0.275000X-0.200000X0*%
%ADD28FreePoly0,90.000000*%
%ADD29FreePoly1,90.000000*%
G04 APERTURE END LIST*
D10*
%TO.C,U2*%
X60400000Y-43100000D03*
D11*
X60400000Y-45640000D03*
D12*
X93400000Y-43100000D03*
D11*
X93400000Y-45640000D03*
X60400000Y-74100000D03*
X60400000Y-76640000D03*
X93400000Y-74100000D03*
X93400000Y-76640000D03*
%TD*%
D13*
%TO.C,J9*%
X94000000Y-141000000D03*
D14*
X94000000Y-147480000D03*
X94000000Y-144380000D03*
X94000000Y-136080000D03*
%TD*%
D15*
%TO.C,J12*%
X61000000Y-144775000D03*
X61000000Y-137225000D03*
D16*
X57930000Y-145100000D03*
X64070000Y-145100000D03*
X57930000Y-136900000D03*
X64070000Y-136900000D03*
%TD*%
D13*
%TO.C,J11*%
X82000000Y-141000000D03*
D14*
X82000000Y-147480000D03*
X82000000Y-144380000D03*
X82000000Y-136080000D03*
%TD*%
D13*
%TO.C,J7*%
X115000000Y-141000000D03*
D14*
X115000000Y-147480000D03*
X115000000Y-144380000D03*
X115000000Y-136080000D03*
%TD*%
D17*
%TO.C,D1*%
X96700000Y-106600000D03*
D18*
X99240000Y-106600000D03*
%TD*%
D19*
%TO.C,SW5*%
X108500000Y-56500000D03*
X113500000Y-56500000D03*
X111000000Y-56500000D03*
X108500000Y-42000000D03*
X113500000Y-42000000D03*
D20*
X104800000Y-49000000D03*
X117200000Y-49000000D03*
%TD*%
D21*
%TO.C,WarpType1*%
X110600000Y-88500000D03*
X119400000Y-88500000D03*
D18*
X117500000Y-95500000D03*
X115000000Y-95500000D03*
X112500000Y-95500000D03*
X112500000Y-81000000D03*
X117500000Y-81000000D03*
%TD*%
D13*
%TO.C,J8*%
X104500000Y-141000000D03*
D14*
X104500000Y-147480000D03*
X104500000Y-144380000D03*
X104500000Y-136080000D03*
%TD*%
D21*
%TO.C,WavetableBPot1*%
X86600000Y-95500000D03*
X95400000Y-95500000D03*
D18*
X93500000Y-102500000D03*
X91000000Y-102500000D03*
X88500000Y-102500000D03*
%TD*%
D21*
%TO.C,WarpAmtTrm1*%
X110600000Y-126500000D03*
X119400000Y-126500000D03*
D18*
X117500000Y-133500000D03*
X115000000Y-133500000D03*
X112500000Y-133500000D03*
%TD*%
D13*
%TO.C,J10*%
X72000000Y-141000000D03*
D14*
X72000000Y-147480000D03*
X72000000Y-144380000D03*
X72000000Y-136080000D03*
%TD*%
D22*
%TO.C,SW1*%
X94750000Y-110750000D03*
X101250000Y-110750000D03*
X94750000Y-115250000D03*
X101250000Y-115250000D03*
%TD*%
D23*
%TO.C,SW2*%
X117000000Y-71700000D03*
X117000000Y-67000000D03*
X117000000Y-62300000D03*
%TD*%
D13*
%TO.C,J5*%
X66000000Y-128000000D03*
D14*
X66000000Y-134480000D03*
X66000000Y-131380000D03*
X66000000Y-123080000D03*
%TD*%
D21*
%TO.C,WavetableATrm1*%
X61600000Y-113500000D03*
X70400000Y-113500000D03*
D18*
X68500000Y-120500000D03*
X66000000Y-120500000D03*
X63500000Y-120500000D03*
%TD*%
D21*
%TO.C,WavetableAPot1*%
X61600000Y-95500000D03*
X70400000Y-95500000D03*
D18*
X68500000Y-102500000D03*
X66000000Y-102500000D03*
X63500000Y-102500000D03*
%TD*%
D24*
%TO.C,SW4*%
X81000000Y-117700000D03*
D25*
X81000000Y-113000000D03*
X81000000Y-108300000D03*
%TD*%
D13*
%TO.C,J6*%
X91000000Y-128000000D03*
D14*
X91000000Y-134480000D03*
X91000000Y-131380000D03*
X91000000Y-123080000D03*
%TD*%
D21*
%TO.C,WarpAmtPot1*%
X110600000Y-110500000D03*
X119400000Y-110500000D03*
D18*
X117500000Y-117500000D03*
X115000000Y-117500000D03*
X112500000Y-117500000D03*
%TD*%
D24*
%TO.C,SW3*%
X103000000Y-71700000D03*
D25*
X103000000Y-67000000D03*
X103000000Y-62300000D03*
%TD*%
D10*
%TO.C,J1*%
X58000000Y-45000000D03*
D11*
X58000000Y-47540000D03*
X58000000Y-50080000D03*
X58000000Y-52620000D03*
X58000000Y-55160000D03*
X58000000Y-57700000D03*
X58000000Y-60240000D03*
X58000000Y-62780000D03*
X58000000Y-65320000D03*
X58000000Y-67860000D03*
X58000000Y-70400000D03*
X58000000Y-72940000D03*
%TD*%
D10*
%TO.C,J3*%
X58000000Y-104000000D03*
D11*
X58000000Y-106540000D03*
X58000000Y-109080000D03*
X58000000Y-111620000D03*
X58000000Y-114160000D03*
X58000000Y-116700000D03*
X58000000Y-119240000D03*
X58000000Y-121780000D03*
X58000000Y-124320000D03*
X58000000Y-126860000D03*
%TD*%
D10*
%TO.C,J14*%
X123400000Y-144900000D03*
%TD*%
D26*
%TO.C,U1*%
X59325000Y-131450000D03*
X59325000Y-132400000D03*
X59325000Y-133350000D03*
X57075000Y-133350000D03*
X57075000Y-132400000D03*
X57075000Y-131450000D03*
%TD*%
D27*
%TO.C,R1*%
X56200000Y-141725000D03*
X56200000Y-140075000D03*
%TD*%
D10*
%TO.C,J2*%
X123000000Y-45000000D03*
D11*
X123000000Y-47540000D03*
X123000000Y-50080000D03*
X123000000Y-52620000D03*
X123000000Y-55160000D03*
X123000000Y-57700000D03*
X123000000Y-60240000D03*
X123000000Y-62780000D03*
X123000000Y-65320000D03*
X123000000Y-67860000D03*
X123000000Y-70400000D03*
X123000000Y-72940000D03*
%TD*%
D28*
%TO.C,JP1*%
X61600000Y-132950000D03*
D29*
X61600000Y-131650000D03*
%TD*%
D10*
%TO.C,J4*%
X123000000Y-104000000D03*
D11*
X123000000Y-106540000D03*
X123000000Y-109080000D03*
X123000000Y-111620000D03*
X123000000Y-114160000D03*
X123000000Y-116700000D03*
X123000000Y-119240000D03*
X123000000Y-121780000D03*
X123000000Y-124320000D03*
X123000000Y-126860000D03*
%TD*%
D27*
%TO.C,R2*%
X66300000Y-139325000D03*
X66300000Y-137675000D03*
%TD*%
M02*
