M48
; DRILL file {KiCad 8.0.1} date 2024-04-24T15:17:27+0100
; FORMAT={-:-/ absolute / inch / decimal}
; #@! TF.CreationDate,2024-04-24T15:17:27+01:00
; #@! TF.GenerationSoftware,Kicad,Pcbnew,8.0.1
; #@! TF.FileFunction,Plated,1,2,PTH
FMAT,2
INCH
; #@! TA.AperFunction,Plated,PTH,ViaDrill
T1C0.0157
; #@! TA.AperFunction,Plated,PTH,ComponentDrill
T2C0.0197
; #@! TA.AperFunction,Plated,PTH,ComponentDrill
T3C0.0236
; #@! TA.AperFunction,Plated,PTH,ComponentDrill
T4C0.0354
; #@! TA.AperFunction,Plated,PTH,ComponentDrill
T5C0.0394
; #@! TA.AperFunction,Plated,PTH,ComponentDrill
T6C0.0433
; #@! TA.AperFunction,Plated,PTH,ComponentDrill
T7C0.0728
; #@! TA.AperFunction,Plated,PTH,ComponentDrill
T8C0.0984
%
G90
G05
T1
X2.2047Y-5.1378
X2.2087Y-2.1378
X2.2087Y-5.4764
X2.2579Y-5.5669
X2.2717Y-3.0827
X2.2717Y-3.4252
X2.2717Y-3.7126
X2.2717Y-4.0157
X2.3307Y-5.0748
X2.3386Y-2.8189
X2.3504Y-2.4252
X2.3622Y-2.7126
X2.378Y-2.1378
X2.3819Y-1.6063
X2.3819Y-1.9961
X2.3819Y-5.315
X2.3851Y-5.4466
X2.3937Y-2.8386
X2.3976Y-5.5315
X2.3976Y-5.6496
X2.4035Y-5.5748
X2.4331Y-5.4764
X2.4685Y-3.0591
X2.4764Y-5.1969
X2.5236Y-2.6772
X2.5276Y-2.8622
X2.5354Y-2.2126
X2.5748Y-3.9016
X2.5748Y-4.5433
X2.5827Y-4.3898
X2.6063Y-3.4843
X2.6102Y-5.5236
X2.6772Y-3.2598
X2.685Y-4.6457
X2.8425Y-4.7874
X2.9449Y-2.4173
X3.0157Y-3.0669
X3.0512Y-5.5394
X3.0551Y-4.6339
X3.1299Y-4.0433
X3.1575Y-3.7323
X3.2559Y-4.9213
X3.311Y-3.8543
X3.4646Y-4.9764
X3.4685Y-2.3858
X3.4961Y-2.185
X3.5709Y-1.689
X3.6339Y-4.2126
X3.6457Y-2.3858
X3.6654Y-2.8228
X3.685Y-1.9646
X3.7244Y-3.1142
X3.8622Y-3.9567
X3.8701Y-3.2992
X3.8819Y-1.7717
X3.8858Y-2.9567
X3.8858Y-3.5551
X3.8898Y-2.3819
X3.9528Y-5.3661
X3.9764Y-2.185
X3.9921Y-1.9134
X4.0118Y-2.5433
X4.0472Y-3.1575
X4.0945Y-4.1299
X4.126Y-3.9449
X4.1339Y-3.4094
X4.252Y-4.8031
X4.2598Y-4.6535
X4.3189Y-4.1339
X4.3268Y-5.374
X4.4449Y-4.0433
X4.5315Y-4.7992
X4.5709Y-4.1614
X4.5984Y-2.9409
X4.7283Y-3.1457
X4.752Y-1.8465
X4.7559Y-2.2205
X4.7913Y-5.2874
X4.7953Y-1.6811
X4.8386Y-3.8976
X4.8465Y-3.0
X4.8465Y-3.2677
X4.8622Y-5.3976
X4.9055Y-1.5827
T4
X3.8071Y-4.1969
X3.9071Y-4.1969
T5
X2.2835Y-1.7717
X2.2835Y-1.8717
X2.2835Y-1.9717
X2.2835Y-2.0717
X2.2835Y-2.1717
X2.2835Y-2.2717
X2.2835Y-2.3717
X2.2835Y-2.4717
X2.2835Y-2.5717
X2.2835Y-2.6717
X2.2835Y-2.7717
X2.2835Y-2.8717
X2.2835Y-4.0945
X2.2835Y-4.1945
X2.2835Y-4.2945
X2.2835Y-4.3945
X2.2835Y-4.4945
X2.2835Y-4.5945
X2.2835Y-4.6945
X2.2835Y-4.7945
X2.2835Y-4.8945
X2.2835Y-4.9945
X2.378Y-1.6969
X2.378Y-1.7969
X2.378Y-2.9173
X2.378Y-3.0173
X2.5Y-4.0354
X2.5Y-4.7441
X2.5984Y-4.0354
X2.5984Y-4.7441
X2.6969Y-4.0354
X2.6969Y-4.7441
X3.4843Y-4.0354
X3.5827Y-4.0354
X3.6772Y-1.6969
X3.6772Y-1.7969
X3.6772Y-2.9173
X3.6772Y-3.0173
X3.6811Y-4.0354
X4.4291Y-3.189
X4.4291Y-3.7598
X4.4291Y-4.626
X4.4291Y-5.2559
X4.5276Y-3.7598
X4.5276Y-4.626
X4.5276Y-5.2559
X4.626Y-3.189
X4.626Y-3.7598
X4.626Y-4.626
X4.626Y-5.2559
X4.8425Y-1.7717
X4.8425Y-1.8717
X4.8425Y-1.9717
X4.8425Y-2.0717
X4.8425Y-2.1717
X4.8425Y-2.2717
X4.8425Y-2.3717
X4.8425Y-2.4717
X4.8425Y-2.5717
X4.8425Y-2.6717
X4.8425Y-2.7717
X4.8425Y-2.8717
X4.8425Y-4.0945
X4.8425Y-4.1945
X4.8425Y-4.2945
X4.8425Y-4.3945
X4.8425Y-4.4945
X4.8425Y-4.5945
X4.8425Y-4.6945
X4.8425Y-4.7945
X4.8425Y-4.8945
X4.8425Y-4.9945
X4.8583Y-5.7047
T6
X3.7303Y-4.3602
X3.7303Y-4.5374
X3.9862Y-4.3602
X3.9862Y-4.5374
X4.2717Y-1.6535
X4.2717Y-2.2244
X4.3701Y-2.2244
X4.4685Y-1.6535
X4.4685Y-2.2244
T7
X3.189Y-4.2638
X3.189Y-4.4488
X3.189Y-4.6339
X4.0551Y-2.4528
X4.0551Y-2.6378
X4.0551Y-2.8228
X4.6063Y-2.4528
X4.6063Y-2.6378
X4.6063Y-2.8228
T8
X4.126Y-1.9291
X4.6142Y-1.9291
T2
G00X2.5787Y-4.8457
M15
G01X2.6181Y-4.8457
M16
G05
G00X2.5787Y-5.1724
M15
G01X2.6181Y-5.1724
M16
G05
G00X2.5787Y-5.2945
M15
G01X2.6181Y-5.2945
M16
G05
G00X2.815Y-5.3575
M15
G01X2.8543Y-5.3575
M16
G05
G00X2.815Y-5.6843
M15
G01X2.8543Y-5.6843
M16
G05
G00X2.815Y-5.8063
M15
G01X2.8543Y-5.8063
M16
G05
G00X3.2087Y-5.3575
M15
G01X3.248Y-5.3575
M16
G05
G00X3.2087Y-5.6843
M15
G01X3.248Y-5.6843
M16
G05
G00X3.2087Y-5.8063
M15
G01X3.248Y-5.8063
M16
G05
G00X3.563Y-4.8457
M15
G01X3.6024Y-4.8457
M16
G05
G00X3.563Y-5.1724
M15
G01X3.6024Y-5.1724
M16
G05
G00X3.563Y-5.2945
M15
G01X3.6024Y-5.2945
M16
G05
G00X3.6811Y-5.3575
M15
G01X3.7205Y-5.3575
M16
G05
G00X3.6811Y-5.6843
M15
G01X3.7205Y-5.6843
M16
G05
G00X3.6811Y-5.8063
M15
G01X3.7205Y-5.8063
M16
G05
G00X4.0945Y-5.3575
M15
G01X4.1339Y-5.3575
M16
G05
G00X4.0945Y-5.6843
M15
G01X4.1339Y-5.6843
M16
G05
G00X4.0945Y-5.8063
M15
G01X4.1339Y-5.8063
M16
G05
G00X4.5079Y-5.3575
M15
G01X4.5472Y-5.3575
M16
G05
G00X4.5079Y-5.6843
M15
G01X4.5472Y-5.6843
M16
G05
G00X4.5079Y-5.8063
M15
G01X4.5472Y-5.8063
M16
G05
T3
G00X2.2807Y-5.3996
M15
G01X2.2807Y-5.3799
M16
G05
G00X2.2807Y-5.7224
M15
G01X2.2807Y-5.7028
M16
G05
G00X2.5224Y-5.3996
M15
G01X2.5224Y-5.3799
M16
G05
G00X2.5224Y-5.7224
M15
G01X2.5224Y-5.7028
M16
G05
M30
