%TF.GenerationSoftware,KiCad,Pcbnew,8.0.1*%
%TF.CreationDate,2024-04-24T15:21:32+01:00*%
%TF.ProjectId,Kishoof_screen,4b697368-6f6f-4665-9f73-637265656e2e,rev?*%
%TF.SameCoordinates,Original*%
%TF.FileFunction,Profile,NP*%
%FSLAX46Y46*%
G04 Gerber Fmt 4.6, Leading zero omitted, Abs format (unit mm)*
G04 Created by KiCad (PCBNEW 8.0.1) date 2024-04-24 15:21:32*
%MOMM*%
%LPD*%
G01*
G04 APERTURE LIST*
%TA.AperFunction,Profile*%
%ADD10C,0.050000*%
%TD*%
G04 APERTURE END LIST*
D10*
X83908750Y-78950000D02*
X83893450Y-79100700D01*
X70562750Y-78950000D02*
X70578050Y-78799300D01*
X83893450Y-78799300D02*
X83908750Y-78950000D01*
X71300000Y-79700000D02*
X71162050Y-79684700D01*
X83309450Y-78215300D02*
X83449950Y-78259200D01*
X70691250Y-78531400D02*
X70783050Y-78420300D01*
X83893450Y-79100700D02*
X83849550Y-79241200D01*
X83577350Y-79571500D02*
X83449950Y-79640800D01*
X83158750Y-79700000D02*
X71300000Y-79700000D01*
X70783050Y-78420300D02*
X70894150Y-78328500D01*
X70894150Y-78328500D02*
X71021550Y-78259200D01*
X70783050Y-79479700D02*
X70691250Y-79368600D01*
X83688450Y-78420300D02*
X83780250Y-78531400D01*
X57800000Y-40000000D02*
X96800000Y-40000000D01*
X96800000Y-81000000D01*
X57800000Y-81000000D01*
X57800000Y-40000000D01*
X71162050Y-78215300D02*
X71300000Y-78200000D01*
X70621950Y-79241200D02*
X70578050Y-79100700D01*
X70578050Y-79100700D02*
X70562750Y-78950000D01*
X83849550Y-78658800D02*
X83893450Y-78799300D01*
X70578050Y-78799300D02*
X70621950Y-78658800D01*
X71021550Y-79640800D02*
X70894150Y-79571500D01*
X83780250Y-79368600D02*
X83688450Y-79479700D01*
X83688450Y-79479700D02*
X83577350Y-79571500D01*
X83849550Y-79241200D02*
X83780250Y-79368600D01*
X71021550Y-78259200D02*
X71162050Y-78215300D01*
X71162050Y-79684700D02*
X71021550Y-79640800D01*
X83309450Y-79684700D02*
X83158750Y-79700000D01*
X70621950Y-78658800D02*
X70691250Y-78531400D01*
X83449950Y-79640800D02*
X83309450Y-79684700D01*
X71300000Y-78200000D02*
X83158750Y-78200000D01*
X70691250Y-79368600D02*
X70621950Y-79241200D01*
X70894150Y-79571500D02*
X70783050Y-79479700D01*
X83577350Y-78328500D02*
X83688450Y-78420300D01*
X83780250Y-78531400D02*
X83849550Y-78658800D01*
X83158750Y-78200000D02*
X83309450Y-78215300D01*
X83449950Y-78259200D02*
X83577350Y-78328500D01*
M02*
