%TF.GenerationSoftware,KiCad,Pcbnew,8.0.1*%
%TF.CreationDate,2024-04-24T15:21:32+01:00*%
%TF.ProjectId,Kishoof_screen,4b697368-6f6f-4665-9f73-637265656e2e,rev?*%
%TF.SameCoordinates,Original*%
%TF.FileFunction,Legend,Bot*%
%TF.FilePolarity,Positive*%
%FSLAX46Y46*%
G04 Gerber Fmt 4.6, Leading zero omitted, Abs format (unit mm)*
G04 Created by KiCad (PCBNEW 8.0.1) date 2024-04-24 15:21:32*
%MOMM*%
%LPD*%
G01*
G04 APERTURE LIST*
%ADD10C,0.150000*%
%ADD11C,0.200000*%
%ADD12C,0.100000*%
%ADD13C,0.120000*%
G04 APERTURE END LIST*
D10*
X63500000Y-51200000D02*
X91700000Y-51200000D01*
X91700000Y-57200000D01*
X63500000Y-57200000D01*
X63500000Y-51200000D01*
D11*
X89533334Y-53610305D02*
X89533334Y-52210305D01*
X89533334Y-52210305D02*
X89066668Y-53210305D01*
X89066668Y-53210305D02*
X88600001Y-52210305D01*
X88600001Y-52210305D02*
X88600001Y-53610305D01*
X87733334Y-53610305D02*
X87866668Y-53543639D01*
X87866668Y-53543639D02*
X87933334Y-53476972D01*
X87933334Y-53476972D02*
X88000001Y-53343639D01*
X88000001Y-53343639D02*
X88000001Y-52943639D01*
X88000001Y-52943639D02*
X87933334Y-52810305D01*
X87933334Y-52810305D02*
X87866668Y-52743639D01*
X87866668Y-52743639D02*
X87733334Y-52676972D01*
X87733334Y-52676972D02*
X87533334Y-52676972D01*
X87533334Y-52676972D02*
X87400001Y-52743639D01*
X87400001Y-52743639D02*
X87333334Y-52810305D01*
X87333334Y-52810305D02*
X87266668Y-52943639D01*
X87266668Y-52943639D02*
X87266668Y-53343639D01*
X87266668Y-53343639D02*
X87333334Y-53476972D01*
X87333334Y-53476972D02*
X87400001Y-53543639D01*
X87400001Y-53543639D02*
X87533334Y-53610305D01*
X87533334Y-53610305D02*
X87733334Y-53610305D01*
X86066667Y-52676972D02*
X86066667Y-53610305D01*
X86666667Y-52676972D02*
X86666667Y-53410305D01*
X86666667Y-53410305D02*
X86600001Y-53543639D01*
X86600001Y-53543639D02*
X86466667Y-53610305D01*
X86466667Y-53610305D02*
X86266667Y-53610305D01*
X86266667Y-53610305D02*
X86133334Y-53543639D01*
X86133334Y-53543639D02*
X86066667Y-53476972D01*
X85400000Y-52676972D02*
X85400000Y-53610305D01*
X85400000Y-52810305D02*
X85333334Y-52743639D01*
X85333334Y-52743639D02*
X85200000Y-52676972D01*
X85200000Y-52676972D02*
X85000000Y-52676972D01*
X85000000Y-52676972D02*
X84866667Y-52743639D01*
X84866667Y-52743639D02*
X84800000Y-52876972D01*
X84800000Y-52876972D02*
X84800000Y-53610305D01*
X84333333Y-52676972D02*
X83800000Y-52676972D01*
X84133333Y-52210305D02*
X84133333Y-53410305D01*
X84133333Y-53410305D02*
X84066667Y-53543639D01*
X84066667Y-53543639D02*
X83933333Y-53610305D01*
X83933333Y-53610305D02*
X83800000Y-53610305D01*
X83333333Y-52676972D02*
X83333333Y-53876972D01*
X83333333Y-53876972D02*
X83400000Y-54010305D01*
X83400000Y-54010305D02*
X83533333Y-54076972D01*
X83533333Y-54076972D02*
X83600000Y-54076972D01*
X83333333Y-52210305D02*
X83400000Y-52276972D01*
X83400000Y-52276972D02*
X83333333Y-52343639D01*
X83333333Y-52343639D02*
X83266667Y-52276972D01*
X83266667Y-52276972D02*
X83333333Y-52210305D01*
X83333333Y-52210305D02*
X83333333Y-52343639D01*
X82466666Y-53610305D02*
X82600000Y-53543639D01*
X82600000Y-53543639D02*
X82666666Y-53476972D01*
X82666666Y-53476972D02*
X82733333Y-53343639D01*
X82733333Y-53343639D02*
X82733333Y-52943639D01*
X82733333Y-52943639D02*
X82666666Y-52810305D01*
X82666666Y-52810305D02*
X82600000Y-52743639D01*
X82600000Y-52743639D02*
X82466666Y-52676972D01*
X82466666Y-52676972D02*
X82266666Y-52676972D01*
X82266666Y-52676972D02*
X82133333Y-52743639D01*
X82133333Y-52743639D02*
X82066666Y-52810305D01*
X82066666Y-52810305D02*
X82000000Y-52943639D01*
X82000000Y-52943639D02*
X82000000Y-53343639D01*
X82000000Y-53343639D02*
X82066666Y-53476972D01*
X82066666Y-53476972D02*
X82133333Y-53543639D01*
X82133333Y-53543639D02*
X82266666Y-53610305D01*
X82266666Y-53610305D02*
X82466666Y-53610305D01*
X81533333Y-52676972D02*
X81199999Y-53610305D01*
X80866666Y-52676972D02*
X81199999Y-53610305D01*
X81199999Y-53610305D02*
X81333333Y-53943639D01*
X81333333Y-53943639D02*
X81399999Y-54010305D01*
X81399999Y-54010305D02*
X81533333Y-54076972D01*
X79266665Y-53610305D02*
X79266665Y-52210305D01*
X79266665Y-52210305D02*
X78799999Y-53210305D01*
X78799999Y-53210305D02*
X78333332Y-52210305D01*
X78333332Y-52210305D02*
X78333332Y-53610305D01*
X77466665Y-53610305D02*
X77599999Y-53543639D01*
X77599999Y-53543639D02*
X77666665Y-53476972D01*
X77666665Y-53476972D02*
X77733332Y-53343639D01*
X77733332Y-53343639D02*
X77733332Y-52943639D01*
X77733332Y-52943639D02*
X77666665Y-52810305D01*
X77666665Y-52810305D02*
X77599999Y-52743639D01*
X77599999Y-52743639D02*
X77466665Y-52676972D01*
X77466665Y-52676972D02*
X77266665Y-52676972D01*
X77266665Y-52676972D02*
X77133332Y-52743639D01*
X77133332Y-52743639D02*
X77066665Y-52810305D01*
X77066665Y-52810305D02*
X76999999Y-52943639D01*
X76999999Y-52943639D02*
X76999999Y-53343639D01*
X76999999Y-53343639D02*
X77066665Y-53476972D01*
X77066665Y-53476972D02*
X77133332Y-53543639D01*
X77133332Y-53543639D02*
X77266665Y-53610305D01*
X77266665Y-53610305D02*
X77466665Y-53610305D01*
X75799998Y-53610305D02*
X75799998Y-52210305D01*
X75799998Y-53543639D02*
X75933332Y-53610305D01*
X75933332Y-53610305D02*
X76199998Y-53610305D01*
X76199998Y-53610305D02*
X76333332Y-53543639D01*
X76333332Y-53543639D02*
X76399998Y-53476972D01*
X76399998Y-53476972D02*
X76466665Y-53343639D01*
X76466665Y-53343639D02*
X76466665Y-52943639D01*
X76466665Y-52943639D02*
X76399998Y-52810305D01*
X76399998Y-52810305D02*
X76333332Y-52743639D01*
X76333332Y-52743639D02*
X76199998Y-52676972D01*
X76199998Y-52676972D02*
X75933332Y-52676972D01*
X75933332Y-52676972D02*
X75799998Y-52743639D01*
X74533331Y-52676972D02*
X74533331Y-53610305D01*
X75133331Y-52676972D02*
X75133331Y-53410305D01*
X75133331Y-53410305D02*
X75066665Y-53543639D01*
X75066665Y-53543639D02*
X74933331Y-53610305D01*
X74933331Y-53610305D02*
X74733331Y-53610305D01*
X74733331Y-53610305D02*
X74599998Y-53543639D01*
X74599998Y-53543639D02*
X74533331Y-53476972D01*
X73666664Y-53610305D02*
X73799998Y-53543639D01*
X73799998Y-53543639D02*
X73866664Y-53410305D01*
X73866664Y-53410305D02*
X73866664Y-52210305D01*
X72533331Y-53610305D02*
X72533331Y-52876972D01*
X72533331Y-52876972D02*
X72599998Y-52743639D01*
X72599998Y-52743639D02*
X72733331Y-52676972D01*
X72733331Y-52676972D02*
X72999998Y-52676972D01*
X72999998Y-52676972D02*
X73133331Y-52743639D01*
X72533331Y-53543639D02*
X72666665Y-53610305D01*
X72666665Y-53610305D02*
X72999998Y-53610305D01*
X72999998Y-53610305D02*
X73133331Y-53543639D01*
X73133331Y-53543639D02*
X73199998Y-53410305D01*
X73199998Y-53410305D02*
X73199998Y-53276972D01*
X73199998Y-53276972D02*
X73133331Y-53143639D01*
X73133331Y-53143639D02*
X72999998Y-53076972D01*
X72999998Y-53076972D02*
X72666665Y-53076972D01*
X72666665Y-53076972D02*
X72533331Y-53010305D01*
X71866664Y-53610305D02*
X71866664Y-52676972D01*
X71866664Y-52943639D02*
X71799998Y-52810305D01*
X71799998Y-52810305D02*
X71733331Y-52743639D01*
X71733331Y-52743639D02*
X71599998Y-52676972D01*
X71599998Y-52676972D02*
X71466664Y-52676972D01*
X69999997Y-52343639D02*
X69933330Y-52276972D01*
X69933330Y-52276972D02*
X69799997Y-52210305D01*
X69799997Y-52210305D02*
X69466664Y-52210305D01*
X69466664Y-52210305D02*
X69333330Y-52276972D01*
X69333330Y-52276972D02*
X69266664Y-52343639D01*
X69266664Y-52343639D02*
X69199997Y-52476972D01*
X69199997Y-52476972D02*
X69199997Y-52610305D01*
X69199997Y-52610305D02*
X69266664Y-52810305D01*
X69266664Y-52810305D02*
X70066664Y-53610305D01*
X70066664Y-53610305D02*
X69199997Y-53610305D01*
X68333331Y-52210305D02*
X68199997Y-52210305D01*
X68199997Y-52210305D02*
X68066664Y-52276972D01*
X68066664Y-52276972D02*
X67999997Y-52343639D01*
X67999997Y-52343639D02*
X67933331Y-52476972D01*
X67933331Y-52476972D02*
X67866664Y-52743639D01*
X67866664Y-52743639D02*
X67866664Y-53076972D01*
X67866664Y-53076972D02*
X67933331Y-53343639D01*
X67933331Y-53343639D02*
X67999997Y-53476972D01*
X67999997Y-53476972D02*
X68066664Y-53543639D01*
X68066664Y-53543639D02*
X68199997Y-53610305D01*
X68199997Y-53610305D02*
X68333331Y-53610305D01*
X68333331Y-53610305D02*
X68466664Y-53543639D01*
X68466664Y-53543639D02*
X68533331Y-53476972D01*
X68533331Y-53476972D02*
X68599997Y-53343639D01*
X68599997Y-53343639D02*
X68666664Y-53076972D01*
X68666664Y-53076972D02*
X68666664Y-52743639D01*
X68666664Y-52743639D02*
X68599997Y-52476972D01*
X68599997Y-52476972D02*
X68533331Y-52343639D01*
X68533331Y-52343639D02*
X68466664Y-52276972D01*
X68466664Y-52276972D02*
X68333331Y-52210305D01*
X67333331Y-52343639D02*
X67266664Y-52276972D01*
X67266664Y-52276972D02*
X67133331Y-52210305D01*
X67133331Y-52210305D02*
X66799998Y-52210305D01*
X66799998Y-52210305D02*
X66666664Y-52276972D01*
X66666664Y-52276972D02*
X66599998Y-52343639D01*
X66599998Y-52343639D02*
X66533331Y-52476972D01*
X66533331Y-52476972D02*
X66533331Y-52610305D01*
X66533331Y-52610305D02*
X66599998Y-52810305D01*
X66599998Y-52810305D02*
X67399998Y-53610305D01*
X67399998Y-53610305D02*
X66533331Y-53610305D01*
X65333331Y-52676972D02*
X65333331Y-53610305D01*
X65666665Y-52143639D02*
X65999998Y-53143639D01*
X65999998Y-53143639D02*
X65133331Y-53143639D01*
X89366667Y-55864227D02*
X89366667Y-54464227D01*
X88566667Y-55864227D02*
X89166667Y-55064227D01*
X88566667Y-54464227D02*
X89366667Y-55264227D01*
X87966667Y-55864227D02*
X87966667Y-54930894D01*
X87966667Y-54464227D02*
X88033334Y-54530894D01*
X88033334Y-54530894D02*
X87966667Y-54597561D01*
X87966667Y-54597561D02*
X87900001Y-54530894D01*
X87900001Y-54530894D02*
X87966667Y-54464227D01*
X87966667Y-54464227D02*
X87966667Y-54597561D01*
X87366667Y-55797561D02*
X87233334Y-55864227D01*
X87233334Y-55864227D02*
X86966667Y-55864227D01*
X86966667Y-55864227D02*
X86833334Y-55797561D01*
X86833334Y-55797561D02*
X86766667Y-55664227D01*
X86766667Y-55664227D02*
X86766667Y-55597561D01*
X86766667Y-55597561D02*
X86833334Y-55464227D01*
X86833334Y-55464227D02*
X86966667Y-55397561D01*
X86966667Y-55397561D02*
X87166667Y-55397561D01*
X87166667Y-55397561D02*
X87300000Y-55330894D01*
X87300000Y-55330894D02*
X87366667Y-55197561D01*
X87366667Y-55197561D02*
X87366667Y-55130894D01*
X87366667Y-55130894D02*
X87300000Y-54997561D01*
X87300000Y-54997561D02*
X87166667Y-54930894D01*
X87166667Y-54930894D02*
X86966667Y-54930894D01*
X86966667Y-54930894D02*
X86833334Y-54997561D01*
X86166667Y-55864227D02*
X86166667Y-54464227D01*
X85566667Y-55864227D02*
X85566667Y-55130894D01*
X85566667Y-55130894D02*
X85633334Y-54997561D01*
X85633334Y-54997561D02*
X85766667Y-54930894D01*
X85766667Y-54930894D02*
X85966667Y-54930894D01*
X85966667Y-54930894D02*
X86100001Y-54997561D01*
X86100001Y-54997561D02*
X86166667Y-55064227D01*
X84700000Y-55864227D02*
X84833334Y-55797561D01*
X84833334Y-55797561D02*
X84900000Y-55730894D01*
X84900000Y-55730894D02*
X84966667Y-55597561D01*
X84966667Y-55597561D02*
X84966667Y-55197561D01*
X84966667Y-55197561D02*
X84900000Y-55064227D01*
X84900000Y-55064227D02*
X84833334Y-54997561D01*
X84833334Y-54997561D02*
X84700000Y-54930894D01*
X84700000Y-54930894D02*
X84500000Y-54930894D01*
X84500000Y-54930894D02*
X84366667Y-54997561D01*
X84366667Y-54997561D02*
X84300000Y-55064227D01*
X84300000Y-55064227D02*
X84233334Y-55197561D01*
X84233334Y-55197561D02*
X84233334Y-55597561D01*
X84233334Y-55597561D02*
X84300000Y-55730894D01*
X84300000Y-55730894D02*
X84366667Y-55797561D01*
X84366667Y-55797561D02*
X84500000Y-55864227D01*
X84500000Y-55864227D02*
X84700000Y-55864227D01*
X83433333Y-55864227D02*
X83566667Y-55797561D01*
X83566667Y-55797561D02*
X83633333Y-55730894D01*
X83633333Y-55730894D02*
X83700000Y-55597561D01*
X83700000Y-55597561D02*
X83700000Y-55197561D01*
X83700000Y-55197561D02*
X83633333Y-55064227D01*
X83633333Y-55064227D02*
X83566667Y-54997561D01*
X83566667Y-54997561D02*
X83433333Y-54930894D01*
X83433333Y-54930894D02*
X83233333Y-54930894D01*
X83233333Y-54930894D02*
X83100000Y-54997561D01*
X83100000Y-54997561D02*
X83033333Y-55064227D01*
X83033333Y-55064227D02*
X82966667Y-55197561D01*
X82966667Y-55197561D02*
X82966667Y-55597561D01*
X82966667Y-55597561D02*
X83033333Y-55730894D01*
X83033333Y-55730894D02*
X83100000Y-55797561D01*
X83100000Y-55797561D02*
X83233333Y-55864227D01*
X83233333Y-55864227D02*
X83433333Y-55864227D01*
X82566666Y-54930894D02*
X82033333Y-54930894D01*
X82366666Y-55864227D02*
X82366666Y-54664227D01*
X82366666Y-54664227D02*
X82300000Y-54530894D01*
X82300000Y-54530894D02*
X82166666Y-54464227D01*
X82166666Y-54464227D02*
X82033333Y-54464227D01*
X79833333Y-55864227D02*
X80499999Y-55864227D01*
X80499999Y-55864227D02*
X80499999Y-54464227D01*
X78566666Y-55730894D02*
X78633333Y-55797561D01*
X78633333Y-55797561D02*
X78833333Y-55864227D01*
X78833333Y-55864227D02*
X78966666Y-55864227D01*
X78966666Y-55864227D02*
X79166666Y-55797561D01*
X79166666Y-55797561D02*
X79300000Y-55664227D01*
X79300000Y-55664227D02*
X79366666Y-55530894D01*
X79366666Y-55530894D02*
X79433333Y-55264227D01*
X79433333Y-55264227D02*
X79433333Y-55064227D01*
X79433333Y-55064227D02*
X79366666Y-54797561D01*
X79366666Y-54797561D02*
X79300000Y-54664227D01*
X79300000Y-54664227D02*
X79166666Y-54530894D01*
X79166666Y-54530894D02*
X78966666Y-54464227D01*
X78966666Y-54464227D02*
X78833333Y-54464227D01*
X78833333Y-54464227D02*
X78633333Y-54530894D01*
X78633333Y-54530894D02*
X78566666Y-54597561D01*
X77966666Y-55864227D02*
X77966666Y-54464227D01*
X77966666Y-54464227D02*
X77633333Y-54464227D01*
X77633333Y-54464227D02*
X77433333Y-54530894D01*
X77433333Y-54530894D02*
X77300000Y-54664227D01*
X77300000Y-54664227D02*
X77233333Y-54797561D01*
X77233333Y-54797561D02*
X77166666Y-55064227D01*
X77166666Y-55064227D02*
X77166666Y-55264227D01*
X77166666Y-55264227D02*
X77233333Y-55530894D01*
X77233333Y-55530894D02*
X77300000Y-55664227D01*
X77300000Y-55664227D02*
X77433333Y-55797561D01*
X77433333Y-55797561D02*
X77633333Y-55864227D01*
X77633333Y-55864227D02*
X77966666Y-55864227D01*
X74699999Y-55864227D02*
X75166666Y-55197561D01*
X75499999Y-55864227D02*
X75499999Y-54464227D01*
X75499999Y-54464227D02*
X74966666Y-54464227D01*
X74966666Y-54464227D02*
X74833333Y-54530894D01*
X74833333Y-54530894D02*
X74766666Y-54597561D01*
X74766666Y-54597561D02*
X74699999Y-54730894D01*
X74699999Y-54730894D02*
X74699999Y-54930894D01*
X74699999Y-54930894D02*
X74766666Y-55064227D01*
X74766666Y-55064227D02*
X74833333Y-55130894D01*
X74833333Y-55130894D02*
X74966666Y-55197561D01*
X74966666Y-55197561D02*
X75499999Y-55197561D01*
X74099999Y-55864227D02*
X74099999Y-54930894D01*
X74099999Y-54464227D02*
X74166666Y-54530894D01*
X74166666Y-54530894D02*
X74099999Y-54597561D01*
X74099999Y-54597561D02*
X74033333Y-54530894D01*
X74033333Y-54530894D02*
X74099999Y-54464227D01*
X74099999Y-54464227D02*
X74099999Y-54597561D01*
X73499999Y-55797561D02*
X73366666Y-55864227D01*
X73366666Y-55864227D02*
X73099999Y-55864227D01*
X73099999Y-55864227D02*
X72966666Y-55797561D01*
X72966666Y-55797561D02*
X72899999Y-55664227D01*
X72899999Y-55664227D02*
X72899999Y-55597561D01*
X72899999Y-55597561D02*
X72966666Y-55464227D01*
X72966666Y-55464227D02*
X73099999Y-55397561D01*
X73099999Y-55397561D02*
X73299999Y-55397561D01*
X73299999Y-55397561D02*
X73433332Y-55330894D01*
X73433332Y-55330894D02*
X73499999Y-55197561D01*
X73499999Y-55197561D02*
X73499999Y-55130894D01*
X73499999Y-55130894D02*
X73433332Y-54997561D01*
X73433332Y-54997561D02*
X73299999Y-54930894D01*
X73299999Y-54930894D02*
X73099999Y-54930894D01*
X73099999Y-54930894D02*
X72966666Y-54997561D01*
X71766666Y-55797561D02*
X71899999Y-55864227D01*
X71899999Y-55864227D02*
X72166666Y-55864227D01*
X72166666Y-55864227D02*
X72299999Y-55797561D01*
X72299999Y-55797561D02*
X72366666Y-55664227D01*
X72366666Y-55664227D02*
X72366666Y-55130894D01*
X72366666Y-55130894D02*
X72299999Y-54997561D01*
X72299999Y-54997561D02*
X72166666Y-54930894D01*
X72166666Y-54930894D02*
X71899999Y-54930894D01*
X71899999Y-54930894D02*
X71766666Y-54997561D01*
X71766666Y-54997561D02*
X71699999Y-55130894D01*
X71699999Y-55130894D02*
X71699999Y-55264227D01*
X71699999Y-55264227D02*
X72366666Y-55397561D01*
X71099999Y-55864227D02*
X71099999Y-54930894D01*
X71099999Y-55197561D02*
X71033333Y-55064227D01*
X71033333Y-55064227D02*
X70966666Y-54997561D01*
X70966666Y-54997561D02*
X70833333Y-54930894D01*
X70833333Y-54930894D02*
X70699999Y-54930894D01*
X69299999Y-54930894D02*
X68966665Y-55864227D01*
X68966665Y-55864227D02*
X68633332Y-54930894D01*
X67366665Y-55864227D02*
X68166665Y-55864227D01*
X67766665Y-55864227D02*
X67766665Y-54464227D01*
X67766665Y-54464227D02*
X67899998Y-54664227D01*
X67899998Y-54664227D02*
X68033332Y-54797561D01*
X68033332Y-54797561D02*
X68166665Y-54864227D01*
X66766665Y-55730894D02*
X66699999Y-55797561D01*
X66699999Y-55797561D02*
X66766665Y-55864227D01*
X66766665Y-55864227D02*
X66833332Y-55797561D01*
X66833332Y-55797561D02*
X66766665Y-55730894D01*
X66766665Y-55730894D02*
X66766665Y-55864227D01*
X65833332Y-54464227D02*
X65699998Y-54464227D01*
X65699998Y-54464227D02*
X65566665Y-54530894D01*
X65566665Y-54530894D02*
X65499998Y-54597561D01*
X65499998Y-54597561D02*
X65433332Y-54730894D01*
X65433332Y-54730894D02*
X65366665Y-54997561D01*
X65366665Y-54997561D02*
X65366665Y-55330894D01*
X65366665Y-55330894D02*
X65433332Y-55597561D01*
X65433332Y-55597561D02*
X65499998Y-55730894D01*
X65499998Y-55730894D02*
X65566665Y-55797561D01*
X65566665Y-55797561D02*
X65699998Y-55864227D01*
X65699998Y-55864227D02*
X65833332Y-55864227D01*
X65833332Y-55864227D02*
X65966665Y-55797561D01*
X65966665Y-55797561D02*
X66033332Y-55730894D01*
X66033332Y-55730894D02*
X66099998Y-55597561D01*
X66099998Y-55597561D02*
X66166665Y-55330894D01*
X66166665Y-55330894D02*
X66166665Y-54997561D01*
X66166665Y-54997561D02*
X66099998Y-54730894D01*
X66099998Y-54730894D02*
X66033332Y-54597561D01*
X66033332Y-54597561D02*
X65966665Y-54530894D01*
X65966665Y-54530894D02*
X65833332Y-54464227D01*
D12*
X73072306Y-66072419D02*
X73643734Y-66072419D01*
X73358020Y-66072419D02*
X73358020Y-65072419D01*
X73358020Y-65072419D02*
X73453258Y-65215276D01*
X73453258Y-65215276D02*
X73548496Y-65310514D01*
X73548496Y-65310514D02*
X73643734Y-65358133D01*
X72691353Y-65167657D02*
X72643734Y-65120038D01*
X72643734Y-65120038D02*
X72548496Y-65072419D01*
X72548496Y-65072419D02*
X72310401Y-65072419D01*
X72310401Y-65072419D02*
X72215163Y-65120038D01*
X72215163Y-65120038D02*
X72167544Y-65167657D01*
X72167544Y-65167657D02*
X72119925Y-65262895D01*
X72119925Y-65262895D02*
X72119925Y-65358133D01*
X72119925Y-65358133D02*
X72167544Y-65500990D01*
X72167544Y-65500990D02*
X72738972Y-66072419D01*
X72738972Y-66072419D02*
X72119925Y-66072419D01*
X80172306Y-66072419D02*
X80743734Y-66072419D01*
X80458020Y-66072419D02*
X80458020Y-65072419D01*
X80458020Y-65072419D02*
X80553258Y-65215276D01*
X80553258Y-65215276D02*
X80648496Y-65310514D01*
X80648496Y-65310514D02*
X80743734Y-65358133D01*
D10*
X94333333Y-71124819D02*
X94333333Y-71839104D01*
X94333333Y-71839104D02*
X94380952Y-71981961D01*
X94380952Y-71981961D02*
X94476190Y-72077200D01*
X94476190Y-72077200D02*
X94619047Y-72124819D01*
X94619047Y-72124819D02*
X94714285Y-72124819D01*
X93428571Y-71458152D02*
X93428571Y-72124819D01*
X93666666Y-71077200D02*
X93904761Y-71791485D01*
X93904761Y-71791485D02*
X93285714Y-71791485D01*
X94333333Y-40124819D02*
X94333333Y-40839104D01*
X94333333Y-40839104D02*
X94380952Y-40981961D01*
X94380952Y-40981961D02*
X94476190Y-41077200D01*
X94476190Y-41077200D02*
X94619047Y-41124819D01*
X94619047Y-41124819D02*
X94714285Y-41124819D01*
X93904761Y-40220057D02*
X93857142Y-40172438D01*
X93857142Y-40172438D02*
X93761904Y-40124819D01*
X93761904Y-40124819D02*
X93523809Y-40124819D01*
X93523809Y-40124819D02*
X93428571Y-40172438D01*
X93428571Y-40172438D02*
X93380952Y-40220057D01*
X93380952Y-40220057D02*
X93333333Y-40315295D01*
X93333333Y-40315295D02*
X93333333Y-40410533D01*
X93333333Y-40410533D02*
X93380952Y-40553390D01*
X93380952Y-40553390D02*
X93952380Y-41124819D01*
X93952380Y-41124819D02*
X93333333Y-41124819D01*
X61333333Y-40124819D02*
X61333333Y-40839104D01*
X61333333Y-40839104D02*
X61380952Y-40981961D01*
X61380952Y-40981961D02*
X61476190Y-41077200D01*
X61476190Y-41077200D02*
X61619047Y-41124819D01*
X61619047Y-41124819D02*
X61714285Y-41124819D01*
X60333333Y-41124819D02*
X60904761Y-41124819D01*
X60619047Y-41124819D02*
X60619047Y-40124819D01*
X60619047Y-40124819D02*
X60714285Y-40267676D01*
X60714285Y-40267676D02*
X60809523Y-40362914D01*
X60809523Y-40362914D02*
X60904761Y-40410533D01*
X61333333Y-71124819D02*
X61333333Y-71839104D01*
X61333333Y-71839104D02*
X61380952Y-71981961D01*
X61380952Y-71981961D02*
X61476190Y-72077200D01*
X61476190Y-72077200D02*
X61619047Y-72124819D01*
X61619047Y-72124819D02*
X61714285Y-72124819D01*
X60952380Y-71124819D02*
X60333333Y-71124819D01*
X60333333Y-71124819D02*
X60666666Y-71505771D01*
X60666666Y-71505771D02*
X60523809Y-71505771D01*
X60523809Y-71505771D02*
X60428571Y-71553390D01*
X60428571Y-71553390D02*
X60380952Y-71601009D01*
X60380952Y-71601009D02*
X60333333Y-71696247D01*
X60333333Y-71696247D02*
X60333333Y-71934342D01*
X60333333Y-71934342D02*
X60380952Y-72029580D01*
X60380952Y-72029580D02*
X60428571Y-72077200D01*
X60428571Y-72077200D02*
X60523809Y-72124819D01*
X60523809Y-72124819D02*
X60809523Y-72124819D01*
X60809523Y-72124819D02*
X60904761Y-72077200D01*
X60904761Y-72077200D02*
X60952380Y-72029580D01*
D13*
%TO.C,J4*%
X92670000Y-75270000D02*
X95330000Y-75270000D01*
X92670000Y-77870000D02*
X92670000Y-75270000D01*
X92670000Y-77870000D02*
X95330000Y-77870000D01*
X94000000Y-72670000D02*
X95330000Y-72670000D01*
X95330000Y-72670000D02*
X95330000Y-74000000D01*
X95330000Y-77870000D02*
X95330000Y-75270000D01*
%TO.C,J2*%
X92670000Y-44270000D02*
X95330000Y-44270000D01*
X92670000Y-46870000D02*
X92670000Y-44270000D01*
X92670000Y-46870000D02*
X95330000Y-46870000D01*
X94000000Y-41670000D02*
X95330000Y-41670000D01*
X95330000Y-41670000D02*
X95330000Y-43000000D01*
X95330000Y-46870000D02*
X95330000Y-44270000D01*
%TO.C,J1*%
X59670000Y-44270000D02*
X62330000Y-44270000D01*
X59670000Y-46870000D02*
X59670000Y-44270000D01*
X59670000Y-46870000D02*
X62330000Y-46870000D01*
X61000000Y-41670000D02*
X62330000Y-41670000D01*
X62330000Y-41670000D02*
X62330000Y-43000000D01*
X62330000Y-46870000D02*
X62330000Y-44270000D01*
%TO.C,J3*%
X59670000Y-75270000D02*
X62330000Y-75270000D01*
X59670000Y-77870000D02*
X59670000Y-75270000D01*
X59670000Y-77870000D02*
X62330000Y-77870000D01*
X61000000Y-72670000D02*
X62330000Y-72670000D01*
X62330000Y-72670000D02*
X62330000Y-74000000D01*
X62330000Y-77870000D02*
X62330000Y-75270000D01*
%TD*%
M02*
