%TF.GenerationSoftware,KiCad,Pcbnew,8.0.1*%
%TF.CreationDate,2024-04-24T15:21:32+01:00*%
%TF.ProjectId,Kishoof_screen,4b697368-6f6f-4665-9f73-637265656e2e,rev?*%
%TF.SameCoordinates,Original*%
%TF.FileFunction,Legend,Top*%
%TF.FilePolarity,Positive*%
%FSLAX46Y46*%
G04 Gerber Fmt 4.6, Leading zero omitted, Abs format (unit mm)*
G04 Created by KiCad (PCBNEW 8.0.1) date 2024-04-24 15:21:32*
%MOMM*%
%LPD*%
G01*
G04 APERTURE LIST*
%ADD10C,0.050000*%
%ADD11C,0.100000*%
%ADD12C,0.120000*%
G04 APERTURE END LIST*
D10*
X95100000Y-58300000D02*
G75*
G02*
X59500000Y-58300000I-17800000J0D01*
G01*
X59500000Y-58300000D02*
G75*
G02*
X95100000Y-58300000I17800000J0D01*
G01*
D11*
X90989598Y-42272419D02*
X90989598Y-42986704D01*
X90989598Y-42986704D02*
X90941979Y-43129561D01*
X90941979Y-43129561D02*
X90846741Y-43224800D01*
X90846741Y-43224800D02*
X90703884Y-43272419D01*
X90703884Y-43272419D02*
X90608646Y-43272419D01*
X91418170Y-42367657D02*
X91465789Y-42320038D01*
X91465789Y-42320038D02*
X91561027Y-42272419D01*
X91561027Y-42272419D02*
X91799122Y-42272419D01*
X91799122Y-42272419D02*
X91894360Y-42320038D01*
X91894360Y-42320038D02*
X91941979Y-42367657D01*
X91941979Y-42367657D02*
X91989598Y-42462895D01*
X91989598Y-42462895D02*
X91989598Y-42558133D01*
X91989598Y-42558133D02*
X91941979Y-42700990D01*
X91941979Y-42700990D02*
X91370551Y-43272419D01*
X91370551Y-43272419D02*
X91989598Y-43272419D01*
X60489598Y-71072419D02*
X60489598Y-71786704D01*
X60489598Y-71786704D02*
X60441979Y-71929561D01*
X60441979Y-71929561D02*
X60346741Y-72024800D01*
X60346741Y-72024800D02*
X60203884Y-72072419D01*
X60203884Y-72072419D02*
X60108646Y-72072419D01*
X60870551Y-71072419D02*
X61489598Y-71072419D01*
X61489598Y-71072419D02*
X61156265Y-71453371D01*
X61156265Y-71453371D02*
X61299122Y-71453371D01*
X61299122Y-71453371D02*
X61394360Y-71500990D01*
X61394360Y-71500990D02*
X61441979Y-71548609D01*
X61441979Y-71548609D02*
X61489598Y-71643847D01*
X61489598Y-71643847D02*
X61489598Y-71881942D01*
X61489598Y-71881942D02*
X61441979Y-71977180D01*
X61441979Y-71977180D02*
X61394360Y-72024800D01*
X61394360Y-72024800D02*
X61299122Y-72072419D01*
X61299122Y-72072419D02*
X61013408Y-72072419D01*
X61013408Y-72072419D02*
X60918170Y-72024800D01*
X60918170Y-72024800D02*
X60870551Y-71977180D01*
X93689598Y-71072419D02*
X93689598Y-71786704D01*
X93689598Y-71786704D02*
X93641979Y-71929561D01*
X93641979Y-71929561D02*
X93546741Y-72024800D01*
X93546741Y-72024800D02*
X93403884Y-72072419D01*
X93403884Y-72072419D02*
X93308646Y-72072419D01*
X94594360Y-71405752D02*
X94594360Y-72072419D01*
X94356265Y-71024800D02*
X94118170Y-71739085D01*
X94118170Y-71739085D02*
X94737217Y-71739085D01*
X63389598Y-42272419D02*
X63389598Y-42986704D01*
X63389598Y-42986704D02*
X63341979Y-43129561D01*
X63341979Y-43129561D02*
X63246741Y-43224800D01*
X63246741Y-43224800D02*
X63103884Y-43272419D01*
X63103884Y-43272419D02*
X63008646Y-43272419D01*
X64389598Y-43272419D02*
X63818170Y-43272419D01*
X64103884Y-43272419D02*
X64103884Y-42272419D01*
X64103884Y-42272419D02*
X64008646Y-42415276D01*
X64008646Y-42415276D02*
X63913408Y-42510514D01*
X63913408Y-42510514D02*
X63818170Y-42558133D01*
D12*
%TO.C,REF\u002A\u002A*%
X78714214Y-58300000D02*
G75*
G02*
X75885786Y-58300000I-1414214J0D01*
G01*
X75885786Y-58300000D02*
G75*
G02*
X78714214Y-58300000I1414214J0D01*
G01*
%TD*%
M02*
