M48
; DRILL file {KiCad 8.0.1} date 2024-04-09T18:56:45+0100
; FORMAT={-:-/ absolute / inch / decimal}
; #@! TF.CreationDate,2024-04-09T18:56:45+01:00
; #@! TF.GenerationSoftware,Kicad,Pcbnew,8.0.1
; #@! TF.FileFunction,Plated,1,4,PTH
FMAT,2
INCH
; #@! TA.AperFunction,Plated,PTH,ViaDrill
T1C0.0157
; #@! TA.AperFunction,Plated,PTH,ViaDrill
T2C0.0197
; #@! TA.AperFunction,Plated,PTH,ComponentDrill
T3C0.0197
; #@! TA.AperFunction,Plated,PTH,ComponentDrill
T4C0.0236
; #@! TA.AperFunction,Plated,PTH,ComponentDrill
T5C0.0354
; #@! TA.AperFunction,Plated,PTH,ComponentDrill
T6C0.0394
; #@! TA.AperFunction,Plated,PTH,ComponentDrill
T7C0.0433
; #@! TA.AperFunction,Plated,PTH,ComponentDrill
T8C0.0512
; #@! TA.AperFunction,Plated,PTH,ComponentDrill
T9C0.0728
; #@! TA.AperFunction,Plated,PTH,ComponentDrill
T10C0.0984
%
G90
G05
T1
X2.2087Y-5.4764
X2.2126Y-2.0945
X2.2126Y-2.1949
X2.2126Y-2.2953
X2.2126Y-2.3957
X2.2126Y-2.4961
X2.2126Y-2.5965
X2.2126Y-2.6969
X2.2402Y-5.0984
X2.2441Y-5.0433
X2.2579Y-5.5669
X2.2638Y-1.9961
X2.2756Y-5.0
X2.2795Y-4.9449
X2.2992Y-1.6969
X2.3031Y-1.7992
X2.3031Y-4.8346
X2.315Y-2.4094
X2.3228Y-2.6398
X2.3228Y-2.6772
X2.3297Y-3.6142
X2.3297Y-3.2534
X2.3346Y-4.9528
X2.378Y-1.622
X2.3819Y-2.2992
X2.3819Y-2.3425
X2.3851Y-5.4466
X2.3898Y-2.1417
X2.3976Y-2.5315
X2.3976Y-5.5315
X2.3976Y-5.6496
X2.3991Y-2.4621
X2.4035Y-5.5748
X2.4331Y-5.4764
X2.4409Y-3.2835
X2.4462Y-2.2985
X2.4764Y-5.1969
X2.5039Y-3.4961
X2.5157Y-2.4567
X2.5288Y-2.6679
X2.5709Y-3.2323
X2.5827Y-3.3701
X2.5906Y-2.185
X2.6102Y-5.5236
X2.622Y-2.311
X2.622Y-3.5866
X2.6496Y-2.5384
X2.6535Y-2.2441
X2.6654Y-2.4646
X2.6654Y-3.2835
X2.6772Y-1.8583
X2.6811Y-2.4173
X2.685Y-2.5669
X2.689Y-2.5079
X2.7126Y-2.2323
X2.7323Y-3.5748
X2.752Y-1.7638
X2.7717Y-2.311
X2.811Y-3.3858
X2.8346Y-3.622
X2.874Y-2.9409
X2.9134Y-3.0354
X2.9252Y-2.311
X2.9291Y-2.5945
X2.9449Y-2.685
X2.9567Y-2.4803
X2.9606Y-3.1378
X2.9705Y-3.4154
X2.9736Y-3.1929
X2.9764Y-2.3031
X2.9803Y-2.0731
X2.9803Y-2.5827
X2.9843Y-3.4606
X3.0079Y-2.4606
X3.0118Y-2.3425
X3.0305Y-3.45
X3.063Y-2.0236
X3.0827Y-4.1929
X3.0827Y-5.0512
X3.0866Y-2.3228
X3.0945Y-3.4213
X3.0965Y-2.6437
X3.126Y-3.7323
X3.1378Y-2.6142
X3.1457Y-3.3976
X3.1496Y-3.3228
X3.1614Y-2.0709
X3.1654Y-3.689
X3.1772Y-2.7717
X3.2008Y-2.3189
X3.2008Y-3.5433
X3.2126Y-3.3268
X3.2205Y-2.7165
X3.2283Y-3.1811
X3.2756Y-2.5827
X3.2874Y-2.3504
X3.2874Y-2.6339
X3.2874Y-3.5474
X3.3071Y-2.1614
X3.311Y-2.5236
X3.3228Y-3.0906
X3.3346Y-2.7559
X3.3622Y-2.4291
X3.3701Y-2.5512
X3.378Y-2.6929
X3.3819Y-2.6496
X3.4055Y-2.937
X3.437Y-2.2283
X3.437Y-3.0079
X3.4409Y-2.8543
X3.4567Y-3.1339
X3.4961Y-3.185
X3.5079Y-2.1181
X3.5194Y-2.611
X3.5335Y-2.7274
X3.5453Y-2.8071
X3.5758Y-2.4409
X3.5984Y-2.2244
X3.6181Y-3.4252
X3.6339Y-2.3543
X3.6339Y-2.8228
X3.7047Y-1.7008
X3.7165Y-2.7795
X3.7598Y-3.437
X3.7756Y-1.8937
X3.8071Y-2.6811
X3.8504Y-2.5276
X3.878Y-5.378
X3.9252Y-2.5748
X3.937Y-4.9843
X3.9646Y-4.7992
X3.9843Y-1.8504
X4.0394Y-1.7638
X4.063Y-4.2559
X4.063Y-4.9291
X4.0866Y-3.3583
X4.0906Y-3.437
X4.185Y-2.2087
X4.189Y-2.374
X4.2244Y-3.4291
X4.248Y-2.437
X4.2835Y-3.0039
X4.4016Y-2.8976
T2
X2.2618Y-2.5118
X2.6142Y-1.624
X3.0669Y-5.0
X4.7953Y-1.9843
T5
X3.8071Y-4.1969
X3.9071Y-4.1969
T6
X2.378Y-1.6969
X2.378Y-1.7969
X2.378Y-2.9173
X2.378Y-3.0173
X2.5Y-4.7441
X2.5039Y-2.8102
X2.5039Y-2.9102
X2.5039Y-3.0102
X2.5039Y-3.1102
X2.5123Y-4.0354
X2.5984Y-4.7441
X2.5994Y-2.063
X2.6107Y-4.0354
X2.6969Y-4.7441
X2.6994Y-2.063
X2.7092Y-4.0354
X3.0685Y-1.714
X3.0685Y-1.814
X3.1685Y-1.714
X3.1685Y-1.814
X3.2685Y-1.714
X3.2685Y-1.814
X3.3685Y-1.714
X3.3685Y-1.814
X3.4685Y-1.714
X3.4685Y-1.814
X3.4843Y-4.0394
X3.5827Y-4.0394
X3.6811Y-4.0394
X3.7953Y-1.6969
X3.7953Y-1.7969
X3.7953Y-2.9173
X3.7953Y-3.0173
X4.4291Y-3.189
X4.4291Y-3.7598
X4.4291Y-4.626
X4.4291Y-5.2559
X4.5276Y-3.7598
X4.5276Y-4.626
X4.5276Y-5.2559
X4.626Y-3.189
X4.626Y-3.7598
X4.626Y-4.626
X4.626Y-5.2559
X4.7362Y-3.0591
T7
X3.7303Y-4.3602
X3.7303Y-4.5374
X3.9862Y-4.3602
X3.9862Y-4.5374
X4.2717Y-1.6535
X4.2717Y-2.2244
X4.3701Y-2.2244
X4.4685Y-1.6535
X4.4685Y-2.2244
T8
X2.248Y-1.6181
X2.5118Y-1.6201
X4.4291Y-3.0591
X4.5827Y-3.0591
X4.6969Y-1.6457
X4.8307Y-5.6063
X4.874Y-1.6457
T9
X3.189Y-4.2638
X3.189Y-4.4488
X3.189Y-4.6339
X4.0551Y-2.4528
X4.0551Y-2.6378
X4.0551Y-2.8228
X4.6063Y-2.4528
X4.6063Y-2.6378
X4.6063Y-2.8228
T10
X4.126Y-1.9291
X4.6142Y-1.9291
T3
G00X2.5787Y-4.8457
M15
G01X2.6181Y-4.8457
M16
G05
G00X2.5787Y-5.1724
M15
G01X2.6181Y-5.1724
M16
G05
G00X2.5787Y-5.2945
M15
G01X2.6181Y-5.2945
M16
G05
G00X2.815Y-5.3575
M15
G01X2.8543Y-5.3575
M16
G05
G00X2.815Y-5.6843
M15
G01X2.8543Y-5.6843
M16
G05
G00X2.815Y-5.8063
M15
G01X2.8543Y-5.8063
M16
G05
G00X3.2087Y-5.3575
M15
G01X3.248Y-5.3575
M16
G05
G00X3.2087Y-5.6843
M15
G01X3.248Y-5.6843
M16
G05
G00X3.2087Y-5.8063
M15
G01X3.248Y-5.8063
M16
G05
G00X3.563Y-4.8457
M15
G01X3.6024Y-4.8457
M16
G05
G00X3.563Y-5.1724
M15
G01X3.6024Y-5.1724
M16
G05
G00X3.563Y-5.2945
M15
G01X3.6024Y-5.2945
M16
G05
G00X3.6811Y-5.3575
M15
G01X3.7205Y-5.3575
M16
G05
G00X3.6811Y-5.6843
M15
G01X3.7205Y-5.6843
M16
G05
G00X3.6811Y-5.8063
M15
G01X3.7205Y-5.8063
M16
G05
G00X4.0945Y-5.3575
M15
G01X4.1339Y-5.3575
M16
G05
G00X4.0945Y-5.6843
M15
G01X4.1339Y-5.6843
M16
G05
G00X4.0945Y-5.8063
M15
G01X4.1339Y-5.8063
M16
G05
G00X4.5079Y-5.3575
M15
G01X4.5472Y-5.3575
M16
G05
G00X4.5079Y-5.6843
M15
G01X4.5472Y-5.6843
M16
G05
G00X4.5079Y-5.8063
M15
G01X4.5472Y-5.8063
M16
G05
T4
G00X2.2807Y-5.3996
M15
G01X2.2807Y-5.3799
M16
G05
G00X2.2807Y-5.7224
M15
G01X2.2807Y-5.7028
M16
G05
G00X2.5224Y-5.3996
M15
G01X2.5224Y-5.3799
M16
G05
G00X2.5224Y-5.7224
M15
G01X2.5224Y-5.7028
M16
G05
M30
