%TF.GenerationSoftware,KiCad,Pcbnew,8.0.1*%
%TF.CreationDate,2024-04-09T18:56:42+01:00*%
%TF.ProjectId,Kishoof_Components,4b697368-6f6f-4665-9f43-6f6d706f6e65,rev?*%
%TF.SameCoordinates,Original*%
%TF.FileFunction,Soldermask,Top*%
%TF.FilePolarity,Negative*%
%FSLAX46Y46*%
G04 Gerber Fmt 4.6, Leading zero omitted, Abs format (unit mm)*
G04 Created by KiCad (PCBNEW 8.0.1) date 2024-04-09 18:56:42*
%MOMM*%
%LPD*%
G01*
G04 APERTURE LIST*
%ADD10C,2.500000*%
%ADD11R,2.500000X1.000000*%
%ADD12O,0.400000X0.600000*%
%ADD13R,1.400000X0.270000*%
%ADD14O,1.000000X1.500000*%
%ADD15R,1.800000X1.800000*%
%ADD16C,1.800000*%
%ADD17C,1.750000*%
%ADD18O,4.000000X4.000000*%
%ADD19C,3.500000*%
%ADD20C,2.000000*%
%ADD21C,3.000000*%
%ADD22R,1.700000X1.700000*%
%ADD23O,1.700000X1.700000*%
%ADD24C,1.700000*%
%ADD25R,2.775000X2.775000*%
%ADD26C,2.775000*%
G04 APERTURE END LIST*
D10*
%TO.C,J7*%
X94000000Y-141000000D03*
D11*
X94000000Y-147480000D03*
X94000000Y-144380000D03*
X94000000Y-136080000D03*
%TD*%
D12*
%TO.C,J10*%
X61000000Y-144775000D03*
X61000000Y-137225000D03*
D13*
X58700000Y-143750000D03*
X58700000Y-143250000D03*
X58700000Y-142750000D03*
X58700000Y-142250000D03*
X58700000Y-141750000D03*
X58700000Y-141250000D03*
X58700000Y-140750000D03*
X58700000Y-140250000D03*
X58700000Y-139750000D03*
X58700000Y-139250000D03*
X58700000Y-138750000D03*
X58700000Y-138250000D03*
X63300000Y-138250000D03*
X63300000Y-138750000D03*
X63300000Y-139250000D03*
X63300000Y-139750000D03*
X63300000Y-140250000D03*
X63300000Y-140750000D03*
X63300000Y-141250000D03*
X63300000Y-141750000D03*
X63300000Y-142250000D03*
X63300000Y-142750000D03*
X63300000Y-143250000D03*
X63300000Y-143750000D03*
D14*
X57930000Y-145100000D03*
X64070000Y-145100000D03*
X57930000Y-136900000D03*
X64070000Y-136900000D03*
%TD*%
D10*
%TO.C,J9*%
X82000000Y-141000000D03*
D11*
X82000000Y-147480000D03*
X82000000Y-144380000D03*
X82000000Y-136080000D03*
%TD*%
D10*
%TO.C,J5*%
X115000000Y-141000000D03*
D11*
X115000000Y-147480000D03*
X115000000Y-144380000D03*
X115000000Y-136080000D03*
%TD*%
D15*
%TO.C,D4*%
X96700000Y-106600000D03*
D16*
X99240000Y-106600000D03*
%TD*%
D17*
%TO.C,SW5*%
X108500000Y-56500000D03*
X113500000Y-56500000D03*
X111000000Y-56500000D03*
X108500000Y-42000000D03*
X113500000Y-42000000D03*
D18*
X104800000Y-49000000D03*
X117200000Y-49000000D03*
%TD*%
D19*
%TO.C,WarpType1*%
X110600000Y-88500000D03*
X119400000Y-88500000D03*
D16*
X117500000Y-95500000D03*
X115000000Y-95500000D03*
X112500000Y-95500000D03*
X112500000Y-81000000D03*
X117500000Y-81000000D03*
%TD*%
D10*
%TO.C,J6*%
X104500000Y-141000000D03*
D11*
X104500000Y-147480000D03*
X104500000Y-144380000D03*
X104500000Y-136080000D03*
%TD*%
D19*
%TO.C,WavetableBPot1*%
X86600000Y-95600000D03*
X95400000Y-95600000D03*
D16*
X93500000Y-102600000D03*
X91000000Y-102600000D03*
X88500000Y-102600000D03*
%TD*%
D19*
%TO.C,WarpAmtTrm1*%
X110600000Y-126500000D03*
X119400000Y-126500000D03*
D16*
X117500000Y-133500000D03*
X115000000Y-133500000D03*
X112500000Y-133500000D03*
%TD*%
D10*
%TO.C,J8*%
X72000000Y-141000000D03*
D11*
X72000000Y-147480000D03*
X72000000Y-144380000D03*
X72000000Y-136080000D03*
%TD*%
D20*
%TO.C,SW1*%
X94750000Y-110750000D03*
X101250000Y-110750000D03*
X94750000Y-115250000D03*
X101250000Y-115250000D03*
%TD*%
D21*
%TO.C,SW2*%
X117000000Y-71700000D03*
X117000000Y-67000000D03*
X117000000Y-62300000D03*
%TD*%
D10*
%TO.C,J3*%
X66000000Y-128000000D03*
D11*
X66000000Y-134480000D03*
X66000000Y-131380000D03*
X66000000Y-123080000D03*
%TD*%
D22*
%TO.C,U10*%
X60400000Y-43100000D03*
D23*
X60400000Y-45640000D03*
D24*
X96400000Y-43100000D03*
D23*
X96400000Y-45640000D03*
X60400000Y-74100000D03*
X60400000Y-76640000D03*
X96400000Y-74100000D03*
X96400000Y-76640000D03*
%TD*%
D19*
%TO.C,WavetableATrm1*%
X61600000Y-113500000D03*
X70400000Y-113500000D03*
D16*
X68500000Y-120500000D03*
X66000000Y-120500000D03*
X63500000Y-120500000D03*
%TD*%
D19*
%TO.C,WavetableAPot1*%
X61912500Y-95500000D03*
X70712500Y-95500000D03*
D16*
X68812500Y-102500000D03*
X66312500Y-102500000D03*
X63812500Y-102500000D03*
%TD*%
D25*
%TO.C,SW4*%
X81000000Y-117700000D03*
D26*
X81000000Y-113000000D03*
X81000000Y-108300000D03*
%TD*%
D10*
%TO.C,J4*%
X91000000Y-128000000D03*
D11*
X91000000Y-134480000D03*
X91000000Y-131380000D03*
X91000000Y-123080000D03*
%TD*%
D19*
%TO.C,WarpAmtPot1*%
X110600000Y-110500000D03*
X119400000Y-110500000D03*
D16*
X117500000Y-117500000D03*
X115000000Y-117500000D03*
X112500000Y-117500000D03*
%TD*%
D25*
%TO.C,SW3*%
X103000000Y-71700000D03*
D26*
X103000000Y-67000000D03*
X103000000Y-62300000D03*
%TD*%
D20*
%TO.C,TP8*%
X57100000Y-41100000D03*
%TD*%
%TO.C,TP6*%
X112500000Y-77700000D03*
%TD*%
D22*
%TO.C,J12*%
X120300000Y-77700000D03*
%TD*%
D20*
%TO.C,TP5*%
X116400000Y-77700000D03*
%TD*%
%TO.C,TP2*%
X63800000Y-41150000D03*
%TD*%
%TO.C,TP3*%
X123800000Y-41800000D03*
%TD*%
%TO.C,TP7*%
X119300000Y-41800000D03*
%TD*%
D22*
%TO.C,J2*%
X88100000Y-46075000D03*
D24*
X88100000Y-43535000D03*
X85560000Y-46075000D03*
X85560000Y-43535000D03*
X83020000Y-46075000D03*
X83020000Y-43535000D03*
X80480000Y-46075000D03*
X80480000Y-43535000D03*
X77940000Y-46075000D03*
X77940000Y-43535000D03*
%TD*%
D22*
%TO.C,J11*%
X66025000Y-52400000D03*
D23*
X68565000Y-52400000D03*
%TD*%
D20*
%TO.C,TP4*%
X122700000Y-142400000D03*
%TD*%
D22*
%TO.C,J1*%
X63600000Y-79000000D03*
D24*
X63600000Y-76460000D03*
X63600000Y-73920000D03*
X63600000Y-71380000D03*
%TD*%
M02*
