%TF.GenerationSoftware,KiCad,Pcbnew,8.0.1*%
%TF.CreationDate,2024-04-09T18:56:42+01:00*%
%TF.ProjectId,Kishoof_Components,4b697368-6f6f-4665-9f43-6f6d706f6e65,rev?*%
%TF.SameCoordinates,Original*%
%TF.FileFunction,Soldermask,Bot*%
%TF.FilePolarity,Negative*%
%FSLAX46Y46*%
G04 Gerber Fmt 4.6, Leading zero omitted, Abs format (unit mm)*
G04 Created by KiCad (PCBNEW 8.0.1) date 2024-04-09 18:56:42*
%MOMM*%
%LPD*%
G01*
G04 APERTURE LIST*
G04 Aperture macros list*
%AMRoundRect*
0 Rectangle with rounded corners*
0 $1 Rounding radius*
0 $2 $3 $4 $5 $6 $7 $8 $9 X,Y pos of 4 corners*
0 Add a 4 corners polygon primitive as box body*
4,1,4,$2,$3,$4,$5,$6,$7,$8,$9,$2,$3,0*
0 Add four circle primitives for the rounded corners*
1,1,$1+$1,$2,$3*
1,1,$1+$1,$4,$5*
1,1,$1+$1,$6,$7*
1,1,$1+$1,$8,$9*
0 Add four rect primitives between the rounded corners*
20,1,$1+$1,$2,$3,$4,$5,0*
20,1,$1+$1,$4,$5,$6,$7,0*
20,1,$1+$1,$6,$7,$8,$9,0*
20,1,$1+$1,$8,$9,$2,$3,0*%
%AMFreePoly0*
4,1,19,0.500000,-0.750000,0.000000,-0.750000,0.000000,-0.744911,-0.071157,-0.744911,-0.207708,-0.704816,-0.327430,-0.627875,-0.420627,-0.520320,-0.479746,-0.390866,-0.500000,-0.250000,-0.500000,0.250000,-0.479746,0.390866,-0.420627,0.520320,-0.327430,0.627875,-0.207708,0.704816,-0.071157,0.744911,0.000000,0.744911,0.000000,0.750000,0.500000,0.750000,0.500000,-0.750000,0.500000,-0.750000,
$1*%
%AMFreePoly1*
4,1,19,0.000000,0.744911,0.071157,0.744911,0.207708,0.704816,0.327430,0.627875,0.420627,0.520320,0.479746,0.390866,0.500000,0.250000,0.500000,-0.250000,0.479746,-0.390866,0.420627,-0.520320,0.327430,-0.627875,0.207708,-0.704816,0.071157,-0.744911,0.000000,-0.744911,0.000000,-0.750000,-0.500000,-0.750000,-0.500000,0.750000,0.000000,0.750000,0.000000,0.744911,0.000000,0.744911,
$1*%
G04 Aperture macros list end*
%ADD10C,2.500000*%
%ADD11R,2.500000X1.000000*%
%ADD12O,0.400000X0.600000*%
%ADD13O,1.000000X1.500000*%
%ADD14R,1.800000X1.800000*%
%ADD15C,1.800000*%
%ADD16C,1.750000*%
%ADD17O,4.000000X4.000000*%
%ADD18C,3.500000*%
%ADD19C,2.000000*%
%ADD20C,3.000000*%
%ADD21R,1.700000X1.700000*%
%ADD22O,1.700000X1.700000*%
%ADD23C,1.700000*%
%ADD24R,2.775000X2.775000*%
%ADD25C,2.775000*%
%ADD26RoundRect,0.150000X-0.150000X0.587500X-0.150000X-0.587500X0.150000X-0.587500X0.150000X0.587500X0*%
%ADD27RoundRect,0.225000X-0.250000X0.225000X-0.250000X-0.225000X0.250000X-0.225000X0.250000X0.225000X0*%
%ADD28RoundRect,0.225000X-0.225000X-0.250000X0.225000X-0.250000X0.225000X0.250000X-0.225000X0.250000X0*%
%ADD29RoundRect,0.250000X-0.550000X1.050000X-0.550000X-1.050000X0.550000X-1.050000X0.550000X1.050000X0*%
%ADD30RoundRect,0.225000X0.225000X0.250000X-0.225000X0.250000X-0.225000X-0.250000X0.225000X-0.250000X0*%
%ADD31RoundRect,0.250000X0.650000X-0.325000X0.650000X0.325000X-0.650000X0.325000X-0.650000X-0.325000X0*%
%ADD32RoundRect,0.200000X0.200000X0.275000X-0.200000X0.275000X-0.200000X-0.275000X0.200000X-0.275000X0*%
%ADD33RoundRect,0.225000X0.250000X-0.225000X0.250000X0.225000X-0.250000X0.225000X-0.250000X-0.225000X0*%
%ADD34RoundRect,0.250000X0.550000X-1.050000X0.550000X1.050000X-0.550000X1.050000X-0.550000X-1.050000X0*%
%ADD35R,2.400000X1.900000*%
%ADD36RoundRect,0.200000X-0.200000X-0.275000X0.200000X-0.275000X0.200000X0.275000X-0.200000X0.275000X0*%
%ADD37RoundRect,0.162500X0.162500X-0.837500X0.162500X0.837500X-0.162500X0.837500X-0.162500X-0.837500X0*%
%ADD38RoundRect,0.150000X-0.150000X0.875000X-0.150000X-0.875000X0.150000X-0.875000X0.150000X0.875000X0*%
%ADD39RoundRect,0.200000X-0.275000X0.200000X-0.275000X-0.200000X0.275000X-0.200000X0.275000X0.200000X0*%
%ADD40RoundRect,0.200000X0.275000X-0.200000X0.275000X0.200000X-0.275000X0.200000X-0.275000X-0.200000X0*%
%ADD41RoundRect,0.225000X-0.225000X-0.375000X0.225000X-0.375000X0.225000X0.375000X-0.225000X0.375000X0*%
%ADD42RoundRect,0.150000X-0.825000X-0.150000X0.825000X-0.150000X0.825000X0.150000X-0.825000X0.150000X0*%
%ADD43R,0.950000X0.600000*%
%ADD44RoundRect,0.250000X-0.250000X-0.475000X0.250000X-0.475000X0.250000X0.475000X-0.250000X0.475000X0*%
%ADD45RoundRect,0.075000X0.725000X0.075000X-0.725000X0.075000X-0.725000X-0.075000X0.725000X-0.075000X0*%
%ADD46RoundRect,0.075000X0.075000X0.725000X-0.075000X0.725000X-0.075000X-0.725000X0.075000X-0.725000X0*%
%ADD47RoundRect,0.150000X0.150000X-0.825000X0.150000X0.825000X-0.150000X0.825000X-0.150000X-0.825000X0*%
%ADD48RoundRect,0.100000X-0.637500X-0.100000X0.637500X-0.100000X0.637500X0.100000X-0.637500X0.100000X0*%
%ADD49RoundRect,0.150000X0.825000X0.150000X-0.825000X0.150000X-0.825000X-0.150000X0.825000X-0.150000X0*%
%ADD50FreePoly0,90.000000*%
%ADD51FreePoly1,90.000000*%
%ADD52R,0.800000X1.600000*%
%ADD53RoundRect,0.375000X-0.375000X0.625000X-0.375000X-0.625000X0.375000X-0.625000X0.375000X0.625000X0*%
%ADD54RoundRect,0.500000X-1.400000X0.500000X-1.400000X-0.500000X1.400000X-0.500000X1.400000X0.500000X0*%
G04 APERTURE END LIST*
D10*
%TO.C,J7*%
X94000000Y-141000000D03*
D11*
X94000000Y-147480000D03*
X94000000Y-144380000D03*
X94000000Y-136080000D03*
%TD*%
D12*
%TO.C,J10*%
X61000000Y-144775000D03*
X61000000Y-137225000D03*
D13*
X57930000Y-145100000D03*
X64070000Y-145100000D03*
X57930000Y-136900000D03*
X64070000Y-136900000D03*
%TD*%
D10*
%TO.C,J9*%
X82000000Y-141000000D03*
D11*
X82000000Y-147480000D03*
X82000000Y-144380000D03*
X82000000Y-136080000D03*
%TD*%
D10*
%TO.C,J5*%
X115000000Y-141000000D03*
D11*
X115000000Y-147480000D03*
X115000000Y-144380000D03*
X115000000Y-136080000D03*
%TD*%
D14*
%TO.C,D4*%
X96700000Y-106600000D03*
D15*
X99240000Y-106600000D03*
%TD*%
D16*
%TO.C,SW5*%
X108500000Y-56500000D03*
X113500000Y-56500000D03*
X111000000Y-56500000D03*
X108500000Y-42000000D03*
X113500000Y-42000000D03*
D17*
X104800000Y-49000000D03*
X117200000Y-49000000D03*
%TD*%
D18*
%TO.C,WarpType1*%
X110600000Y-88500000D03*
X119400000Y-88500000D03*
D15*
X117500000Y-95500000D03*
X115000000Y-95500000D03*
X112500000Y-95500000D03*
X112500000Y-81000000D03*
X117500000Y-81000000D03*
%TD*%
D10*
%TO.C,J6*%
X104500000Y-141000000D03*
D11*
X104500000Y-147480000D03*
X104500000Y-144380000D03*
X104500000Y-136080000D03*
%TD*%
D18*
%TO.C,WavetableBPot1*%
X86600000Y-95600000D03*
X95400000Y-95600000D03*
D15*
X93500000Y-102600000D03*
X91000000Y-102600000D03*
X88500000Y-102600000D03*
%TD*%
D18*
%TO.C,WarpAmtTrm1*%
X110600000Y-126500000D03*
X119400000Y-126500000D03*
D15*
X117500000Y-133500000D03*
X115000000Y-133500000D03*
X112500000Y-133500000D03*
%TD*%
D10*
%TO.C,J8*%
X72000000Y-141000000D03*
D11*
X72000000Y-147480000D03*
X72000000Y-144380000D03*
X72000000Y-136080000D03*
%TD*%
D19*
%TO.C,SW1*%
X94750000Y-110750000D03*
X101250000Y-110750000D03*
X94750000Y-115250000D03*
X101250000Y-115250000D03*
%TD*%
D20*
%TO.C,SW2*%
X117000000Y-71700000D03*
X117000000Y-67000000D03*
X117000000Y-62300000D03*
%TD*%
D10*
%TO.C,J3*%
X66000000Y-128000000D03*
D11*
X66000000Y-134480000D03*
X66000000Y-131380000D03*
X66000000Y-123080000D03*
%TD*%
D21*
%TO.C,U10*%
X60400000Y-43100000D03*
D22*
X60400000Y-45640000D03*
D23*
X96400000Y-43100000D03*
D22*
X96400000Y-45640000D03*
X60400000Y-74100000D03*
X60400000Y-76640000D03*
X96400000Y-74100000D03*
X96400000Y-76640000D03*
%TD*%
D18*
%TO.C,WavetableATrm1*%
X61600000Y-113500000D03*
X70400000Y-113500000D03*
D15*
X68500000Y-120500000D03*
X66000000Y-120500000D03*
X63500000Y-120500000D03*
%TD*%
D18*
%TO.C,WavetableAPot1*%
X61912500Y-95500000D03*
X70712500Y-95500000D03*
D15*
X68812500Y-102500000D03*
X66312500Y-102500000D03*
X63812500Y-102500000D03*
%TD*%
D24*
%TO.C,SW4*%
X81000000Y-117700000D03*
D25*
X81000000Y-113000000D03*
X81000000Y-108300000D03*
%TD*%
D10*
%TO.C,J4*%
X91000000Y-128000000D03*
D11*
X91000000Y-134480000D03*
X91000000Y-131380000D03*
X91000000Y-123080000D03*
%TD*%
D18*
%TO.C,WarpAmtPot1*%
X110600000Y-110500000D03*
X119400000Y-110500000D03*
D15*
X117500000Y-117500000D03*
X115000000Y-117500000D03*
X112500000Y-117500000D03*
%TD*%
D24*
%TO.C,SW3*%
X103000000Y-71700000D03*
D25*
X103000000Y-67000000D03*
X103000000Y-62300000D03*
%TD*%
D26*
%TO.C,D3*%
X121650000Y-55862500D03*
X123550000Y-55862500D03*
X122600000Y-57737500D03*
%TD*%
D27*
%TO.C,C16*%
X87600000Y-52225000D03*
X87600000Y-53775000D03*
%TD*%
D28*
%TO.C,C21*%
X67375000Y-57950000D03*
X68925000Y-57950000D03*
%TD*%
D29*
%TO.C,C1*%
X68050000Y-41250000D03*
X68050000Y-44850000D03*
%TD*%
D27*
%TO.C,C22*%
X86000000Y-52225000D03*
X86000000Y-53775000D03*
%TD*%
D30*
%TO.C,C11*%
X59175000Y-85500000D03*
X57625000Y-85500000D03*
%TD*%
D28*
%TO.C,C32*%
X83625000Y-130300000D03*
X85175000Y-130300000D03*
%TD*%
D31*
%TO.C,C9*%
X62400000Y-65425000D03*
X62400000Y-62475000D03*
%TD*%
D32*
%TO.C,R25*%
X94225000Y-86200000D03*
X92575000Y-86200000D03*
%TD*%
D33*
%TO.C,C20*%
X74000000Y-76175000D03*
X74000000Y-74625000D03*
%TD*%
D32*
%TO.C,R30*%
X103225000Y-106600000D03*
X101575000Y-106600000D03*
%TD*%
%TO.C,R3*%
X73125000Y-125400000D03*
X71475000Y-125400000D03*
%TD*%
D28*
%TO.C,C31*%
X71525000Y-130200000D03*
X73075000Y-130200000D03*
%TD*%
D19*
%TO.C,TP8*%
X57100000Y-41100000D03*
%TD*%
D34*
%TO.C,C2*%
X101200000Y-45000000D03*
X101200000Y-41400000D03*
%TD*%
D35*
%TO.C,Y1*%
X95100000Y-66250000D03*
X95100000Y-62150000D03*
%TD*%
D36*
%TO.C,R6*%
X83575000Y-127000000D03*
X85225000Y-127000000D03*
%TD*%
D19*
%TO.C,TP6*%
X112500000Y-77700000D03*
%TD*%
D37*
%TO.C,U3*%
X59750000Y-59910000D03*
X58800000Y-59910000D03*
X57850000Y-59910000D03*
X57850000Y-56490000D03*
X58800000Y-56490000D03*
X59750000Y-56490000D03*
%TD*%
D30*
%TO.C,C12*%
X59175000Y-83900000D03*
X57625000Y-83900000D03*
%TD*%
D38*
%TO.C,U6*%
X75530000Y-82750000D03*
X76800000Y-82750000D03*
X78070000Y-82750000D03*
X79340000Y-82750000D03*
X80610000Y-82750000D03*
X81880000Y-82750000D03*
X83150000Y-82750000D03*
X84420000Y-82750000D03*
X84420000Y-92050000D03*
X83150000Y-92050000D03*
X81880000Y-92050000D03*
X80610000Y-92050000D03*
X79340000Y-92050000D03*
X78070000Y-92050000D03*
X76800000Y-92050000D03*
X75530000Y-92050000D03*
%TD*%
D36*
%TO.C,R4*%
X83575000Y-125400000D03*
X85225000Y-125400000D03*
%TD*%
D39*
%TO.C,R14*%
X121800000Y-52075000D03*
X121800000Y-53725000D03*
%TD*%
D32*
%TO.C,R1*%
X59625000Y-52700000D03*
X57975000Y-52700000D03*
%TD*%
D40*
%TO.C,R23*%
X103700000Y-120725000D03*
X103700000Y-119075000D03*
%TD*%
D21*
%TO.C,J12*%
X120300000Y-77700000D03*
%TD*%
D36*
%TO.C,R8*%
X83575000Y-131900000D03*
X85225000Y-131900000D03*
%TD*%
D40*
%TO.C,R24*%
X102100000Y-120725000D03*
X102100000Y-119075000D03*
%TD*%
D36*
%TO.C,R20*%
X104975000Y-89600000D03*
X106625000Y-89600000D03*
%TD*%
D41*
%TO.C,D1*%
X66400000Y-47750000D03*
X69700000Y-47750000D03*
%TD*%
D42*
%TO.C,U8*%
X75925000Y-129705000D03*
X75925000Y-128435000D03*
X75925000Y-127165000D03*
X75925000Y-125895000D03*
X80875000Y-125895000D03*
X80875000Y-127165000D03*
X80875000Y-128435000D03*
X80875000Y-129705000D03*
%TD*%
D36*
%TO.C,R32*%
X104975000Y-86300000D03*
X106625000Y-86300000D03*
%TD*%
D40*
%TO.C,R22*%
X98900000Y-120725000D03*
X98900000Y-119075000D03*
%TD*%
D32*
%TO.C,R11*%
X94225000Y-87800000D03*
X92575000Y-87800000D03*
%TD*%
D43*
%TO.C,U9*%
X59325000Y-131450000D03*
X59325000Y-132400000D03*
X59325000Y-133350000D03*
X57075000Y-133350000D03*
X57075000Y-132400000D03*
X57075000Y-131450000D03*
%TD*%
D30*
%TO.C,C27*%
X72062500Y-87600000D03*
X70512500Y-87600000D03*
%TD*%
%TO.C,C4*%
X92375000Y-67100000D03*
X90825000Y-67100000D03*
%TD*%
%TO.C,C25*%
X59175000Y-88900000D03*
X57625000Y-88900000D03*
%TD*%
D39*
%TO.C,R17*%
X99700000Y-130975000D03*
X99700000Y-132625000D03*
%TD*%
D44*
%TO.C,C6*%
X57850000Y-62600000D03*
X59750000Y-62600000D03*
%TD*%
D30*
%TO.C,C39*%
X68925000Y-59500000D03*
X67375000Y-59500000D03*
%TD*%
D28*
%TO.C,C30*%
X83625000Y-123800000D03*
X85175000Y-123800000D03*
%TD*%
D30*
%TO.C,C33*%
X81875000Y-94800000D03*
X80325000Y-94800000D03*
%TD*%
D19*
%TO.C,TP5*%
X116400000Y-77700000D03*
%TD*%
D30*
%TO.C,C23*%
X92375000Y-68700000D03*
X90825000Y-68700000D03*
%TD*%
D32*
%TO.C,R21*%
X94225000Y-91000000D03*
X92575000Y-91000000D03*
%TD*%
D30*
%TO.C,C29*%
X73075000Y-123800000D03*
X71525000Y-123800000D03*
%TD*%
%TO.C,C10*%
X59175000Y-90500000D03*
X57625000Y-90500000D03*
%TD*%
D19*
%TO.C,TP2*%
X63800000Y-41150000D03*
%TD*%
D36*
%TO.C,R31*%
X114175000Y-83500000D03*
X115825000Y-83500000D03*
%TD*%
D30*
%TO.C,C26*%
X59175000Y-87300000D03*
X57625000Y-87300000D03*
%TD*%
D33*
%TO.C,C15*%
X97800000Y-66775000D03*
X97800000Y-65225000D03*
%TD*%
%TO.C,C35*%
X100500000Y-120675000D03*
X100500000Y-119125000D03*
%TD*%
D40*
%TO.C,R28*%
X56200000Y-141725000D03*
X56200000Y-140075000D03*
%TD*%
D45*
%TO.C,U1*%
X87675000Y-58500000D03*
X87675000Y-59000000D03*
X87675000Y-59500000D03*
X87675000Y-60000000D03*
X87675000Y-60500000D03*
X87675000Y-61000000D03*
X87675000Y-61500000D03*
X87675000Y-62000000D03*
X87675000Y-62500000D03*
X87675000Y-63000000D03*
X87675000Y-63500000D03*
X87675000Y-64000000D03*
X87675000Y-64500000D03*
X87675000Y-65000000D03*
X87675000Y-65500000D03*
X87675000Y-66000000D03*
X87675000Y-66500000D03*
X87675000Y-67000000D03*
X87675000Y-67500000D03*
X87675000Y-68000000D03*
X87675000Y-68500000D03*
X87675000Y-69000000D03*
X87675000Y-69500000D03*
X87675000Y-70000000D03*
X87675000Y-70500000D03*
D46*
X86000000Y-72175000D03*
X85500000Y-72175000D03*
X85000000Y-72175000D03*
X84500000Y-72175000D03*
X84000000Y-72175000D03*
X83500000Y-72175000D03*
X83000000Y-72175000D03*
X82500000Y-72175000D03*
X82000000Y-72175000D03*
X81500000Y-72175000D03*
X81000000Y-72175000D03*
X80500000Y-72175000D03*
X80000000Y-72175000D03*
X79500000Y-72175000D03*
X79000000Y-72175000D03*
X78500000Y-72175000D03*
X78000000Y-72175000D03*
X77500000Y-72175000D03*
X77000000Y-72175000D03*
X76500000Y-72175000D03*
X76000000Y-72175000D03*
X75500000Y-72175000D03*
X75000000Y-72175000D03*
X74500000Y-72175000D03*
X74000000Y-72175000D03*
D45*
X72325000Y-70500000D03*
X72325000Y-70000000D03*
X72325000Y-69500000D03*
X72325000Y-69000000D03*
X72325000Y-68500000D03*
X72325000Y-68000000D03*
X72325000Y-67500000D03*
X72325000Y-67000000D03*
X72325000Y-66500000D03*
X72325000Y-66000000D03*
X72325000Y-65500000D03*
X72325000Y-65000000D03*
X72325000Y-64500000D03*
X72325000Y-64000000D03*
X72325000Y-63500000D03*
X72325000Y-63000000D03*
X72325000Y-62500000D03*
X72325000Y-62000000D03*
X72325000Y-61500000D03*
X72325000Y-61000000D03*
X72325000Y-60500000D03*
X72325000Y-60000000D03*
X72325000Y-59500000D03*
X72325000Y-59000000D03*
X72325000Y-58500000D03*
D46*
X74000000Y-56825000D03*
X74500000Y-56825000D03*
X75000000Y-56825000D03*
X75500000Y-56825000D03*
X76000000Y-56825000D03*
X76500000Y-56825000D03*
X77000000Y-56825000D03*
X77500000Y-56825000D03*
X78000000Y-56825000D03*
X78500000Y-56825000D03*
X79000000Y-56825000D03*
X79500000Y-56825000D03*
X80000000Y-56825000D03*
X80500000Y-56825000D03*
X81000000Y-56825000D03*
X81500000Y-56825000D03*
X82000000Y-56825000D03*
X82500000Y-56825000D03*
X83000000Y-56825000D03*
X83500000Y-56825000D03*
X84000000Y-56825000D03*
X84500000Y-56825000D03*
X85000000Y-56825000D03*
X85500000Y-56825000D03*
X86000000Y-56825000D03*
%TD*%
D30*
%TO.C,C24*%
X92375000Y-70400000D03*
X90825000Y-70400000D03*
%TD*%
D47*
%TO.C,U5*%
X103205000Y-128275000D03*
X101935000Y-128275000D03*
X100665000Y-128275000D03*
X99395000Y-128275000D03*
X99395000Y-123325000D03*
X100665000Y-123325000D03*
X101935000Y-123325000D03*
X103205000Y-123325000D03*
%TD*%
D48*
%TO.C,U2*%
X62025000Y-90025000D03*
X62025000Y-89375000D03*
X62025000Y-88725000D03*
X62025000Y-88075000D03*
X62025000Y-87425000D03*
X62025000Y-86775000D03*
X62025000Y-86125000D03*
X62025000Y-85475000D03*
X62025000Y-84825000D03*
X62025000Y-84175000D03*
X67750000Y-84175000D03*
X67750000Y-84825000D03*
X67750000Y-85475000D03*
X67750000Y-86125000D03*
X67750000Y-86775000D03*
X67750000Y-87425000D03*
X67750000Y-88075000D03*
X67750000Y-88725000D03*
X67750000Y-89375000D03*
X67750000Y-90025000D03*
%TD*%
D39*
%TO.C,R19*%
X102900000Y-130975000D03*
X102900000Y-132625000D03*
%TD*%
D32*
%TO.C,R5*%
X73125000Y-127000000D03*
X71475000Y-127000000D03*
%TD*%
%TO.C,R12*%
X94225000Y-89400000D03*
X92575000Y-89400000D03*
%TD*%
D19*
%TO.C,TP3*%
X123800000Y-41800000D03*
%TD*%
D36*
%TO.C,R27*%
X92575000Y-83000000D03*
X94225000Y-83000000D03*
%TD*%
%TO.C,R2*%
X57975000Y-54300000D03*
X59625000Y-54300000D03*
%TD*%
%TO.C,R10*%
X83575000Y-128600000D03*
X85225000Y-128600000D03*
%TD*%
D28*
%TO.C,C28*%
X70512500Y-90800000D03*
X72062500Y-90800000D03*
%TD*%
D33*
%TO.C,C34*%
X76800000Y-79975000D03*
X76800000Y-78425000D03*
%TD*%
D49*
%TO.C,U7*%
X102175000Y-83090000D03*
X102175000Y-84360000D03*
X102175000Y-85630000D03*
X102175000Y-86900000D03*
X102175000Y-88170000D03*
X102175000Y-89440000D03*
X102175000Y-90710000D03*
X97225000Y-90710000D03*
X97225000Y-89440000D03*
X97225000Y-88170000D03*
X97225000Y-86900000D03*
X97225000Y-85630000D03*
X97225000Y-84360000D03*
X97225000Y-83090000D03*
%TD*%
D30*
%TO.C,C18*%
X92375000Y-63100000D03*
X90825000Y-63100000D03*
%TD*%
D19*
%TO.C,TP7*%
X119300000Y-41800000D03*
%TD*%
D27*
%TO.C,C38*%
X75550000Y-74625000D03*
X75550000Y-76175000D03*
%TD*%
D33*
%TO.C,C19*%
X85500000Y-76175000D03*
X85500000Y-74625000D03*
%TD*%
D27*
%TO.C,C36*%
X123500000Y-52125000D03*
X123500000Y-53675000D03*
%TD*%
D28*
%TO.C,C13*%
X70512500Y-89200000D03*
X72062500Y-89200000D03*
%TD*%
D36*
%TO.C,R18*%
X104975000Y-88000000D03*
X106625000Y-88000000D03*
%TD*%
D29*
%TO.C,C5*%
X110200000Y-70000000D03*
X110200000Y-73600000D03*
%TD*%
D36*
%TO.C,R13*%
X104975000Y-91200000D03*
X106625000Y-91200000D03*
%TD*%
D21*
%TO.C,J2*%
X88100000Y-46075000D03*
D23*
X88100000Y-43535000D03*
X85560000Y-46075000D03*
X85560000Y-43535000D03*
X83020000Y-46075000D03*
X83020000Y-43535000D03*
X80480000Y-46075000D03*
X80480000Y-43535000D03*
X77940000Y-46075000D03*
X77940000Y-43535000D03*
%TD*%
D21*
%TO.C,J11*%
X66025000Y-52400000D03*
D22*
X68565000Y-52400000D03*
%TD*%
D32*
%TO.C,R26*%
X94225000Y-84600000D03*
X92575000Y-84600000D03*
%TD*%
%TO.C,R34*%
X106625000Y-81300000D03*
X104975000Y-81300000D03*
%TD*%
D19*
%TO.C,TP4*%
X122700000Y-142400000D03*
%TD*%
D44*
%TO.C,C7*%
X57850000Y-65000000D03*
X59750000Y-65000000D03*
%TD*%
D39*
%TO.C,R16*%
X101300000Y-130975000D03*
X101300000Y-132625000D03*
%TD*%
D30*
%TO.C,C37*%
X106575000Y-82900000D03*
X105025000Y-82900000D03*
%TD*%
D36*
%TO.C,R33*%
X104975000Y-84600000D03*
X106625000Y-84600000D03*
%TD*%
D32*
%TO.C,R9*%
X73125000Y-131800000D03*
X71475000Y-131800000D03*
%TD*%
D30*
%TO.C,C17*%
X92375000Y-61000000D03*
X90825000Y-61000000D03*
%TD*%
D36*
%TO.C,R7*%
X71475000Y-128600000D03*
X73125000Y-128600000D03*
%TD*%
D21*
%TO.C,J1*%
X63600000Y-79000000D03*
D23*
X63600000Y-76460000D03*
X63600000Y-73920000D03*
X63600000Y-71380000D03*
%TD*%
D50*
%TO.C,JP1*%
X61600000Y-132950000D03*
D51*
X61600000Y-131650000D03*
%TD*%
D33*
%TO.C,C8*%
X61900000Y-57175000D03*
X61900000Y-55625000D03*
%TD*%
D32*
%TO.C,R15*%
X101225000Y-76600000D03*
X99575000Y-76600000D03*
%TD*%
D40*
%TO.C,R29*%
X66300000Y-139325000D03*
X66300000Y-137675000D03*
%TD*%
D41*
%TO.C,D2*%
X97350000Y-49200000D03*
X100650000Y-49200000D03*
%TD*%
D27*
%TO.C,C14*%
X97800000Y-61625000D03*
X97800000Y-63175000D03*
%TD*%
D52*
%TO.C,L2*%
X59900000Y-67550000D03*
X61700000Y-67550000D03*
%TD*%
D53*
%TO.C,U4*%
X107900000Y-60250000D03*
X110200000Y-60250000D03*
D54*
X110200000Y-66550000D03*
D53*
X112500000Y-60250000D03*
%TD*%
D30*
%TO.C,C3*%
X92375000Y-65500000D03*
X90825000Y-65500000D03*
%TD*%
M02*
