M48
; DRILL file {KiCad 8.0.1} date 2024-04-24T14:52:56+0100
; FORMAT={-:-/ absolute / inch / decimal}
; #@! TF.CreationDate,2024-04-24T14:52:56+01:00
; #@! TF.GenerationSoftware,Kicad,Pcbnew,8.0.1
; #@! TF.FileFunction,Plated,1,4,PTH
FMAT,2
INCH
; #@! TA.AperFunction,Plated,PTH,ViaDrill
T1C0.0157
; #@! TA.AperFunction,Plated,PTH,ViaDrill
T2C0.0197
; #@! TA.AperFunction,Plated,PTH,ComponentDrill
T3C0.0394
; #@! TA.AperFunction,Plated,PTH,ComponentDrill
T4C0.0512
%
G90
G05
T1
X2.2598Y-3.0906
X2.2756Y-3.9528
X2.2992Y-5.0827
X2.3386Y-2.937
X2.3622Y-3.2756
X2.3661Y-2.189
X2.3701Y-3.1811
X2.4055Y-1.7283
X2.4646Y-4.4094
X2.5Y-2.8898
X2.5276Y-3.8701
X2.5472Y-2.5315
X2.5551Y-3.3071
X2.5669Y-3.4488
X2.5669Y-3.5984
X2.5827Y-2.9843
X2.5906Y-4.0118
X2.6024Y-5.0157
X2.6181Y-2.2047
X2.6688Y-4.1535
X2.6688Y-4.2165
X2.6688Y-4.2874
X2.6688Y-4.4134
X2.7244Y-4.7913
X2.7672Y-4.1024
X2.7795Y-2.1496
X2.8898Y-3.437
X2.9016Y-3.2953
X2.9134Y-1.6929
X2.9173Y-3.6024
X2.9173Y-4.5866
X2.9213Y-3.7795
X2.9286Y-4.1772
X2.9286Y-4.3425
X2.9685Y-1.7756
X2.9685Y-5.0118
X2.9921Y-4.7008
X3.0Y-2.5827
X3.0039Y-2.9528
X3.0236Y-4.9134
X3.0354Y-2.5079
X3.0545Y-4.3598
X3.0669Y-2.4409
X3.0748Y-4.5906
X3.1058Y-4.1339
X3.1102Y-3.6417
X3.1102Y-3.7598
X3.1142Y-3.1496
X3.126Y-2.4291
X3.185Y-2.5079
X3.1929Y-3.5787
X3.1969Y-3.7559
X3.2121Y-4.248
X3.2121Y-4.4646
X3.2126Y-4.0197
X3.2402Y-3.9016
X3.248Y-3.3583
X3.2559Y-3.752
X3.2756Y-2.4252
X3.2874Y-3.1378
X3.311Y-3.5551
X3.3268Y-3.2323
X3.3307Y-3.9016
X3.3386Y-2.5079
X3.3425Y-2.7913
X3.3569Y-2.8772
X3.3622Y-2.1496
X3.3701Y-2.6772
X3.374Y-3.3976
X3.3819Y-2.9567
X3.3898Y-2.5
X3.3898Y-3.2362
X3.407Y-2.7639
X3.4213Y-2.6575
X3.4291Y-4.5748
X3.4331Y-3.7992
X3.437Y-5.315
X3.4409Y-4.7953
X3.4724Y-2.874
X3.4724Y-3.6929
X3.4724Y-3.9016
X3.4764Y-2.9724
X3.4803Y-3.7992
X3.4843Y-3.6417
X3.4882Y-3.5039
X3.5079Y-3.4508
X3.5197Y-2.8701
X3.5512Y-2.811
X3.5591Y-5.0354
X3.563Y-4.4528
X3.563Y-4.5709
X3.563Y-4.6575
X3.563Y-4.7874
X3.5879Y-2.9754
X3.6063Y-3.7441
X3.6096Y-3.6969
X3.6142Y-2.5157
X3.6181Y-3.8976
X3.6693Y-3.4843
X3.6811Y-3.4252
X3.689Y-2.7795
X3.7008Y-2.8307
X3.7008Y-5.3189
X3.7205Y-2.3583
X3.7244Y-2.7205
X3.7323Y-3.3071
X3.748Y-2.248
X3.748Y-3.4291
X3.7756Y-2.626
X3.7953Y-2.8465
X3.8071Y-3.5118
X3.8189Y-3.6181
X3.8228Y-3.752
X3.8268Y-3.0608
X3.8386Y-3.1339
X3.8435Y-3.2051
X3.8504Y-2.4252
X3.8543Y-4.7913
X3.8661Y-3.6299
X3.8701Y-3.7283
X3.9016Y-3.563
X3.9016Y-4.5591
X3.9055Y-2.248
X3.9213Y-2.315
X3.9252Y-2.7677
X3.9252Y-2.811
X3.9331Y-3.7795
X3.9577Y-4.685
X3.9606Y-3.6339
X3.9663Y-3.4752
X3.9685Y-3.9252
X3.9892Y-2.6417
X4.0Y-3.1024
X4.0079Y-4.2283
X4.0079Y-4.4724
X4.0118Y-4.3307
X4.0276Y-2.8071
X4.0551Y-3.0079
X4.063Y-4.5118
X4.0709Y-2.5699
X4.0906Y-2.9685
X4.1063Y-4.8307
X4.1535Y-1.7687
X4.1654Y-3.189
X4.2047Y-5.0394
X4.2126Y-1.7008
X4.2205Y-2.878
X4.2323Y-2.1102
X4.2402Y-3.2441
X4.2441Y-4.5315
X4.2638Y-2.7244
X4.2835Y-1.5787
X4.2992Y-3.4803
X4.3189Y-2.5827
X4.3346Y-4.2795
X4.3386Y-4.3465
X4.3504Y-3.315
X4.3661Y-1.9291
X4.3819Y-1.7638
X4.3976Y-2.2598
X4.4134Y-4.8386
X4.4213Y-3.5157
X4.4291Y-3.1024
X4.4567Y-2.8583
X4.4567Y-3.2795
X4.4606Y-3.0
X4.4843Y-1.9705
X4.4843Y-4.685
X4.4882Y-3.811
X4.4921Y-2.2008
X4.4921Y-2.2382
X4.5079Y-2.5787
X4.5236Y-4.2402
X4.5354Y-4.4528
X4.5394Y-4.874
X4.5468Y-1.7259
X4.5512Y-1.8602
X4.5512Y-1.9035
X4.5669Y-2.0925
X4.5684Y-2.0231
X4.5709Y-2.2835
X4.5748Y-3.2795
X4.6142Y-3.0197
X4.6154Y-1.8595
X4.6496Y-2.185
X4.7008Y-3.8228
X4.7087Y-3.5118
X4.7402Y-2.5984
X4.7441Y-3.374
X4.7795Y-2.2953
X4.7795Y-2.9961
X4.7835Y-1.6496
X4.8858Y-2.9488
X4.8937Y-3.9528
X4.9055Y-3.0984
X4.9055Y-3.3465
T2
X2.2776Y-5.1516
X2.8937Y-4.8661
X3.0906Y-5.1102
X3.7165Y-4.7283
X4.2992Y-2.0236
X4.4252Y-2.6063
X4.6142Y-3.0965
T3
X2.2835Y-1.7717
X2.2835Y-1.8717
X2.2835Y-1.9717
X2.2835Y-2.0717
X2.2835Y-2.1717
X2.2835Y-2.2717
X2.2835Y-2.3717
X2.2835Y-2.4717
X2.2835Y-2.5717
X2.2835Y-2.6717
X2.2835Y-2.7717
X2.2835Y-2.8717
X2.2835Y-3.2236
X2.2835Y-3.3236
X2.2835Y-3.4236
X2.2835Y-3.5236
X2.2835Y-4.0945
X2.2835Y-4.1945
X2.2835Y-4.2945
X2.2835Y-4.3945
X2.2835Y-4.4945
X2.2835Y-4.5945
X2.2835Y-4.6945
X2.2835Y-4.7945
X2.2835Y-4.8945
X2.2835Y-4.9945
X3.3622Y-1.7175
X3.3622Y-1.8175
X3.4622Y-1.7175
X3.4622Y-1.8175
X3.5128Y-2.1142
X3.5622Y-1.7175
X3.5622Y-1.8175
X3.6128Y-2.1142
X3.6622Y-1.7175
X3.6622Y-1.8175
X3.7622Y-1.7175
X3.7622Y-1.8175
X4.8425Y-1.7717
X4.8425Y-1.8717
X4.8425Y-1.9717
X4.8425Y-2.0717
X4.8425Y-2.1717
X4.8425Y-2.2717
X4.8425Y-2.3717
X4.8425Y-2.4717
X4.8425Y-2.5717
X4.8425Y-2.6717
X4.8425Y-2.7717
X4.8425Y-2.8717
X4.8425Y-4.0945
X4.8425Y-4.1945
X4.8425Y-4.2945
X4.8425Y-4.3945
X4.8425Y-4.4945
X4.8425Y-4.5945
X4.8425Y-4.6945
X4.8425Y-4.7945
X4.8425Y-4.8945
X4.8425Y-4.9945
T4
X2.2835Y-5.315
X2.6496Y-3.7008
X2.8071Y-3.7008
X3.3071Y-5.315
X3.563Y-5.315
X3.8189Y-5.315
X4.8386Y-5.311
M30
