M48
; DRILL file {KiCad 8.0.1} date 2024-04-09T18:56:45+0100
; FORMAT={-:-/ absolute / inch / decimal}
; #@! TF.CreationDate,2024-04-09T18:56:45+01:00
; #@! TF.GenerationSoftware,Kicad,Pcbnew,8.0.1
; #@! TF.FileFunction,NonPlated,1,4,NPTH
FMAT,2
INCH
; #@! TA.AperFunction,NonPlated,NPTH,ComponentDrill
T1C0.0157
; #@! TA.AperFunction,NonPlated,NPTH,ComponentDrill
T2C0.0787
; #@! TA.AperFunction,NonPlated,NPTH,ComponentDrill
T3C0.0984
%
G90
G05
T2
X2.4252Y-4.4685
X2.4375Y-3.7598
X2.7717Y-4.4685
X2.784Y-3.7598
X3.4094Y-3.7638
X3.7559Y-3.7638
X4.3543Y-3.4843
X4.3543Y-4.3504
X4.3543Y-4.9803
X4.7008Y-3.4843
X4.7008Y-4.3504
X4.7008Y-4.9803
T3
X2.5984Y-5.0394
X2.8346Y-5.5512
X3.2283Y-5.5512
X3.5827Y-5.0394
X3.7008Y-5.5512
X4.1142Y-5.5512
X4.5276Y-5.5512
T1
G00X2.4016Y-5.4065
M15
G01X2.4016Y-5.3986
M16
G05
G00X2.4016Y-5.7037
M15
G01X2.4016Y-5.6959
M16
G05
M30
