%TF.GenerationSoftware,KiCad,Pcbnew,8.0.1*%
%TF.CreationDate,2024-04-24T14:52:54+01:00*%
%TF.ProjectId,Kishoof_Components,4b697368-6f6f-4665-9f43-6f6d706f6e65,rev?*%
%TF.SameCoordinates,Original*%
%TF.FileFunction,Copper,L1,Top*%
%TF.FilePolarity,Positive*%
%FSLAX46Y46*%
G04 Gerber Fmt 4.6, Leading zero omitted, Abs format (unit mm)*
G04 Created by KiCad (PCBNEW 8.0.1) date 2024-04-24 14:52:54*
%MOMM*%
%LPD*%
G01*
G04 APERTURE LIST*
%TA.AperFunction,ComponentPad*%
%ADD10R,1.700000X1.700000*%
%TD*%
%TA.AperFunction,ComponentPad*%
%ADD11O,1.700000X1.700000*%
%TD*%
%TA.AperFunction,ComponentPad*%
%ADD12C,2.000000*%
%TD*%
%TA.AperFunction,ComponentPad*%
%ADD13C,1.700000*%
%TD*%
%TA.AperFunction,ViaPad*%
%ADD14C,0.800000*%
%TD*%
%TA.AperFunction,ViaPad*%
%ADD15C,1.000000*%
%TD*%
%TA.AperFunction,Conductor*%
%ADD16C,0.500000*%
%TD*%
%TA.AperFunction,Conductor*%
%ADD17C,0.400000*%
%TD*%
%TA.AperFunction,Conductor*%
%ADD18C,0.300000*%
%TD*%
%TA.AperFunction,Conductor*%
%ADD19C,0.250000*%
%TD*%
G04 APERTURE END LIST*
D10*
%TO.P,J2,1,Pin_1*%
%TO.N,/LCD_Backlight*%
X123000000Y-45000000D03*
D11*
%TO.P,J2,2,Pin_2*%
%TO.N,/Octave_Up*%
X123000000Y-47540000D03*
%TO.P,J2,3,Pin_3*%
%TO.N,/Octave_Down*%
X123000000Y-50080000D03*
%TO.P,J2,4,Pin_4*%
%TO.N,/LCD_DC*%
X123000000Y-52620000D03*
%TO.P,J2,5,Pin_5*%
%TO.N,/LCD_RESET*%
X123000000Y-55160000D03*
%TO.P,J2,6,Pin_6*%
%TO.N,/Mode*%
X123000000Y-57700000D03*
%TO.P,J2,7,Pin_7*%
%TO.N,GND*%
X123000000Y-60240000D03*
%TO.P,J2,8,Pin_8*%
%TO.N,/Warp_Polarity_Btn*%
X123000000Y-62780000D03*
%TO.P,J2,9,Pin_9*%
%TO.N,/Encoder_Btn*%
X123000000Y-65320000D03*
%TO.P,J2,10,Pin_10*%
%TO.N,/Warp_Amt_Trm*%
X123000000Y-67860000D03*
%TO.P,J2,11,Pin_11*%
%TO.N,/Warp_Amt_Pot*%
X123000000Y-70400000D03*
%TO.P,J2,12,Pin_12*%
%TO.N,/Wavetable_Pos_B_Pot*%
X123000000Y-72940000D03*
%TD*%
D10*
%TO.P,J4,1,Pin_1*%
%TO.N,/Wavetable_Pos_A_Trm*%
X123000000Y-104000000D03*
D11*
%TO.P,J4,2,Pin_2*%
%TO.N,GND*%
X123000000Y-106540000D03*
%TO.P,J4,3,Pin_3*%
%TO.N,/Ext_Audio_In*%
X123000000Y-109080000D03*
%TO.P,J4,4,Pin_4*%
%TO.N,/Warp_CV_In*%
X123000000Y-111620000D03*
%TO.P,J4,5,Pin_5*%
%TO.N,GND*%
X123000000Y-114160000D03*
%TO.P,J4,6,Pin_6*%
%TO.N,/Wavetable_Pos_A_CV_In*%
X123000000Y-116700000D03*
%TO.P,J4,7,Pin_7*%
%TO.N,/Pitch_CV_In*%
X123000000Y-119240000D03*
%TO.P,J4,8,Pin_8*%
%TO.N,GND*%
X123000000Y-121780000D03*
%TO.P,J4,9,Pin_9*%
%TO.N,/Wavetable_Pos_B_CV_In*%
X123000000Y-124320000D03*
%TO.P,J4,10,Pin_10*%
%TO.N,/VCA_CV_In*%
X123000000Y-126860000D03*
%TD*%
D10*
%TO.P,J1,1,Pin_1*%
%TO.N,/LCD_SPI3_MOSI*%
X58000000Y-45000000D03*
D11*
%TO.P,J1,2,Pin_2*%
%TO.N,GND*%
X58000000Y-47540000D03*
%TO.P,J1,3,Pin_3*%
%TO.N,/LCD_SPI3_SCK*%
X58000000Y-50080000D03*
%TO.P,J1,4,Pin_4*%
%TO.N,/LCD_SPI3_SS*%
X58000000Y-52620000D03*
%TO.P,J1,5,Pin_5*%
%TO.N,/USB_DP*%
X58000000Y-55160000D03*
%TO.P,J1,6,Pin_6*%
%TO.N,GND*%
X58000000Y-57700000D03*
%TO.P,J1,7,Pin_7*%
%TO.N,/USB_DM*%
X58000000Y-60240000D03*
%TO.P,J1,8,Pin_8*%
%TO.N,/USB_VBUS*%
X58000000Y-62780000D03*
%TO.P,J1,9,Pin_9*%
%TO.N,/Encoder_Down*%
X58000000Y-65320000D03*
%TO.P,J1,10,Pin_10*%
%TO.N,/Encoder_Up*%
X58000000Y-67860000D03*
%TO.P,J1,11,Pin_11*%
%TO.N,/LED_Oct_B_Out*%
X58000000Y-70400000D03*
%TO.P,J1,12,Pin_12*%
%TO.N,/B_Octave_Btn*%
X58000000Y-72940000D03*
%TD*%
D10*
%TO.P,J3,1,Pin_1*%
%TO.N,/ChB_RM*%
X58000000Y-104000000D03*
D11*
%TO.P,J3,2,Pin_2*%
%TO.N,/Wavetable_Pos_A_Pot*%
X58000000Y-106540000D03*
%TO.P,J3,3,Pin_3*%
%TO.N,GND*%
X58000000Y-109080000D03*
%TO.P,J3,4,Pin_4*%
%TO.N,/ChB_Mix*%
X58000000Y-111620000D03*
%TO.P,J3,5,Pin_5*%
%TO.N,+3.3V*%
X58000000Y-114160000D03*
%TO.P,J3,6,Pin_6*%
%TO.N,+3.3VA*%
X58000000Y-116700000D03*
%TO.P,J3,7,Pin_7*%
%TO.N,GND*%
X58000000Y-119240000D03*
%TO.P,J3,8,Pin_8*%
%TO.N,/Audio_Out_L*%
X58000000Y-121780000D03*
%TO.P,J3,9,Pin_9*%
%TO.N,/Audio_Out_R*%
X58000000Y-124320000D03*
%TO.P,J3,10,Pin_10*%
%TO.N,/Warp_Type_Pot*%
X58000000Y-126860000D03*
%TD*%
D12*
%TO.P,TP8,1,1*%
%TO.N,GND*%
X122900000Y-134900000D03*
%TD*%
%TO.P,TP6,1,1*%
%TO.N,+3.3VA*%
X67300000Y-94000000D03*
%TD*%
%TO.P,TP5,1,1*%
%TO.N,+3.3V*%
X71300000Y-94000000D03*
%TD*%
D10*
%TO.P,J7,1,Pin_1*%
%TO.N,/UART_TX*%
X89225000Y-53700000D03*
D11*
%TO.P,J7,2,Pin_2*%
%TO.N,/UART_RX*%
X91765000Y-53700000D03*
%TD*%
D12*
%TO.P,TP2,1,1*%
%TO.N,+12V*%
X90500000Y-135000000D03*
%TD*%
%TO.P,TP3,1,1*%
%TO.N,-12V*%
X84000000Y-135000000D03*
%TD*%
%TO.P,TP7,1,1*%
%TO.N,/-5V_REF*%
X97000000Y-135000000D03*
%TD*%
D10*
%TO.P,J5,1,Pin_1*%
%TO.N,/-12V_IN*%
X85400000Y-43625000D03*
D13*
%TO.P,J5,2,Pin_2*%
X85400000Y-46165000D03*
%TO.P,J5,3,Pin_3*%
%TO.N,GND*%
X87940000Y-43625000D03*
%TO.P,J5,4,Pin_4*%
X87940000Y-46165000D03*
%TO.P,J5,5,Pin_5*%
X90480000Y-43625000D03*
%TO.P,J5,6,Pin_6*%
X90480000Y-46165000D03*
%TO.P,J5,7,Pin_7*%
X93020000Y-43625000D03*
%TO.P,J5,8,Pin_8*%
X93020000Y-46165000D03*
%TO.P,J5,9,Pin_9*%
%TO.N,/+12V_IN*%
X95560000Y-43625000D03*
%TO.P,J5,10,Pin_10*%
X95560000Y-46165000D03*
%TD*%
D12*
%TO.P,TP4,1,1*%
%TO.N,GND*%
X58000000Y-135000000D03*
%TD*%
D10*
%TO.P,J6,1,Pin_1*%
%TO.N,+3.3V*%
X58000000Y-89500000D03*
D13*
%TO.P,J6,2,Pin_2*%
%TO.N,GND*%
X58000000Y-86960000D03*
%TO.P,J6,3,Pin_3*%
%TO.N,/SWIO*%
X58000000Y-84420000D03*
%TO.P,J6,4,Pin_4*%
%TO.N,/SWCLK*%
X58000000Y-81880000D03*
%TD*%
D14*
%TO.N,GND*%
X102300000Y-71300000D03*
X109700000Y-65600000D03*
X117200000Y-76700000D03*
X114500000Y-65500000D03*
X120400000Y-66000000D03*
X121400000Y-76100000D03*
X101800000Y-113600000D03*
X112100000Y-122900000D03*
X104300000Y-122700000D03*
X107800000Y-115100000D03*
D15*
%TO.N,+12V*%
X78500000Y-129800000D03*
X109200000Y-51399998D03*
X117200000Y-78650000D03*
X112400000Y-66200000D03*
D14*
%TO.N,GND*%
X93500000Y-87000000D03*
X110200000Y-110400000D03*
X90500000Y-113100000D03*
X120500000Y-85700000D03*
X67787500Y-112100000D03*
X75400000Y-45100000D03*
X75400000Y-127300000D03*
X91132788Y-75575000D03*
X67787500Y-107100000D03*
X111300000Y-44800000D03*
X76300000Y-75000000D03*
X81200000Y-95400000D03*
X88600000Y-89000000D03*
X83200000Y-61600000D03*
X101800000Y-107400000D03*
X90200000Y-71400000D03*
X88200000Y-73000000D03*
X105800000Y-81000000D03*
X97200000Y-77744436D03*
X66100000Y-127400000D03*
X97625000Y-81410460D03*
X79000000Y-92500000D03*
X107500000Y-53600000D03*
X81587500Y-107900000D03*
X111700000Y-57400000D03*
X114900000Y-107700000D03*
X103000000Y-76400000D03*
X107200000Y-73100000D03*
X97900000Y-121700000D03*
X76800000Y-124800000D03*
X99900000Y-96000000D03*
X91600000Y-95100000D03*
X85400000Y-54600000D03*
X115600000Y-48350000D03*
X73400000Y-87300000D03*
X84600000Y-99100000D03*
X66500000Y-56000000D03*
X110900000Y-49000000D03*
X74200000Y-96000000D03*
X65600000Y-75800000D03*
X81100000Y-90900000D03*
X67787500Y-105500000D03*
X85700000Y-86300000D03*
X80900000Y-63700000D03*
X103900000Y-75400000D03*
X82500000Y-85300000D03*
X116200000Y-83300000D03*
X91800000Y-63900000D03*
X60100000Y-55600000D03*
X119600000Y-89200000D03*
X73700000Y-83700000D03*
X101900000Y-110000000D03*
X77584740Y-110738449D03*
X96700000Y-89200000D03*
X124600000Y-78700000D03*
X77900000Y-62000000D03*
X121400000Y-58300000D03*
X57800000Y-100400000D03*
X99100000Y-115800000D03*
X86900000Y-67500000D03*
X94800000Y-84000000D03*
X58400000Y-129100000D03*
X84500000Y-82100000D03*
X116100000Y-58000000D03*
X99200000Y-57100000D03*
X64900000Y-84000000D03*
X119400000Y-97100000D03*
X88200000Y-99100000D03*
X77100000Y-63700000D03*
X100600000Y-92300000D03*
X67787500Y-108900000D03*
X98200000Y-92200000D03*
X95900000Y-66700000D03*
X115200000Y-113100000D03*
X65200000Y-91400000D03*
X85265620Y-73079949D03*
X74000000Y-43000000D03*
X64700000Y-64300000D03*
X112500000Y-78800000D03*
X93700000Y-70600000D03*
X112300000Y-89300000D03*
X97100000Y-95300000D03*
X86537742Y-70202464D03*
X115488603Y-43838603D03*
X87300000Y-135000000D03*
X90500000Y-118300000D03*
X76000000Y-119400000D03*
X57400000Y-78500000D03*
X90500000Y-116100000D03*
X70600000Y-54600000D03*
X103400000Y-65275000D03*
X88200000Y-93800000D03*
X74100000Y-91500000D03*
X124600000Y-85000000D03*
X59400000Y-74600000D03*
X91900000Y-99000000D03*
X78100000Y-116600000D03*
X100800000Y-99700000D03*
X79100000Y-80000000D03*
X115600000Y-47250000D03*
X106800000Y-128000000D03*
X88400000Y-96500000D03*
X113200000Y-83300000D03*
X115300000Y-123800000D03*
X82300000Y-99100000D03*
X87100000Y-116200000D03*
X60200000Y-80800000D03*
X96400000Y-72300000D03*
X74100000Y-116500000D03*
X116000000Y-53150000D03*
X114000000Y-96800000D03*
X124300000Y-100400000D03*
X86100000Y-63500000D03*
X81600000Y-102100000D03*
X100744839Y-88270107D03*
X121500000Y-41900000D03*
X74387500Y-110300000D03*
X94000000Y-135100000D03*
X69200000Y-121700000D03*
X108800000Y-40100000D03*
X90500000Y-121600000D03*
X90400000Y-127900000D03*
X94600000Y-69100000D03*
X113300000Y-76200000D03*
X94500000Y-59900000D03*
X79000000Y-95500000D03*
X124100000Y-74900000D03*
X87400000Y-121800000D03*
X108300002Y-69199998D03*
X105500000Y-44925000D03*
X116036397Y-51386397D03*
X107000000Y-43200000D03*
X97800000Y-61600000D03*
X60000000Y-83200000D03*
X95200000Y-57100000D03*
X61100000Y-43900000D03*
X88300000Y-75500000D03*
X84100000Y-90300000D03*
X107700000Y-82400000D03*
X74387500Y-106100000D03*
X65800000Y-101900000D03*
X62600000Y-112000000D03*
X113200000Y-72600000D03*
X78887500Y-105000000D03*
X101600000Y-78800000D03*
X65200000Y-87600000D03*
X109200000Y-88400000D03*
X86100000Y-82200000D03*
X63500000Y-73400000D03*
X64200000Y-98300000D03*
D15*
%TO.N,-12V*%
X94400000Y-120100000D03*
X73500000Y-123600000D03*
X57850001Y-130850001D03*
D14*
%TO.N,+3.3VA*%
X70287500Y-104200000D03*
X110500000Y-84200000D03*
X110100000Y-108700000D03*
X103200000Y-114600000D03*
%TO.N,/VSW*%
X114100000Y-56850000D03*
X117232353Y-47232353D03*
X113900000Y-50050000D03*
X114100000Y-55900000D03*
%TO.N,+3.3V*%
X81587500Y-113400000D03*
X99600000Y-58800000D03*
X99100000Y-90500000D03*
X83500000Y-79700000D03*
X101325000Y-67100000D03*
X97500000Y-79600000D03*
X118100000Y-55500000D03*
X79400000Y-61700000D03*
X82700000Y-95300000D03*
%TO.N,/OCTOSPIM_P1_IO6*%
X88500000Y-92499998D03*
X97000000Y-91900000D03*
%TO.N,/Wavetable_Pos_A_Pot*%
X85899999Y-75099999D03*
%TO.N,/OCTOSPIM_P1_IO3*%
X87200000Y-96500000D03*
X84900000Y-70900000D03*
%TO.N,/OCTOSPIM_P1_IO4*%
X91683290Y-93900545D03*
X98300000Y-94700000D03*
%TO.N,/SWCLK*%
X84800000Y-63700000D03*
%TO.N,/OCTOSPIM_P1_IO0*%
X85600000Y-68000000D03*
X93200000Y-88500000D03*
%TO.N,/OCTOSPIM_P1_IO2*%
X95200000Y-87100000D03*
X94000000Y-71900000D03*
%TO.N,/SWIO*%
X76200000Y-65600000D03*
%TO.N,/OCTOSPIM_P1_IO1*%
X89100000Y-87649999D03*
X89399998Y-72900000D03*
%TO.N,/-5V_REF*%
X113900000Y-119000000D03*
X100525000Y-119000000D03*
%TO.N,/Warp_Amt_Pot*%
X99700000Y-71400000D03*
%TO.N,/Warp_Amt_Trm*%
X99700000Y-70300000D03*
%TD*%
D16*
%TO.N,+12V*%
X111600000Y-40200000D02*
X109200000Y-42600000D01*
X125150000Y-75650000D02*
X125150000Y-42050000D01*
X78500000Y-129800000D02*
X94000000Y-129800000D01*
X96300000Y-127500000D02*
X94000000Y-129800000D01*
X109200000Y-42600000D02*
X109200000Y-51399998D01*
X123300000Y-40200000D02*
X111600000Y-40200000D01*
X117200000Y-78650000D02*
X122150000Y-78650000D01*
X117200000Y-114700000D02*
X115200000Y-116700000D01*
X109200000Y-63000000D02*
X112400000Y-66200000D01*
X115200000Y-116700000D02*
X98900000Y-116700000D01*
X96300000Y-119300000D02*
X96300000Y-127500000D01*
X117200000Y-78650000D02*
X117200000Y-114700000D01*
X109200000Y-51399998D02*
X109200000Y-63000000D01*
X122150000Y-78650000D02*
X125150000Y-75650000D01*
X90500000Y-135000000D02*
X90500000Y-129800000D01*
X98900000Y-116700000D02*
X96300000Y-119300000D01*
X125150000Y-42050000D02*
X123300000Y-40200000D01*
%TO.N,-12V*%
X62000000Y-135000000D02*
X84000000Y-135000000D01*
X73500000Y-123600000D02*
X73500000Y-134900000D01*
X77000000Y-120100000D02*
X94400000Y-120100000D01*
X77000000Y-120100000D02*
X73500000Y-123600000D01*
X73500000Y-134900000D02*
X73600000Y-135000000D01*
X57850001Y-130850001D02*
X62000000Y-135000000D01*
D17*
%TO.N,+3.3VA*%
X75987500Y-109900000D02*
X75987500Y-112487500D01*
X110500000Y-84200000D02*
X110500000Y-108300000D01*
D18*
X67300000Y-101187500D02*
X67287500Y-101200000D01*
X67287500Y-101200000D02*
X70287500Y-104200000D01*
D17*
X70287500Y-104200000D02*
X75987500Y-109900000D01*
X110500000Y-108300000D02*
X110100000Y-108700000D01*
D18*
X67300000Y-94000000D02*
X67300000Y-101187500D01*
D17*
X110100000Y-108700000D02*
X104200000Y-114600000D01*
X104200000Y-114600000D02*
X103200000Y-114600000D01*
X75987500Y-112487500D02*
X78100000Y-114600000D01*
X78100000Y-114600000D02*
X103200000Y-114600000D01*
D19*
%TO.N,+3.3V*%
X83400000Y-79700000D02*
X73590000Y-89510000D01*
D18*
X81587500Y-113400000D02*
X83387500Y-111600000D01*
X82300000Y-58800000D02*
X79400000Y-61700000D01*
X83387500Y-111600000D02*
X83387500Y-100500000D01*
X97800000Y-100500000D02*
X101600000Y-96700000D01*
X83387500Y-100500000D02*
X97800000Y-100500000D01*
X98400000Y-78700000D02*
X97500000Y-79600000D01*
X117900000Y-55700000D02*
X117900000Y-66600000D01*
X118100000Y-55500000D02*
X117900000Y-55700000D01*
X117900000Y-66600000D02*
X117400000Y-67100000D01*
X101600000Y-96700000D02*
X101600000Y-83200000D01*
D19*
X73590000Y-89510000D02*
X71200000Y-89510000D01*
D18*
X71300000Y-89610000D02*
X71200000Y-89510000D01*
X97500000Y-79600000D02*
X97700000Y-79800000D01*
X97700000Y-79800000D02*
X98200000Y-79800000D01*
X99600000Y-58800000D02*
X82300000Y-58800000D01*
X71300000Y-94000000D02*
X71300000Y-89610000D01*
X99100000Y-67100000D02*
X98400000Y-67800000D01*
X83387500Y-95987500D02*
X82700000Y-95300000D01*
X98400000Y-67800000D02*
X98400000Y-78700000D01*
X101325000Y-60625000D02*
X101325000Y-67100000D01*
D19*
X71200000Y-89510000D02*
X57900000Y-89510000D01*
D18*
X101600000Y-90500000D02*
X99100000Y-90500000D01*
X83387500Y-100500000D02*
X83387500Y-95987500D01*
X117400000Y-67100000D02*
X101325000Y-67100000D01*
X98200000Y-79800000D02*
X101600000Y-83200000D01*
X101325000Y-67100000D02*
X99100000Y-67100000D01*
D19*
X83500000Y-79700000D02*
X83400000Y-79700000D01*
D18*
X71300000Y-94000000D02*
X81400000Y-94000000D01*
X99600000Y-58900000D02*
X101325000Y-60625000D01*
X81400000Y-94000000D02*
X82700000Y-95300000D01*
X99600000Y-58800000D02*
X99600000Y-58900000D01*
D19*
%TO.N,/OCTOSPIM_P1_IO6*%
X91266701Y-91800000D02*
X91386701Y-91800000D01*
X90066701Y-91800000D02*
X90186701Y-91800000D01*
X91026701Y-93510000D02*
X91026701Y-92040000D01*
X96100000Y-92800000D02*
X97000000Y-91900000D01*
X88800002Y-92800000D02*
X89586701Y-92800000D01*
X90426701Y-92040000D02*
X90426701Y-93510000D01*
X89826701Y-92560000D02*
X89826701Y-92040000D01*
X88500000Y-92499998D02*
X88800002Y-92800000D01*
X91866701Y-92800000D02*
X91986701Y-92800000D01*
X90666701Y-93750000D02*
X90786701Y-93750000D01*
X91986701Y-92800000D02*
X96100000Y-92800000D01*
X91626701Y-92040000D02*
X91626701Y-92560000D01*
X91386701Y-91800000D02*
G75*
G02*
X91626700Y-92040000I-1J-240000D01*
G01*
X90186701Y-91800000D02*
G75*
G02*
X90426700Y-92040000I-1J-240000D01*
G01*
X91626701Y-92560000D02*
G75*
G03*
X91866701Y-92799999I239999J0D01*
G01*
X90786701Y-93750000D02*
G75*
G03*
X91026700Y-93510000I-1J240000D01*
G01*
X89586701Y-92800000D02*
G75*
G03*
X89826700Y-92560000I-1J240000D01*
G01*
X91026701Y-92040000D02*
G75*
G02*
X91266701Y-91800001I239999J0D01*
G01*
X90426701Y-93510000D02*
G75*
G03*
X90666701Y-93749999I239999J0D01*
G01*
X89826701Y-92040000D02*
G75*
G02*
X90066701Y-91800001I239999J0D01*
G01*
%TO.N,/Wavetable_Pos_A_Pot*%
X75214998Y-85785000D02*
X56915000Y-85785000D01*
X55725000Y-86975000D02*
X55725000Y-104265000D01*
X85899999Y-75099999D02*
X75214998Y-85785000D01*
X56915000Y-85785000D02*
X55725000Y-86975000D01*
X55725000Y-104265000D02*
X58000000Y-106540000D01*
%TO.N,/OCTOSPIM_P1_IO3*%
X87200000Y-71900000D02*
X86200000Y-70900000D01*
X87200000Y-96500000D02*
X87200000Y-71900000D01*
X86200000Y-70900000D02*
X84900000Y-70900000D01*
%TO.N,/OCTOSPIM_P1_IO4*%
X97500545Y-93900545D02*
X98300000Y-94700000D01*
X91683290Y-93900545D02*
X97500545Y-93900545D01*
%TO.N,/SWCLK*%
X64800000Y-67600000D02*
X62450000Y-69950000D01*
X79800000Y-67600000D02*
X64800000Y-67600000D01*
X60610000Y-81890000D02*
X57900000Y-81890000D01*
X83700000Y-63700000D02*
X79800000Y-67600000D01*
X62450000Y-80050000D02*
X60610000Y-81890000D01*
X62450000Y-69950000D02*
X62450000Y-80050000D01*
X84800000Y-63700000D02*
X83700000Y-63700000D01*
%TO.N,/OCTOSPIM_P1_IO0*%
X90200000Y-85500000D02*
X93200000Y-88500000D01*
X85600000Y-68000000D02*
X90200000Y-72600000D01*
X90200000Y-72600000D02*
X90200000Y-85500000D01*
%TO.N,/OCTOSPIM_P1_IO2*%
X95200000Y-87100000D02*
X93300000Y-85200000D01*
X93300000Y-85200000D02*
X93300000Y-72600000D01*
X93300000Y-72600000D02*
X94000000Y-71900000D01*
%TO.N,/SWIO*%
X76200000Y-65600000D02*
X63800000Y-65600000D01*
X56300000Y-82830000D02*
X57900000Y-84430000D01*
X63800000Y-65600000D02*
X60875000Y-68525000D01*
X56800000Y-79900000D02*
X56300000Y-80400000D01*
X56300000Y-80400000D02*
X56300000Y-82830000D01*
X60875000Y-68525000D02*
X60875000Y-78725000D01*
X59700000Y-79900000D02*
X56800000Y-79900000D01*
X60875000Y-78725000D02*
X59700000Y-79900000D01*
%TO.N,/OCTOSPIM_P1_IO1*%
X89400000Y-72900002D02*
X89400000Y-87349999D01*
X89399998Y-72900000D02*
X89400000Y-72900002D01*
X89400000Y-87349999D02*
X89100000Y-87649999D01*
D18*
%TO.N,/-5V_REF*%
X100525000Y-119000000D02*
X113900000Y-119000000D01*
X112700000Y-135000000D02*
X113900000Y-133800000D01*
X97000000Y-135000000D02*
X112700000Y-135000000D01*
X113900000Y-133800000D02*
X113900000Y-119000000D01*
D19*
%TO.N,/Warp_Amt_Pot*%
X99700000Y-71400000D02*
X102900000Y-74600000D01*
X102900000Y-74600000D02*
X118800000Y-74600000D01*
X118800000Y-74600000D02*
X123000000Y-70400000D01*
%TO.N,/Warp_Amt_Trm*%
X99700000Y-70300000D02*
X103400000Y-74000000D01*
X103400000Y-74000000D02*
X116860000Y-74000000D01*
X116860000Y-74000000D02*
X123000000Y-67860000D01*
%TD*%
%TA.AperFunction,Conductor*%
%TO.N,GND*%
G36*
X99241167Y-72181711D02*
G01*
X99241637Y-72180899D01*
X99247270Y-72184151D01*
X99420192Y-72261142D01*
X99420197Y-72261144D01*
X99605354Y-72300500D01*
X99664548Y-72300500D01*
X99731587Y-72320185D01*
X99752228Y-72336818D01*
X102414141Y-74998732D01*
X102414142Y-74998733D01*
X102495057Y-75079648D01*
X102501268Y-75085859D01*
X102603707Y-75154307D01*
X102603711Y-75154309D01*
X102603714Y-75154311D01*
X102717548Y-75201463D01*
X102838388Y-75225499D01*
X102838392Y-75225500D01*
X102838393Y-75225500D01*
X118861607Y-75225500D01*
X118922029Y-75213481D01*
X118982452Y-75201463D01*
X118982455Y-75201461D01*
X118982458Y-75201461D01*
X119015787Y-75187654D01*
X119015786Y-75187654D01*
X119015792Y-75187652D01*
X119096286Y-75154312D01*
X119147509Y-75120084D01*
X119149307Y-75118883D01*
X119160271Y-75111556D01*
X119198733Y-75085858D01*
X119285858Y-74998733D01*
X119285859Y-74998731D01*
X119292925Y-74991665D01*
X119292928Y-74991661D01*
X121432660Y-72851929D01*
X121493983Y-72818444D01*
X121563675Y-72823428D01*
X121619608Y-72865300D01*
X121644025Y-72930764D01*
X121644341Y-72939610D01*
X121644341Y-72940000D01*
X121664936Y-73175403D01*
X121664938Y-73175413D01*
X121726094Y-73403655D01*
X121726096Y-73403659D01*
X121726097Y-73403663D01*
X121807722Y-73578708D01*
X121825965Y-73617830D01*
X121825967Y-73617834D01*
X121927487Y-73762819D01*
X121961505Y-73811401D01*
X122128599Y-73978495D01*
X122225384Y-74046265D01*
X122322165Y-74114032D01*
X122322167Y-74114033D01*
X122322170Y-74114035D01*
X122536337Y-74213903D01*
X122764592Y-74275063D01*
X122952918Y-74291539D01*
X122999999Y-74295659D01*
X123000000Y-74295659D01*
X123000001Y-74295659D01*
X123039234Y-74292226D01*
X123235408Y-74275063D01*
X123463663Y-74213903D01*
X123677830Y-74114035D01*
X123871401Y-73978495D01*
X124038495Y-73811401D01*
X124173925Y-73617986D01*
X124228502Y-73574362D01*
X124298000Y-73567168D01*
X124360355Y-73598691D01*
X124395769Y-73658921D01*
X124399500Y-73689110D01*
X124399500Y-75287770D01*
X124379815Y-75354809D01*
X124363181Y-75375451D01*
X121875451Y-77863181D01*
X121814128Y-77896666D01*
X121787770Y-77899500D01*
X117906978Y-77899500D01*
X117839939Y-77879815D01*
X117828313Y-77871353D01*
X117758539Y-77814090D01*
X117758532Y-77814086D01*
X117584733Y-77721188D01*
X117584727Y-77721186D01*
X117396132Y-77663976D01*
X117396129Y-77663975D01*
X117200000Y-77644659D01*
X117003870Y-77663975D01*
X116815266Y-77721188D01*
X116641467Y-77814086D01*
X116641460Y-77814090D01*
X116489116Y-77939116D01*
X116364090Y-78091460D01*
X116364086Y-78091467D01*
X116271188Y-78265266D01*
X116213975Y-78453870D01*
X116194659Y-78650000D01*
X116213975Y-78846129D01*
X116213976Y-78846132D01*
X116267108Y-79021285D01*
X116271188Y-79034733D01*
X116364084Y-79208529D01*
X116364087Y-79208533D01*
X116364090Y-79208538D01*
X116421354Y-79278314D01*
X116448666Y-79342620D01*
X116449500Y-79356976D01*
X116449500Y-114337770D01*
X116429815Y-114404809D01*
X116413181Y-114425451D01*
X114925451Y-115913181D01*
X114864128Y-115946666D01*
X114837770Y-115949500D01*
X98826080Y-115949500D01*
X98681092Y-115978340D01*
X98681082Y-115978343D01*
X98544511Y-116034912D01*
X98544498Y-116034919D01*
X98421584Y-116117048D01*
X98421580Y-116117051D01*
X95717050Y-118821580D01*
X95717044Y-118821588D01*
X95667812Y-118895268D01*
X95667813Y-118895269D01*
X95634921Y-118944496D01*
X95634914Y-118944508D01*
X95578342Y-119081086D01*
X95578340Y-119081092D01*
X95549500Y-119226079D01*
X95549500Y-119633111D01*
X95529815Y-119700150D01*
X95477011Y-119745905D01*
X95407853Y-119755849D01*
X95344297Y-119726824D01*
X95316142Y-119691564D01*
X95235913Y-119541467D01*
X95235909Y-119541460D01*
X95110883Y-119389116D01*
X94958539Y-119264090D01*
X94958532Y-119264086D01*
X94784733Y-119171188D01*
X94784727Y-119171186D01*
X94596132Y-119113976D01*
X94596129Y-119113975D01*
X94400000Y-119094659D01*
X94203870Y-119113975D01*
X94015266Y-119171188D01*
X93841467Y-119264086D01*
X93841460Y-119264090D01*
X93771687Y-119321353D01*
X93707377Y-119348666D01*
X93693022Y-119349500D01*
X76926080Y-119349500D01*
X76781092Y-119378340D01*
X76781082Y-119378343D01*
X76644511Y-119434912D01*
X76644498Y-119434919D01*
X76521584Y-119517048D01*
X76521580Y-119517051D01*
X73469225Y-122569405D01*
X73407902Y-122602890D01*
X73393700Y-122605127D01*
X73303870Y-122613975D01*
X73115266Y-122671188D01*
X72941467Y-122764086D01*
X72941460Y-122764090D01*
X72789116Y-122889116D01*
X72664090Y-123041460D01*
X72664086Y-123041467D01*
X72571188Y-123215266D01*
X72513975Y-123403870D01*
X72494659Y-123600000D01*
X72513975Y-123796129D01*
X72571188Y-123984733D01*
X72664084Y-124158529D01*
X72664087Y-124158533D01*
X72664090Y-124158538D01*
X72721354Y-124228314D01*
X72748666Y-124292620D01*
X72749500Y-124306976D01*
X72749500Y-134125500D01*
X72729815Y-134192539D01*
X72677011Y-134238294D01*
X72625500Y-134249500D01*
X62362230Y-134249500D01*
X62295191Y-134229815D01*
X62274549Y-134213181D01*
X58880594Y-130819226D01*
X58847109Y-130757903D01*
X58844872Y-130743698D01*
X58836025Y-130653872D01*
X58836025Y-130653871D01*
X58836025Y-130653869D01*
X58778815Y-130465274D01*
X58778812Y-130465270D01*
X58778812Y-130465267D01*
X58685914Y-130291468D01*
X58685910Y-130291461D01*
X58560884Y-130139117D01*
X58408540Y-130014091D01*
X58408533Y-130014087D01*
X58234734Y-129921189D01*
X58234728Y-129921187D01*
X58046133Y-129863977D01*
X58046130Y-129863976D01*
X57850001Y-129844660D01*
X57653871Y-129863976D01*
X57465267Y-129921189D01*
X57291468Y-130014087D01*
X57291461Y-130014091D01*
X57139117Y-130139117D01*
X57014091Y-130291461D01*
X57014087Y-130291468D01*
X56921189Y-130465267D01*
X56863976Y-130653871D01*
X56844660Y-130850001D01*
X56863976Y-131046130D01*
X56921189Y-131234734D01*
X57014087Y-131408533D01*
X57014091Y-131408540D01*
X57139117Y-131560884D01*
X57291461Y-131685910D01*
X57291468Y-131685914D01*
X57465267Y-131778812D01*
X57465270Y-131778812D01*
X57465274Y-131778815D01*
X57653869Y-131836025D01*
X57743698Y-131844872D01*
X57808486Y-131871032D01*
X57819226Y-131880594D01*
X61521584Y-135582952D01*
X61550548Y-135602305D01*
X61579508Y-135621655D01*
X61579510Y-135621656D01*
X61579513Y-135621658D01*
X61644505Y-135665084D01*
X61644506Y-135665084D01*
X61644507Y-135665085D01*
X61759431Y-135712688D01*
X61781087Y-135721658D01*
X61781091Y-135721658D01*
X61781092Y-135721659D01*
X61926079Y-135750500D01*
X61926082Y-135750500D01*
X61926083Y-135750500D01*
X62073917Y-135750500D01*
X73526082Y-135750500D01*
X73673917Y-135750500D01*
X82630864Y-135750500D01*
X82697903Y-135770185D01*
X82734672Y-135806677D01*
X82811836Y-135924785D01*
X82980256Y-136107738D01*
X83176491Y-136260474D01*
X83176493Y-136260475D01*
X83394332Y-136378364D01*
X83395190Y-136378828D01*
X83614141Y-136453994D01*
X83628964Y-136459083D01*
X83630386Y-136459571D01*
X83875665Y-136500500D01*
X84124335Y-136500500D01*
X84369614Y-136459571D01*
X84604810Y-136378828D01*
X84823509Y-136260474D01*
X85019744Y-136107738D01*
X85188164Y-135924785D01*
X85324173Y-135716607D01*
X85424063Y-135488881D01*
X85485108Y-135247821D01*
X85488417Y-135207890D01*
X85505643Y-135000005D01*
X85505643Y-134999994D01*
X85485109Y-134752187D01*
X85485107Y-134752175D01*
X85424063Y-134511118D01*
X85324173Y-134283393D01*
X85188166Y-134075217D01*
X85109475Y-133989736D01*
X85019744Y-133892262D01*
X84823509Y-133739526D01*
X84823507Y-133739525D01*
X84823506Y-133739524D01*
X84604811Y-133621172D01*
X84604802Y-133621169D01*
X84369616Y-133540429D01*
X84124335Y-133499500D01*
X83875665Y-133499500D01*
X83630383Y-133540429D01*
X83395197Y-133621169D01*
X83395188Y-133621172D01*
X83176493Y-133739524D01*
X83129129Y-133776389D01*
X82980256Y-133892262D01*
X82811836Y-134075215D01*
X82735185Y-134192539D01*
X82734673Y-134193322D01*
X82681526Y-134238678D01*
X82630864Y-134249500D01*
X74374500Y-134249500D01*
X74307461Y-134229815D01*
X74261706Y-134177011D01*
X74250500Y-134125500D01*
X74250500Y-124306976D01*
X74270185Y-124239937D01*
X74278632Y-124228329D01*
X74335910Y-124158538D01*
X74428814Y-123984727D01*
X74486024Y-123796132D01*
X74494871Y-123706299D01*
X74521031Y-123641513D01*
X74530584Y-123630782D01*
X77274548Y-120886819D01*
X77335871Y-120853334D01*
X77362229Y-120850500D01*
X93693022Y-120850500D01*
X93760061Y-120870185D01*
X93771687Y-120878647D01*
X93841460Y-120935909D01*
X93841467Y-120935913D01*
X94015266Y-121028811D01*
X94015269Y-121028811D01*
X94015273Y-121028814D01*
X94203868Y-121086024D01*
X94400000Y-121105341D01*
X94596132Y-121086024D01*
X94784727Y-121028814D01*
X94958538Y-120935910D01*
X95110883Y-120810883D01*
X95235910Y-120658538D01*
X95316142Y-120508435D01*
X95365104Y-120458591D01*
X95433241Y-120443130D01*
X95498921Y-120466961D01*
X95541290Y-120522519D01*
X95549500Y-120566888D01*
X95549500Y-127137770D01*
X95529815Y-127204809D01*
X95513181Y-127225451D01*
X93725451Y-129013181D01*
X93664128Y-129046666D01*
X93637770Y-129049500D01*
X79206978Y-129049500D01*
X79139939Y-129029815D01*
X79128313Y-129021353D01*
X79058539Y-128964090D01*
X79058532Y-128964086D01*
X78884733Y-128871188D01*
X78884727Y-128871186D01*
X78696132Y-128813976D01*
X78696129Y-128813975D01*
X78500000Y-128794659D01*
X78303870Y-128813975D01*
X78115266Y-128871188D01*
X77941467Y-128964086D01*
X77941460Y-128964090D01*
X77789116Y-129089116D01*
X77664090Y-129241460D01*
X77664086Y-129241467D01*
X77571188Y-129415266D01*
X77513975Y-129603870D01*
X77494659Y-129800000D01*
X77513975Y-129996129D01*
X77571188Y-130184733D01*
X77664086Y-130358532D01*
X77664090Y-130358539D01*
X77789116Y-130510883D01*
X77941460Y-130635909D01*
X77941467Y-130635913D01*
X78115266Y-130728811D01*
X78115269Y-130728811D01*
X78115273Y-130728814D01*
X78303868Y-130786024D01*
X78500000Y-130805341D01*
X78696132Y-130786024D01*
X78884727Y-130728814D01*
X79058538Y-130635910D01*
X79128313Y-130578647D01*
X79192623Y-130551334D01*
X79206978Y-130550500D01*
X89625500Y-130550500D01*
X89692539Y-130570185D01*
X89738294Y-130622989D01*
X89749500Y-130674500D01*
X89749500Y-133626128D01*
X89729815Y-133693167D01*
X89684522Y-133735179D01*
X89676491Y-133739526D01*
X89545667Y-133841350D01*
X89480257Y-133892261D01*
X89311833Y-134075217D01*
X89175826Y-134283393D01*
X89075936Y-134511118D01*
X89014892Y-134752175D01*
X89014890Y-134752187D01*
X88994357Y-134999994D01*
X88994357Y-135000005D01*
X89014890Y-135247812D01*
X89014892Y-135247824D01*
X89075936Y-135488881D01*
X89175826Y-135716606D01*
X89311833Y-135924782D01*
X89311835Y-135924784D01*
X89311836Y-135924785D01*
X89480256Y-136107738D01*
X89676491Y-136260474D01*
X89676493Y-136260475D01*
X89894332Y-136378364D01*
X89895190Y-136378828D01*
X90114141Y-136453994D01*
X90128964Y-136459083D01*
X90130386Y-136459571D01*
X90375665Y-136500500D01*
X90624335Y-136500500D01*
X90869614Y-136459571D01*
X91104810Y-136378828D01*
X91323509Y-136260474D01*
X91519744Y-136107738D01*
X91688164Y-135924785D01*
X91824173Y-135716607D01*
X91924063Y-135488881D01*
X91985108Y-135247821D01*
X91988417Y-135207890D01*
X92005643Y-135000005D01*
X95494357Y-135000005D01*
X95514890Y-135247812D01*
X95514892Y-135247824D01*
X95575936Y-135488881D01*
X95675826Y-135716606D01*
X95811833Y-135924782D01*
X95811835Y-135924784D01*
X95811836Y-135924785D01*
X95980256Y-136107738D01*
X96176491Y-136260474D01*
X96176493Y-136260475D01*
X96394332Y-136378364D01*
X96395190Y-136378828D01*
X96614141Y-136453994D01*
X96628964Y-136459083D01*
X96630386Y-136459571D01*
X96875665Y-136500500D01*
X97124335Y-136500500D01*
X97369614Y-136459571D01*
X97604810Y-136378828D01*
X97823509Y-136260474D01*
X98019744Y-136107738D01*
X98188164Y-135924785D01*
X98324173Y-135716607D01*
X98324175Y-135716601D01*
X98324786Y-135715475D01*
X98325157Y-135715101D01*
X98326978Y-135712314D01*
X98327551Y-135712688D01*
X98374009Y-135665888D01*
X98433837Y-135650500D01*
X112764071Y-135650500D01*
X112848615Y-135633682D01*
X112889744Y-135625501D01*
X113008127Y-135576465D01*
X113025160Y-135565084D01*
X113025160Y-135565083D01*
X113025162Y-135565083D01*
X113069914Y-135535180D01*
X113114669Y-135505277D01*
X113719941Y-134900005D01*
X121394859Y-134900005D01*
X121415385Y-135147729D01*
X121415387Y-135147738D01*
X121476412Y-135388717D01*
X121576266Y-135616364D01*
X121676564Y-135769882D01*
X122298958Y-135147488D01*
X122323978Y-135207890D01*
X122395112Y-135314351D01*
X122485649Y-135404888D01*
X122592110Y-135476022D01*
X122652511Y-135501041D01*
X122029942Y-136123609D01*
X122076768Y-136160055D01*
X122076770Y-136160056D01*
X122295385Y-136278364D01*
X122295396Y-136278369D01*
X122530506Y-136359083D01*
X122775707Y-136400000D01*
X123024293Y-136400000D01*
X123269493Y-136359083D01*
X123504603Y-136278369D01*
X123504614Y-136278364D01*
X123723228Y-136160057D01*
X123723231Y-136160055D01*
X123770056Y-136123609D01*
X123147488Y-135501041D01*
X123207890Y-135476022D01*
X123314351Y-135404888D01*
X123404888Y-135314351D01*
X123476022Y-135207890D01*
X123501041Y-135147489D01*
X124123434Y-135769882D01*
X124223731Y-135616369D01*
X124323587Y-135388717D01*
X124384612Y-135147738D01*
X124384614Y-135147729D01*
X124405141Y-134900005D01*
X124405141Y-134899994D01*
X124384614Y-134652270D01*
X124384612Y-134652261D01*
X124323587Y-134411282D01*
X124223731Y-134183630D01*
X124123434Y-134030116D01*
X123501041Y-134652510D01*
X123476022Y-134592110D01*
X123404888Y-134485649D01*
X123314351Y-134395112D01*
X123207890Y-134323978D01*
X123147489Y-134298958D01*
X123770057Y-133676390D01*
X123770056Y-133676389D01*
X123723229Y-133639943D01*
X123504614Y-133521635D01*
X123504603Y-133521630D01*
X123269493Y-133440916D01*
X123024293Y-133400000D01*
X122775707Y-133400000D01*
X122530506Y-133440916D01*
X122295396Y-133521630D01*
X122295390Y-133521632D01*
X122076761Y-133639949D01*
X122029942Y-133676388D01*
X122029942Y-133676390D01*
X122652511Y-134298958D01*
X122592110Y-134323978D01*
X122485649Y-134395112D01*
X122395112Y-134485649D01*
X122323978Y-134592110D01*
X122298958Y-134652510D01*
X121676564Y-134030116D01*
X121576267Y-134183632D01*
X121476412Y-134411282D01*
X121415387Y-134652261D01*
X121415385Y-134652270D01*
X121394859Y-134899994D01*
X121394859Y-134900005D01*
X113719941Y-134900005D01*
X114405276Y-134214670D01*
X114476465Y-134108127D01*
X114525501Y-133989744D01*
X114536631Y-133933789D01*
X114550500Y-133864069D01*
X114550500Y-126860000D01*
X121644341Y-126860000D01*
X121664936Y-127095403D01*
X121664938Y-127095413D01*
X121726094Y-127323655D01*
X121726096Y-127323659D01*
X121726097Y-127323663D01*
X121825965Y-127537830D01*
X121825967Y-127537834D01*
X121934281Y-127692521D01*
X121961505Y-127731401D01*
X122128599Y-127898495D01*
X122225384Y-127966265D01*
X122322165Y-128034032D01*
X122322167Y-128034033D01*
X122322170Y-128034035D01*
X122536337Y-128133903D01*
X122764592Y-128195063D01*
X122952918Y-128211539D01*
X122999999Y-128215659D01*
X123000000Y-128215659D01*
X123000001Y-128215659D01*
X123039234Y-128212226D01*
X123235408Y-128195063D01*
X123463663Y-128133903D01*
X123677830Y-128034035D01*
X123871401Y-127898495D01*
X124038495Y-127731401D01*
X124174035Y-127537830D01*
X124273903Y-127323663D01*
X124335063Y-127095408D01*
X124355659Y-126860000D01*
X124335063Y-126624592D01*
X124273903Y-126396337D01*
X124174035Y-126182171D01*
X124038495Y-125988599D01*
X124038494Y-125988597D01*
X123871402Y-125821506D01*
X123871396Y-125821501D01*
X123685842Y-125691575D01*
X123642217Y-125636998D01*
X123635023Y-125567500D01*
X123666546Y-125505145D01*
X123685842Y-125488425D01*
X123708026Y-125472891D01*
X123871401Y-125358495D01*
X124038495Y-125191401D01*
X124174035Y-124997830D01*
X124273903Y-124783663D01*
X124335063Y-124555408D01*
X124355659Y-124320000D01*
X124335063Y-124084592D01*
X124273903Y-123856337D01*
X124174035Y-123642171D01*
X124173575Y-123641513D01*
X124038494Y-123448597D01*
X123871402Y-123281506D01*
X123871401Y-123281505D01*
X123685405Y-123151269D01*
X123641781Y-123096692D01*
X123634588Y-123027193D01*
X123666110Y-122964839D01*
X123685405Y-122948119D01*
X123871082Y-122818105D01*
X124038105Y-122651082D01*
X124173600Y-122457578D01*
X124273429Y-122243492D01*
X124273432Y-122243486D01*
X124330636Y-122030000D01*
X123433012Y-122030000D01*
X123465925Y-121972993D01*
X123500000Y-121845826D01*
X123500000Y-121714174D01*
X123465925Y-121587007D01*
X123433012Y-121530000D01*
X124330636Y-121530000D01*
X124330635Y-121529999D01*
X124273432Y-121316513D01*
X124273429Y-121316507D01*
X124173600Y-121102422D01*
X124173599Y-121102420D01*
X124038113Y-120908926D01*
X124038108Y-120908920D01*
X123871078Y-120741890D01*
X123685405Y-120611879D01*
X123641780Y-120557302D01*
X123634588Y-120487804D01*
X123666110Y-120425449D01*
X123685406Y-120408730D01*
X123686279Y-120408119D01*
X123871401Y-120278495D01*
X124038495Y-120111401D01*
X124174035Y-119917830D01*
X124273903Y-119703663D01*
X124335063Y-119475408D01*
X124355659Y-119240000D01*
X124335063Y-119004592D01*
X124273903Y-118776337D01*
X124174035Y-118562171D01*
X124107946Y-118467785D01*
X124038494Y-118368597D01*
X123871402Y-118201506D01*
X123871396Y-118201501D01*
X123685842Y-118071575D01*
X123642217Y-118016998D01*
X123635023Y-117947500D01*
X123666546Y-117885145D01*
X123685842Y-117868425D01*
X123708026Y-117852891D01*
X123871401Y-117738495D01*
X124038495Y-117571401D01*
X124174035Y-117377830D01*
X124273903Y-117163663D01*
X124335063Y-116935408D01*
X124355659Y-116700000D01*
X124335063Y-116464592D01*
X124273903Y-116236337D01*
X124174035Y-116022171D01*
X124143347Y-115978343D01*
X124038494Y-115828597D01*
X123871402Y-115661506D01*
X123871401Y-115661505D01*
X123685405Y-115531269D01*
X123641781Y-115476692D01*
X123634588Y-115407193D01*
X123666110Y-115344839D01*
X123685405Y-115328119D01*
X123871082Y-115198105D01*
X124038105Y-115031082D01*
X124173600Y-114837578D01*
X124273429Y-114623492D01*
X124273432Y-114623486D01*
X124330636Y-114410000D01*
X123433012Y-114410000D01*
X123465925Y-114352993D01*
X123500000Y-114225826D01*
X123500000Y-114094174D01*
X123465925Y-113967007D01*
X123433012Y-113910000D01*
X124330636Y-113910000D01*
X124330635Y-113909999D01*
X124273432Y-113696513D01*
X124273429Y-113696507D01*
X124173600Y-113482422D01*
X124173599Y-113482420D01*
X124038113Y-113288926D01*
X124038108Y-113288920D01*
X123871078Y-113121890D01*
X123685405Y-112991879D01*
X123641780Y-112937302D01*
X123634588Y-112867804D01*
X123666110Y-112805449D01*
X123685406Y-112788730D01*
X123685842Y-112788425D01*
X123871401Y-112658495D01*
X124038495Y-112491401D01*
X124174035Y-112297830D01*
X124273903Y-112083663D01*
X124335063Y-111855408D01*
X124355659Y-111620000D01*
X124335063Y-111384592D01*
X124273903Y-111156337D01*
X124174035Y-110942171D01*
X124038495Y-110748599D01*
X124038494Y-110748597D01*
X123871402Y-110581506D01*
X123871396Y-110581501D01*
X123685842Y-110451575D01*
X123642217Y-110396998D01*
X123635023Y-110327500D01*
X123666546Y-110265145D01*
X123685842Y-110248425D01*
X123820926Y-110153838D01*
X123871401Y-110118495D01*
X124038495Y-109951401D01*
X124174035Y-109757830D01*
X124273903Y-109543663D01*
X124335063Y-109315408D01*
X124355659Y-109080000D01*
X124335063Y-108844592D01*
X124279130Y-108635846D01*
X124273905Y-108616344D01*
X124273904Y-108616343D01*
X124273903Y-108616337D01*
X124174035Y-108402171D01*
X124124707Y-108331722D01*
X124038494Y-108208597D01*
X123871402Y-108041506D01*
X123871401Y-108041505D01*
X123691944Y-107915848D01*
X123685405Y-107911269D01*
X123641781Y-107856692D01*
X123634588Y-107787193D01*
X123666110Y-107724839D01*
X123685405Y-107708119D01*
X123871082Y-107578105D01*
X124038105Y-107411082D01*
X124173600Y-107217578D01*
X124273429Y-107003492D01*
X124273432Y-107003486D01*
X124330636Y-106790000D01*
X123433012Y-106790000D01*
X123465925Y-106732993D01*
X123500000Y-106605826D01*
X123500000Y-106474174D01*
X123465925Y-106347007D01*
X123433012Y-106290000D01*
X124330636Y-106290000D01*
X124330635Y-106289999D01*
X124273432Y-106076513D01*
X124273429Y-106076507D01*
X124173600Y-105862422D01*
X124173599Y-105862420D01*
X124038113Y-105668926D01*
X124038108Y-105668920D01*
X123916053Y-105546865D01*
X123882568Y-105485542D01*
X123887552Y-105415850D01*
X123929424Y-105359917D01*
X123960400Y-105343002D01*
X124092331Y-105293796D01*
X124207546Y-105207546D01*
X124293796Y-105092331D01*
X124344091Y-104957483D01*
X124350500Y-104897873D01*
X124350499Y-103102128D01*
X124344091Y-103042517D01*
X124293796Y-102907669D01*
X124293795Y-102907668D01*
X124293793Y-102907664D01*
X124207547Y-102792455D01*
X124207544Y-102792452D01*
X124092335Y-102706206D01*
X124092328Y-102706202D01*
X123957482Y-102655908D01*
X123957483Y-102655908D01*
X123897883Y-102649501D01*
X123897881Y-102649500D01*
X123897873Y-102649500D01*
X123897864Y-102649500D01*
X122102129Y-102649500D01*
X122102123Y-102649501D01*
X122042516Y-102655908D01*
X121907671Y-102706202D01*
X121907664Y-102706206D01*
X121792455Y-102792452D01*
X121792452Y-102792455D01*
X121706206Y-102907664D01*
X121706202Y-102907671D01*
X121655908Y-103042517D01*
X121649501Y-103102116D01*
X121649501Y-103102123D01*
X121649500Y-103102135D01*
X121649500Y-104897870D01*
X121649501Y-104897876D01*
X121655908Y-104957483D01*
X121706202Y-105092328D01*
X121706206Y-105092335D01*
X121792452Y-105207544D01*
X121792455Y-105207547D01*
X121907664Y-105293793D01*
X121907671Y-105293797D01*
X121907674Y-105293798D01*
X122039598Y-105343002D01*
X122095531Y-105384873D01*
X122119949Y-105450337D01*
X122105098Y-105518610D01*
X122083947Y-105546865D01*
X121961886Y-105668926D01*
X121826400Y-105862420D01*
X121826399Y-105862422D01*
X121726570Y-106076507D01*
X121726567Y-106076513D01*
X121669364Y-106289999D01*
X121669364Y-106290000D01*
X122566988Y-106290000D01*
X122534075Y-106347007D01*
X122500000Y-106474174D01*
X122500000Y-106605826D01*
X122534075Y-106732993D01*
X122566988Y-106790000D01*
X121669364Y-106790000D01*
X121726567Y-107003486D01*
X121726570Y-107003492D01*
X121826399Y-107217578D01*
X121961894Y-107411082D01*
X122128917Y-107578105D01*
X122314595Y-107708119D01*
X122358219Y-107762696D01*
X122365412Y-107832195D01*
X122333890Y-107894549D01*
X122314595Y-107911269D01*
X122128594Y-108041508D01*
X121961505Y-108208597D01*
X121825965Y-108402169D01*
X121825964Y-108402171D01*
X121726098Y-108616335D01*
X121726094Y-108616344D01*
X121664938Y-108844586D01*
X121664936Y-108844596D01*
X121644341Y-109079999D01*
X121644341Y-109080000D01*
X121664936Y-109315403D01*
X121664938Y-109315413D01*
X121726094Y-109543655D01*
X121726096Y-109543659D01*
X121726097Y-109543663D01*
X121825847Y-109757578D01*
X121825965Y-109757830D01*
X121825967Y-109757834D01*
X121961501Y-109951395D01*
X121961506Y-109951402D01*
X122128597Y-110118493D01*
X122128603Y-110118498D01*
X122314158Y-110248425D01*
X122357783Y-110303002D01*
X122364977Y-110372500D01*
X122333454Y-110434855D01*
X122314158Y-110451575D01*
X122128597Y-110581505D01*
X121961505Y-110748597D01*
X121825965Y-110942169D01*
X121825964Y-110942171D01*
X121726098Y-111156335D01*
X121726094Y-111156344D01*
X121664938Y-111384586D01*
X121664936Y-111384596D01*
X121644341Y-111619999D01*
X121644341Y-111620000D01*
X121664936Y-111855403D01*
X121664938Y-111855413D01*
X121726094Y-112083655D01*
X121726096Y-112083659D01*
X121726097Y-112083663D01*
X121779107Y-112197343D01*
X121825965Y-112297830D01*
X121825967Y-112297834D01*
X121961501Y-112491395D01*
X121961506Y-112491402D01*
X122128597Y-112658493D01*
X122128603Y-112658498D01*
X122314594Y-112788730D01*
X122358219Y-112843307D01*
X122365413Y-112912805D01*
X122333890Y-112975160D01*
X122314595Y-112991880D01*
X122128922Y-113121890D01*
X122128920Y-113121891D01*
X121961891Y-113288920D01*
X121961886Y-113288926D01*
X121826400Y-113482420D01*
X121826399Y-113482422D01*
X121726570Y-113696507D01*
X121726567Y-113696513D01*
X121669364Y-113909999D01*
X121669364Y-113910000D01*
X122566988Y-113910000D01*
X122534075Y-113967007D01*
X122500000Y-114094174D01*
X122500000Y-114225826D01*
X122534075Y-114352993D01*
X122566988Y-114410000D01*
X121669364Y-114410000D01*
X121726567Y-114623486D01*
X121726570Y-114623492D01*
X121826399Y-114837578D01*
X121961894Y-115031082D01*
X122128917Y-115198105D01*
X122314595Y-115328119D01*
X122358219Y-115382696D01*
X122365412Y-115452195D01*
X122333890Y-115514549D01*
X122314595Y-115531269D01*
X122128594Y-115661508D01*
X121961505Y-115828597D01*
X121825965Y-116022169D01*
X121825964Y-116022171D01*
X121726098Y-116236335D01*
X121726094Y-116236344D01*
X121664938Y-116464586D01*
X121664936Y-116464596D01*
X121644341Y-116699999D01*
X121644341Y-116700000D01*
X121664936Y-116935403D01*
X121664938Y-116935413D01*
X121726094Y-117163655D01*
X121726096Y-117163659D01*
X121726097Y-117163663D01*
X121804681Y-117332186D01*
X121825965Y-117377830D01*
X121825967Y-117377834D01*
X121961501Y-117571395D01*
X121961506Y-117571402D01*
X122128597Y-117738493D01*
X122128603Y-117738498D01*
X122314158Y-117868425D01*
X122357783Y-117923002D01*
X122364977Y-117992500D01*
X122333454Y-118054855D01*
X122314158Y-118071575D01*
X122128597Y-118201505D01*
X121961505Y-118368597D01*
X121825965Y-118562169D01*
X121825964Y-118562171D01*
X121726098Y-118776335D01*
X121726094Y-118776344D01*
X121664938Y-119004586D01*
X121664936Y-119004596D01*
X121644341Y-119239999D01*
X121644341Y-119240000D01*
X121664936Y-119475403D01*
X121664938Y-119475413D01*
X121726094Y-119703655D01*
X121726096Y-119703659D01*
X121726097Y-119703663D01*
X121799531Y-119861142D01*
X121825965Y-119917830D01*
X121825967Y-119917834D01*
X121961501Y-120111395D01*
X121961506Y-120111402D01*
X122128597Y-120278493D01*
X122128603Y-120278498D01*
X122314594Y-120408730D01*
X122358219Y-120463307D01*
X122365413Y-120532805D01*
X122333890Y-120595160D01*
X122314595Y-120611880D01*
X122128922Y-120741890D01*
X122128920Y-120741891D01*
X121961891Y-120908920D01*
X121961886Y-120908926D01*
X121826400Y-121102420D01*
X121826399Y-121102422D01*
X121726570Y-121316507D01*
X121726567Y-121316513D01*
X121669364Y-121529999D01*
X121669364Y-121530000D01*
X122566988Y-121530000D01*
X122534075Y-121587007D01*
X122500000Y-121714174D01*
X122500000Y-121845826D01*
X122534075Y-121972993D01*
X122566988Y-122030000D01*
X121669364Y-122030000D01*
X121726567Y-122243486D01*
X121726570Y-122243492D01*
X121826399Y-122457578D01*
X121961894Y-122651082D01*
X122128917Y-122818105D01*
X122314595Y-122948119D01*
X122358219Y-123002696D01*
X122365412Y-123072195D01*
X122333890Y-123134549D01*
X122314595Y-123151269D01*
X122128594Y-123281508D01*
X121961505Y-123448597D01*
X121825965Y-123642169D01*
X121825964Y-123642171D01*
X121726098Y-123856335D01*
X121726094Y-123856344D01*
X121664938Y-124084586D01*
X121664936Y-124084596D01*
X121644341Y-124319999D01*
X121644341Y-124320000D01*
X121664936Y-124555403D01*
X121664938Y-124555413D01*
X121726094Y-124783655D01*
X121726096Y-124783659D01*
X121726097Y-124783663D01*
X121825965Y-124997830D01*
X121825967Y-124997834D01*
X121961501Y-125191395D01*
X121961506Y-125191402D01*
X122128597Y-125358493D01*
X122128603Y-125358498D01*
X122314158Y-125488425D01*
X122357783Y-125543002D01*
X122364977Y-125612500D01*
X122333454Y-125674855D01*
X122314158Y-125691575D01*
X122128597Y-125821505D01*
X121961505Y-125988597D01*
X121825965Y-126182169D01*
X121825964Y-126182171D01*
X121726098Y-126396335D01*
X121726094Y-126396344D01*
X121664938Y-126624586D01*
X121664936Y-126624596D01*
X121644341Y-126859999D01*
X121644341Y-126860000D01*
X114550500Y-126860000D01*
X114550500Y-119670921D01*
X114570185Y-119603882D01*
X114582351Y-119587948D01*
X114632533Y-119532216D01*
X114727179Y-119368284D01*
X114785674Y-119188256D01*
X114805460Y-119000000D01*
X114785674Y-118811744D01*
X114727179Y-118631716D01*
X114632533Y-118467784D01*
X114505871Y-118327112D01*
X114504090Y-118325818D01*
X114352734Y-118215851D01*
X114352729Y-118215848D01*
X114179807Y-118138857D01*
X114179802Y-118138855D01*
X114034001Y-118107865D01*
X113994646Y-118099500D01*
X113805354Y-118099500D01*
X113772897Y-118106398D01*
X113620197Y-118138855D01*
X113620192Y-118138857D01*
X113447270Y-118215848D01*
X113447265Y-118215851D01*
X113295910Y-118325818D01*
X113230104Y-118349298D01*
X113223025Y-118349500D01*
X101201975Y-118349500D01*
X101134936Y-118329815D01*
X101129090Y-118325818D01*
X100977734Y-118215851D01*
X100977729Y-118215848D01*
X100804807Y-118138857D01*
X100804802Y-118138855D01*
X100659001Y-118107865D01*
X100619646Y-118099500D01*
X100430354Y-118099500D01*
X100397897Y-118106398D01*
X100245197Y-118138855D01*
X100245192Y-118138857D01*
X100072270Y-118215848D01*
X100072265Y-118215851D01*
X99919129Y-118327111D01*
X99792466Y-118467785D01*
X99697821Y-118631715D01*
X99697818Y-118631722D01*
X99650828Y-118776344D01*
X99639326Y-118811744D01*
X99619540Y-119000000D01*
X99639326Y-119188256D01*
X99639327Y-119188259D01*
X99697818Y-119368277D01*
X99697821Y-119368284D01*
X99792467Y-119532216D01*
X99883314Y-119633111D01*
X99919129Y-119672888D01*
X100072265Y-119784148D01*
X100072270Y-119784151D01*
X100245192Y-119861142D01*
X100245197Y-119861144D01*
X100430354Y-119900500D01*
X100430355Y-119900500D01*
X100619644Y-119900500D01*
X100619646Y-119900500D01*
X100804803Y-119861144D01*
X100977730Y-119784151D01*
X101129090Y-119674182D01*
X101194896Y-119650702D01*
X101201975Y-119650500D01*
X113125500Y-119650500D01*
X113192539Y-119670185D01*
X113238294Y-119722989D01*
X113249500Y-119774500D01*
X113249500Y-133479192D01*
X113229815Y-133546231D01*
X113213181Y-133566873D01*
X112466873Y-134313181D01*
X112405550Y-134346666D01*
X112379192Y-134349500D01*
X98433837Y-134349500D01*
X98366798Y-134329815D01*
X98327438Y-134287384D01*
X98326978Y-134287686D01*
X98325214Y-134284987D01*
X98324786Y-134284525D01*
X98324173Y-134283393D01*
X98188166Y-134075217D01*
X98109475Y-133989736D01*
X98019744Y-133892262D01*
X97823509Y-133739526D01*
X97823507Y-133739525D01*
X97823506Y-133739524D01*
X97604811Y-133621172D01*
X97604802Y-133621169D01*
X97369616Y-133540429D01*
X97124335Y-133499500D01*
X96875665Y-133499500D01*
X96630383Y-133540429D01*
X96395197Y-133621169D01*
X96395188Y-133621172D01*
X96176493Y-133739524D01*
X95980257Y-133892261D01*
X95811833Y-134075217D01*
X95675826Y-134283393D01*
X95575936Y-134511118D01*
X95514892Y-134752175D01*
X95514890Y-134752187D01*
X95494357Y-134999994D01*
X95494357Y-135000005D01*
X92005643Y-135000005D01*
X92005643Y-134999994D01*
X91985109Y-134752187D01*
X91985107Y-134752175D01*
X91924063Y-134511118D01*
X91824173Y-134283393D01*
X91688166Y-134075217D01*
X91609475Y-133989736D01*
X91519744Y-133892262D01*
X91323509Y-133739526D01*
X91315477Y-133735179D01*
X91265891Y-133685961D01*
X91250500Y-133626128D01*
X91250500Y-130674500D01*
X91270185Y-130607461D01*
X91322989Y-130561706D01*
X91374500Y-130550500D01*
X94073920Y-130550500D01*
X94171462Y-130531096D01*
X94218913Y-130521658D01*
X94355495Y-130465084D01*
X94404729Y-130432186D01*
X94478416Y-130382952D01*
X96882951Y-127978416D01*
X96965084Y-127855495D01*
X97021658Y-127718913D01*
X97050500Y-127573918D01*
X97050500Y-127426083D01*
X97050500Y-119662229D01*
X97070185Y-119595190D01*
X97086819Y-119574548D01*
X99174548Y-117486819D01*
X99235871Y-117453334D01*
X99262229Y-117450500D01*
X115273920Y-117450500D01*
X115371462Y-117431096D01*
X115418913Y-117421658D01*
X115555495Y-117365084D01*
X115604729Y-117332186D01*
X115678416Y-117282952D01*
X117782951Y-115178416D01*
X117805871Y-115144114D01*
X117813821Y-115132217D01*
X117865083Y-115055496D01*
X117865085Y-115055493D01*
X117921656Y-114918917D01*
X117921658Y-114918913D01*
X117950500Y-114773918D01*
X117950500Y-79524500D01*
X117970185Y-79457461D01*
X118022989Y-79411706D01*
X118074500Y-79400500D01*
X122223920Y-79400500D01*
X122345290Y-79376357D01*
X122368913Y-79371658D01*
X122505495Y-79315084D01*
X122563293Y-79276465D01*
X122628416Y-79232952D01*
X125187819Y-76673547D01*
X125249142Y-76640063D01*
X125318834Y-76645047D01*
X125374767Y-76686919D01*
X125399184Y-76752383D01*
X125399500Y-76761229D01*
X125399500Y-138375500D01*
X125379815Y-138442539D01*
X125327011Y-138488294D01*
X125275500Y-138499500D01*
X55724500Y-138499500D01*
X55657461Y-138479815D01*
X55611706Y-138427011D01*
X55600500Y-138375500D01*
X55600500Y-135000005D01*
X56494859Y-135000005D01*
X56515385Y-135247729D01*
X56515387Y-135247738D01*
X56576412Y-135488717D01*
X56676266Y-135716364D01*
X56776564Y-135869882D01*
X57398958Y-135247488D01*
X57423978Y-135307890D01*
X57495112Y-135414351D01*
X57585649Y-135504888D01*
X57692110Y-135576022D01*
X57752511Y-135601041D01*
X57129942Y-136223609D01*
X57176768Y-136260055D01*
X57176770Y-136260056D01*
X57395385Y-136378364D01*
X57395396Y-136378369D01*
X57630506Y-136459083D01*
X57875707Y-136500000D01*
X58124293Y-136500000D01*
X58369493Y-136459083D01*
X58604603Y-136378369D01*
X58604614Y-136378364D01*
X58823228Y-136260057D01*
X58823231Y-136260055D01*
X58870056Y-136223609D01*
X58247488Y-135601041D01*
X58307890Y-135576022D01*
X58414351Y-135504888D01*
X58504888Y-135414351D01*
X58576022Y-135307890D01*
X58601041Y-135247488D01*
X59223434Y-135869882D01*
X59323731Y-135716369D01*
X59423587Y-135488717D01*
X59484612Y-135247738D01*
X59484614Y-135247729D01*
X59505141Y-135000005D01*
X59505141Y-134999994D01*
X59484614Y-134752270D01*
X59484612Y-134752261D01*
X59423587Y-134511282D01*
X59323731Y-134283630D01*
X59223434Y-134130116D01*
X58601041Y-134752510D01*
X58576022Y-134692110D01*
X58504888Y-134585649D01*
X58414351Y-134495112D01*
X58307890Y-134423978D01*
X58247489Y-134398958D01*
X58870057Y-133776390D01*
X58870056Y-133776389D01*
X58823229Y-133739943D01*
X58604614Y-133621635D01*
X58604603Y-133621630D01*
X58369493Y-133540916D01*
X58124293Y-133500000D01*
X57875707Y-133500000D01*
X57630506Y-133540916D01*
X57395396Y-133621630D01*
X57395390Y-133621632D01*
X57176761Y-133739949D01*
X57129942Y-133776388D01*
X57129942Y-133776390D01*
X57752511Y-134398958D01*
X57692110Y-134423978D01*
X57585649Y-134495112D01*
X57495112Y-134585649D01*
X57423978Y-134692110D01*
X57398958Y-134752510D01*
X56776564Y-134130116D01*
X56676267Y-134283632D01*
X56576412Y-134511282D01*
X56515387Y-134752261D01*
X56515385Y-134752270D01*
X56494859Y-134999994D01*
X56494859Y-135000005D01*
X55600500Y-135000005D01*
X55600500Y-105324452D01*
X55620185Y-105257413D01*
X55672989Y-105211658D01*
X55742147Y-105201714D01*
X55805703Y-105230739D01*
X55812181Y-105236771D01*
X56659762Y-106084352D01*
X56693247Y-106145675D01*
X56691856Y-106204126D01*
X56664938Y-106304586D01*
X56664936Y-106304596D01*
X56644341Y-106539999D01*
X56644341Y-106540000D01*
X56664936Y-106775403D01*
X56664938Y-106775413D01*
X56726094Y-107003655D01*
X56726096Y-107003659D01*
X56726097Y-107003663D01*
X56825847Y-107217578D01*
X56825965Y-107217830D01*
X56825967Y-107217834D01*
X56961501Y-107411395D01*
X56961506Y-107411402D01*
X57128597Y-107578493D01*
X57128603Y-107578498D01*
X57314594Y-107708730D01*
X57358219Y-107763307D01*
X57365413Y-107832805D01*
X57333890Y-107895160D01*
X57314595Y-107911880D01*
X57128922Y-108041890D01*
X57128920Y-108041891D01*
X56961891Y-108208920D01*
X56961886Y-108208926D01*
X56826400Y-108402420D01*
X56826399Y-108402422D01*
X56726570Y-108616507D01*
X56726567Y-108616513D01*
X56669364Y-108829999D01*
X56669364Y-108830000D01*
X57566988Y-108830000D01*
X57534075Y-108887007D01*
X57500000Y-109014174D01*
X57500000Y-109145826D01*
X57534075Y-109272993D01*
X57566988Y-109330000D01*
X56669364Y-109330000D01*
X56726567Y-109543486D01*
X56726570Y-109543492D01*
X56826399Y-109757578D01*
X56961894Y-109951082D01*
X57128917Y-110118105D01*
X57314595Y-110248119D01*
X57358219Y-110302696D01*
X57365412Y-110372195D01*
X57333890Y-110434549D01*
X57314595Y-110451269D01*
X57128594Y-110581508D01*
X56961505Y-110748597D01*
X56825965Y-110942169D01*
X56825964Y-110942171D01*
X56726098Y-111156335D01*
X56726094Y-111156344D01*
X56664938Y-111384586D01*
X56664936Y-111384596D01*
X56644341Y-111619999D01*
X56644341Y-111620000D01*
X56664936Y-111855403D01*
X56664938Y-111855413D01*
X56726094Y-112083655D01*
X56726096Y-112083659D01*
X56726097Y-112083663D01*
X56779107Y-112197343D01*
X56825965Y-112297830D01*
X56825967Y-112297834D01*
X56961501Y-112491395D01*
X56961506Y-112491402D01*
X57128597Y-112658493D01*
X57128603Y-112658498D01*
X57314158Y-112788425D01*
X57357783Y-112843002D01*
X57364977Y-112912500D01*
X57333454Y-112974855D01*
X57314158Y-112991575D01*
X57128597Y-113121505D01*
X56961505Y-113288597D01*
X56825965Y-113482169D01*
X56825964Y-113482171D01*
X56726098Y-113696335D01*
X56726094Y-113696344D01*
X56664938Y-113924586D01*
X56664936Y-113924596D01*
X56644341Y-114159999D01*
X56644341Y-114160000D01*
X56664936Y-114395403D01*
X56664938Y-114395413D01*
X56726094Y-114623655D01*
X56726096Y-114623659D01*
X56726097Y-114623663D01*
X56796162Y-114773918D01*
X56825965Y-114837830D01*
X56825967Y-114837834D01*
X56961501Y-115031395D01*
X56961506Y-115031402D01*
X57128597Y-115198493D01*
X57128603Y-115198498D01*
X57314158Y-115328425D01*
X57357783Y-115383002D01*
X57364977Y-115452500D01*
X57333454Y-115514855D01*
X57314158Y-115531575D01*
X57128597Y-115661505D01*
X56961505Y-115828597D01*
X56825965Y-116022169D01*
X56825964Y-116022171D01*
X56726098Y-116236335D01*
X56726094Y-116236344D01*
X56664938Y-116464586D01*
X56664936Y-116464596D01*
X56644341Y-116699999D01*
X56644341Y-116700000D01*
X56664936Y-116935403D01*
X56664938Y-116935413D01*
X56726094Y-117163655D01*
X56726096Y-117163659D01*
X56726097Y-117163663D01*
X56804681Y-117332186D01*
X56825965Y-117377830D01*
X56825967Y-117377834D01*
X56961501Y-117571395D01*
X56961506Y-117571402D01*
X57128597Y-117738493D01*
X57128603Y-117738498D01*
X57314594Y-117868730D01*
X57358219Y-117923307D01*
X57365413Y-117992805D01*
X57333890Y-118055160D01*
X57314595Y-118071880D01*
X57128922Y-118201890D01*
X57128920Y-118201891D01*
X56961891Y-118368920D01*
X56961886Y-118368926D01*
X56826400Y-118562420D01*
X56826399Y-118562422D01*
X56726570Y-118776507D01*
X56726567Y-118776513D01*
X56669364Y-118989999D01*
X56669364Y-118990000D01*
X57566988Y-118990000D01*
X57534075Y-119047007D01*
X57500000Y-119174174D01*
X57500000Y-119305826D01*
X57534075Y-119432993D01*
X57566988Y-119490000D01*
X56669364Y-119490000D01*
X56726567Y-119703486D01*
X56726570Y-119703492D01*
X56826399Y-119917578D01*
X56961894Y-120111082D01*
X57128917Y-120278105D01*
X57314595Y-120408119D01*
X57358219Y-120462696D01*
X57365412Y-120532195D01*
X57333890Y-120594549D01*
X57314595Y-120611269D01*
X57128594Y-120741508D01*
X56961505Y-120908597D01*
X56825965Y-121102169D01*
X56825964Y-121102171D01*
X56726098Y-121316335D01*
X56726094Y-121316344D01*
X56664938Y-121544586D01*
X56664936Y-121544596D01*
X56644341Y-121779999D01*
X56644341Y-121780000D01*
X56664936Y-122015403D01*
X56664938Y-122015413D01*
X56726094Y-122243655D01*
X56726096Y-122243659D01*
X56726097Y-122243663D01*
X56825847Y-122457578D01*
X56825965Y-122457830D01*
X56825967Y-122457834D01*
X56961501Y-122651395D01*
X56961506Y-122651402D01*
X57128597Y-122818493D01*
X57128603Y-122818498D01*
X57314158Y-122948425D01*
X57357783Y-123003002D01*
X57364977Y-123072500D01*
X57333454Y-123134855D01*
X57314158Y-123151575D01*
X57128597Y-123281505D01*
X56961505Y-123448597D01*
X56825965Y-123642169D01*
X56825964Y-123642171D01*
X56726098Y-123856335D01*
X56726094Y-123856344D01*
X56664938Y-124084586D01*
X56664936Y-124084596D01*
X56644341Y-124319999D01*
X56644341Y-124320000D01*
X56664936Y-124555403D01*
X56664938Y-124555413D01*
X56726094Y-124783655D01*
X56726096Y-124783659D01*
X56726097Y-124783663D01*
X56825965Y-124997830D01*
X56825967Y-124997834D01*
X56961501Y-125191395D01*
X56961506Y-125191402D01*
X57128597Y-125358493D01*
X57128603Y-125358498D01*
X57314158Y-125488425D01*
X57357783Y-125543002D01*
X57364977Y-125612500D01*
X57333454Y-125674855D01*
X57314158Y-125691575D01*
X57128597Y-125821505D01*
X56961505Y-125988597D01*
X56825965Y-126182169D01*
X56825964Y-126182171D01*
X56726098Y-126396335D01*
X56726094Y-126396344D01*
X56664938Y-126624586D01*
X56664936Y-126624596D01*
X56644341Y-126859999D01*
X56644341Y-126860000D01*
X56664936Y-127095403D01*
X56664938Y-127095413D01*
X56726094Y-127323655D01*
X56726096Y-127323659D01*
X56726097Y-127323663D01*
X56825965Y-127537830D01*
X56825967Y-127537834D01*
X56934281Y-127692521D01*
X56961505Y-127731401D01*
X57128599Y-127898495D01*
X57225384Y-127966265D01*
X57322165Y-128034032D01*
X57322167Y-128034033D01*
X57322170Y-128034035D01*
X57536337Y-128133903D01*
X57764592Y-128195063D01*
X57952918Y-128211539D01*
X57999999Y-128215659D01*
X58000000Y-128215659D01*
X58000001Y-128215659D01*
X58039234Y-128212226D01*
X58235408Y-128195063D01*
X58463663Y-128133903D01*
X58677830Y-128034035D01*
X58871401Y-127898495D01*
X59038495Y-127731401D01*
X59174035Y-127537830D01*
X59273903Y-127323663D01*
X59335063Y-127095408D01*
X59355659Y-126860000D01*
X59335063Y-126624592D01*
X59273903Y-126396337D01*
X59174035Y-126182171D01*
X59038495Y-125988599D01*
X59038494Y-125988597D01*
X58871402Y-125821506D01*
X58871396Y-125821501D01*
X58685842Y-125691575D01*
X58642217Y-125636998D01*
X58635023Y-125567500D01*
X58666546Y-125505145D01*
X58685842Y-125488425D01*
X58708026Y-125472891D01*
X58871401Y-125358495D01*
X59038495Y-125191401D01*
X59174035Y-124997830D01*
X59273903Y-124783663D01*
X59335063Y-124555408D01*
X59355659Y-124320000D01*
X59335063Y-124084592D01*
X59273903Y-123856337D01*
X59174035Y-123642171D01*
X59173575Y-123641513D01*
X59038494Y-123448597D01*
X58871402Y-123281506D01*
X58871396Y-123281501D01*
X58685842Y-123151575D01*
X58642217Y-123096998D01*
X58635023Y-123027500D01*
X58666546Y-122965145D01*
X58685842Y-122948425D01*
X58770544Y-122889116D01*
X58871401Y-122818495D01*
X59038495Y-122651401D01*
X59174035Y-122457830D01*
X59273903Y-122243663D01*
X59335063Y-122015408D01*
X59355659Y-121780000D01*
X59335063Y-121544592D01*
X59273903Y-121316337D01*
X59174035Y-121102171D01*
X59057621Y-120935913D01*
X59038494Y-120908597D01*
X58871402Y-120741506D01*
X58871401Y-120741505D01*
X58703844Y-120624180D01*
X58685405Y-120611269D01*
X58641781Y-120556692D01*
X58634588Y-120487193D01*
X58666110Y-120424839D01*
X58685405Y-120408119D01*
X58871082Y-120278105D01*
X59038105Y-120111082D01*
X59173600Y-119917578D01*
X59273429Y-119703492D01*
X59273432Y-119703486D01*
X59330636Y-119490000D01*
X58433012Y-119490000D01*
X58465925Y-119432993D01*
X58500000Y-119305826D01*
X58500000Y-119174174D01*
X58465925Y-119047007D01*
X58433012Y-118990000D01*
X59330636Y-118990000D01*
X59330635Y-118989999D01*
X59273432Y-118776513D01*
X59273429Y-118776507D01*
X59173600Y-118562422D01*
X59173599Y-118562420D01*
X59038113Y-118368926D01*
X59038108Y-118368920D01*
X58871078Y-118201890D01*
X58685405Y-118071879D01*
X58641780Y-118017302D01*
X58634588Y-117947804D01*
X58666110Y-117885449D01*
X58685406Y-117868730D01*
X58685842Y-117868425D01*
X58871401Y-117738495D01*
X59038495Y-117571401D01*
X59174035Y-117377830D01*
X59273903Y-117163663D01*
X59335063Y-116935408D01*
X59355659Y-116700000D01*
X59335063Y-116464592D01*
X59273903Y-116236337D01*
X59174035Y-116022171D01*
X59143347Y-115978343D01*
X59038494Y-115828597D01*
X58871402Y-115661506D01*
X58871396Y-115661501D01*
X58685842Y-115531575D01*
X58642217Y-115476998D01*
X58635023Y-115407500D01*
X58666546Y-115345145D01*
X58685842Y-115328425D01*
X58764167Y-115273581D01*
X58871401Y-115198495D01*
X59038495Y-115031401D01*
X59174035Y-114837830D01*
X59273903Y-114623663D01*
X59335063Y-114395408D01*
X59355659Y-114160000D01*
X59335063Y-113924592D01*
X59273903Y-113696337D01*
X59174035Y-113482171D01*
X59116499Y-113400000D01*
X59038494Y-113288597D01*
X58871402Y-113121506D01*
X58871396Y-113121501D01*
X58685842Y-112991575D01*
X58642217Y-112936998D01*
X58635023Y-112867500D01*
X58666546Y-112805145D01*
X58685842Y-112788425D01*
X58773407Y-112727111D01*
X58871401Y-112658495D01*
X59038495Y-112491401D01*
X59174035Y-112297830D01*
X59273903Y-112083663D01*
X59335063Y-111855408D01*
X59355659Y-111620000D01*
X59335063Y-111384592D01*
X59273903Y-111156337D01*
X59174035Y-110942171D01*
X59038495Y-110748599D01*
X59038494Y-110748597D01*
X58871402Y-110581506D01*
X58871401Y-110581505D01*
X58685405Y-110451269D01*
X58641781Y-110396692D01*
X58634588Y-110327193D01*
X58666110Y-110264839D01*
X58685405Y-110248119D01*
X58871082Y-110118105D01*
X59038105Y-109951082D01*
X59173600Y-109757578D01*
X59273429Y-109543492D01*
X59273432Y-109543486D01*
X59330636Y-109330000D01*
X58433012Y-109330000D01*
X58465925Y-109272993D01*
X58500000Y-109145826D01*
X58500000Y-109014174D01*
X58465925Y-108887007D01*
X58433012Y-108830000D01*
X59330636Y-108830000D01*
X59330635Y-108829999D01*
X59273432Y-108616513D01*
X59273429Y-108616507D01*
X59173600Y-108402422D01*
X59173599Y-108402420D01*
X59038113Y-108208926D01*
X59038108Y-108208920D01*
X58871078Y-108041890D01*
X58685405Y-107911879D01*
X58641780Y-107857302D01*
X58634588Y-107787804D01*
X58666110Y-107725449D01*
X58685406Y-107708730D01*
X58686279Y-107708119D01*
X58871401Y-107578495D01*
X59038495Y-107411401D01*
X59174035Y-107217830D01*
X59273903Y-107003663D01*
X59335063Y-106775408D01*
X59355659Y-106540000D01*
X59335063Y-106304592D01*
X59273903Y-106076337D01*
X59174035Y-105862171D01*
X59038495Y-105668599D01*
X58916567Y-105546671D01*
X58883084Y-105485351D01*
X58888068Y-105415659D01*
X58929939Y-105359725D01*
X58960915Y-105342810D01*
X59092331Y-105293796D01*
X59207546Y-105207546D01*
X59293796Y-105092331D01*
X59344091Y-104957483D01*
X59350500Y-104897873D01*
X59350499Y-103102128D01*
X59344091Y-103042517D01*
X59293796Y-102907669D01*
X59293795Y-102907668D01*
X59293793Y-102907664D01*
X59207547Y-102792455D01*
X59207544Y-102792452D01*
X59092335Y-102706206D01*
X59092328Y-102706202D01*
X58957482Y-102655908D01*
X58957483Y-102655908D01*
X58897883Y-102649501D01*
X58897881Y-102649500D01*
X58897873Y-102649500D01*
X58897864Y-102649500D01*
X57102129Y-102649500D01*
X57102123Y-102649501D01*
X57042516Y-102655908D01*
X56907671Y-102706202D01*
X56907664Y-102706206D01*
X56792455Y-102792452D01*
X56792452Y-102792455D01*
X56706206Y-102907664D01*
X56706202Y-102907671D01*
X56655908Y-103042517D01*
X56649501Y-103102116D01*
X56649501Y-103102123D01*
X56649500Y-103102135D01*
X56649500Y-104005548D01*
X56629815Y-104072587D01*
X56577011Y-104118342D01*
X56507853Y-104128286D01*
X56444297Y-104099261D01*
X56437819Y-104093229D01*
X56386819Y-104042229D01*
X56353334Y-103980906D01*
X56350500Y-103954548D01*
X56350500Y-87285451D01*
X56370185Y-87218412D01*
X56386814Y-87197775D01*
X56455603Y-87128986D01*
X56516924Y-87095503D01*
X56586616Y-87100487D01*
X56642549Y-87142359D01*
X56663301Y-87190287D01*
X56664030Y-87190092D01*
X56665350Y-87195021D01*
X56665397Y-87195128D01*
X56665430Y-87195320D01*
X56726566Y-87423483D01*
X56726570Y-87423492D01*
X56826400Y-87637579D01*
X56826402Y-87637583D01*
X56885072Y-87721373D01*
X56885073Y-87721373D01*
X57517037Y-87089408D01*
X57534075Y-87152993D01*
X57599901Y-87267007D01*
X57692993Y-87360099D01*
X57807007Y-87425925D01*
X57870590Y-87442962D01*
X57200369Y-88113181D01*
X57139046Y-88146666D01*
X57112697Y-88149500D01*
X57102134Y-88149500D01*
X57102123Y-88149501D01*
X57042516Y-88155908D01*
X56907671Y-88206202D01*
X56907664Y-88206206D01*
X56792455Y-88292452D01*
X56792452Y-88292455D01*
X56706206Y-88407664D01*
X56706202Y-88407671D01*
X56655908Y-88542517D01*
X56649501Y-88602116D01*
X56649501Y-88602123D01*
X56649500Y-88602135D01*
X56649500Y-90397870D01*
X56649501Y-90397876D01*
X56655908Y-90457483D01*
X56706202Y-90592328D01*
X56706206Y-90592335D01*
X56792452Y-90707544D01*
X56792455Y-90707547D01*
X56907664Y-90793793D01*
X56907671Y-90793797D01*
X57042517Y-90844091D01*
X57042516Y-90844091D01*
X57049444Y-90844835D01*
X57102127Y-90850500D01*
X58897872Y-90850499D01*
X58957483Y-90844091D01*
X59092331Y-90793796D01*
X59207546Y-90707546D01*
X59293796Y-90592331D01*
X59344091Y-90457483D01*
X59350500Y-90397873D01*
X59350500Y-90259500D01*
X59370185Y-90192461D01*
X59422989Y-90146706D01*
X59474500Y-90135500D01*
X70525500Y-90135500D01*
X70592539Y-90155185D01*
X70638294Y-90207989D01*
X70649500Y-90259500D01*
X70649500Y-92572009D01*
X70629815Y-92639048D01*
X70584518Y-92681063D01*
X70476501Y-92739519D01*
X70476494Y-92739523D01*
X70280257Y-92892261D01*
X70111833Y-93075217D01*
X69975826Y-93283393D01*
X69875936Y-93511118D01*
X69814892Y-93752175D01*
X69814890Y-93752187D01*
X69794357Y-93999994D01*
X69794357Y-94000005D01*
X69814890Y-94247812D01*
X69814892Y-94247824D01*
X69875936Y-94488881D01*
X69975826Y-94716606D01*
X70111833Y-94924782D01*
X70118216Y-94931716D01*
X70280256Y-95107738D01*
X70476491Y-95260474D01*
X70476493Y-95260475D01*
X70649498Y-95354101D01*
X70695190Y-95378828D01*
X70930386Y-95459571D01*
X71175665Y-95500500D01*
X71424335Y-95500500D01*
X71669614Y-95459571D01*
X71904810Y-95378828D01*
X72123509Y-95260474D01*
X72319744Y-95107738D01*
X72488164Y-94924785D01*
X72624173Y-94716607D01*
X72624175Y-94716601D01*
X72624786Y-94715475D01*
X72625157Y-94715101D01*
X72626978Y-94712314D01*
X72627551Y-94712688D01*
X72674009Y-94665888D01*
X72733837Y-94650500D01*
X81079192Y-94650500D01*
X81146231Y-94670185D01*
X81166873Y-94686819D01*
X81765191Y-95285137D01*
X81798676Y-95346460D01*
X81800830Y-95359851D01*
X81814326Y-95488256D01*
X81814327Y-95488259D01*
X81872818Y-95668277D01*
X81872821Y-95668284D01*
X81967467Y-95832216D01*
X82049595Y-95923428D01*
X82094129Y-95972888D01*
X82247265Y-96084148D01*
X82247270Y-96084151D01*
X82420192Y-96161142D01*
X82420197Y-96161144D01*
X82605354Y-96200500D01*
X82613000Y-96200500D01*
X82680039Y-96220185D01*
X82725794Y-96272989D01*
X82737000Y-96324500D01*
X82737000Y-111279192D01*
X82717315Y-111346231D01*
X82700681Y-111366873D01*
X81604373Y-112463181D01*
X81543050Y-112496666D01*
X81516692Y-112499500D01*
X81492854Y-112499500D01*
X81460397Y-112506398D01*
X81307697Y-112538855D01*
X81307692Y-112538857D01*
X81134770Y-112615848D01*
X81134765Y-112615851D01*
X80981629Y-112727111D01*
X80854966Y-112867785D01*
X80760321Y-113031715D01*
X80760318Y-113031722D01*
X80731021Y-113121891D01*
X80701826Y-113211744D01*
X80682040Y-113400000D01*
X80701826Y-113588256D01*
X80701827Y-113588259D01*
X80750215Y-113737182D01*
X80752210Y-113807023D01*
X80716130Y-113866856D01*
X80653429Y-113897684D01*
X80632284Y-113899500D01*
X78441519Y-113899500D01*
X78374480Y-113879815D01*
X78353838Y-113863181D01*
X76724319Y-112233662D01*
X76690834Y-112172339D01*
X76688000Y-112145981D01*
X76688000Y-109831004D01*
X76661081Y-109695677D01*
X76661080Y-109695676D01*
X76661080Y-109695672D01*
X76621659Y-109600500D01*
X76608277Y-109568193D01*
X76608276Y-109568192D01*
X76608275Y-109568189D01*
X76562319Y-109499412D01*
X76562317Y-109499409D01*
X76531616Y-109453459D01*
X71214003Y-104135846D01*
X71180518Y-104074523D01*
X71178365Y-104061143D01*
X71173174Y-104011744D01*
X71171278Y-104005910D01*
X71114681Y-103831722D01*
X71114680Y-103831721D01*
X71114679Y-103831716D01*
X71020033Y-103667784D01*
X70893371Y-103527112D01*
X70893370Y-103527111D01*
X70740234Y-103415851D01*
X70740229Y-103415848D01*
X70567307Y-103338857D01*
X70567302Y-103338855D01*
X70421501Y-103307865D01*
X70382146Y-103299500D01*
X70382145Y-103299500D01*
X70358308Y-103299500D01*
X70291269Y-103279815D01*
X70270627Y-103263181D01*
X67986819Y-100979373D01*
X67953334Y-100918050D01*
X67950500Y-100891692D01*
X67950500Y-95427989D01*
X67970185Y-95360950D01*
X68015483Y-95318934D01*
X68020560Y-95316187D01*
X68123509Y-95260474D01*
X68319744Y-95107738D01*
X68488164Y-94924785D01*
X68624173Y-94716607D01*
X68724063Y-94488881D01*
X68785108Y-94247821D01*
X68800528Y-94061728D01*
X68805643Y-94000005D01*
X68805643Y-93999994D01*
X68785109Y-93752187D01*
X68785107Y-93752175D01*
X68724063Y-93511118D01*
X68624173Y-93283393D01*
X68488166Y-93075217D01*
X68466557Y-93051744D01*
X68319744Y-92892262D01*
X68123509Y-92739526D01*
X68123507Y-92739525D01*
X68123506Y-92739524D01*
X67904811Y-92621172D01*
X67904802Y-92621169D01*
X67669616Y-92540429D01*
X67424335Y-92499500D01*
X67175665Y-92499500D01*
X66930383Y-92540429D01*
X66695197Y-92621169D01*
X66695188Y-92621172D01*
X66476493Y-92739524D01*
X66280257Y-92892261D01*
X66111833Y-93075217D01*
X65975826Y-93283393D01*
X65875936Y-93511118D01*
X65814892Y-93752175D01*
X65814890Y-93752187D01*
X65794357Y-93999994D01*
X65794357Y-94000005D01*
X65814890Y-94247812D01*
X65814892Y-94247824D01*
X65875936Y-94488881D01*
X65975826Y-94716606D01*
X66111833Y-94924782D01*
X66118216Y-94931716D01*
X66280256Y-95107738D01*
X66402764Y-95203090D01*
X66476488Y-95260472D01*
X66476492Y-95260475D01*
X66545902Y-95298037D01*
X66579440Y-95316187D01*
X66584517Y-95318934D01*
X66634108Y-95368153D01*
X66649500Y-95427989D01*
X66649500Y-101060881D01*
X66647117Y-101085072D01*
X66637001Y-101135927D01*
X66637001Y-101264073D01*
X66661997Y-101389736D01*
X66661999Y-101389744D01*
X66711034Y-101508125D01*
X66782226Y-101614673D01*
X66782227Y-101614674D01*
X69352691Y-104185137D01*
X69386176Y-104246460D01*
X69388330Y-104259851D01*
X69401826Y-104388256D01*
X69401827Y-104388259D01*
X69460318Y-104568277D01*
X69460321Y-104568284D01*
X69554967Y-104732216D01*
X69681629Y-104872888D01*
X69834765Y-104984148D01*
X69834770Y-104984151D01*
X70007691Y-105061142D01*
X70007693Y-105061142D01*
X70007697Y-105061144D01*
X70162630Y-105094075D01*
X70224107Y-105127266D01*
X70224526Y-105127683D01*
X75250681Y-110153838D01*
X75284166Y-110215161D01*
X75287000Y-110241519D01*
X75287000Y-112418506D01*
X75287000Y-112556494D01*
X75287000Y-112556496D01*
X75286999Y-112556496D01*
X75313918Y-112691822D01*
X75313921Y-112691832D01*
X75366722Y-112819307D01*
X75443387Y-112934045D01*
X77653454Y-115144112D01*
X77768190Y-115220776D01*
X77866790Y-115261617D01*
X77895671Y-115273580D01*
X77895672Y-115273580D01*
X77895677Y-115273582D01*
X77922545Y-115278925D01*
X77922551Y-115278926D01*
X77922591Y-115278934D01*
X78012937Y-115296905D01*
X78031006Y-115300500D01*
X78031007Y-115300500D01*
X102591844Y-115300500D01*
X102658883Y-115320185D01*
X102664729Y-115324182D01*
X102747265Y-115384148D01*
X102747270Y-115384151D01*
X102920192Y-115461142D01*
X102920197Y-115461144D01*
X103105354Y-115500500D01*
X103105355Y-115500500D01*
X103294644Y-115500500D01*
X103294646Y-115500500D01*
X103479803Y-115461144D01*
X103652730Y-115384151D01*
X103679176Y-115364937D01*
X103735271Y-115324182D01*
X103801077Y-115300702D01*
X103808156Y-115300500D01*
X104268996Y-115300500D01*
X104377457Y-115278925D01*
X104404328Y-115273580D01*
X104468069Y-115247177D01*
X104531807Y-115220777D01*
X104531808Y-115220776D01*
X104531811Y-115220775D01*
X104646543Y-115144114D01*
X110162975Y-109627681D01*
X110224296Y-109594198D01*
X110224362Y-109594183D01*
X110379803Y-109561144D01*
X110379807Y-109561142D01*
X110379808Y-109561142D01*
X110438058Y-109535206D01*
X110552730Y-109484151D01*
X110705871Y-109372888D01*
X110832533Y-109232216D01*
X110927179Y-109068284D01*
X110985674Y-108888256D01*
X110990864Y-108838871D01*
X111017447Y-108774257D01*
X111026500Y-108764155D01*
X111044113Y-108746543D01*
X111120774Y-108631812D01*
X111120775Y-108631811D01*
X111162479Y-108531128D01*
X111173580Y-108504329D01*
X111178934Y-108477409D01*
X111200500Y-108368993D01*
X111200500Y-84815391D01*
X111220185Y-84748352D01*
X111232352Y-84732417D01*
X111232533Y-84732216D01*
X111327179Y-84568284D01*
X111385674Y-84388256D01*
X111405460Y-84200000D01*
X111385674Y-84011744D01*
X111327179Y-83831716D01*
X111232533Y-83667784D01*
X111105871Y-83527112D01*
X111105870Y-83527111D01*
X110952734Y-83415851D01*
X110952729Y-83415848D01*
X110779807Y-83338857D01*
X110779802Y-83338855D01*
X110634001Y-83307865D01*
X110594646Y-83299500D01*
X110405354Y-83299500D01*
X110372897Y-83306398D01*
X110220197Y-83338855D01*
X110220192Y-83338857D01*
X110047270Y-83415848D01*
X110047265Y-83415851D01*
X109894129Y-83527111D01*
X109767466Y-83667785D01*
X109672821Y-83831715D01*
X109672818Y-83831722D01*
X109614327Y-84011740D01*
X109614326Y-84011744D01*
X109594540Y-84200000D01*
X109614326Y-84388256D01*
X109614327Y-84388259D01*
X109672818Y-84568277D01*
X109672821Y-84568284D01*
X109767466Y-84732215D01*
X109767648Y-84732417D01*
X109767716Y-84732559D01*
X109771285Y-84737471D01*
X109770386Y-84738123D01*
X109797879Y-84795408D01*
X109799500Y-84815391D01*
X109799500Y-107767545D01*
X109779815Y-107834584D01*
X109727011Y-107880339D01*
X109725936Y-107880824D01*
X109647270Y-107915848D01*
X109647265Y-107915851D01*
X109494129Y-108027111D01*
X109367466Y-108167785D01*
X109272821Y-108331715D01*
X109272818Y-108331722D01*
X109214327Y-108511739D01*
X109214325Y-108511750D01*
X109209134Y-108561129D01*
X109182549Y-108625743D01*
X109173495Y-108635846D01*
X103946162Y-113863181D01*
X103884839Y-113896666D01*
X103858481Y-113899500D01*
X103808156Y-113899500D01*
X103741117Y-113879815D01*
X103735271Y-113875818D01*
X103652734Y-113815851D01*
X103652729Y-113815848D01*
X103479807Y-113738857D01*
X103479802Y-113738855D01*
X103334001Y-113707865D01*
X103294646Y-113699500D01*
X103105354Y-113699500D01*
X103072897Y-113706398D01*
X102920197Y-113738855D01*
X102920192Y-113738857D01*
X102747270Y-113815848D01*
X102747265Y-113815851D01*
X102664729Y-113875818D01*
X102598923Y-113899298D01*
X102591844Y-113899500D01*
X82542716Y-113899500D01*
X82475677Y-113879815D01*
X82429922Y-113827011D01*
X82419978Y-113757853D01*
X82424785Y-113737182D01*
X82449863Y-113660000D01*
X82473174Y-113588256D01*
X82486668Y-113459855D01*
X82513252Y-113395242D01*
X82522299Y-113385145D01*
X83892776Y-112014670D01*
X83963965Y-111908127D01*
X84013001Y-111789744D01*
X84013547Y-111787000D01*
X84038000Y-111664069D01*
X84038000Y-101274500D01*
X84057685Y-101207461D01*
X84110489Y-101161706D01*
X84162000Y-101150500D01*
X97864071Y-101150500D01*
X97948615Y-101133682D01*
X97989744Y-101125501D01*
X98108127Y-101076465D01*
X98214669Y-101005277D01*
X102105277Y-97114669D01*
X102176466Y-97008126D01*
X102205189Y-96938779D01*
X102225501Y-96889744D01*
X102250500Y-96764069D01*
X102250500Y-83135931D01*
X102250500Y-83135928D01*
X102225502Y-83010261D01*
X102225501Y-83010260D01*
X102225501Y-83010256D01*
X102176465Y-82891873D01*
X102168866Y-82880500D01*
X102105277Y-82785331D01*
X102105275Y-82785328D01*
X102105272Y-82785325D01*
X98757626Y-79437680D01*
X98724141Y-79376357D01*
X98729125Y-79306665D01*
X98757623Y-79262320D01*
X98905276Y-79114669D01*
X98976465Y-79008127D01*
X99025501Y-78889744D01*
X99050500Y-78764069D01*
X99050500Y-72284553D01*
X99070185Y-72217514D01*
X99122989Y-72171759D01*
X99192147Y-72161815D01*
X99241167Y-72181711D01*
G37*
%TD.AperFunction*%
%TA.AperFunction,Conductor*%
G36*
X92554075Y-43817993D02*
G01*
X92619901Y-43932007D01*
X92712993Y-44025099D01*
X92827007Y-44090925D01*
X92890590Y-44107962D01*
X92258625Y-44739925D01*
X92335031Y-44793425D01*
X92378655Y-44848002D01*
X92385848Y-44917501D01*
X92354326Y-44979855D01*
X92335029Y-44996576D01*
X92258625Y-45050072D01*
X92890590Y-45682037D01*
X92827007Y-45699075D01*
X92712993Y-45764901D01*
X92619901Y-45857993D01*
X92554075Y-45972007D01*
X92537037Y-46035590D01*
X91905072Y-45403625D01*
X91905072Y-45403626D01*
X91851574Y-45480030D01*
X91796998Y-45523655D01*
X91727499Y-45530849D01*
X91665144Y-45499326D01*
X91648424Y-45480030D01*
X91594925Y-45403626D01*
X91594925Y-45403625D01*
X90962962Y-46035589D01*
X90945925Y-45972007D01*
X90880099Y-45857993D01*
X90787007Y-45764901D01*
X90672993Y-45699075D01*
X90609410Y-45682037D01*
X91241373Y-45050073D01*
X91164969Y-44996576D01*
X91121344Y-44941999D01*
X91114150Y-44872501D01*
X91145672Y-44810146D01*
X91164968Y-44793425D01*
X91241373Y-44739925D01*
X90609409Y-44107962D01*
X90672993Y-44090925D01*
X90787007Y-44025099D01*
X90880099Y-43932007D01*
X90945925Y-43817993D01*
X90962962Y-43754410D01*
X91594925Y-44386373D01*
X91648425Y-44309968D01*
X91703002Y-44266344D01*
X91772501Y-44259151D01*
X91834855Y-44290673D01*
X91851576Y-44309969D01*
X91905073Y-44386372D01*
X92537037Y-43754409D01*
X92554075Y-43817993D01*
G37*
%TD.AperFunction*%
%TA.AperFunction,Conductor*%
G36*
X87474075Y-43817993D02*
G01*
X87539901Y-43932007D01*
X87632993Y-44025099D01*
X87747007Y-44090925D01*
X87810590Y-44107962D01*
X87178625Y-44739925D01*
X87255031Y-44793425D01*
X87298655Y-44848002D01*
X87305848Y-44917501D01*
X87274326Y-44979855D01*
X87255029Y-44996576D01*
X87178625Y-45050072D01*
X87810590Y-45682037D01*
X87747007Y-45699075D01*
X87632993Y-45764901D01*
X87539901Y-45857993D01*
X87474075Y-45972007D01*
X87457037Y-46035589D01*
X86825073Y-45403626D01*
X86771881Y-45479594D01*
X86717304Y-45523219D01*
X86647806Y-45530413D01*
X86585451Y-45498891D01*
X86568730Y-45479594D01*
X86438496Y-45293600D01*
X86438493Y-45293597D01*
X86316567Y-45171671D01*
X86283084Y-45110351D01*
X86288068Y-45040659D01*
X86329939Y-44984725D01*
X86360915Y-44967810D01*
X86492331Y-44918796D01*
X86607546Y-44832546D01*
X86693796Y-44717331D01*
X86744091Y-44582483D01*
X86750500Y-44522873D01*
X86750499Y-44512314D01*
X86770179Y-44445277D01*
X86786818Y-44424628D01*
X87457037Y-43754409D01*
X87474075Y-43817993D01*
G37*
%TD.AperFunction*%
%TA.AperFunction,Conductor*%
G36*
X90014075Y-43817993D02*
G01*
X90079901Y-43932007D01*
X90172993Y-44025099D01*
X90287007Y-44090925D01*
X90350590Y-44107962D01*
X89718625Y-44739925D01*
X89795031Y-44793425D01*
X89838655Y-44848002D01*
X89845848Y-44917501D01*
X89814326Y-44979855D01*
X89795029Y-44996576D01*
X89718625Y-45050072D01*
X90350590Y-45682037D01*
X90287007Y-45699075D01*
X90172993Y-45764901D01*
X90079901Y-45857993D01*
X90014075Y-45972007D01*
X89997037Y-46035589D01*
X89365073Y-45403625D01*
X89365072Y-45403626D01*
X89311574Y-45480030D01*
X89256998Y-45523655D01*
X89187499Y-45530849D01*
X89125144Y-45499326D01*
X89108424Y-45480030D01*
X89054925Y-45403626D01*
X89054925Y-45403625D01*
X88422962Y-46035589D01*
X88405925Y-45972007D01*
X88340099Y-45857993D01*
X88247007Y-45764901D01*
X88132993Y-45699075D01*
X88069410Y-45682037D01*
X88701373Y-45050073D01*
X88624969Y-44996576D01*
X88581344Y-44941999D01*
X88574150Y-44872501D01*
X88605672Y-44810146D01*
X88624968Y-44793425D01*
X88701373Y-44739925D01*
X88069409Y-44107962D01*
X88132993Y-44090925D01*
X88247007Y-44025099D01*
X88340099Y-43932007D01*
X88405925Y-43817993D01*
X88422962Y-43754410D01*
X89054925Y-44386373D01*
X89108425Y-44309968D01*
X89163002Y-44266344D01*
X89232501Y-44259151D01*
X89294855Y-44290673D01*
X89311576Y-44309969D01*
X89365073Y-44386372D01*
X89997037Y-43754409D01*
X90014075Y-43817993D01*
G37*
%TD.AperFunction*%
%TA.AperFunction,Conductor*%
G36*
X94134925Y-44386373D02*
G01*
X94188119Y-44310405D01*
X94242696Y-44266781D01*
X94312195Y-44259588D01*
X94374549Y-44291110D01*
X94391269Y-44310405D01*
X94521505Y-44496401D01*
X94521506Y-44496402D01*
X94688597Y-44663493D01*
X94688603Y-44663498D01*
X94874158Y-44793425D01*
X94917783Y-44848002D01*
X94924977Y-44917500D01*
X94893454Y-44979855D01*
X94874158Y-44996575D01*
X94688597Y-45126505D01*
X94521505Y-45293597D01*
X94391269Y-45479595D01*
X94336692Y-45523220D01*
X94267194Y-45530414D01*
X94204839Y-45498891D01*
X94188119Y-45479595D01*
X94134925Y-45403626D01*
X94134925Y-45403625D01*
X93502962Y-46035589D01*
X93485925Y-45972007D01*
X93420099Y-45857993D01*
X93327007Y-45764901D01*
X93212993Y-45699075D01*
X93149410Y-45682037D01*
X93781373Y-45050073D01*
X93704969Y-44996576D01*
X93661344Y-44941999D01*
X93654150Y-44872501D01*
X93685672Y-44810146D01*
X93704968Y-44793425D01*
X93781373Y-44739925D01*
X93149409Y-44107962D01*
X93212993Y-44090925D01*
X93327007Y-44025099D01*
X93420099Y-43932007D01*
X93485925Y-43817993D01*
X93502962Y-43754410D01*
X94134925Y-44386373D01*
G37*
%TD.AperFunction*%
%TA.AperFunction,Conductor*%
G36*
X111005809Y-39520185D02*
G01*
X111051564Y-39572989D01*
X111061508Y-39642147D01*
X111032483Y-39705703D01*
X111026451Y-39712181D01*
X108617050Y-42121580D01*
X108617044Y-42121588D01*
X108567812Y-42195268D01*
X108567813Y-42195269D01*
X108534921Y-42244496D01*
X108534914Y-42244508D01*
X108478342Y-42381086D01*
X108478340Y-42381092D01*
X108449500Y-42526079D01*
X108449500Y-50693019D01*
X108429815Y-50760058D01*
X108421353Y-50771684D01*
X108364091Y-50841458D01*
X108364086Y-50841465D01*
X108271188Y-51015264D01*
X108213975Y-51203868D01*
X108194659Y-51399998D01*
X108213975Y-51596127D01*
X108271188Y-51784731D01*
X108364084Y-51958527D01*
X108364087Y-51958531D01*
X108364090Y-51958536D01*
X108421354Y-52028312D01*
X108448666Y-52092618D01*
X108449500Y-52106974D01*
X108449500Y-63073918D01*
X108449500Y-63073920D01*
X108449499Y-63073920D01*
X108478340Y-63218907D01*
X108478343Y-63218917D01*
X108534913Y-63355489D01*
X108534914Y-63355491D01*
X108534916Y-63355495D01*
X108545990Y-63372069D01*
X108545991Y-63372072D01*
X108617046Y-63478414D01*
X108617052Y-63478421D01*
X111369405Y-66230773D01*
X111402890Y-66292096D01*
X111405125Y-66306282D01*
X111405820Y-66313328D01*
X111392811Y-66381976D01*
X111344754Y-66432693D01*
X111282419Y-66449500D01*
X102099500Y-66449500D01*
X102032461Y-66429815D01*
X101986706Y-66377011D01*
X101975500Y-66325500D01*
X101975500Y-60560928D01*
X101950502Y-60435261D01*
X101950501Y-60435260D01*
X101950501Y-60435256D01*
X101901465Y-60316873D01*
X101901464Y-60316870D01*
X101830277Y-60210331D01*
X101830271Y-60210324D01*
X100539149Y-58919203D01*
X100505664Y-58857880D01*
X100503509Y-58818561D01*
X100505460Y-58800000D01*
X100485674Y-58611744D01*
X100427179Y-58431716D01*
X100332533Y-58267784D01*
X100205871Y-58127112D01*
X100168691Y-58100099D01*
X100052734Y-58015851D01*
X100052729Y-58015848D01*
X99879807Y-57938857D01*
X99879802Y-57938855D01*
X99734001Y-57907865D01*
X99694646Y-57899500D01*
X99505354Y-57899500D01*
X99472897Y-57906398D01*
X99320197Y-57938855D01*
X99320192Y-57938857D01*
X99147270Y-58015848D01*
X99147265Y-58015851D01*
X98995910Y-58125818D01*
X98930104Y-58149298D01*
X98923025Y-58149500D01*
X82235929Y-58149500D01*
X82113197Y-58173914D01*
X82113192Y-58173915D01*
X82110259Y-58174498D01*
X82110255Y-58174499D01*
X81991870Y-58223535D01*
X81885331Y-58294722D01*
X81885324Y-58294728D01*
X79416873Y-60763181D01*
X79355550Y-60796666D01*
X79329192Y-60799500D01*
X79305354Y-60799500D01*
X79272897Y-60806398D01*
X79120197Y-60838855D01*
X79120192Y-60838857D01*
X78947270Y-60915848D01*
X78947265Y-60915851D01*
X78794129Y-61027111D01*
X78667466Y-61167785D01*
X78572821Y-61331715D01*
X78572818Y-61331722D01*
X78514327Y-61511740D01*
X78514326Y-61511744D01*
X78494540Y-61700000D01*
X78514326Y-61888256D01*
X78514327Y-61888259D01*
X78572818Y-62068277D01*
X78572821Y-62068284D01*
X78667467Y-62232216D01*
X78794129Y-62372888D01*
X78947265Y-62484148D01*
X78947270Y-62484151D01*
X79120192Y-62561142D01*
X79120197Y-62561144D01*
X79305354Y-62600500D01*
X79305355Y-62600500D01*
X79494644Y-62600500D01*
X79494646Y-62600500D01*
X79679803Y-62561144D01*
X79852730Y-62484151D01*
X80005871Y-62372888D01*
X80132533Y-62232216D01*
X80227179Y-62068284D01*
X80285674Y-61888256D01*
X80299168Y-61759855D01*
X80325752Y-61695242D01*
X80334799Y-61685145D01*
X82533127Y-59486819D01*
X82594450Y-59453334D01*
X82620808Y-59450500D01*
X98923025Y-59450500D01*
X98990064Y-59470185D01*
X98995910Y-59474182D01*
X99147265Y-59584148D01*
X99147270Y-59584151D01*
X99320197Y-59661144D01*
X99437933Y-59686169D01*
X99499412Y-59719360D01*
X99499831Y-59719777D01*
X100638181Y-60858127D01*
X100671666Y-60919450D01*
X100674500Y-60945808D01*
X100674500Y-66325500D01*
X100654815Y-66392539D01*
X100602011Y-66438294D01*
X100550500Y-66449500D01*
X99035929Y-66449500D01*
X98910261Y-66474497D01*
X98910255Y-66474499D01*
X98791870Y-66523535D01*
X98685331Y-66594722D01*
X98685324Y-66594728D01*
X97894726Y-67385326D01*
X97823534Y-67491874D01*
X97774499Y-67610255D01*
X97774497Y-67610261D01*
X97749500Y-67735928D01*
X97749500Y-78379192D01*
X97729815Y-78446231D01*
X97713181Y-78466873D01*
X97516873Y-78663181D01*
X97455550Y-78696666D01*
X97429192Y-78699500D01*
X97405354Y-78699500D01*
X97372897Y-78706398D01*
X97220197Y-78738855D01*
X97220192Y-78738857D01*
X97047270Y-78815848D01*
X97047265Y-78815851D01*
X96894129Y-78927111D01*
X96767466Y-79067785D01*
X96672821Y-79231715D01*
X96672818Y-79231722D01*
X96627350Y-79371659D01*
X96614326Y-79411744D01*
X96594540Y-79600000D01*
X96614326Y-79788256D01*
X96614327Y-79788259D01*
X96672818Y-79968277D01*
X96672821Y-79968284D01*
X96767467Y-80132216D01*
X96882337Y-80259792D01*
X96894129Y-80272888D01*
X97047265Y-80384148D01*
X97047270Y-80384151D01*
X97220192Y-80461142D01*
X97220197Y-80461144D01*
X97405354Y-80500500D01*
X97405355Y-80500500D01*
X97594644Y-80500500D01*
X97594646Y-80500500D01*
X97779803Y-80461144D01*
X97779808Y-80461141D01*
X97785986Y-80459135D01*
X97786209Y-80459821D01*
X97830067Y-80450500D01*
X97879192Y-80450500D01*
X97946231Y-80470185D01*
X97966873Y-80486819D01*
X100913181Y-83433127D01*
X100946666Y-83494450D01*
X100949500Y-83520808D01*
X100949500Y-89725500D01*
X100929815Y-89792539D01*
X100877011Y-89838294D01*
X100825500Y-89849500D01*
X99776975Y-89849500D01*
X99709936Y-89829815D01*
X99704090Y-89825818D01*
X99552734Y-89715851D01*
X99552729Y-89715848D01*
X99379807Y-89638857D01*
X99379802Y-89638855D01*
X99234001Y-89607865D01*
X99194646Y-89599500D01*
X99005354Y-89599500D01*
X98972897Y-89606398D01*
X98820197Y-89638855D01*
X98820192Y-89638857D01*
X98647270Y-89715848D01*
X98647265Y-89715851D01*
X98494129Y-89827111D01*
X98367466Y-89967785D01*
X98272821Y-90131715D01*
X98272818Y-90131722D01*
X98248038Y-90207989D01*
X98214326Y-90311744D01*
X98194540Y-90500000D01*
X98214326Y-90688256D01*
X98214327Y-90688259D01*
X98272818Y-90868277D01*
X98272821Y-90868284D01*
X98367467Y-91032216D01*
X98373446Y-91038856D01*
X98494129Y-91172888D01*
X98647265Y-91284148D01*
X98647270Y-91284151D01*
X98820192Y-91361142D01*
X98820197Y-91361144D01*
X99005354Y-91400500D01*
X99005355Y-91400500D01*
X99194644Y-91400500D01*
X99194646Y-91400500D01*
X99379803Y-91361144D01*
X99552730Y-91284151D01*
X99704090Y-91174182D01*
X99769896Y-91150702D01*
X99776975Y-91150500D01*
X100825500Y-91150500D01*
X100892539Y-91170185D01*
X100938294Y-91222989D01*
X100949500Y-91274500D01*
X100949500Y-96379192D01*
X100929815Y-96446231D01*
X100913181Y-96466873D01*
X97566873Y-99813181D01*
X97505550Y-99846666D01*
X97479192Y-99849500D01*
X84162000Y-99849500D01*
X84094961Y-99829815D01*
X84049206Y-99777011D01*
X84038000Y-99725500D01*
X84038000Y-95923428D01*
X84013002Y-95797761D01*
X84013001Y-95797760D01*
X84013001Y-95797756D01*
X83963965Y-95679373D01*
X83956556Y-95668284D01*
X83892777Y-95572831D01*
X83892775Y-95572829D01*
X83892773Y-95572826D01*
X83892772Y-95572825D01*
X83634808Y-95314862D01*
X83601323Y-95253539D01*
X83599168Y-95240141D01*
X83585674Y-95111745D01*
X83584372Y-95107739D01*
X83527179Y-94931716D01*
X83432533Y-94767784D01*
X83305871Y-94627112D01*
X83305870Y-94627111D01*
X83152734Y-94515851D01*
X83152729Y-94515848D01*
X82979807Y-94438857D01*
X82979802Y-94438855D01*
X82834001Y-94407865D01*
X82794646Y-94399500D01*
X82794645Y-94399500D01*
X82770808Y-94399500D01*
X82703769Y-94379815D01*
X82683127Y-94363181D01*
X81814674Y-93494727D01*
X81814673Y-93494726D01*
X81814669Y-93494723D01*
X81708127Y-93423535D01*
X81645531Y-93397607D01*
X81589744Y-93374499D01*
X81589738Y-93374497D01*
X81464071Y-93349500D01*
X81464069Y-93349500D01*
X72733837Y-93349500D01*
X72666798Y-93329815D01*
X72627438Y-93287384D01*
X72626978Y-93287686D01*
X72625214Y-93284987D01*
X72624786Y-93284525D01*
X72624173Y-93283393D01*
X72488166Y-93075217D01*
X72466557Y-93051744D01*
X72319744Y-92892262D01*
X72123509Y-92739526D01*
X72123508Y-92739525D01*
X72123505Y-92739523D01*
X72123498Y-92739519D01*
X72015482Y-92681063D01*
X71965891Y-92631844D01*
X71950500Y-92572009D01*
X71950500Y-90259500D01*
X71970185Y-90192461D01*
X72022989Y-90146706D01*
X72074500Y-90135500D01*
X73651607Y-90135500D01*
X73712029Y-90123481D01*
X73772452Y-90111463D01*
X73772455Y-90111461D01*
X73772458Y-90111461D01*
X73805787Y-90097654D01*
X73805786Y-90097654D01*
X73805792Y-90097652D01*
X73886286Y-90064312D01*
X73945614Y-90024669D01*
X73988733Y-89995858D01*
X74075858Y-89908733D01*
X74075859Y-89908731D01*
X74082925Y-89901665D01*
X74082928Y-89901661D01*
X83347770Y-80636819D01*
X83409093Y-80603334D01*
X83435451Y-80600500D01*
X83594644Y-80600500D01*
X83594646Y-80600500D01*
X83779803Y-80561144D01*
X83952730Y-80484151D01*
X84105871Y-80372888D01*
X84232533Y-80232216D01*
X84327179Y-80068284D01*
X84385674Y-79888256D01*
X84405460Y-79700000D01*
X84385674Y-79511744D01*
X84327179Y-79331716D01*
X84232533Y-79167784D01*
X84105871Y-79027112D01*
X84105870Y-79027111D01*
X83952734Y-78915851D01*
X83952729Y-78915848D01*
X83779807Y-78838857D01*
X83779802Y-78838855D01*
X83597840Y-78800179D01*
X83594646Y-78799500D01*
X83405354Y-78799500D01*
X83405353Y-78799500D01*
X83398897Y-78800179D01*
X83398688Y-78798198D01*
X83338431Y-78793596D01*
X83282700Y-78751455D01*
X83258600Y-78685873D01*
X83273781Y-78617673D01*
X83294644Y-78589944D01*
X83382360Y-78502229D01*
X85847771Y-76036818D01*
X85909094Y-76003333D01*
X85935452Y-76000499D01*
X85994643Y-76000499D01*
X85994645Y-76000499D01*
X86179802Y-75961143D01*
X86352729Y-75884150D01*
X86377615Y-75866069D01*
X86443419Y-75842589D01*
X86511473Y-75858413D01*
X86560169Y-75908518D01*
X86574500Y-75966387D01*
X86574500Y-95801312D01*
X86554815Y-95868351D01*
X86542650Y-95884284D01*
X86467466Y-95967784D01*
X86372821Y-96131715D01*
X86372818Y-96131722D01*
X86332131Y-96256946D01*
X86314326Y-96311744D01*
X86294540Y-96500000D01*
X86314326Y-96688256D01*
X86314327Y-96688259D01*
X86372818Y-96868277D01*
X86372821Y-96868284D01*
X86467467Y-97032216D01*
X86541713Y-97114674D01*
X86594129Y-97172888D01*
X86747265Y-97284148D01*
X86747270Y-97284151D01*
X86920192Y-97361142D01*
X86920197Y-97361144D01*
X87105354Y-97400500D01*
X87105355Y-97400500D01*
X87294644Y-97400500D01*
X87294646Y-97400500D01*
X87479803Y-97361144D01*
X87652730Y-97284151D01*
X87805871Y-97172888D01*
X87932533Y-97032216D01*
X88027179Y-96868284D01*
X88085674Y-96688256D01*
X88105460Y-96500000D01*
X88085674Y-96311744D01*
X88027179Y-96131716D01*
X87932533Y-95967784D01*
X87857350Y-95884284D01*
X87827120Y-95821292D01*
X87825500Y-95801312D01*
X87825500Y-93366387D01*
X87845185Y-93299348D01*
X87897989Y-93253593D01*
X87967147Y-93243649D01*
X88022385Y-93266069D01*
X88047269Y-93284148D01*
X88047270Y-93284149D01*
X88220192Y-93361140D01*
X88220197Y-93361142D01*
X88405354Y-93400498D01*
X88405355Y-93400498D01*
X88600485Y-93400498D01*
X88624674Y-93402880D01*
X88677973Y-93413481D01*
X88738395Y-93425500D01*
X88738396Y-93425500D01*
X89510754Y-93425500D01*
X89535341Y-93425500D01*
X89535344Y-93425501D01*
X89677200Y-93425501D01*
X89744239Y-93445186D01*
X89789994Y-93497990D01*
X89801200Y-93549501D01*
X89801200Y-93595245D01*
X89801200Y-93595247D01*
X89801199Y-93595247D01*
X89834459Y-93762452D01*
X89834462Y-93762462D01*
X89899701Y-93919964D01*
X89899702Y-93919966D01*
X89994422Y-94061724D01*
X89994425Y-94061728D01*
X90114976Y-94182279D01*
X90213072Y-94247824D01*
X90256734Y-94276998D01*
X90256740Y-94277000D01*
X90256741Y-94277001D01*
X90414240Y-94342238D01*
X90414248Y-94342241D01*
X90514392Y-94362160D01*
X90581459Y-94375501D01*
X90666704Y-94375500D01*
X90710754Y-94375500D01*
X90735341Y-94375500D01*
X90735344Y-94375501D01*
X90846106Y-94375501D01*
X90913145Y-94395186D01*
X90945181Y-94428775D01*
X90946935Y-94427501D01*
X90950755Y-94432759D01*
X91077419Y-94573433D01*
X91230555Y-94684693D01*
X91230560Y-94684696D01*
X91403482Y-94761687D01*
X91403487Y-94761689D01*
X91588644Y-94801045D01*
X91588645Y-94801045D01*
X91777934Y-94801045D01*
X91777936Y-94801045D01*
X91963093Y-94761689D01*
X92136020Y-94684696D01*
X92289161Y-94573433D01*
X92292078Y-94570192D01*
X92294890Y-94567071D01*
X92354377Y-94530424D01*
X92387038Y-94526045D01*
X97190093Y-94526045D01*
X97257132Y-94545730D01*
X97277774Y-94562364D01*
X97361038Y-94645628D01*
X97394523Y-94706951D01*
X97396678Y-94720347D01*
X97401664Y-94767784D01*
X97414326Y-94888256D01*
X97414327Y-94888259D01*
X97472818Y-95068277D01*
X97472821Y-95068284D01*
X97567467Y-95232216D01*
X97670333Y-95346460D01*
X97694129Y-95372888D01*
X97847265Y-95484148D01*
X97847270Y-95484151D01*
X98020192Y-95561142D01*
X98020197Y-95561144D01*
X98205354Y-95600500D01*
X98205355Y-95600500D01*
X98394644Y-95600500D01*
X98394646Y-95600500D01*
X98579803Y-95561144D01*
X98752730Y-95484151D01*
X98905871Y-95372888D01*
X99032533Y-95232216D01*
X99127179Y-95068284D01*
X99185674Y-94888256D01*
X99205460Y-94700000D01*
X99185674Y-94511744D01*
X99127179Y-94331716D01*
X99032533Y-94167784D01*
X98905871Y-94027112D01*
X98905870Y-94027111D01*
X98752734Y-93915851D01*
X98752729Y-93915848D01*
X98579807Y-93838857D01*
X98579802Y-93838855D01*
X98434001Y-93807865D01*
X98394646Y-93799500D01*
X98394645Y-93799500D01*
X98335452Y-93799500D01*
X98268413Y-93779815D01*
X98247771Y-93763181D01*
X97990743Y-93506153D01*
X97990723Y-93506131D01*
X97899278Y-93414686D01*
X97848054Y-93380460D01*
X97796832Y-93346234D01*
X97796831Y-93346233D01*
X97796828Y-93346231D01*
X97796825Y-93346230D01*
X97716337Y-93312892D01*
X97682999Y-93299083D01*
X97683000Y-93299083D01*
X97682997Y-93299082D01*
X97682993Y-93299081D01*
X97682989Y-93299080D01*
X97616507Y-93285856D01*
X97616506Y-93285856D01*
X97562156Y-93275045D01*
X97562152Y-93275045D01*
X97562151Y-93275045D01*
X96808906Y-93275045D01*
X96741867Y-93255360D01*
X96696112Y-93202556D01*
X96686168Y-93133398D01*
X96715193Y-93069842D01*
X96721225Y-93063364D01*
X96947771Y-92836819D01*
X97009094Y-92803334D01*
X97035452Y-92800500D01*
X97094644Y-92800500D01*
X97094646Y-92800500D01*
X97279803Y-92761144D01*
X97452730Y-92684151D01*
X97605871Y-92572888D01*
X97732533Y-92432216D01*
X97827179Y-92268284D01*
X97885674Y-92088256D01*
X97905460Y-91900000D01*
X97885674Y-91711744D01*
X97827179Y-91531716D01*
X97732533Y-91367784D01*
X97605871Y-91227112D01*
X97605870Y-91227111D01*
X97452734Y-91115851D01*
X97452729Y-91115848D01*
X97279807Y-91038857D01*
X97279802Y-91038855D01*
X97134001Y-91007865D01*
X97094646Y-90999500D01*
X96905354Y-90999500D01*
X96872897Y-91006398D01*
X96720197Y-91038855D01*
X96720192Y-91038857D01*
X96547270Y-91115848D01*
X96547265Y-91115851D01*
X96394129Y-91227111D01*
X96267466Y-91367785D01*
X96172821Y-91531715D01*
X96172818Y-91531722D01*
X96138009Y-91638855D01*
X96114326Y-91711744D01*
X96109527Y-91757406D01*
X96096678Y-91879651D01*
X96070093Y-91944266D01*
X96061039Y-91954370D01*
X95877227Y-92138182D01*
X95815907Y-92171666D01*
X95789548Y-92174500D01*
X92376201Y-92174500D01*
X92309162Y-92154815D01*
X92263407Y-92102011D01*
X92252201Y-92050500D01*
X92252201Y-91973284D01*
X92252200Y-91973258D01*
X92252200Y-91954755D01*
X92252199Y-91954751D01*
X92241971Y-91903330D01*
X92218940Y-91787544D01*
X92218938Y-91787539D01*
X92153698Y-91630034D01*
X92153696Y-91630031D01*
X92058985Y-91488284D01*
X92058982Y-91488281D01*
X92058980Y-91488279D01*
X92058979Y-91488277D01*
X91938426Y-91367723D01*
X91938425Y-91367722D01*
X91938424Y-91367721D01*
X91796676Y-91273008D01*
X91796666Y-91273003D01*
X91639160Y-91207761D01*
X91639154Y-91207759D01*
X91471950Y-91174500D01*
X91471948Y-91174500D01*
X91448307Y-91174500D01*
X91205095Y-91174500D01*
X91205093Y-91174500D01*
X91181459Y-91174500D01*
X91181457Y-91174500D01*
X91014252Y-91207759D01*
X91014244Y-91207761D01*
X90856741Y-91272999D01*
X90856726Y-91273008D01*
X90795590Y-91313857D01*
X90728912Y-91334734D01*
X90661533Y-91316248D01*
X90657812Y-91313857D01*
X90596670Y-91273005D01*
X90439160Y-91207761D01*
X90439154Y-91207759D01*
X90271950Y-91174500D01*
X90271948Y-91174500D01*
X90248307Y-91174500D01*
X90005095Y-91174500D01*
X90005093Y-91174500D01*
X89981459Y-91174500D01*
X89981457Y-91174500D01*
X89814252Y-91207759D01*
X89814244Y-91207761D01*
X89656741Y-91272999D01*
X89656729Y-91273006D01*
X89514981Y-91367719D01*
X89394420Y-91488279D01*
X89299708Y-91630024D01*
X89299703Y-91630034D01*
X89252310Y-91744451D01*
X89208469Y-91798854D01*
X89142174Y-91820919D01*
X89074475Y-91803640D01*
X89064864Y-91797316D01*
X88952734Y-91715849D01*
X88952729Y-91715846D01*
X88779807Y-91638855D01*
X88779802Y-91638853D01*
X88634001Y-91607863D01*
X88594646Y-91599498D01*
X88405354Y-91599498D01*
X88372897Y-91606396D01*
X88220197Y-91638853D01*
X88220192Y-91638855D01*
X88047270Y-91715846D01*
X88047266Y-91715848D01*
X88022384Y-91733927D01*
X87956578Y-91757406D01*
X87888524Y-91741580D01*
X87839830Y-91691474D01*
X87825500Y-91633608D01*
X87825500Y-71967741D01*
X87825501Y-71967720D01*
X87825501Y-71838391D01*
X87801464Y-71717555D01*
X87801463Y-71717549D01*
X87754312Y-71603715D01*
X87685858Y-71501267D01*
X87685855Y-71501263D01*
X86692928Y-70508338D01*
X86692925Y-70508334D01*
X86692925Y-70508335D01*
X86685858Y-70501268D01*
X86685858Y-70501267D01*
X86598733Y-70414142D01*
X86598732Y-70414141D01*
X86598731Y-70414140D01*
X86547509Y-70379915D01*
X86496286Y-70345688D01*
X86496283Y-70345686D01*
X86496280Y-70345685D01*
X86415792Y-70312347D01*
X86382453Y-70298537D01*
X86372427Y-70296543D01*
X86322029Y-70286518D01*
X86306494Y-70283428D01*
X86261610Y-70274500D01*
X86261607Y-70274500D01*
X86261606Y-70274500D01*
X85603748Y-70274500D01*
X85536709Y-70254815D01*
X85511600Y-70233474D01*
X85505873Y-70227114D01*
X85505869Y-70227110D01*
X85352734Y-70115851D01*
X85352729Y-70115848D01*
X85179807Y-70038857D01*
X85179802Y-70038855D01*
X85034001Y-70007865D01*
X84994646Y-69999500D01*
X84805354Y-69999500D01*
X84772897Y-70006398D01*
X84620197Y-70038855D01*
X84620192Y-70038857D01*
X84447270Y-70115848D01*
X84447265Y-70115851D01*
X84294129Y-70227111D01*
X84167466Y-70367785D01*
X84072821Y-70531715D01*
X84072818Y-70531722D01*
X84014327Y-70711740D01*
X84014326Y-70711744D01*
X83994540Y-70900000D01*
X84014326Y-71088256D01*
X84014327Y-71088259D01*
X84072818Y-71268277D01*
X84072821Y-71268284D01*
X84167467Y-71432216D01*
X84294126Y-71572885D01*
X84294129Y-71572888D01*
X84447265Y-71684148D01*
X84447270Y-71684151D01*
X84620192Y-71761142D01*
X84620197Y-71761144D01*
X84805354Y-71800500D01*
X84805355Y-71800500D01*
X84994644Y-71800500D01*
X84994646Y-71800500D01*
X85179803Y-71761144D01*
X85352730Y-71684151D01*
X85505871Y-71572888D01*
X85508788Y-71569647D01*
X85511600Y-71566526D01*
X85571087Y-71529879D01*
X85603748Y-71525500D01*
X85889548Y-71525500D01*
X85956587Y-71545185D01*
X85977229Y-71561819D01*
X86538181Y-72122771D01*
X86571666Y-72184094D01*
X86574500Y-72210452D01*
X86574500Y-74233609D01*
X86554815Y-74300648D01*
X86502011Y-74346403D01*
X86432853Y-74356347D01*
X86377617Y-74333929D01*
X86352731Y-74315849D01*
X86352728Y-74315847D01*
X86179806Y-74238856D01*
X86179801Y-74238854D01*
X86034000Y-74207864D01*
X85994645Y-74199499D01*
X85805353Y-74199499D01*
X85772896Y-74206397D01*
X85620196Y-74238854D01*
X85620191Y-74238856D01*
X85447269Y-74315847D01*
X85447264Y-74315850D01*
X85294128Y-74427110D01*
X85167465Y-74567784D01*
X85072820Y-74731714D01*
X85072817Y-74731721D01*
X85014326Y-74911739D01*
X85014325Y-74911743D01*
X84996678Y-75079648D01*
X84970093Y-75144262D01*
X84961038Y-75154367D01*
X74992227Y-85123181D01*
X74930904Y-85156666D01*
X74904546Y-85159500D01*
X59339919Y-85159500D01*
X59272880Y-85139815D01*
X59227125Y-85087011D01*
X59217181Y-85017853D01*
X59227537Y-84983095D01*
X59247208Y-84940910D01*
X59273903Y-84883663D01*
X59335063Y-84655408D01*
X59355659Y-84420000D01*
X59335063Y-84184592D01*
X59273903Y-83956337D01*
X59174035Y-83742171D01*
X59038495Y-83548599D01*
X59038494Y-83548597D01*
X58871402Y-83381506D01*
X58871396Y-83381501D01*
X58685842Y-83251575D01*
X58642217Y-83196998D01*
X58635023Y-83127500D01*
X58666546Y-83065145D01*
X58685842Y-83048425D01*
X58740354Y-83010255D01*
X58871401Y-82918495D01*
X59038495Y-82751401D01*
X59166650Y-82568377D01*
X59221227Y-82524752D01*
X59268225Y-82515500D01*
X60671607Y-82515500D01*
X60732029Y-82503481D01*
X60792452Y-82491463D01*
X60792455Y-82491461D01*
X60792458Y-82491461D01*
X60825787Y-82477654D01*
X60825786Y-82477654D01*
X60825792Y-82477652D01*
X60906286Y-82444312D01*
X60957509Y-82410084D01*
X61008733Y-82375858D01*
X61095858Y-82288733D01*
X61095859Y-82288731D01*
X61102925Y-82281665D01*
X61102928Y-82281661D01*
X62848729Y-80535860D01*
X62848733Y-80535858D01*
X62935858Y-80448733D01*
X62977870Y-80385858D01*
X62999832Y-80352990D01*
X62999833Y-80352988D01*
X63004311Y-80346286D01*
X63004312Y-80346285D01*
X63040139Y-80259790D01*
X63051463Y-80232452D01*
X63075500Y-80111606D01*
X63075500Y-70260452D01*
X63095185Y-70193413D01*
X63111819Y-70172771D01*
X65022771Y-68261819D01*
X65084094Y-68228334D01*
X65110452Y-68225500D01*
X79861607Y-68225500D01*
X79922029Y-68213481D01*
X79982452Y-68201463D01*
X80028351Y-68182451D01*
X80096286Y-68154312D01*
X80165405Y-68108127D01*
X80198733Y-68085858D01*
X80284591Y-68000000D01*
X84694540Y-68000000D01*
X84714326Y-68188256D01*
X84714327Y-68188259D01*
X84772818Y-68368277D01*
X84772821Y-68368284D01*
X84867467Y-68532216D01*
X84936703Y-68609110D01*
X84994129Y-68672888D01*
X85147265Y-68784148D01*
X85147270Y-68784151D01*
X85320192Y-68861142D01*
X85320197Y-68861144D01*
X85505354Y-68900500D01*
X85564548Y-68900500D01*
X85631587Y-68920185D01*
X85652229Y-68936819D01*
X88781229Y-72065820D01*
X88814714Y-72127143D01*
X88809730Y-72196835D01*
X88785698Y-72236473D01*
X88667464Y-72367785D01*
X88572819Y-72531715D01*
X88572816Y-72531722D01*
X88514325Y-72711740D01*
X88514324Y-72711744D01*
X88494538Y-72900000D01*
X88514324Y-73088256D01*
X88514325Y-73088259D01*
X88572816Y-73268277D01*
X88572819Y-73268284D01*
X88667465Y-73432216D01*
X88742650Y-73515717D01*
X88772880Y-73578708D01*
X88774500Y-73598689D01*
X88774500Y-86728674D01*
X88754815Y-86795713D01*
X88702011Y-86841468D01*
X88700937Y-86841953D01*
X88647267Y-86865848D01*
X88494129Y-86977110D01*
X88367466Y-87117784D01*
X88272821Y-87281714D01*
X88272818Y-87281721D01*
X88225964Y-87425925D01*
X88214326Y-87461743D01*
X88194540Y-87649999D01*
X88214326Y-87838255D01*
X88214327Y-87838258D01*
X88272818Y-88018276D01*
X88272821Y-88018283D01*
X88367467Y-88182215D01*
X88389069Y-88206206D01*
X88494129Y-88322887D01*
X88647265Y-88434147D01*
X88647270Y-88434150D01*
X88820192Y-88511141D01*
X88820197Y-88511143D01*
X89005354Y-88550499D01*
X89005355Y-88550499D01*
X89194644Y-88550499D01*
X89194646Y-88550499D01*
X89379803Y-88511143D01*
X89552730Y-88434150D01*
X89705871Y-88322887D01*
X89832533Y-88182215D01*
X89927179Y-88018283D01*
X89985674Y-87838255D01*
X90005460Y-87649999D01*
X89997877Y-87577859D01*
X90001612Y-87538692D01*
X90000275Y-87538426D01*
X90023136Y-87423492D01*
X90025500Y-87411606D01*
X90025500Y-87288392D01*
X90025500Y-86509452D01*
X90045185Y-86442413D01*
X90097989Y-86396658D01*
X90167147Y-86386714D01*
X90230703Y-86415739D01*
X90237179Y-86421769D01*
X91275409Y-87460000D01*
X92261038Y-88445629D01*
X92294523Y-88506952D01*
X92296678Y-88520348D01*
X92304968Y-88599227D01*
X92314326Y-88688256D01*
X92314327Y-88688259D01*
X92372818Y-88868277D01*
X92372821Y-88868284D01*
X92467467Y-89032216D01*
X92594129Y-89172888D01*
X92747265Y-89284148D01*
X92747270Y-89284151D01*
X92920192Y-89361142D01*
X92920197Y-89361144D01*
X93105354Y-89400500D01*
X93105355Y-89400500D01*
X93294644Y-89400500D01*
X93294646Y-89400500D01*
X93479803Y-89361144D01*
X93652730Y-89284151D01*
X93805871Y-89172888D01*
X93932533Y-89032216D01*
X94027179Y-88868284D01*
X94085674Y-88688256D01*
X94105460Y-88500000D01*
X94085674Y-88311744D01*
X94027179Y-88131716D01*
X93932533Y-87967784D01*
X93805871Y-87827112D01*
X93805870Y-87827111D01*
X93652734Y-87715851D01*
X93652729Y-87715848D01*
X93479807Y-87638857D01*
X93479802Y-87638855D01*
X93334001Y-87607865D01*
X93294646Y-87599500D01*
X93294645Y-87599500D01*
X93235453Y-87599500D01*
X93168414Y-87579815D01*
X93147772Y-87563181D01*
X90861819Y-85277228D01*
X90853289Y-85261607D01*
X92674500Y-85261607D01*
X92681965Y-85299139D01*
X92698537Y-85382452D01*
X92712347Y-85415792D01*
X92712347Y-85415793D01*
X92745685Y-85496280D01*
X92745690Y-85496289D01*
X92779914Y-85547507D01*
X92779915Y-85547509D01*
X92814141Y-85598733D01*
X92905586Y-85690178D01*
X92905608Y-85690198D01*
X94261038Y-87045628D01*
X94294523Y-87106951D01*
X94296678Y-87120347D01*
X94304009Y-87190092D01*
X94314326Y-87288256D01*
X94314327Y-87288259D01*
X94372818Y-87468277D01*
X94372821Y-87468284D01*
X94467467Y-87632216D01*
X94542770Y-87715848D01*
X94594129Y-87772888D01*
X94747265Y-87884148D01*
X94747270Y-87884151D01*
X94920192Y-87961142D01*
X94920197Y-87961144D01*
X95105354Y-88000500D01*
X95105355Y-88000500D01*
X95294644Y-88000500D01*
X95294646Y-88000500D01*
X95479803Y-87961144D01*
X95652730Y-87884151D01*
X95805871Y-87772888D01*
X95932533Y-87632216D01*
X96027179Y-87468284D01*
X96085674Y-87288256D01*
X96105460Y-87100000D01*
X96085674Y-86911744D01*
X96027179Y-86731716D01*
X95932533Y-86567784D01*
X95805871Y-86427112D01*
X95805870Y-86427111D01*
X95652734Y-86315851D01*
X95652729Y-86315848D01*
X95479807Y-86238857D01*
X95479802Y-86238855D01*
X95334001Y-86207865D01*
X95294646Y-86199500D01*
X95294645Y-86199500D01*
X95235452Y-86199500D01*
X95168413Y-86179815D01*
X95147771Y-86163181D01*
X93961819Y-84977229D01*
X93928334Y-84915906D01*
X93925500Y-84889548D01*
X93925500Y-72924500D01*
X93945185Y-72857461D01*
X93997989Y-72811706D01*
X94049500Y-72800500D01*
X94094644Y-72800500D01*
X94094646Y-72800500D01*
X94279803Y-72761144D01*
X94452730Y-72684151D01*
X94605871Y-72572888D01*
X94732533Y-72432216D01*
X94827179Y-72268284D01*
X94885674Y-72088256D01*
X94905460Y-71900000D01*
X94885674Y-71711744D01*
X94827179Y-71531716D01*
X94732533Y-71367784D01*
X94605871Y-71227112D01*
X94605870Y-71227111D01*
X94452734Y-71115851D01*
X94452729Y-71115848D01*
X94279807Y-71038857D01*
X94279802Y-71038855D01*
X94134001Y-71007865D01*
X94094646Y-70999500D01*
X93905354Y-70999500D01*
X93872897Y-71006398D01*
X93720197Y-71038855D01*
X93720192Y-71038857D01*
X93547270Y-71115848D01*
X93547265Y-71115851D01*
X93394129Y-71227111D01*
X93267466Y-71367785D01*
X93172821Y-71531715D01*
X93172818Y-71531722D01*
X93114327Y-71711740D01*
X93114326Y-71711744D01*
X93108038Y-71771575D01*
X93096679Y-71879650D01*
X93070094Y-71944264D01*
X93061047Y-71954361D01*
X92901269Y-72114140D01*
X92901267Y-72114142D01*
X92857704Y-72157704D01*
X92814142Y-72201266D01*
X92803286Y-72217514D01*
X92788121Y-72240210D01*
X92758458Y-72284603D01*
X92745686Y-72303717D01*
X92745685Y-72303719D01*
X92728301Y-72345690D01*
X92698538Y-72417544D01*
X92698535Y-72417556D01*
X92674500Y-72538389D01*
X92674500Y-85261607D01*
X90853289Y-85261607D01*
X90828334Y-85215905D01*
X90825500Y-85189547D01*
X90825500Y-72538393D01*
X90823031Y-72525982D01*
X90813156Y-72476337D01*
X90801463Y-72417548D01*
X90754311Y-72303714D01*
X90726553Y-72262171D01*
X90696714Y-72217514D01*
X90685859Y-72201268D01*
X90643681Y-72159090D01*
X90598733Y-72114142D01*
X90598732Y-72114141D01*
X86538959Y-68054369D01*
X86505475Y-67993047D01*
X86503323Y-67979671D01*
X86485674Y-67811744D01*
X86427179Y-67631716D01*
X86332533Y-67467784D01*
X86205871Y-67327112D01*
X86205870Y-67327111D01*
X86052734Y-67215851D01*
X86052729Y-67215848D01*
X85879807Y-67138857D01*
X85879802Y-67138855D01*
X85734001Y-67107865D01*
X85694646Y-67099500D01*
X85505354Y-67099500D01*
X85472897Y-67106398D01*
X85320197Y-67138855D01*
X85320192Y-67138857D01*
X85147270Y-67215848D01*
X85147265Y-67215851D01*
X84994129Y-67327111D01*
X84867466Y-67467785D01*
X84772821Y-67631715D01*
X84772818Y-67631722D01*
X84714327Y-67811740D01*
X84714326Y-67811744D01*
X84694540Y-68000000D01*
X80284591Y-68000000D01*
X80285858Y-67998733D01*
X80285859Y-67998731D01*
X80292925Y-67991665D01*
X80292927Y-67991661D01*
X83922771Y-64361819D01*
X83984094Y-64328334D01*
X84010452Y-64325500D01*
X84096252Y-64325500D01*
X84163291Y-64345185D01*
X84188400Y-64366526D01*
X84194126Y-64372885D01*
X84194130Y-64372889D01*
X84347265Y-64484148D01*
X84347270Y-64484151D01*
X84520192Y-64561142D01*
X84520197Y-64561144D01*
X84705354Y-64600500D01*
X84705355Y-64600500D01*
X84894644Y-64600500D01*
X84894646Y-64600500D01*
X85079803Y-64561144D01*
X85252730Y-64484151D01*
X85405871Y-64372888D01*
X85532533Y-64232216D01*
X85627179Y-64068284D01*
X85685674Y-63888256D01*
X85705460Y-63700000D01*
X85685674Y-63511744D01*
X85627179Y-63331716D01*
X85532533Y-63167784D01*
X85405871Y-63027112D01*
X85405870Y-63027111D01*
X85252734Y-62915851D01*
X85252729Y-62915848D01*
X85079807Y-62838857D01*
X85079802Y-62838855D01*
X84934001Y-62807865D01*
X84894646Y-62799500D01*
X84705354Y-62799500D01*
X84672897Y-62806398D01*
X84520197Y-62838855D01*
X84520192Y-62838857D01*
X84347270Y-62915848D01*
X84347265Y-62915851D01*
X84194130Y-63027110D01*
X84194126Y-63027114D01*
X84188400Y-63033474D01*
X84128913Y-63070121D01*
X84096252Y-63074500D01*
X83638389Y-63074500D01*
X83577971Y-63086518D01*
X83517548Y-63098537D01*
X83517543Y-63098538D01*
X83483546Y-63112620D01*
X83470397Y-63118067D01*
X83448169Y-63127274D01*
X83403713Y-63145688D01*
X83393557Y-63152475D01*
X83393449Y-63152547D01*
X83301268Y-63214140D01*
X83271754Y-63243655D01*
X83214142Y-63301267D01*
X83214139Y-63301270D01*
X79577229Y-66938181D01*
X79515906Y-66971666D01*
X79489548Y-66974500D01*
X64738389Y-66974500D01*
X64677971Y-66986518D01*
X64617548Y-66998537D01*
X64617546Y-66998537D01*
X64617545Y-66998538D01*
X64617543Y-66998538D01*
X64578601Y-67014668D01*
X64578602Y-67014669D01*
X64503713Y-67045688D01*
X64503714Y-67045689D01*
X64401268Y-67114140D01*
X64376554Y-67138855D01*
X64314142Y-67201267D01*
X64314139Y-67201270D01*
X62051270Y-69464139D01*
X62051267Y-69464142D01*
X62007703Y-69507706D01*
X61964139Y-69551269D01*
X61964138Y-69551271D01*
X61931915Y-69599497D01*
X61931914Y-69599499D01*
X61895690Y-69653709D01*
X61895685Y-69653718D01*
X61868536Y-69719264D01*
X61868536Y-69719266D01*
X61848537Y-69767548D01*
X61848536Y-69767552D01*
X61848536Y-69767553D01*
X61848535Y-69767556D01*
X61824500Y-69888389D01*
X61824500Y-79739548D01*
X61804815Y-79806587D01*
X61788181Y-79827229D01*
X60387229Y-81228181D01*
X60325906Y-81261666D01*
X60299548Y-81264500D01*
X59281612Y-81264500D01*
X59214573Y-81244815D01*
X59177739Y-81206185D01*
X59177140Y-81206605D01*
X59174375Y-81202656D01*
X59174224Y-81202498D01*
X59174034Y-81202170D01*
X59038494Y-81008597D01*
X58871402Y-80841506D01*
X58871396Y-80841501D01*
X58742254Y-80751075D01*
X58698629Y-80696498D01*
X58691435Y-80627000D01*
X58722958Y-80564645D01*
X58783188Y-80529231D01*
X58813377Y-80525500D01*
X59761607Y-80525500D01*
X59822029Y-80513481D01*
X59882452Y-80501463D01*
X59882455Y-80501461D01*
X59882458Y-80501461D01*
X59915787Y-80487654D01*
X59915786Y-80487654D01*
X59915792Y-80487652D01*
X59996286Y-80454312D01*
X60047509Y-80420084D01*
X60098733Y-80385858D01*
X60185858Y-80298733D01*
X60185859Y-80298731D01*
X60192925Y-80291665D01*
X60192928Y-80291661D01*
X61273729Y-79210860D01*
X61273733Y-79210858D01*
X61360858Y-79123733D01*
X61420330Y-79034727D01*
X61425414Y-79027119D01*
X61425418Y-79027113D01*
X61429307Y-79021292D01*
X61429312Y-79021285D01*
X61468319Y-78927112D01*
X61476463Y-78907452D01*
X61500500Y-78786606D01*
X61500500Y-68835452D01*
X61520185Y-68768413D01*
X61536819Y-68747771D01*
X64022772Y-66261819D01*
X64084095Y-66228334D01*
X64110453Y-66225500D01*
X75496252Y-66225500D01*
X75563291Y-66245185D01*
X75588400Y-66266526D01*
X75594126Y-66272885D01*
X75594130Y-66272889D01*
X75747265Y-66384148D01*
X75747270Y-66384151D01*
X75920192Y-66461142D01*
X75920197Y-66461144D01*
X76105354Y-66500500D01*
X76105355Y-66500500D01*
X76294644Y-66500500D01*
X76294646Y-66500500D01*
X76479803Y-66461144D01*
X76652730Y-66384151D01*
X76805871Y-66272888D01*
X76932533Y-66132216D01*
X77027179Y-65968284D01*
X77085674Y-65788256D01*
X77105460Y-65600000D01*
X77085674Y-65411744D01*
X77027179Y-65231716D01*
X76932533Y-65067784D01*
X76805871Y-64927112D01*
X76805870Y-64927111D01*
X76652734Y-64815851D01*
X76652729Y-64815848D01*
X76479807Y-64738857D01*
X76479802Y-64738855D01*
X76334001Y-64707865D01*
X76294646Y-64699500D01*
X76105354Y-64699500D01*
X76072897Y-64706398D01*
X75920197Y-64738855D01*
X75920192Y-64738857D01*
X75747270Y-64815848D01*
X75747265Y-64815851D01*
X75594130Y-64927110D01*
X75594126Y-64927114D01*
X75588400Y-64933474D01*
X75528913Y-64970121D01*
X75496252Y-64974500D01*
X63867741Y-64974500D01*
X63867721Y-64974499D01*
X63861607Y-64974499D01*
X63738394Y-64974499D01*
X63637597Y-64994548D01*
X63637592Y-64994548D01*
X63617549Y-64998536D01*
X63617547Y-64998536D01*
X63570397Y-65018067D01*
X63503719Y-65045685D01*
X63503717Y-65045686D01*
X63401266Y-65114141D01*
X63401263Y-65114144D01*
X61188298Y-67327111D01*
X60476269Y-68039140D01*
X60476267Y-68039142D01*
X60445963Y-68069446D01*
X60389142Y-68126266D01*
X60372058Y-68151835D01*
X60372057Y-68151834D01*
X60320688Y-68228713D01*
X60320688Y-68228714D01*
X60288975Y-68305277D01*
X60273538Y-68342544D01*
X60273535Y-68342556D01*
X60249500Y-68463389D01*
X60249500Y-78414548D01*
X60229815Y-78481587D01*
X60213181Y-78502229D01*
X59477229Y-79238181D01*
X59415906Y-79271666D01*
X59389548Y-79274500D01*
X56738389Y-79274500D01*
X56677971Y-79286518D01*
X56617548Y-79298537D01*
X56617543Y-79298538D01*
X56583574Y-79312609D01*
X56570397Y-79318067D01*
X56523246Y-79337597D01*
X56503717Y-79345687D01*
X56503706Y-79345693D01*
X56480974Y-79360883D01*
X56480973Y-79360884D01*
X56401268Y-79414140D01*
X56377729Y-79437680D01*
X56314142Y-79501267D01*
X55812181Y-80003228D01*
X55750858Y-80036713D01*
X55681166Y-80031729D01*
X55625233Y-79989857D01*
X55600816Y-79924393D01*
X55600500Y-79915547D01*
X55600500Y-72940000D01*
X56644341Y-72940000D01*
X56664936Y-73175403D01*
X56664938Y-73175413D01*
X56726094Y-73403655D01*
X56726096Y-73403659D01*
X56726097Y-73403663D01*
X56807722Y-73578708D01*
X56825965Y-73617830D01*
X56825967Y-73617834D01*
X56927487Y-73762819D01*
X56961505Y-73811401D01*
X57128599Y-73978495D01*
X57225384Y-74046265D01*
X57322165Y-74114032D01*
X57322167Y-74114033D01*
X57322170Y-74114035D01*
X57536337Y-74213903D01*
X57764592Y-74275063D01*
X57952918Y-74291539D01*
X57999999Y-74295659D01*
X58000000Y-74295659D01*
X58000001Y-74295659D01*
X58039234Y-74292226D01*
X58235408Y-74275063D01*
X58463663Y-74213903D01*
X58677830Y-74114035D01*
X58871401Y-73978495D01*
X59038495Y-73811401D01*
X59174035Y-73617830D01*
X59273903Y-73403663D01*
X59335063Y-73175408D01*
X59355659Y-72940000D01*
X59335063Y-72704592D01*
X59273903Y-72476337D01*
X59174035Y-72262171D01*
X59173925Y-72262013D01*
X59038494Y-72068597D01*
X58871402Y-71901506D01*
X58871396Y-71901501D01*
X58685842Y-71771575D01*
X58642217Y-71716998D01*
X58635023Y-71647500D01*
X58666546Y-71585145D01*
X58685842Y-71568425D01*
X58781759Y-71501263D01*
X58871401Y-71438495D01*
X59038495Y-71271401D01*
X59174035Y-71077830D01*
X59273903Y-70863663D01*
X59335063Y-70635408D01*
X59355659Y-70400000D01*
X59352840Y-70367785D01*
X59343450Y-70260452D01*
X59335063Y-70164592D01*
X59273903Y-69936337D01*
X59174035Y-69722171D01*
X59173925Y-69722013D01*
X59038494Y-69528597D01*
X58871402Y-69361506D01*
X58871396Y-69361501D01*
X58685842Y-69231575D01*
X58642217Y-69176998D01*
X58635023Y-69107500D01*
X58666546Y-69045145D01*
X58685842Y-69028425D01*
X58708026Y-69012891D01*
X58871401Y-68898495D01*
X59038495Y-68731401D01*
X59174035Y-68537830D01*
X59273903Y-68323663D01*
X59335063Y-68095408D01*
X59355659Y-67860000D01*
X59335063Y-67624592D01*
X59273903Y-67396337D01*
X59174035Y-67182171D01*
X59173925Y-67182013D01*
X59038494Y-66988597D01*
X58871401Y-66821505D01*
X58871396Y-66821501D01*
X58685842Y-66691575D01*
X58642217Y-66636998D01*
X58635023Y-66567500D01*
X58666546Y-66505145D01*
X58685842Y-66488425D01*
X58724806Y-66461142D01*
X58871401Y-66358495D01*
X59038495Y-66191401D01*
X59174035Y-65997830D01*
X59273903Y-65783663D01*
X59335063Y-65555408D01*
X59355659Y-65320000D01*
X59335063Y-65084592D01*
X59273903Y-64856337D01*
X59174035Y-64642171D01*
X59173925Y-64642013D01*
X59038494Y-64448597D01*
X58871402Y-64281506D01*
X58871396Y-64281501D01*
X58685842Y-64151575D01*
X58642217Y-64096998D01*
X58635023Y-64027500D01*
X58666546Y-63965145D01*
X58685842Y-63948425D01*
X58708026Y-63932891D01*
X58871401Y-63818495D01*
X59038495Y-63651401D01*
X59174035Y-63457830D01*
X59273903Y-63243663D01*
X59335063Y-63015408D01*
X59355659Y-62780000D01*
X59335063Y-62544592D01*
X59273903Y-62316337D01*
X59174035Y-62102171D01*
X59173925Y-62102013D01*
X59038494Y-61908597D01*
X58871402Y-61741506D01*
X58871396Y-61741501D01*
X58685842Y-61611575D01*
X58642217Y-61556998D01*
X58635023Y-61487500D01*
X58666546Y-61425145D01*
X58685842Y-61408425D01*
X58795385Y-61331722D01*
X58871401Y-61278495D01*
X59038495Y-61111401D01*
X59174035Y-60917830D01*
X59273903Y-60703663D01*
X59335063Y-60475408D01*
X59355659Y-60240000D01*
X59335063Y-60004592D01*
X59273903Y-59776337D01*
X59174035Y-59562171D01*
X59171676Y-59558801D01*
X59038494Y-59368597D01*
X58871402Y-59201506D01*
X58871401Y-59201505D01*
X58703844Y-59084180D01*
X58685405Y-59071269D01*
X58641781Y-59016692D01*
X58634588Y-58947193D01*
X58666110Y-58884839D01*
X58685405Y-58868119D01*
X58871082Y-58738105D01*
X59038105Y-58571082D01*
X59173600Y-58377578D01*
X59273429Y-58163492D01*
X59273432Y-58163486D01*
X59330636Y-57950000D01*
X58433012Y-57950000D01*
X58465925Y-57892993D01*
X58500000Y-57765826D01*
X58500000Y-57634174D01*
X58465925Y-57507007D01*
X58433012Y-57450000D01*
X59330636Y-57450000D01*
X59330635Y-57449999D01*
X59273432Y-57236513D01*
X59273429Y-57236507D01*
X59173600Y-57022422D01*
X59173599Y-57022420D01*
X59038113Y-56828926D01*
X59038108Y-56828920D01*
X58871078Y-56661890D01*
X58685405Y-56531879D01*
X58641780Y-56477302D01*
X58634588Y-56407804D01*
X58666110Y-56345449D01*
X58685406Y-56328730D01*
X58707872Y-56312999D01*
X58871401Y-56198495D01*
X59038495Y-56031401D01*
X59174035Y-55837830D01*
X59273903Y-55623663D01*
X59335063Y-55395408D01*
X59355659Y-55160000D01*
X59335063Y-54924592D01*
X59273903Y-54696337D01*
X59227987Y-54597870D01*
X87874500Y-54597870D01*
X87874501Y-54597876D01*
X87880908Y-54657483D01*
X87931202Y-54792328D01*
X87931206Y-54792335D01*
X88017452Y-54907544D01*
X88017455Y-54907547D01*
X88132664Y-54993793D01*
X88132671Y-54993797D01*
X88267517Y-55044091D01*
X88267516Y-55044091D01*
X88274444Y-55044835D01*
X88327127Y-55050500D01*
X90122872Y-55050499D01*
X90182483Y-55044091D01*
X90317331Y-54993796D01*
X90432546Y-54907546D01*
X90518796Y-54792331D01*
X90567810Y-54660916D01*
X90609681Y-54604984D01*
X90675145Y-54580566D01*
X90743418Y-54595417D01*
X90771673Y-54616569D01*
X90893599Y-54738495D01*
X90990384Y-54806265D01*
X91087165Y-54874032D01*
X91087167Y-54874033D01*
X91087170Y-54874035D01*
X91301337Y-54973903D01*
X91529592Y-55035063D01*
X91706034Y-55050500D01*
X91764999Y-55055659D01*
X91765000Y-55055659D01*
X91765001Y-55055659D01*
X91823966Y-55050500D01*
X92000408Y-55035063D01*
X92228663Y-54973903D01*
X92442830Y-54874035D01*
X92636401Y-54738495D01*
X92803495Y-54571401D01*
X92939035Y-54377830D01*
X93038903Y-54163663D01*
X93100063Y-53935408D01*
X93120659Y-53700000D01*
X93100063Y-53464592D01*
X93038903Y-53236337D01*
X92939035Y-53022171D01*
X92822271Y-52855413D01*
X92803494Y-52828597D01*
X92636402Y-52661506D01*
X92636395Y-52661501D01*
X92442834Y-52525967D01*
X92442830Y-52525965D01*
X92442828Y-52525964D01*
X92228663Y-52426097D01*
X92228659Y-52426096D01*
X92228655Y-52426094D01*
X92000413Y-52364938D01*
X92000403Y-52364936D01*
X91765001Y-52344341D01*
X91764999Y-52344341D01*
X91529596Y-52364936D01*
X91529586Y-52364938D01*
X91301344Y-52426094D01*
X91301335Y-52426098D01*
X91087171Y-52525964D01*
X91087169Y-52525965D01*
X90893600Y-52661503D01*
X90771673Y-52783430D01*
X90710350Y-52816914D01*
X90640658Y-52811930D01*
X90584725Y-52770058D01*
X90567810Y-52739081D01*
X90518797Y-52607671D01*
X90518793Y-52607664D01*
X90432547Y-52492455D01*
X90432544Y-52492452D01*
X90317335Y-52406206D01*
X90317328Y-52406202D01*
X90182482Y-52355908D01*
X90182483Y-52355908D01*
X90122883Y-52349501D01*
X90122881Y-52349500D01*
X90122873Y-52349500D01*
X90122864Y-52349500D01*
X88327129Y-52349500D01*
X88327123Y-52349501D01*
X88267516Y-52355908D01*
X88132671Y-52406202D01*
X88132664Y-52406206D01*
X88017455Y-52492452D01*
X88017452Y-52492455D01*
X87931206Y-52607664D01*
X87931202Y-52607671D01*
X87880908Y-52742517D01*
X87874501Y-52802116D01*
X87874500Y-52802135D01*
X87874500Y-54597870D01*
X59227987Y-54597870D01*
X59174035Y-54482171D01*
X59173925Y-54482013D01*
X59038494Y-54288597D01*
X58871402Y-54121506D01*
X58871396Y-54121501D01*
X58685842Y-53991575D01*
X58642217Y-53936998D01*
X58635023Y-53867500D01*
X58666546Y-53805145D01*
X58685842Y-53788425D01*
X58708026Y-53772891D01*
X58871401Y-53658495D01*
X59038495Y-53491401D01*
X59174035Y-53297830D01*
X59273903Y-53083663D01*
X59335063Y-52855408D01*
X59355659Y-52620000D01*
X59335063Y-52384592D01*
X59273903Y-52156337D01*
X59174035Y-51942171D01*
X59173925Y-51942013D01*
X59038494Y-51748597D01*
X58871402Y-51581506D01*
X58871396Y-51581501D01*
X58685842Y-51451575D01*
X58642217Y-51396998D01*
X58635023Y-51327500D01*
X58666546Y-51265145D01*
X58685842Y-51248425D01*
X58749479Y-51203866D01*
X58871401Y-51118495D01*
X59038495Y-50951401D01*
X59174035Y-50757830D01*
X59273903Y-50543663D01*
X59335063Y-50315408D01*
X59355659Y-50080000D01*
X59335063Y-49844592D01*
X59273903Y-49616337D01*
X59174035Y-49402171D01*
X59173925Y-49402013D01*
X59038494Y-49208597D01*
X58871402Y-49041506D01*
X58871401Y-49041505D01*
X58685405Y-48911269D01*
X58641781Y-48856692D01*
X58634588Y-48787193D01*
X58666110Y-48724839D01*
X58685405Y-48708119D01*
X58871082Y-48578105D01*
X59038105Y-48411082D01*
X59173600Y-48217578D01*
X59273429Y-48003492D01*
X59273432Y-48003486D01*
X59330636Y-47790000D01*
X58433012Y-47790000D01*
X58465925Y-47732993D01*
X58500000Y-47605826D01*
X58500000Y-47474174D01*
X58465925Y-47347007D01*
X58433012Y-47290000D01*
X59330636Y-47290000D01*
X59330635Y-47289999D01*
X59273432Y-47076513D01*
X59273429Y-47076507D01*
X59173600Y-46862422D01*
X59173599Y-46862420D01*
X59038113Y-46668926D01*
X59038108Y-46668920D01*
X58916053Y-46546865D01*
X58882568Y-46485542D01*
X58887552Y-46415850D01*
X58929424Y-46359917D01*
X58960400Y-46343002D01*
X59092331Y-46293796D01*
X59207546Y-46207546D01*
X59239396Y-46165000D01*
X84044341Y-46165000D01*
X84064936Y-46400403D01*
X84064938Y-46400413D01*
X84126094Y-46628655D01*
X84126096Y-46628659D01*
X84126097Y-46628663D01*
X84201745Y-46790890D01*
X84225965Y-46842830D01*
X84225967Y-46842834D01*
X84284462Y-46926373D01*
X84361505Y-47036401D01*
X84528599Y-47203495D01*
X84625384Y-47271265D01*
X84722165Y-47339032D01*
X84722167Y-47339033D01*
X84722170Y-47339035D01*
X84936337Y-47438903D01*
X85164592Y-47500063D01*
X85352918Y-47516539D01*
X85399999Y-47520659D01*
X85400000Y-47520659D01*
X85400001Y-47520659D01*
X85439234Y-47517226D01*
X85635408Y-47500063D01*
X85863663Y-47438903D01*
X86077830Y-47339035D01*
X86271401Y-47203495D01*
X86438495Y-47036401D01*
X86568732Y-46850403D01*
X86623307Y-46806780D01*
X86692805Y-46799586D01*
X86755160Y-46831109D01*
X86771880Y-46850405D01*
X86825073Y-46926373D01*
X87457037Y-46294409D01*
X87474075Y-46357993D01*
X87539901Y-46472007D01*
X87632993Y-46565099D01*
X87747007Y-46630925D01*
X87810590Y-46647962D01*
X87178625Y-47279925D01*
X87262421Y-47338599D01*
X87476507Y-47438429D01*
X87476516Y-47438433D01*
X87704673Y-47499567D01*
X87704684Y-47499569D01*
X87939998Y-47520157D01*
X87940002Y-47520157D01*
X88175315Y-47499569D01*
X88175326Y-47499567D01*
X88403483Y-47438433D01*
X88403492Y-47438429D01*
X88617578Y-47338600D01*
X88617582Y-47338598D01*
X88701373Y-47279926D01*
X88701373Y-47279925D01*
X88069409Y-46647962D01*
X88132993Y-46630925D01*
X88247007Y-46565099D01*
X88340099Y-46472007D01*
X88405925Y-46357993D01*
X88422962Y-46294410D01*
X89054925Y-46926373D01*
X89108425Y-46849968D01*
X89163002Y-46806344D01*
X89232501Y-46799151D01*
X89294855Y-46830673D01*
X89311576Y-46849969D01*
X89365073Y-46926372D01*
X89997037Y-46294409D01*
X90014075Y-46357993D01*
X90079901Y-46472007D01*
X90172993Y-46565099D01*
X90287007Y-46630925D01*
X90350590Y-46647962D01*
X89718625Y-47279925D01*
X89802421Y-47338599D01*
X90016507Y-47438429D01*
X90016516Y-47438433D01*
X90244673Y-47499567D01*
X90244684Y-47499569D01*
X90479998Y-47520157D01*
X90480002Y-47520157D01*
X90715315Y-47499569D01*
X90715326Y-47499567D01*
X90943483Y-47438433D01*
X90943492Y-47438429D01*
X91157578Y-47338600D01*
X91157582Y-47338598D01*
X91241373Y-47279926D01*
X91241373Y-47279925D01*
X90609409Y-46647962D01*
X90672993Y-46630925D01*
X90787007Y-46565099D01*
X90880099Y-46472007D01*
X90945925Y-46357993D01*
X90962962Y-46294410D01*
X91594925Y-46926373D01*
X91648425Y-46849968D01*
X91703002Y-46806344D01*
X91772501Y-46799151D01*
X91834855Y-46830673D01*
X91851576Y-46849969D01*
X91905073Y-46926372D01*
X92537037Y-46294409D01*
X92554075Y-46357993D01*
X92619901Y-46472007D01*
X92712993Y-46565099D01*
X92827007Y-46630925D01*
X92890590Y-46647962D01*
X92258625Y-47279925D01*
X92342421Y-47338599D01*
X92556507Y-47438429D01*
X92556516Y-47438433D01*
X92784673Y-47499567D01*
X92784684Y-47499569D01*
X93019998Y-47520157D01*
X93020002Y-47520157D01*
X93255315Y-47499569D01*
X93255326Y-47499567D01*
X93483483Y-47438433D01*
X93483492Y-47438429D01*
X93697578Y-47338600D01*
X93697582Y-47338598D01*
X93781373Y-47279926D01*
X93781373Y-47279925D01*
X93149409Y-46647962D01*
X93212993Y-46630925D01*
X93327007Y-46565099D01*
X93420099Y-46472007D01*
X93485925Y-46357993D01*
X93502962Y-46294410D01*
X94134925Y-46926373D01*
X94188119Y-46850405D01*
X94242696Y-46806781D01*
X94312195Y-46799588D01*
X94374549Y-46831110D01*
X94391269Y-46850405D01*
X94521505Y-47036401D01*
X94688599Y-47203495D01*
X94785384Y-47271265D01*
X94882165Y-47339032D01*
X94882167Y-47339033D01*
X94882170Y-47339035D01*
X95096337Y-47438903D01*
X95324592Y-47500063D01*
X95512918Y-47516539D01*
X95559999Y-47520659D01*
X95560000Y-47520659D01*
X95560001Y-47520659D01*
X95599234Y-47517226D01*
X95795408Y-47500063D01*
X96023663Y-47438903D01*
X96237830Y-47339035D01*
X96431401Y-47203495D01*
X96598495Y-47036401D01*
X96734035Y-46842830D01*
X96833903Y-46628663D01*
X96895063Y-46400408D01*
X96915659Y-46165000D01*
X96895063Y-45929592D01*
X96833903Y-45701337D01*
X96734035Y-45487171D01*
X96728731Y-45479595D01*
X96598494Y-45293597D01*
X96431402Y-45126506D01*
X96431396Y-45126501D01*
X96245842Y-44996575D01*
X96202217Y-44941998D01*
X96195023Y-44872500D01*
X96226546Y-44810145D01*
X96245842Y-44793425D01*
X96322248Y-44739925D01*
X96431401Y-44663495D01*
X96598495Y-44496401D01*
X96734035Y-44302830D01*
X96833903Y-44088663D01*
X96895063Y-43860408D01*
X96915659Y-43625000D01*
X96895063Y-43389592D01*
X96833903Y-43161337D01*
X96734035Y-42947171D01*
X96728731Y-42939595D01*
X96598494Y-42753597D01*
X96431402Y-42586506D01*
X96431395Y-42586501D01*
X96237834Y-42450967D01*
X96237830Y-42450965D01*
X96237828Y-42450964D01*
X96023663Y-42351097D01*
X96023659Y-42351096D01*
X96023655Y-42351094D01*
X95795413Y-42289938D01*
X95795403Y-42289936D01*
X95560001Y-42269341D01*
X95559999Y-42269341D01*
X95324596Y-42289936D01*
X95324586Y-42289938D01*
X95096344Y-42351094D01*
X95096335Y-42351098D01*
X94882171Y-42450964D01*
X94882169Y-42450965D01*
X94688597Y-42586505D01*
X94521505Y-42753597D01*
X94391269Y-42939595D01*
X94336692Y-42983220D01*
X94267194Y-42990414D01*
X94204839Y-42958891D01*
X94188119Y-42939595D01*
X94134925Y-42863626D01*
X94134925Y-42863625D01*
X93502962Y-43495589D01*
X93485925Y-43432007D01*
X93420099Y-43317993D01*
X93327007Y-43224901D01*
X93212993Y-43159075D01*
X93149410Y-43142037D01*
X93781373Y-42510073D01*
X93781373Y-42510072D01*
X93697583Y-42451402D01*
X93697579Y-42451400D01*
X93483492Y-42351570D01*
X93483483Y-42351566D01*
X93255326Y-42290432D01*
X93255315Y-42290430D01*
X93020002Y-42269843D01*
X93019998Y-42269843D01*
X92784684Y-42290430D01*
X92784673Y-42290432D01*
X92556516Y-42351566D01*
X92556507Y-42351570D01*
X92342419Y-42451401D01*
X92258625Y-42510072D01*
X92890590Y-43142037D01*
X92827007Y-43159075D01*
X92712993Y-43224901D01*
X92619901Y-43317993D01*
X92554075Y-43432007D01*
X92537037Y-43495590D01*
X91905072Y-42863625D01*
X91905072Y-42863626D01*
X91851574Y-42940030D01*
X91796998Y-42983655D01*
X91727499Y-42990849D01*
X91665144Y-42959326D01*
X91648424Y-42940030D01*
X91594925Y-42863626D01*
X91594925Y-42863625D01*
X90962962Y-43495589D01*
X90945925Y-43432007D01*
X90880099Y-43317993D01*
X90787007Y-43224901D01*
X90672993Y-43159075D01*
X90609410Y-43142037D01*
X91241373Y-42510073D01*
X91241373Y-42510072D01*
X91157583Y-42451402D01*
X91157579Y-42451400D01*
X90943492Y-42351570D01*
X90943483Y-42351566D01*
X90715326Y-42290432D01*
X90715315Y-42290430D01*
X90480002Y-42269843D01*
X90479998Y-42269843D01*
X90244684Y-42290430D01*
X90244673Y-42290432D01*
X90016516Y-42351566D01*
X90016507Y-42351570D01*
X89802419Y-42451401D01*
X89718625Y-42510072D01*
X90350590Y-43142037D01*
X90287007Y-43159075D01*
X90172993Y-43224901D01*
X90079901Y-43317993D01*
X90014075Y-43432007D01*
X89997037Y-43495589D01*
X89365073Y-42863625D01*
X89365072Y-42863626D01*
X89311574Y-42940030D01*
X89256998Y-42983655D01*
X89187499Y-42990849D01*
X89125144Y-42959326D01*
X89108424Y-42940030D01*
X89054925Y-42863626D01*
X89054925Y-42863625D01*
X88422962Y-43495589D01*
X88405925Y-43432007D01*
X88340099Y-43317993D01*
X88247007Y-43224901D01*
X88132993Y-43159075D01*
X88069410Y-43142037D01*
X88701373Y-42510073D01*
X88701373Y-42510072D01*
X88617583Y-42451402D01*
X88617579Y-42451400D01*
X88403492Y-42351570D01*
X88403483Y-42351566D01*
X88175326Y-42290432D01*
X88175315Y-42290430D01*
X87940002Y-42269843D01*
X87939998Y-42269843D01*
X87704684Y-42290430D01*
X87704673Y-42290432D01*
X87476516Y-42351566D01*
X87476507Y-42351570D01*
X87262419Y-42451401D01*
X87178625Y-42510072D01*
X87810590Y-43142037D01*
X87747007Y-43159075D01*
X87632993Y-43224901D01*
X87539901Y-43317993D01*
X87474075Y-43432007D01*
X87457037Y-43495589D01*
X86786818Y-42825370D01*
X86753333Y-42764047D01*
X86750499Y-42737689D01*
X86750499Y-42727129D01*
X86750498Y-42727123D01*
X86750497Y-42727116D01*
X86744091Y-42667517D01*
X86693796Y-42532669D01*
X86693795Y-42532668D01*
X86693793Y-42532664D01*
X86607547Y-42417455D01*
X86607544Y-42417452D01*
X86492335Y-42331206D01*
X86492328Y-42331202D01*
X86357482Y-42280908D01*
X86357483Y-42280908D01*
X86297883Y-42274501D01*
X86297881Y-42274500D01*
X86297873Y-42274500D01*
X86297864Y-42274500D01*
X84502129Y-42274500D01*
X84502123Y-42274501D01*
X84442516Y-42280908D01*
X84307671Y-42331202D01*
X84307664Y-42331206D01*
X84192455Y-42417452D01*
X84192452Y-42417455D01*
X84106206Y-42532664D01*
X84106202Y-42532671D01*
X84055908Y-42667517D01*
X84049501Y-42727116D01*
X84049501Y-42727123D01*
X84049500Y-42727135D01*
X84049500Y-44522870D01*
X84049501Y-44522876D01*
X84055908Y-44582483D01*
X84106202Y-44717328D01*
X84106206Y-44717335D01*
X84192452Y-44832544D01*
X84192455Y-44832547D01*
X84307664Y-44918793D01*
X84307671Y-44918797D01*
X84439081Y-44967810D01*
X84495015Y-45009681D01*
X84519432Y-45075145D01*
X84504580Y-45143418D01*
X84483430Y-45171673D01*
X84361503Y-45293600D01*
X84225965Y-45487169D01*
X84225964Y-45487171D01*
X84126098Y-45701335D01*
X84126094Y-45701344D01*
X84064938Y-45929586D01*
X84064936Y-45929596D01*
X84044341Y-46164999D01*
X84044341Y-46165000D01*
X59239396Y-46165000D01*
X59293796Y-46092331D01*
X59344091Y-45957483D01*
X59350500Y-45897873D01*
X59350499Y-44102128D01*
X59344091Y-44042517D01*
X59302873Y-43932007D01*
X59293797Y-43907671D01*
X59293793Y-43907664D01*
X59207547Y-43792455D01*
X59207544Y-43792452D01*
X59092335Y-43706206D01*
X59092328Y-43706202D01*
X58957482Y-43655908D01*
X58957483Y-43655908D01*
X58897883Y-43649501D01*
X58897881Y-43649500D01*
X58897873Y-43649500D01*
X58897864Y-43649500D01*
X57102129Y-43649500D01*
X57102123Y-43649501D01*
X57042516Y-43655908D01*
X56907671Y-43706202D01*
X56907664Y-43706206D01*
X56792455Y-43792452D01*
X56792452Y-43792455D01*
X56706206Y-43907664D01*
X56706202Y-43907671D01*
X56655908Y-44042517D01*
X56650947Y-44088664D01*
X56649501Y-44102123D01*
X56649500Y-44102135D01*
X56649500Y-45897870D01*
X56649501Y-45897876D01*
X56655908Y-45957483D01*
X56706202Y-46092328D01*
X56706206Y-46092335D01*
X56792452Y-46207544D01*
X56792455Y-46207547D01*
X56907664Y-46293793D01*
X56907671Y-46293797D01*
X56907674Y-46293798D01*
X57039598Y-46343002D01*
X57095531Y-46384873D01*
X57119949Y-46450337D01*
X57105098Y-46518610D01*
X57083947Y-46546865D01*
X56961886Y-46668926D01*
X56826400Y-46862420D01*
X56826399Y-46862422D01*
X56726570Y-47076507D01*
X56726567Y-47076513D01*
X56669364Y-47289999D01*
X56669364Y-47290000D01*
X57566988Y-47290000D01*
X57534075Y-47347007D01*
X57500000Y-47474174D01*
X57500000Y-47605826D01*
X57534075Y-47732993D01*
X57566988Y-47790000D01*
X56669364Y-47790000D01*
X56726567Y-48003486D01*
X56726570Y-48003492D01*
X56826399Y-48217578D01*
X56961894Y-48411082D01*
X57128917Y-48578105D01*
X57314595Y-48708119D01*
X57358219Y-48762696D01*
X57365412Y-48832195D01*
X57333890Y-48894549D01*
X57314595Y-48911269D01*
X57128594Y-49041508D01*
X56961505Y-49208597D01*
X56825965Y-49402169D01*
X56825964Y-49402171D01*
X56726098Y-49616335D01*
X56726094Y-49616344D01*
X56664938Y-49844586D01*
X56664936Y-49844596D01*
X56644341Y-50079999D01*
X56644341Y-50080000D01*
X56664936Y-50315403D01*
X56664938Y-50315413D01*
X56726094Y-50543655D01*
X56726096Y-50543659D01*
X56726097Y-50543663D01*
X56809671Y-50722888D01*
X56825965Y-50757830D01*
X56825967Y-50757834D01*
X56884522Y-50841458D01*
X56961501Y-50951396D01*
X56961506Y-50951402D01*
X57128597Y-51118493D01*
X57128603Y-51118498D01*
X57314158Y-51248425D01*
X57357783Y-51303002D01*
X57364977Y-51372500D01*
X57333454Y-51434855D01*
X57314158Y-51451575D01*
X57128597Y-51581505D01*
X56961505Y-51748597D01*
X56825965Y-51942169D01*
X56825964Y-51942171D01*
X56726098Y-52156335D01*
X56726094Y-52156344D01*
X56664938Y-52384586D01*
X56664936Y-52384596D01*
X56644341Y-52619999D01*
X56644341Y-52620000D01*
X56664936Y-52855403D01*
X56664938Y-52855413D01*
X56726094Y-53083655D01*
X56726096Y-53083659D01*
X56726097Y-53083663D01*
X56817040Y-53278691D01*
X56825965Y-53297830D01*
X56825967Y-53297834D01*
X56934281Y-53452521D01*
X56961501Y-53491396D01*
X56961506Y-53491402D01*
X57128597Y-53658493D01*
X57128603Y-53658498D01*
X57314158Y-53788425D01*
X57357783Y-53843002D01*
X57364977Y-53912500D01*
X57333454Y-53974855D01*
X57314158Y-53991575D01*
X57128597Y-54121505D01*
X56961505Y-54288597D01*
X56825965Y-54482169D01*
X56825964Y-54482171D01*
X56726098Y-54696335D01*
X56726094Y-54696344D01*
X56664938Y-54924586D01*
X56664936Y-54924596D01*
X56644341Y-55159999D01*
X56644341Y-55160000D01*
X56664936Y-55395403D01*
X56664938Y-55395413D01*
X56726094Y-55623655D01*
X56726096Y-55623659D01*
X56726097Y-55623663D01*
X56806697Y-55796509D01*
X56825965Y-55837830D01*
X56825967Y-55837834D01*
X56934281Y-55992521D01*
X56961501Y-56031396D01*
X56961506Y-56031402D01*
X57128597Y-56198493D01*
X57128603Y-56198498D01*
X57314594Y-56328730D01*
X57358219Y-56383307D01*
X57365413Y-56452805D01*
X57333890Y-56515160D01*
X57314595Y-56531880D01*
X57128922Y-56661890D01*
X57128920Y-56661891D01*
X56961891Y-56828920D01*
X56961886Y-56828926D01*
X56826400Y-57022420D01*
X56826399Y-57022422D01*
X56726570Y-57236507D01*
X56726567Y-57236513D01*
X56669364Y-57449999D01*
X56669364Y-57450000D01*
X57566988Y-57450000D01*
X57534075Y-57507007D01*
X57500000Y-57634174D01*
X57500000Y-57765826D01*
X57534075Y-57892993D01*
X57566988Y-57950000D01*
X56669364Y-57950000D01*
X56726567Y-58163486D01*
X56726570Y-58163492D01*
X56826399Y-58377578D01*
X56961894Y-58571082D01*
X57128917Y-58738105D01*
X57314595Y-58868119D01*
X57358219Y-58922696D01*
X57365412Y-58992195D01*
X57333890Y-59054549D01*
X57314595Y-59071269D01*
X57128594Y-59201508D01*
X56961505Y-59368597D01*
X56825965Y-59562169D01*
X56825964Y-59562171D01*
X56726098Y-59776335D01*
X56726094Y-59776344D01*
X56664938Y-60004586D01*
X56664936Y-60004596D01*
X56644341Y-60239999D01*
X56644341Y-60240000D01*
X56664936Y-60475403D01*
X56664938Y-60475413D01*
X56726094Y-60703655D01*
X56726096Y-60703659D01*
X56726097Y-60703663D01*
X56815061Y-60894446D01*
X56825965Y-60917830D01*
X56825967Y-60917834D01*
X56961501Y-61111395D01*
X56961506Y-61111402D01*
X57128597Y-61278493D01*
X57128603Y-61278498D01*
X57314158Y-61408425D01*
X57357783Y-61463002D01*
X57364977Y-61532500D01*
X57333454Y-61594855D01*
X57314158Y-61611575D01*
X57128597Y-61741505D01*
X56961505Y-61908597D01*
X56825965Y-62102169D01*
X56825964Y-62102171D01*
X56726098Y-62316335D01*
X56726094Y-62316344D01*
X56664938Y-62544586D01*
X56664936Y-62544596D01*
X56644341Y-62779999D01*
X56644341Y-62780000D01*
X56664936Y-63015403D01*
X56664938Y-63015413D01*
X56726094Y-63243655D01*
X56726096Y-63243659D01*
X56726097Y-63243663D01*
X56817040Y-63438691D01*
X56825965Y-63457830D01*
X56825967Y-63457834D01*
X56934281Y-63612521D01*
X56961501Y-63651396D01*
X56961506Y-63651402D01*
X57128597Y-63818493D01*
X57128603Y-63818498D01*
X57314158Y-63948425D01*
X57357783Y-64003002D01*
X57364977Y-64072500D01*
X57333454Y-64134855D01*
X57314158Y-64151575D01*
X57128597Y-64281505D01*
X56961505Y-64448597D01*
X56825965Y-64642169D01*
X56825964Y-64642171D01*
X56726098Y-64856335D01*
X56726094Y-64856344D01*
X56664938Y-65084586D01*
X56664936Y-65084596D01*
X56644341Y-65319999D01*
X56644341Y-65320000D01*
X56664936Y-65555403D01*
X56664938Y-65555413D01*
X56726094Y-65783655D01*
X56726096Y-65783659D01*
X56726097Y-65783663D01*
X56817040Y-65978691D01*
X56825965Y-65997830D01*
X56825967Y-65997834D01*
X56920062Y-66132214D01*
X56961501Y-66191396D01*
X56961506Y-66191402D01*
X57128597Y-66358493D01*
X57128603Y-66358498D01*
X57314158Y-66488425D01*
X57357783Y-66543002D01*
X57364977Y-66612500D01*
X57333454Y-66674855D01*
X57314158Y-66691575D01*
X57128597Y-66821505D01*
X56961505Y-66988597D01*
X56825965Y-67182169D01*
X56825964Y-67182171D01*
X56726098Y-67396335D01*
X56726094Y-67396344D01*
X56664938Y-67624586D01*
X56664936Y-67624596D01*
X56644341Y-67859999D01*
X56644341Y-67860000D01*
X56664936Y-68095403D01*
X56664938Y-68095413D01*
X56726094Y-68323655D01*
X56726096Y-68323659D01*
X56726097Y-68323663D01*
X56817040Y-68518691D01*
X56825965Y-68537830D01*
X56825967Y-68537834D01*
X56920534Y-68672888D01*
X56961501Y-68731396D01*
X56961506Y-68731402D01*
X57128597Y-68898493D01*
X57128603Y-68898498D01*
X57314158Y-69028425D01*
X57357783Y-69083002D01*
X57364977Y-69152500D01*
X57333454Y-69214855D01*
X57314158Y-69231575D01*
X57128597Y-69361505D01*
X56961505Y-69528597D01*
X56825965Y-69722169D01*
X56825964Y-69722171D01*
X56726098Y-69936335D01*
X56726094Y-69936344D01*
X56664938Y-70164586D01*
X56664936Y-70164596D01*
X56644341Y-70399999D01*
X56644341Y-70400000D01*
X56664936Y-70635403D01*
X56664938Y-70635413D01*
X56726094Y-70863655D01*
X56726096Y-70863659D01*
X56726097Y-70863663D01*
X56807791Y-71038855D01*
X56825965Y-71077830D01*
X56825967Y-71077834D01*
X56930493Y-71227111D01*
X56961501Y-71271396D01*
X56961506Y-71271402D01*
X57128597Y-71438493D01*
X57128603Y-71438498D01*
X57314158Y-71568425D01*
X57357783Y-71623002D01*
X57364977Y-71692500D01*
X57333454Y-71754855D01*
X57314158Y-71771575D01*
X57128597Y-71901505D01*
X56961505Y-72068597D01*
X56825965Y-72262169D01*
X56825964Y-72262171D01*
X56726098Y-72476335D01*
X56726096Y-72476341D01*
X56664938Y-72704586D01*
X56664936Y-72704596D01*
X56644341Y-72939999D01*
X56644341Y-72940000D01*
X55600500Y-72940000D01*
X55600500Y-39624500D01*
X55620185Y-39557461D01*
X55672989Y-39511706D01*
X55724500Y-39500500D01*
X110938770Y-39500500D01*
X111005809Y-39520185D01*
G37*
%TD.AperFunction*%
%TA.AperFunction,Conductor*%
G36*
X75697932Y-86301740D02*
G01*
X75704262Y-86308783D01*
X75719077Y-86320505D01*
X75719078Y-86320506D01*
X75716823Y-86322760D01*
X75744636Y-86353706D01*
X75755832Y-86422673D01*
X75727963Y-86486744D01*
X75720475Y-86494934D01*
X73367229Y-88848181D01*
X73305906Y-88881666D01*
X73279548Y-88884500D01*
X71401960Y-88884500D01*
X71377769Y-88882117D01*
X71264072Y-88859501D01*
X71264069Y-88859501D01*
X71135931Y-88859501D01*
X71135927Y-88859501D01*
X71022231Y-88882117D01*
X70998040Y-88884500D01*
X59474499Y-88884500D01*
X59407460Y-88864815D01*
X59361705Y-88812011D01*
X59350499Y-88760500D01*
X59350499Y-88602129D01*
X59350498Y-88602123D01*
X59350497Y-88602116D01*
X59344091Y-88542517D01*
X59332389Y-88511143D01*
X59293797Y-88407671D01*
X59293793Y-88407664D01*
X59207547Y-88292455D01*
X59207544Y-88292452D01*
X59092335Y-88206206D01*
X59092328Y-88206202D01*
X58957482Y-88155908D01*
X58957483Y-88155908D01*
X58897883Y-88149501D01*
X58897881Y-88149500D01*
X58897873Y-88149500D01*
X58897865Y-88149500D01*
X58887310Y-88149500D01*
X58820271Y-88129815D01*
X58799629Y-88113181D01*
X58129409Y-87442962D01*
X58192993Y-87425925D01*
X58307007Y-87360099D01*
X58400099Y-87267007D01*
X58465925Y-87152993D01*
X58482962Y-87089410D01*
X59114925Y-87721373D01*
X59114926Y-87721373D01*
X59173598Y-87637582D01*
X59173600Y-87637578D01*
X59273429Y-87423492D01*
X59273433Y-87423483D01*
X59334567Y-87195326D01*
X59334569Y-87195315D01*
X59355157Y-86960001D01*
X59355157Y-86959998D01*
X59334569Y-86724684D01*
X59334567Y-86724674D01*
X59292210Y-86566593D01*
X59293873Y-86496744D01*
X59333035Y-86438881D01*
X59397264Y-86411377D01*
X59411985Y-86410500D01*
X75276605Y-86410500D01*
X75337027Y-86398481D01*
X75397450Y-86386463D01*
X75397453Y-86386461D01*
X75397456Y-86386461D01*
X75430785Y-86372654D01*
X75430784Y-86372654D01*
X75430790Y-86372652D01*
X75511284Y-86339312D01*
X75511285Y-86339311D01*
X75511288Y-86339310D01*
X75511287Y-86339309D01*
X75562507Y-86305084D01*
X75563875Y-86304170D01*
X75630547Y-86283273D01*
X75697932Y-86301740D01*
G37*
%TD.AperFunction*%
%TA.AperFunction,Conductor*%
G36*
X123004809Y-40970185D02*
G01*
X123025451Y-40986819D01*
X124363181Y-42324548D01*
X124396666Y-42385871D01*
X124399500Y-42412229D01*
X124399500Y-43688428D01*
X124379815Y-43755467D01*
X124327011Y-43801222D01*
X124257853Y-43811166D01*
X124201189Y-43787695D01*
X124158138Y-43755467D01*
X124092331Y-43706204D01*
X124092329Y-43706203D01*
X124092328Y-43706202D01*
X123957482Y-43655908D01*
X123957483Y-43655908D01*
X123897883Y-43649501D01*
X123897881Y-43649500D01*
X123897873Y-43649500D01*
X123897864Y-43649500D01*
X122102129Y-43649500D01*
X122102123Y-43649501D01*
X122042516Y-43655908D01*
X121907671Y-43706202D01*
X121907664Y-43706206D01*
X121792455Y-43792452D01*
X121792452Y-43792455D01*
X121706206Y-43907664D01*
X121706202Y-43907671D01*
X121655908Y-44042517D01*
X121650947Y-44088664D01*
X121649501Y-44102123D01*
X121649500Y-44102135D01*
X121649500Y-45897870D01*
X121649501Y-45897876D01*
X121655908Y-45957483D01*
X121706202Y-46092328D01*
X121706206Y-46092335D01*
X121792452Y-46207544D01*
X121792455Y-46207547D01*
X121907664Y-46293793D01*
X121907671Y-46293797D01*
X122039081Y-46342810D01*
X122095015Y-46384681D01*
X122119432Y-46450145D01*
X122104580Y-46518418D01*
X122083430Y-46546673D01*
X121961503Y-46668600D01*
X121825965Y-46862169D01*
X121825964Y-46862171D01*
X121726098Y-47076335D01*
X121726094Y-47076344D01*
X121664938Y-47304586D01*
X121664936Y-47304596D01*
X121644341Y-47539999D01*
X121644341Y-47540000D01*
X121664936Y-47775403D01*
X121664938Y-47775413D01*
X121726094Y-48003655D01*
X121726096Y-48003659D01*
X121726097Y-48003663D01*
X121817040Y-48198691D01*
X121825965Y-48217830D01*
X121825967Y-48217834D01*
X121934281Y-48372521D01*
X121961501Y-48411396D01*
X121961506Y-48411402D01*
X122128597Y-48578493D01*
X122128603Y-48578498D01*
X122314158Y-48708425D01*
X122357783Y-48763002D01*
X122364977Y-48832500D01*
X122333454Y-48894855D01*
X122314158Y-48911575D01*
X122128597Y-49041505D01*
X121961505Y-49208597D01*
X121825965Y-49402169D01*
X121825964Y-49402171D01*
X121726098Y-49616335D01*
X121726094Y-49616344D01*
X121664938Y-49844586D01*
X121664936Y-49844596D01*
X121644341Y-50079999D01*
X121644341Y-50080000D01*
X121664936Y-50315403D01*
X121664938Y-50315413D01*
X121726094Y-50543655D01*
X121726096Y-50543659D01*
X121726097Y-50543663D01*
X121809671Y-50722888D01*
X121825965Y-50757830D01*
X121825967Y-50757834D01*
X121884522Y-50841458D01*
X121961501Y-50951396D01*
X121961506Y-50951402D01*
X122128597Y-51118493D01*
X122128603Y-51118498D01*
X122314158Y-51248425D01*
X122357783Y-51303002D01*
X122364977Y-51372500D01*
X122333454Y-51434855D01*
X122314158Y-51451575D01*
X122128597Y-51581505D01*
X121961505Y-51748597D01*
X121825965Y-51942169D01*
X121825964Y-51942171D01*
X121726098Y-52156335D01*
X121726094Y-52156344D01*
X121664938Y-52384586D01*
X121664936Y-52384596D01*
X121644341Y-52619999D01*
X121644341Y-52620000D01*
X121664936Y-52855403D01*
X121664938Y-52855413D01*
X121726094Y-53083655D01*
X121726096Y-53083659D01*
X121726097Y-53083663D01*
X121817040Y-53278691D01*
X121825965Y-53297830D01*
X121825967Y-53297834D01*
X121934281Y-53452521D01*
X121961501Y-53491396D01*
X121961506Y-53491402D01*
X122128597Y-53658493D01*
X122128603Y-53658498D01*
X122314158Y-53788425D01*
X122357783Y-53843002D01*
X122364977Y-53912500D01*
X122333454Y-53974855D01*
X122314158Y-53991575D01*
X122128597Y-54121505D01*
X121961505Y-54288597D01*
X121825965Y-54482169D01*
X121825964Y-54482171D01*
X121726098Y-54696335D01*
X121726094Y-54696344D01*
X121664938Y-54924586D01*
X121664936Y-54924596D01*
X121644341Y-55159999D01*
X121644341Y-55160000D01*
X121664936Y-55395403D01*
X121664938Y-55395413D01*
X121726094Y-55623655D01*
X121726096Y-55623659D01*
X121726097Y-55623663D01*
X121806697Y-55796509D01*
X121825965Y-55837830D01*
X121825967Y-55837834D01*
X121934281Y-55992521D01*
X121961501Y-56031396D01*
X121961506Y-56031402D01*
X122128597Y-56198493D01*
X122128603Y-56198498D01*
X122314158Y-56328425D01*
X122357783Y-56383002D01*
X122364977Y-56452500D01*
X122333454Y-56514855D01*
X122314158Y-56531575D01*
X122128597Y-56661505D01*
X121961505Y-56828597D01*
X121825965Y-57022169D01*
X121825964Y-57022171D01*
X121726098Y-57236335D01*
X121726094Y-57236344D01*
X121664938Y-57464586D01*
X121664936Y-57464596D01*
X121644341Y-57699999D01*
X121644341Y-57700000D01*
X121664936Y-57935403D01*
X121664938Y-57935413D01*
X121726094Y-58163655D01*
X121726096Y-58163659D01*
X121726097Y-58163663D01*
X121817040Y-58358691D01*
X121825965Y-58377830D01*
X121825967Y-58377834D01*
X121934281Y-58532521D01*
X121961505Y-58571401D01*
X122128599Y-58738495D01*
X122299098Y-58857880D01*
X122314594Y-58868730D01*
X122358219Y-58923307D01*
X122365413Y-58992805D01*
X122333890Y-59055160D01*
X122314595Y-59071880D01*
X122128922Y-59201890D01*
X122128920Y-59201891D01*
X121961891Y-59368920D01*
X121961886Y-59368926D01*
X121826400Y-59562420D01*
X121826399Y-59562422D01*
X121726570Y-59776507D01*
X121726567Y-59776513D01*
X121669364Y-59989999D01*
X121669364Y-59990000D01*
X122566988Y-59990000D01*
X122534075Y-60047007D01*
X122500000Y-60174174D01*
X122500000Y-60305826D01*
X122534075Y-60432993D01*
X122566988Y-60490000D01*
X121669364Y-60490000D01*
X121726567Y-60703486D01*
X121726570Y-60703492D01*
X121826399Y-60917578D01*
X121961894Y-61111082D01*
X122128917Y-61278105D01*
X122314595Y-61408119D01*
X122358219Y-61462696D01*
X122365412Y-61532195D01*
X122333890Y-61594549D01*
X122314595Y-61611269D01*
X122128594Y-61741508D01*
X121961505Y-61908597D01*
X121825965Y-62102169D01*
X121825964Y-62102171D01*
X121726098Y-62316335D01*
X121726094Y-62316344D01*
X121664938Y-62544586D01*
X121664936Y-62544596D01*
X121644341Y-62779999D01*
X121644341Y-62780000D01*
X121664936Y-63015403D01*
X121664938Y-63015413D01*
X121726094Y-63243655D01*
X121726096Y-63243659D01*
X121726097Y-63243663D01*
X121817040Y-63438691D01*
X121825965Y-63457830D01*
X121825967Y-63457834D01*
X121934281Y-63612521D01*
X121961501Y-63651396D01*
X121961506Y-63651402D01*
X122128597Y-63818493D01*
X122128603Y-63818498D01*
X122314158Y-63948425D01*
X122357783Y-64003002D01*
X122364977Y-64072500D01*
X122333454Y-64134855D01*
X122314158Y-64151575D01*
X122128597Y-64281505D01*
X121961505Y-64448597D01*
X121825965Y-64642169D01*
X121825964Y-64642171D01*
X121726098Y-64856335D01*
X121726094Y-64856344D01*
X121664938Y-65084586D01*
X121664936Y-65084596D01*
X121644341Y-65319999D01*
X121644341Y-65320000D01*
X121664936Y-65555403D01*
X121664938Y-65555413D01*
X121726094Y-65783655D01*
X121726096Y-65783659D01*
X121726097Y-65783663D01*
X121817040Y-65978691D01*
X121825965Y-65997830D01*
X121825967Y-65997834D01*
X121920062Y-66132214D01*
X121961501Y-66191396D01*
X121961506Y-66191402D01*
X122128597Y-66358493D01*
X122128603Y-66358498D01*
X122314158Y-66488425D01*
X122357783Y-66543002D01*
X122364977Y-66612500D01*
X122333454Y-66674855D01*
X122314158Y-66691575D01*
X122128597Y-66821505D01*
X121961505Y-66988597D01*
X121825965Y-67182169D01*
X121825964Y-67182171D01*
X121726098Y-67396335D01*
X121726094Y-67396344D01*
X121664938Y-67624586D01*
X121664936Y-67624596D01*
X121644341Y-67859999D01*
X121644341Y-67860000D01*
X121664936Y-68095403D01*
X121664938Y-68095413D01*
X121691856Y-68195872D01*
X121690193Y-68265722D01*
X121659762Y-68315646D01*
X116637229Y-73338181D01*
X116575906Y-73371666D01*
X116549548Y-73374500D01*
X103710452Y-73374500D01*
X103643413Y-73354815D01*
X103622771Y-73338181D01*
X100638960Y-70354370D01*
X100605475Y-70293047D01*
X100603323Y-70279671D01*
X100585674Y-70111744D01*
X100527179Y-69931716D01*
X100432533Y-69767784D01*
X100305871Y-69627112D01*
X100305870Y-69627111D01*
X100152734Y-69515851D01*
X100152729Y-69515848D01*
X99979807Y-69438857D01*
X99979802Y-69438855D01*
X99834001Y-69407865D01*
X99794646Y-69399500D01*
X99605354Y-69399500D01*
X99572897Y-69406398D01*
X99420197Y-69438855D01*
X99420192Y-69438857D01*
X99247270Y-69515848D01*
X99241637Y-69519101D01*
X99241022Y-69518037D01*
X99181565Y-69539245D01*
X99113513Y-69523412D01*
X99064824Y-69473300D01*
X99050500Y-69415446D01*
X99050500Y-68120808D01*
X99070185Y-68053769D01*
X99086819Y-68033127D01*
X99333127Y-67786819D01*
X99394450Y-67753334D01*
X99420808Y-67750500D01*
X100648025Y-67750500D01*
X100715064Y-67770185D01*
X100720910Y-67774182D01*
X100872265Y-67884148D01*
X100872270Y-67884151D01*
X101045192Y-67961142D01*
X101045197Y-67961144D01*
X101230354Y-68000500D01*
X101230355Y-68000500D01*
X101419644Y-68000500D01*
X101419646Y-68000500D01*
X101604803Y-67961144D01*
X101777730Y-67884151D01*
X101929090Y-67774182D01*
X101994896Y-67750702D01*
X102001975Y-67750500D01*
X117464071Y-67750500D01*
X117548615Y-67733682D01*
X117589744Y-67725501D01*
X117708127Y-67676465D01*
X117730364Y-67661607D01*
X117730365Y-67661607D01*
X117793449Y-67619455D01*
X117814669Y-67605277D01*
X118405277Y-67014669D01*
X118476465Y-66908127D01*
X118512345Y-66821505D01*
X118525501Y-66789744D01*
X118545029Y-66691575D01*
X118550500Y-66664071D01*
X118550500Y-56348952D01*
X118570185Y-56281913D01*
X118601615Y-56248634D01*
X118705871Y-56172888D01*
X118832533Y-56032216D01*
X118927179Y-55868284D01*
X118985674Y-55688256D01*
X119005460Y-55500000D01*
X118985674Y-55311744D01*
X118927179Y-55131716D01*
X118832533Y-54967784D01*
X118705871Y-54827112D01*
X118705870Y-54827111D01*
X118552734Y-54715851D01*
X118552729Y-54715848D01*
X118379807Y-54638857D01*
X118379802Y-54638855D01*
X118220446Y-54604984D01*
X118194646Y-54599500D01*
X118005354Y-54599500D01*
X117979554Y-54604984D01*
X117820197Y-54638855D01*
X117820192Y-54638857D01*
X117647270Y-54715848D01*
X117647265Y-54715851D01*
X117494129Y-54827111D01*
X117367466Y-54967785D01*
X117272821Y-55131715D01*
X117272818Y-55131722D01*
X117214327Y-55311740D01*
X117214326Y-55311744D01*
X117194540Y-55500000D01*
X117214326Y-55688256D01*
X117214327Y-55688259D01*
X117243431Y-55777831D01*
X117249500Y-55816149D01*
X117249500Y-66279192D01*
X117229815Y-66346231D01*
X117213181Y-66366873D01*
X117166873Y-66413181D01*
X117105550Y-66446666D01*
X117079192Y-66449500D01*
X113517581Y-66449500D01*
X113450542Y-66429815D01*
X113404787Y-66377011D01*
X113394178Y-66313347D01*
X113405341Y-66200000D01*
X113386024Y-66003870D01*
X113386024Y-66003868D01*
X113328814Y-65815273D01*
X113328811Y-65815269D01*
X113328811Y-65815266D01*
X113235913Y-65641467D01*
X113235909Y-65641460D01*
X113110883Y-65489116D01*
X112958539Y-65364090D01*
X112958532Y-65364086D01*
X112784733Y-65271188D01*
X112784727Y-65271186D01*
X112596132Y-65213976D01*
X112596129Y-65213975D01*
X112506298Y-65205127D01*
X112441511Y-65178965D01*
X112430773Y-65169405D01*
X109986819Y-62725451D01*
X109953334Y-62664128D01*
X109950500Y-62637770D01*
X109950500Y-56850000D01*
X113194540Y-56850000D01*
X113214326Y-57038256D01*
X113214327Y-57038259D01*
X113272818Y-57218277D01*
X113272821Y-57218284D01*
X113367467Y-57382216D01*
X113479830Y-57507007D01*
X113494129Y-57522888D01*
X113647265Y-57634148D01*
X113647270Y-57634151D01*
X113820192Y-57711142D01*
X113820197Y-57711144D01*
X114005354Y-57750500D01*
X114005355Y-57750500D01*
X114194644Y-57750500D01*
X114194646Y-57750500D01*
X114379803Y-57711144D01*
X114552730Y-57634151D01*
X114705871Y-57522888D01*
X114832533Y-57382216D01*
X114927179Y-57218284D01*
X114985674Y-57038256D01*
X115005460Y-56850000D01*
X114985674Y-56661744D01*
X114927179Y-56481716D01*
X114901361Y-56436999D01*
X114884888Y-56369101D01*
X114901362Y-56313000D01*
X114927179Y-56268284D01*
X114985674Y-56088256D01*
X115005460Y-55900000D01*
X114985674Y-55711744D01*
X114927179Y-55531716D01*
X114832533Y-55367784D01*
X114705871Y-55227112D01*
X114705870Y-55227111D01*
X114552734Y-55115851D01*
X114552729Y-55115848D01*
X114379807Y-55038857D01*
X114379802Y-55038855D01*
X114234001Y-55007865D01*
X114194646Y-54999500D01*
X114005354Y-54999500D01*
X113972897Y-55006398D01*
X113820197Y-55038855D01*
X113820192Y-55038857D01*
X113647270Y-55115848D01*
X113647265Y-55115851D01*
X113494129Y-55227111D01*
X113367466Y-55367785D01*
X113272821Y-55531715D01*
X113272818Y-55531722D01*
X113214327Y-55711740D01*
X113214326Y-55711744D01*
X113194540Y-55900000D01*
X113214326Y-56088256D01*
X113214327Y-56088259D01*
X113272821Y-56268285D01*
X113298637Y-56313000D01*
X113315110Y-56380900D01*
X113298637Y-56437000D01*
X113272821Y-56481714D01*
X113214403Y-56661506D01*
X113214326Y-56661744D01*
X113194540Y-56850000D01*
X109950500Y-56850000D01*
X109950500Y-52106974D01*
X109970185Y-52039935D01*
X109978632Y-52028327D01*
X110035910Y-51958536D01*
X110044657Y-51942171D01*
X110128811Y-51784731D01*
X110128811Y-51784730D01*
X110128814Y-51784725D01*
X110186024Y-51596130D01*
X110205341Y-51399998D01*
X110186024Y-51203866D01*
X110128814Y-51015271D01*
X110128811Y-51015267D01*
X110128811Y-51015264D01*
X110035913Y-50841465D01*
X110035911Y-50841463D01*
X110035910Y-50841460D01*
X110000999Y-50798921D01*
X109978647Y-50771684D01*
X109951334Y-50707374D01*
X109950500Y-50693019D01*
X109950500Y-50050000D01*
X112994540Y-50050000D01*
X113014326Y-50238256D01*
X113014327Y-50238259D01*
X113072818Y-50418277D01*
X113072821Y-50418284D01*
X113167467Y-50582216D01*
X113267235Y-50693019D01*
X113294129Y-50722888D01*
X113447265Y-50834148D01*
X113447270Y-50834151D01*
X113620192Y-50911142D01*
X113620197Y-50911144D01*
X113805354Y-50950500D01*
X113805355Y-50950500D01*
X113994644Y-50950500D01*
X113994646Y-50950500D01*
X114179803Y-50911144D01*
X114352730Y-50834151D01*
X114505871Y-50722888D01*
X114632533Y-50582216D01*
X114727179Y-50418284D01*
X114785674Y-50238256D01*
X114805460Y-50050000D01*
X114785674Y-49861744D01*
X114727179Y-49681716D01*
X114632533Y-49517784D01*
X114505871Y-49377112D01*
X114442252Y-49330890D01*
X114352734Y-49265851D01*
X114352729Y-49265848D01*
X114179807Y-49188857D01*
X114179802Y-49188855D01*
X114034001Y-49157865D01*
X113994646Y-49149500D01*
X113805354Y-49149500D01*
X113772897Y-49156398D01*
X113620197Y-49188855D01*
X113620192Y-49188857D01*
X113447270Y-49265848D01*
X113447265Y-49265851D01*
X113294129Y-49377111D01*
X113167466Y-49517785D01*
X113072821Y-49681715D01*
X113072818Y-49681722D01*
X113014327Y-49861740D01*
X113014326Y-49861744D01*
X112994540Y-50050000D01*
X109950500Y-50050000D01*
X109950500Y-47232353D01*
X116326893Y-47232353D01*
X116346679Y-47420609D01*
X116346680Y-47420612D01*
X116405171Y-47600630D01*
X116405174Y-47600637D01*
X116499820Y-47764569D01*
X116574048Y-47847007D01*
X116626482Y-47905241D01*
X116779618Y-48016501D01*
X116779623Y-48016504D01*
X116952545Y-48093495D01*
X116952550Y-48093497D01*
X117137707Y-48132853D01*
X117137708Y-48132853D01*
X117326997Y-48132853D01*
X117326999Y-48132853D01*
X117512156Y-48093497D01*
X117685083Y-48016504D01*
X117838224Y-47905241D01*
X117964886Y-47764569D01*
X118059532Y-47600637D01*
X118118027Y-47420609D01*
X118137813Y-47232353D01*
X118118027Y-47044097D01*
X118059532Y-46864069D01*
X117964886Y-46700137D01*
X117838224Y-46559465D01*
X117820619Y-46546674D01*
X117685087Y-46448204D01*
X117685082Y-46448201D01*
X117512160Y-46371210D01*
X117512155Y-46371208D01*
X117366354Y-46340218D01*
X117326999Y-46331853D01*
X117137707Y-46331853D01*
X117105250Y-46338751D01*
X116952550Y-46371208D01*
X116952545Y-46371210D01*
X116779623Y-46448201D01*
X116779618Y-46448204D01*
X116626482Y-46559464D01*
X116499819Y-46700138D01*
X116405174Y-46864068D01*
X116405171Y-46864075D01*
X116349179Y-47036402D01*
X116346679Y-47044097D01*
X116326893Y-47232353D01*
X109950500Y-47232353D01*
X109950500Y-42962229D01*
X109970185Y-42895190D01*
X109986819Y-42874548D01*
X111874548Y-40986819D01*
X111935871Y-40953334D01*
X111962229Y-40950500D01*
X122937770Y-40950500D01*
X123004809Y-40970185D01*
G37*
%TD.AperFunction*%
%TD*%
M02*
