%TF.GenerationSoftware,KiCad,Pcbnew,8.0.1*%
%TF.CreationDate,2024-04-24T14:52:54+01:00*%
%TF.ProjectId,Kishoof_Components,4b697368-6f6f-4665-9f43-6f6d706f6e65,rev?*%
%TF.SameCoordinates,Original*%
%TF.FileFunction,Legend,Bot*%
%TF.FilePolarity,Positive*%
%FSLAX46Y46*%
G04 Gerber Fmt 4.6, Leading zero omitted, Abs format (unit mm)*
G04 Created by KiCad (PCBNEW 8.0.1) date 2024-04-24 14:52:54*
%MOMM*%
%LPD*%
G01*
G04 APERTURE LIST*
%ADD10C,0.150000*%
%ADD11C,0.100000*%
%ADD12C,0.200000*%
%ADD13C,0.120000*%
G04 APERTURE END LIST*
D10*
X63800000Y-52600000D02*
X71700000Y-52600000D01*
X71700000Y-80800000D01*
X63800000Y-80800000D01*
X63800000Y-52600000D01*
D11*
X68490475Y-95872419D02*
X67871428Y-95872419D01*
X67871428Y-95872419D02*
X68204761Y-96253371D01*
X68204761Y-96253371D02*
X68061904Y-96253371D01*
X68061904Y-96253371D02*
X67966666Y-96300990D01*
X67966666Y-96300990D02*
X67919047Y-96348609D01*
X67919047Y-96348609D02*
X67871428Y-96443847D01*
X67871428Y-96443847D02*
X67871428Y-96681942D01*
X67871428Y-96681942D02*
X67919047Y-96777180D01*
X67919047Y-96777180D02*
X67966666Y-96824800D01*
X67966666Y-96824800D02*
X68061904Y-96872419D01*
X68061904Y-96872419D02*
X68347618Y-96872419D01*
X68347618Y-96872419D02*
X68442856Y-96824800D01*
X68442856Y-96824800D02*
X68490475Y-96777180D01*
X67585713Y-95872419D02*
X67252380Y-96872419D01*
X67252380Y-96872419D02*
X66919047Y-95872419D01*
X66633332Y-96586704D02*
X66157142Y-96586704D01*
X66728570Y-96872419D02*
X66395237Y-95872419D01*
X66395237Y-95872419D02*
X66061904Y-96872419D01*
X91019047Y-137972419D02*
X91590475Y-137972419D01*
X91304761Y-137972419D02*
X91304761Y-136972419D01*
X91304761Y-136972419D02*
X91399999Y-137115276D01*
X91399999Y-137115276D02*
X91495237Y-137210514D01*
X91495237Y-137210514D02*
X91590475Y-137258133D01*
X90638094Y-137067657D02*
X90590475Y-137020038D01*
X90590475Y-137020038D02*
X90495237Y-136972419D01*
X90495237Y-136972419D02*
X90257142Y-136972419D01*
X90257142Y-136972419D02*
X90161904Y-137020038D01*
X90161904Y-137020038D02*
X90114285Y-137067657D01*
X90114285Y-137067657D02*
X90066666Y-137162895D01*
X90066666Y-137162895D02*
X90066666Y-137258133D01*
X90066666Y-137258133D02*
X90114285Y-137400990D01*
X90114285Y-137400990D02*
X90685713Y-137972419D01*
X90685713Y-137972419D02*
X90066666Y-137972419D01*
X89780951Y-136972419D02*
X89447618Y-137972419D01*
X89447618Y-137972419D02*
X89114285Y-136972419D01*
X58761904Y-136920038D02*
X58857142Y-136872419D01*
X58857142Y-136872419D02*
X58999999Y-136872419D01*
X58999999Y-136872419D02*
X59142856Y-136920038D01*
X59142856Y-136920038D02*
X59238094Y-137015276D01*
X59238094Y-137015276D02*
X59285713Y-137110514D01*
X59285713Y-137110514D02*
X59333332Y-137300990D01*
X59333332Y-137300990D02*
X59333332Y-137443847D01*
X59333332Y-137443847D02*
X59285713Y-137634323D01*
X59285713Y-137634323D02*
X59238094Y-137729561D01*
X59238094Y-137729561D02*
X59142856Y-137824800D01*
X59142856Y-137824800D02*
X58999999Y-137872419D01*
X58999999Y-137872419D02*
X58904761Y-137872419D01*
X58904761Y-137872419D02*
X58761904Y-137824800D01*
X58761904Y-137824800D02*
X58714285Y-137777180D01*
X58714285Y-137777180D02*
X58714285Y-137443847D01*
X58714285Y-137443847D02*
X58904761Y-137443847D01*
X58285713Y-137872419D02*
X58285713Y-136872419D01*
X58285713Y-136872419D02*
X57714285Y-137872419D01*
X57714285Y-137872419D02*
X57714285Y-136872419D01*
X57238094Y-137872419D02*
X57238094Y-136872419D01*
X57238094Y-136872419D02*
X56999999Y-136872419D01*
X56999999Y-136872419D02*
X56857142Y-136920038D01*
X56857142Y-136920038D02*
X56761904Y-137015276D01*
X56761904Y-137015276D02*
X56714285Y-137110514D01*
X56714285Y-137110514D02*
X56666666Y-137300990D01*
X56666666Y-137300990D02*
X56666666Y-137443847D01*
X56666666Y-137443847D02*
X56714285Y-137634323D01*
X56714285Y-137634323D02*
X56761904Y-137729561D01*
X56761904Y-137729561D02*
X56857142Y-137824800D01*
X56857142Y-137824800D02*
X56999999Y-137872419D01*
X56999999Y-137872419D02*
X57238094Y-137872419D01*
D12*
X69216655Y-72800000D02*
X70616655Y-72800000D01*
X69216655Y-72000000D02*
X70016655Y-72600000D01*
X70616655Y-72000000D02*
X69816655Y-72800000D01*
X69216655Y-71400000D02*
X70149988Y-71400000D01*
X70616655Y-71400000D02*
X70549988Y-71466667D01*
X70549988Y-71466667D02*
X70483322Y-71400000D01*
X70483322Y-71400000D02*
X70549988Y-71333334D01*
X70549988Y-71333334D02*
X70616655Y-71400000D01*
X70616655Y-71400000D02*
X70483322Y-71400000D01*
X69283322Y-70800000D02*
X69216655Y-70666667D01*
X69216655Y-70666667D02*
X69216655Y-70400000D01*
X69216655Y-70400000D02*
X69283322Y-70266667D01*
X69283322Y-70266667D02*
X69416655Y-70200000D01*
X69416655Y-70200000D02*
X69483322Y-70200000D01*
X69483322Y-70200000D02*
X69616655Y-70266667D01*
X69616655Y-70266667D02*
X69683322Y-70400000D01*
X69683322Y-70400000D02*
X69683322Y-70600000D01*
X69683322Y-70600000D02*
X69749988Y-70733333D01*
X69749988Y-70733333D02*
X69883322Y-70800000D01*
X69883322Y-70800000D02*
X69949988Y-70800000D01*
X69949988Y-70800000D02*
X70083322Y-70733333D01*
X70083322Y-70733333D02*
X70149988Y-70600000D01*
X70149988Y-70600000D02*
X70149988Y-70400000D01*
X70149988Y-70400000D02*
X70083322Y-70266667D01*
X69216655Y-69600000D02*
X70616655Y-69600000D01*
X69216655Y-69000000D02*
X69949988Y-69000000D01*
X69949988Y-69000000D02*
X70083322Y-69066667D01*
X70083322Y-69066667D02*
X70149988Y-69200000D01*
X70149988Y-69200000D02*
X70149988Y-69400000D01*
X70149988Y-69400000D02*
X70083322Y-69533334D01*
X70083322Y-69533334D02*
X70016655Y-69600000D01*
X69216655Y-68133333D02*
X69283322Y-68266667D01*
X69283322Y-68266667D02*
X69349988Y-68333333D01*
X69349988Y-68333333D02*
X69483322Y-68400000D01*
X69483322Y-68400000D02*
X69883322Y-68400000D01*
X69883322Y-68400000D02*
X70016655Y-68333333D01*
X70016655Y-68333333D02*
X70083322Y-68266667D01*
X70083322Y-68266667D02*
X70149988Y-68133333D01*
X70149988Y-68133333D02*
X70149988Y-67933333D01*
X70149988Y-67933333D02*
X70083322Y-67800000D01*
X70083322Y-67800000D02*
X70016655Y-67733333D01*
X70016655Y-67733333D02*
X69883322Y-67666667D01*
X69883322Y-67666667D02*
X69483322Y-67666667D01*
X69483322Y-67666667D02*
X69349988Y-67733333D01*
X69349988Y-67733333D02*
X69283322Y-67800000D01*
X69283322Y-67800000D02*
X69216655Y-67933333D01*
X69216655Y-67933333D02*
X69216655Y-68133333D01*
X69216655Y-66866666D02*
X69283322Y-67000000D01*
X69283322Y-67000000D02*
X69349988Y-67066666D01*
X69349988Y-67066666D02*
X69483322Y-67133333D01*
X69483322Y-67133333D02*
X69883322Y-67133333D01*
X69883322Y-67133333D02*
X70016655Y-67066666D01*
X70016655Y-67066666D02*
X70083322Y-67000000D01*
X70083322Y-67000000D02*
X70149988Y-66866666D01*
X70149988Y-66866666D02*
X70149988Y-66666666D01*
X70149988Y-66666666D02*
X70083322Y-66533333D01*
X70083322Y-66533333D02*
X70016655Y-66466666D01*
X70016655Y-66466666D02*
X69883322Y-66400000D01*
X69883322Y-66400000D02*
X69483322Y-66400000D01*
X69483322Y-66400000D02*
X69349988Y-66466666D01*
X69349988Y-66466666D02*
X69283322Y-66533333D01*
X69283322Y-66533333D02*
X69216655Y-66666666D01*
X69216655Y-66666666D02*
X69216655Y-66866666D01*
X70149988Y-65999999D02*
X70149988Y-65466666D01*
X69216655Y-65799999D02*
X70416655Y-65799999D01*
X70416655Y-65799999D02*
X70549988Y-65733333D01*
X70549988Y-65733333D02*
X70616655Y-65599999D01*
X70616655Y-65599999D02*
X70616655Y-65466666D01*
X70149988Y-64066666D02*
X69216655Y-63733332D01*
X69216655Y-63733332D02*
X70149988Y-63399999D01*
X69216655Y-62133332D02*
X69216655Y-62933332D01*
X69216655Y-62533332D02*
X70616655Y-62533332D01*
X70616655Y-62533332D02*
X70416655Y-62666665D01*
X70416655Y-62666665D02*
X70283322Y-62799999D01*
X70283322Y-62799999D02*
X70216655Y-62933332D01*
X69349988Y-61533332D02*
X69283322Y-61466666D01*
X69283322Y-61466666D02*
X69216655Y-61533332D01*
X69216655Y-61533332D02*
X69283322Y-61599999D01*
X69283322Y-61599999D02*
X69349988Y-61533332D01*
X69349988Y-61533332D02*
X69216655Y-61533332D01*
X70616655Y-60599999D02*
X70616655Y-60466665D01*
X70616655Y-60466665D02*
X70549988Y-60333332D01*
X70549988Y-60333332D02*
X70483322Y-60266665D01*
X70483322Y-60266665D02*
X70349988Y-60199999D01*
X70349988Y-60199999D02*
X70083322Y-60133332D01*
X70083322Y-60133332D02*
X69749988Y-60133332D01*
X69749988Y-60133332D02*
X69483322Y-60199999D01*
X69483322Y-60199999D02*
X69349988Y-60266665D01*
X69349988Y-60266665D02*
X69283322Y-60333332D01*
X69283322Y-60333332D02*
X69216655Y-60466665D01*
X69216655Y-60466665D02*
X69216655Y-60599999D01*
X69216655Y-60599999D02*
X69283322Y-60733332D01*
X69283322Y-60733332D02*
X69349988Y-60799999D01*
X69349988Y-60799999D02*
X69483322Y-60866665D01*
X69483322Y-60866665D02*
X69749988Y-60933332D01*
X69749988Y-60933332D02*
X70083322Y-60933332D01*
X70083322Y-60933332D02*
X70349988Y-60866665D01*
X70349988Y-60866665D02*
X70483322Y-60799999D01*
X70483322Y-60799999D02*
X70549988Y-60733332D01*
X70549988Y-60733332D02*
X70616655Y-60599999D01*
X68229400Y-78700001D02*
X68296066Y-78633334D01*
X68296066Y-78633334D02*
X68362733Y-78500001D01*
X68362733Y-78500001D02*
X68362733Y-78166668D01*
X68362733Y-78166668D02*
X68296066Y-78033334D01*
X68296066Y-78033334D02*
X68229400Y-77966668D01*
X68229400Y-77966668D02*
X68096066Y-77900001D01*
X68096066Y-77900001D02*
X67962733Y-77900001D01*
X67962733Y-77900001D02*
X67762733Y-77966668D01*
X67762733Y-77966668D02*
X66962733Y-78766668D01*
X66962733Y-78766668D02*
X66962733Y-77900001D01*
X68362733Y-77033335D02*
X68362733Y-76900001D01*
X68362733Y-76900001D02*
X68296066Y-76766668D01*
X68296066Y-76766668D02*
X68229400Y-76700001D01*
X68229400Y-76700001D02*
X68096066Y-76633335D01*
X68096066Y-76633335D02*
X67829400Y-76566668D01*
X67829400Y-76566668D02*
X67496066Y-76566668D01*
X67496066Y-76566668D02*
X67229400Y-76633335D01*
X67229400Y-76633335D02*
X67096066Y-76700001D01*
X67096066Y-76700001D02*
X67029400Y-76766668D01*
X67029400Y-76766668D02*
X66962733Y-76900001D01*
X66962733Y-76900001D02*
X66962733Y-77033335D01*
X66962733Y-77033335D02*
X67029400Y-77166668D01*
X67029400Y-77166668D02*
X67096066Y-77233335D01*
X67096066Y-77233335D02*
X67229400Y-77300001D01*
X67229400Y-77300001D02*
X67496066Y-77366668D01*
X67496066Y-77366668D02*
X67829400Y-77366668D01*
X67829400Y-77366668D02*
X68096066Y-77300001D01*
X68096066Y-77300001D02*
X68229400Y-77233335D01*
X68229400Y-77233335D02*
X68296066Y-77166668D01*
X68296066Y-77166668D02*
X68362733Y-77033335D01*
X68229400Y-76033335D02*
X68296066Y-75966668D01*
X68296066Y-75966668D02*
X68362733Y-75833335D01*
X68362733Y-75833335D02*
X68362733Y-75500002D01*
X68362733Y-75500002D02*
X68296066Y-75366668D01*
X68296066Y-75366668D02*
X68229400Y-75300002D01*
X68229400Y-75300002D02*
X68096066Y-75233335D01*
X68096066Y-75233335D02*
X67962733Y-75233335D01*
X67962733Y-75233335D02*
X67762733Y-75300002D01*
X67762733Y-75300002D02*
X66962733Y-76100002D01*
X66962733Y-76100002D02*
X66962733Y-75233335D01*
X67896066Y-74033335D02*
X66962733Y-74033335D01*
X68429400Y-74366669D02*
X67429400Y-74700002D01*
X67429400Y-74700002D02*
X67429400Y-73833335D01*
X66962733Y-72233335D02*
X68362733Y-72233335D01*
X68362733Y-72233335D02*
X67362733Y-71766669D01*
X67362733Y-71766669D02*
X68362733Y-71300002D01*
X68362733Y-71300002D02*
X66962733Y-71300002D01*
X66962733Y-70433335D02*
X67029400Y-70566669D01*
X67029400Y-70566669D02*
X67096066Y-70633335D01*
X67096066Y-70633335D02*
X67229400Y-70700002D01*
X67229400Y-70700002D02*
X67629400Y-70700002D01*
X67629400Y-70700002D02*
X67762733Y-70633335D01*
X67762733Y-70633335D02*
X67829400Y-70566669D01*
X67829400Y-70566669D02*
X67896066Y-70433335D01*
X67896066Y-70433335D02*
X67896066Y-70233335D01*
X67896066Y-70233335D02*
X67829400Y-70100002D01*
X67829400Y-70100002D02*
X67762733Y-70033335D01*
X67762733Y-70033335D02*
X67629400Y-69966669D01*
X67629400Y-69966669D02*
X67229400Y-69966669D01*
X67229400Y-69966669D02*
X67096066Y-70033335D01*
X67096066Y-70033335D02*
X67029400Y-70100002D01*
X67029400Y-70100002D02*
X66962733Y-70233335D01*
X66962733Y-70233335D02*
X66962733Y-70433335D01*
X67896066Y-68766668D02*
X66962733Y-68766668D01*
X67896066Y-69366668D02*
X67162733Y-69366668D01*
X67162733Y-69366668D02*
X67029400Y-69300002D01*
X67029400Y-69300002D02*
X66962733Y-69166668D01*
X66962733Y-69166668D02*
X66962733Y-68966668D01*
X66962733Y-68966668D02*
X67029400Y-68833335D01*
X67029400Y-68833335D02*
X67096066Y-68766668D01*
X67896066Y-68100001D02*
X66962733Y-68100001D01*
X67762733Y-68100001D02*
X67829400Y-68033335D01*
X67829400Y-68033335D02*
X67896066Y-67900001D01*
X67896066Y-67900001D02*
X67896066Y-67700001D01*
X67896066Y-67700001D02*
X67829400Y-67566668D01*
X67829400Y-67566668D02*
X67696066Y-67500001D01*
X67696066Y-67500001D02*
X66962733Y-67500001D01*
X67896066Y-67033334D02*
X67896066Y-66500001D01*
X68362733Y-66833334D02*
X67162733Y-66833334D01*
X67162733Y-66833334D02*
X67029400Y-66766668D01*
X67029400Y-66766668D02*
X66962733Y-66633334D01*
X66962733Y-66633334D02*
X66962733Y-66500001D01*
X67896066Y-66033334D02*
X66696066Y-66033334D01*
X66696066Y-66033334D02*
X66562733Y-66100001D01*
X66562733Y-66100001D02*
X66496066Y-66233334D01*
X66496066Y-66233334D02*
X66496066Y-66300001D01*
X68362733Y-66033334D02*
X68296066Y-66100001D01*
X68296066Y-66100001D02*
X68229400Y-66033334D01*
X68229400Y-66033334D02*
X68296066Y-65966668D01*
X68296066Y-65966668D02*
X68362733Y-66033334D01*
X68362733Y-66033334D02*
X68229400Y-66033334D01*
X66962733Y-65166667D02*
X67029400Y-65300001D01*
X67029400Y-65300001D02*
X67096066Y-65366667D01*
X67096066Y-65366667D02*
X67229400Y-65433334D01*
X67229400Y-65433334D02*
X67629400Y-65433334D01*
X67629400Y-65433334D02*
X67762733Y-65366667D01*
X67762733Y-65366667D02*
X67829400Y-65300001D01*
X67829400Y-65300001D02*
X67896066Y-65166667D01*
X67896066Y-65166667D02*
X67896066Y-64966667D01*
X67896066Y-64966667D02*
X67829400Y-64833334D01*
X67829400Y-64833334D02*
X67762733Y-64766667D01*
X67762733Y-64766667D02*
X67629400Y-64700001D01*
X67629400Y-64700001D02*
X67229400Y-64700001D01*
X67229400Y-64700001D02*
X67096066Y-64766667D01*
X67096066Y-64766667D02*
X67029400Y-64833334D01*
X67029400Y-64833334D02*
X66962733Y-64966667D01*
X66962733Y-64966667D02*
X66962733Y-65166667D01*
X67896066Y-64233334D02*
X66962733Y-63900000D01*
X67896066Y-63566667D02*
X66962733Y-63900000D01*
X66962733Y-63900000D02*
X66629400Y-64033334D01*
X66629400Y-64033334D02*
X66562733Y-64100000D01*
X66562733Y-64100000D02*
X66496066Y-64233334D01*
X66962733Y-61966666D02*
X68362733Y-61966666D01*
X68362733Y-61966666D02*
X67362733Y-61500000D01*
X67362733Y-61500000D02*
X68362733Y-61033333D01*
X68362733Y-61033333D02*
X66962733Y-61033333D01*
X66962733Y-60166666D02*
X67029400Y-60300000D01*
X67029400Y-60300000D02*
X67096066Y-60366666D01*
X67096066Y-60366666D02*
X67229400Y-60433333D01*
X67229400Y-60433333D02*
X67629400Y-60433333D01*
X67629400Y-60433333D02*
X67762733Y-60366666D01*
X67762733Y-60366666D02*
X67829400Y-60300000D01*
X67829400Y-60300000D02*
X67896066Y-60166666D01*
X67896066Y-60166666D02*
X67896066Y-59966666D01*
X67896066Y-59966666D02*
X67829400Y-59833333D01*
X67829400Y-59833333D02*
X67762733Y-59766666D01*
X67762733Y-59766666D02*
X67629400Y-59700000D01*
X67629400Y-59700000D02*
X67229400Y-59700000D01*
X67229400Y-59700000D02*
X67096066Y-59766666D01*
X67096066Y-59766666D02*
X67029400Y-59833333D01*
X67029400Y-59833333D02*
X66962733Y-59966666D01*
X66962733Y-59966666D02*
X66962733Y-60166666D01*
X66962733Y-58499999D02*
X68362733Y-58499999D01*
X67029400Y-58499999D02*
X66962733Y-58633333D01*
X66962733Y-58633333D02*
X66962733Y-58899999D01*
X66962733Y-58899999D02*
X67029400Y-59033333D01*
X67029400Y-59033333D02*
X67096066Y-59099999D01*
X67096066Y-59099999D02*
X67229400Y-59166666D01*
X67229400Y-59166666D02*
X67629400Y-59166666D01*
X67629400Y-59166666D02*
X67762733Y-59099999D01*
X67762733Y-59099999D02*
X67829400Y-59033333D01*
X67829400Y-59033333D02*
X67896066Y-58899999D01*
X67896066Y-58899999D02*
X67896066Y-58633333D01*
X67896066Y-58633333D02*
X67829400Y-58499999D01*
X67896066Y-57233332D02*
X66962733Y-57233332D01*
X67896066Y-57833332D02*
X67162733Y-57833332D01*
X67162733Y-57833332D02*
X67029400Y-57766666D01*
X67029400Y-57766666D02*
X66962733Y-57633332D01*
X66962733Y-57633332D02*
X66962733Y-57433332D01*
X66962733Y-57433332D02*
X67029400Y-57299999D01*
X67029400Y-57299999D02*
X67096066Y-57233332D01*
X66962733Y-56366665D02*
X67029400Y-56499999D01*
X67029400Y-56499999D02*
X67162733Y-56566665D01*
X67162733Y-56566665D02*
X68362733Y-56566665D01*
X66962733Y-55233332D02*
X67696066Y-55233332D01*
X67696066Y-55233332D02*
X67829400Y-55299999D01*
X67829400Y-55299999D02*
X67896066Y-55433332D01*
X67896066Y-55433332D02*
X67896066Y-55699999D01*
X67896066Y-55699999D02*
X67829400Y-55833332D01*
X67029400Y-55233332D02*
X66962733Y-55366666D01*
X66962733Y-55366666D02*
X66962733Y-55699999D01*
X66962733Y-55699999D02*
X67029400Y-55833332D01*
X67029400Y-55833332D02*
X67162733Y-55899999D01*
X67162733Y-55899999D02*
X67296066Y-55899999D01*
X67296066Y-55899999D02*
X67429400Y-55833332D01*
X67429400Y-55833332D02*
X67496066Y-55699999D01*
X67496066Y-55699999D02*
X67496066Y-55366666D01*
X67496066Y-55366666D02*
X67562733Y-55233332D01*
X66962733Y-54566665D02*
X67896066Y-54566665D01*
X67629400Y-54566665D02*
X67762733Y-54499999D01*
X67762733Y-54499999D02*
X67829400Y-54433332D01*
X67829400Y-54433332D02*
X67896066Y-54299999D01*
X67896066Y-54299999D02*
X67896066Y-54166665D01*
X64708811Y-74800001D02*
X65442144Y-74800001D01*
X65442144Y-74800001D02*
X65575478Y-74866668D01*
X65575478Y-74866668D02*
X65642144Y-75000001D01*
X65642144Y-75000001D02*
X65642144Y-75266668D01*
X65642144Y-75266668D02*
X65575478Y-75400001D01*
X64775478Y-74800001D02*
X64708811Y-74933335D01*
X64708811Y-74933335D02*
X64708811Y-75266668D01*
X64708811Y-75266668D02*
X64775478Y-75400001D01*
X64775478Y-75400001D02*
X64908811Y-75466668D01*
X64908811Y-75466668D02*
X65042144Y-75466668D01*
X65042144Y-75466668D02*
X65175478Y-75400001D01*
X65175478Y-75400001D02*
X65242144Y-75266668D01*
X65242144Y-75266668D02*
X65242144Y-74933335D01*
X65242144Y-74933335D02*
X65308811Y-74800001D01*
X65642144Y-74133334D02*
X64708811Y-74133334D01*
X65508811Y-74133334D02*
X65575478Y-74066668D01*
X65575478Y-74066668D02*
X65642144Y-73933334D01*
X65642144Y-73933334D02*
X65642144Y-73733334D01*
X65642144Y-73733334D02*
X65575478Y-73600001D01*
X65575478Y-73600001D02*
X65442144Y-73533334D01*
X65442144Y-73533334D02*
X64708811Y-73533334D01*
X64708811Y-72266667D02*
X66108811Y-72266667D01*
X64775478Y-72266667D02*
X64708811Y-72400001D01*
X64708811Y-72400001D02*
X64708811Y-72666667D01*
X64708811Y-72666667D02*
X64775478Y-72800001D01*
X64775478Y-72800001D02*
X64842144Y-72866667D01*
X64842144Y-72866667D02*
X64975478Y-72933334D01*
X64975478Y-72933334D02*
X65375478Y-72933334D01*
X65375478Y-72933334D02*
X65508811Y-72866667D01*
X65508811Y-72866667D02*
X65575478Y-72800001D01*
X65575478Y-72800001D02*
X65642144Y-72666667D01*
X65642144Y-72666667D02*
X65642144Y-72400001D01*
X65642144Y-72400001D02*
X65575478Y-72266667D01*
X66108811Y-70733333D02*
X66108811Y-69933333D01*
X64708811Y-70333333D02*
X66108811Y-70333333D01*
X64708811Y-68866666D02*
X65442144Y-68866666D01*
X65442144Y-68866666D02*
X65575478Y-68933333D01*
X65575478Y-68933333D02*
X65642144Y-69066666D01*
X65642144Y-69066666D02*
X65642144Y-69333333D01*
X65642144Y-69333333D02*
X65575478Y-69466666D01*
X64775478Y-68866666D02*
X64708811Y-69000000D01*
X64708811Y-69000000D02*
X64708811Y-69333333D01*
X64708811Y-69333333D02*
X64775478Y-69466666D01*
X64775478Y-69466666D02*
X64908811Y-69533333D01*
X64908811Y-69533333D02*
X65042144Y-69533333D01*
X65042144Y-69533333D02*
X65175478Y-69466666D01*
X65175478Y-69466666D02*
X65242144Y-69333333D01*
X65242144Y-69333333D02*
X65242144Y-69000000D01*
X65242144Y-69000000D02*
X65308811Y-68866666D01*
X64708811Y-67999999D02*
X64775478Y-68133333D01*
X64775478Y-68133333D02*
X64908811Y-68199999D01*
X64908811Y-68199999D02*
X66108811Y-68199999D01*
X64775478Y-66466666D02*
X64708811Y-66266666D01*
X64708811Y-66266666D02*
X64708811Y-65933333D01*
X64708811Y-65933333D02*
X64775478Y-65799999D01*
X64775478Y-65799999D02*
X64842144Y-65733333D01*
X64842144Y-65733333D02*
X64975478Y-65666666D01*
X64975478Y-65666666D02*
X65108811Y-65666666D01*
X65108811Y-65666666D02*
X65242144Y-65733333D01*
X65242144Y-65733333D02*
X65308811Y-65799999D01*
X65308811Y-65799999D02*
X65375478Y-65933333D01*
X65375478Y-65933333D02*
X65442144Y-66199999D01*
X65442144Y-66199999D02*
X65508811Y-66333333D01*
X65508811Y-66333333D02*
X65575478Y-66399999D01*
X65575478Y-66399999D02*
X65708811Y-66466666D01*
X65708811Y-66466666D02*
X65842144Y-66466666D01*
X65842144Y-66466666D02*
X65975478Y-66399999D01*
X65975478Y-66399999D02*
X66042144Y-66333333D01*
X66042144Y-66333333D02*
X66108811Y-66199999D01*
X66108811Y-66199999D02*
X66108811Y-65866666D01*
X66108811Y-65866666D02*
X66042144Y-65666666D01*
X64708811Y-65066666D02*
X66108811Y-65066666D01*
X64708811Y-64466666D02*
X65442144Y-64466666D01*
X65442144Y-64466666D02*
X65575478Y-64533333D01*
X65575478Y-64533333D02*
X65642144Y-64666666D01*
X65642144Y-64666666D02*
X65642144Y-64866666D01*
X65642144Y-64866666D02*
X65575478Y-65000000D01*
X65575478Y-65000000D02*
X65508811Y-65066666D01*
X64708811Y-63599999D02*
X64775478Y-63733333D01*
X64775478Y-63733333D02*
X64842144Y-63799999D01*
X64842144Y-63799999D02*
X64975478Y-63866666D01*
X64975478Y-63866666D02*
X65375478Y-63866666D01*
X65375478Y-63866666D02*
X65508811Y-63799999D01*
X65508811Y-63799999D02*
X65575478Y-63733333D01*
X65575478Y-63733333D02*
X65642144Y-63599999D01*
X65642144Y-63599999D02*
X65642144Y-63399999D01*
X65642144Y-63399999D02*
X65575478Y-63266666D01*
X65575478Y-63266666D02*
X65508811Y-63199999D01*
X65508811Y-63199999D02*
X65375478Y-63133333D01*
X65375478Y-63133333D02*
X64975478Y-63133333D01*
X64975478Y-63133333D02*
X64842144Y-63199999D01*
X64842144Y-63199999D02*
X64775478Y-63266666D01*
X64775478Y-63266666D02*
X64708811Y-63399999D01*
X64708811Y-63399999D02*
X64708811Y-63599999D01*
X64775478Y-62599999D02*
X64708811Y-62466666D01*
X64708811Y-62466666D02*
X64708811Y-62199999D01*
X64708811Y-62199999D02*
X64775478Y-62066666D01*
X64775478Y-62066666D02*
X64908811Y-61999999D01*
X64908811Y-61999999D02*
X64975478Y-61999999D01*
X64975478Y-61999999D02*
X65108811Y-62066666D01*
X65108811Y-62066666D02*
X65175478Y-62199999D01*
X65175478Y-62199999D02*
X65175478Y-62399999D01*
X65175478Y-62399999D02*
X65242144Y-62533332D01*
X65242144Y-62533332D02*
X65375478Y-62599999D01*
X65375478Y-62599999D02*
X65442144Y-62599999D01*
X65442144Y-62599999D02*
X65575478Y-62533332D01*
X65575478Y-62533332D02*
X65642144Y-62399999D01*
X65642144Y-62399999D02*
X65642144Y-62199999D01*
X65642144Y-62199999D02*
X65575478Y-62066666D01*
X64708811Y-61399999D02*
X66108811Y-61399999D01*
X64708811Y-60799999D02*
X65442144Y-60799999D01*
X65442144Y-60799999D02*
X65575478Y-60866666D01*
X65575478Y-60866666D02*
X65642144Y-60999999D01*
X65642144Y-60999999D02*
X65642144Y-61199999D01*
X65642144Y-61199999D02*
X65575478Y-61333333D01*
X65575478Y-61333333D02*
X65508811Y-61399999D01*
X64708811Y-59533332D02*
X65442144Y-59533332D01*
X65442144Y-59533332D02*
X65575478Y-59599999D01*
X65575478Y-59599999D02*
X65642144Y-59733332D01*
X65642144Y-59733332D02*
X65642144Y-59999999D01*
X65642144Y-59999999D02*
X65575478Y-60133332D01*
X64775478Y-59533332D02*
X64708811Y-59666666D01*
X64708811Y-59666666D02*
X64708811Y-59999999D01*
X64708811Y-59999999D02*
X64775478Y-60133332D01*
X64775478Y-60133332D02*
X64908811Y-60199999D01*
X64908811Y-60199999D02*
X65042144Y-60199999D01*
X65042144Y-60199999D02*
X65175478Y-60133332D01*
X65175478Y-60133332D02*
X65242144Y-59999999D01*
X65242144Y-59999999D02*
X65242144Y-59666666D01*
X65242144Y-59666666D02*
X65308811Y-59533332D01*
X65642144Y-58866665D02*
X64708811Y-58866665D01*
X65508811Y-58866665D02*
X65575478Y-58799999D01*
X65575478Y-58799999D02*
X65642144Y-58666665D01*
X65642144Y-58666665D02*
X65642144Y-58466665D01*
X65642144Y-58466665D02*
X65575478Y-58333332D01*
X65575478Y-58333332D02*
X65442144Y-58266665D01*
X65442144Y-58266665D02*
X64708811Y-58266665D01*
X64708811Y-57599998D02*
X65642144Y-57599998D01*
X66108811Y-57599998D02*
X66042144Y-57666665D01*
X66042144Y-57666665D02*
X65975478Y-57599998D01*
X65975478Y-57599998D02*
X66042144Y-57533332D01*
X66042144Y-57533332D02*
X66108811Y-57599998D01*
X66108811Y-57599998D02*
X65975478Y-57599998D01*
D11*
X123661904Y-136620038D02*
X123757142Y-136572419D01*
X123757142Y-136572419D02*
X123899999Y-136572419D01*
X123899999Y-136572419D02*
X124042856Y-136620038D01*
X124042856Y-136620038D02*
X124138094Y-136715276D01*
X124138094Y-136715276D02*
X124185713Y-136810514D01*
X124185713Y-136810514D02*
X124233332Y-137000990D01*
X124233332Y-137000990D02*
X124233332Y-137143847D01*
X124233332Y-137143847D02*
X124185713Y-137334323D01*
X124185713Y-137334323D02*
X124138094Y-137429561D01*
X124138094Y-137429561D02*
X124042856Y-137524800D01*
X124042856Y-137524800D02*
X123899999Y-137572419D01*
X123899999Y-137572419D02*
X123804761Y-137572419D01*
X123804761Y-137572419D02*
X123661904Y-137524800D01*
X123661904Y-137524800D02*
X123614285Y-137477180D01*
X123614285Y-137477180D02*
X123614285Y-137143847D01*
X123614285Y-137143847D02*
X123804761Y-137143847D01*
X123185713Y-137572419D02*
X123185713Y-136572419D01*
X123185713Y-136572419D02*
X122614285Y-137572419D01*
X122614285Y-137572419D02*
X122614285Y-136572419D01*
X122138094Y-137572419D02*
X122138094Y-136572419D01*
X122138094Y-136572419D02*
X121899999Y-136572419D01*
X121899999Y-136572419D02*
X121757142Y-136620038D01*
X121757142Y-136620038D02*
X121661904Y-136715276D01*
X121661904Y-136715276D02*
X121614285Y-136810514D01*
X121614285Y-136810514D02*
X121566666Y-137000990D01*
X121566666Y-137000990D02*
X121566666Y-137143847D01*
X121566666Y-137143847D02*
X121614285Y-137334323D01*
X121614285Y-137334323D02*
X121661904Y-137429561D01*
X121661904Y-137429561D02*
X121757142Y-137524800D01*
X121757142Y-137524800D02*
X121899999Y-137572419D01*
X121899999Y-137572419D02*
X122138094Y-137572419D01*
X72061904Y-95872419D02*
X71442857Y-95872419D01*
X71442857Y-95872419D02*
X71776190Y-96253371D01*
X71776190Y-96253371D02*
X71633333Y-96253371D01*
X71633333Y-96253371D02*
X71538095Y-96300990D01*
X71538095Y-96300990D02*
X71490476Y-96348609D01*
X71490476Y-96348609D02*
X71442857Y-96443847D01*
X71442857Y-96443847D02*
X71442857Y-96681942D01*
X71442857Y-96681942D02*
X71490476Y-96777180D01*
X71490476Y-96777180D02*
X71538095Y-96824800D01*
X71538095Y-96824800D02*
X71633333Y-96872419D01*
X71633333Y-96872419D02*
X71919047Y-96872419D01*
X71919047Y-96872419D02*
X72014285Y-96824800D01*
X72014285Y-96824800D02*
X72061904Y-96777180D01*
X71157142Y-95872419D02*
X70823809Y-96872419D01*
X70823809Y-96872419D02*
X70490476Y-95872419D01*
X86061904Y-137591466D02*
X85300000Y-137591466D01*
X84300000Y-137972419D02*
X84871428Y-137972419D01*
X84585714Y-137972419D02*
X84585714Y-136972419D01*
X84585714Y-136972419D02*
X84680952Y-137115276D01*
X84680952Y-137115276D02*
X84776190Y-137210514D01*
X84776190Y-137210514D02*
X84871428Y-137258133D01*
X83919047Y-137067657D02*
X83871428Y-137020038D01*
X83871428Y-137020038D02*
X83776190Y-136972419D01*
X83776190Y-136972419D02*
X83538095Y-136972419D01*
X83538095Y-136972419D02*
X83442857Y-137020038D01*
X83442857Y-137020038D02*
X83395238Y-137067657D01*
X83395238Y-137067657D02*
X83347619Y-137162895D01*
X83347619Y-137162895D02*
X83347619Y-137258133D01*
X83347619Y-137258133D02*
X83395238Y-137400990D01*
X83395238Y-137400990D02*
X83966666Y-137972419D01*
X83966666Y-137972419D02*
X83347619Y-137972419D01*
X83061904Y-136972419D02*
X82728571Y-137972419D01*
X82728571Y-137972419D02*
X82395238Y-136972419D01*
X98585713Y-137591466D02*
X97823809Y-137591466D01*
X96871428Y-136972419D02*
X97347618Y-136972419D01*
X97347618Y-136972419D02*
X97395237Y-137448609D01*
X97395237Y-137448609D02*
X97347618Y-137400990D01*
X97347618Y-137400990D02*
X97252380Y-137353371D01*
X97252380Y-137353371D02*
X97014285Y-137353371D01*
X97014285Y-137353371D02*
X96919047Y-137400990D01*
X96919047Y-137400990D02*
X96871428Y-137448609D01*
X96871428Y-137448609D02*
X96823809Y-137543847D01*
X96823809Y-137543847D02*
X96823809Y-137781942D01*
X96823809Y-137781942D02*
X96871428Y-137877180D01*
X96871428Y-137877180D02*
X96919047Y-137924800D01*
X96919047Y-137924800D02*
X97014285Y-137972419D01*
X97014285Y-137972419D02*
X97252380Y-137972419D01*
X97252380Y-137972419D02*
X97347618Y-137924800D01*
X97347618Y-137924800D02*
X97395237Y-137877180D01*
X96538094Y-136972419D02*
X96204761Y-137972419D01*
X96204761Y-137972419D02*
X95871428Y-136972419D01*
X89538972Y-55272419D02*
X88967544Y-55272419D01*
X89253258Y-56272419D02*
X89253258Y-55272419D01*
X88729448Y-55272419D02*
X88062782Y-56272419D01*
X88062782Y-55272419D02*
X88729448Y-56272419D01*
X91424687Y-56272419D02*
X91758020Y-55796228D01*
X91996115Y-56272419D02*
X91996115Y-55272419D01*
X91996115Y-55272419D02*
X91615163Y-55272419D01*
X91615163Y-55272419D02*
X91519925Y-55320038D01*
X91519925Y-55320038D02*
X91472306Y-55367657D01*
X91472306Y-55367657D02*
X91424687Y-55462895D01*
X91424687Y-55462895D02*
X91424687Y-55605752D01*
X91424687Y-55605752D02*
X91472306Y-55700990D01*
X91472306Y-55700990D02*
X91519925Y-55748609D01*
X91519925Y-55748609D02*
X91615163Y-55796228D01*
X91615163Y-55796228D02*
X91996115Y-55796228D01*
X91091353Y-55272419D02*
X90424687Y-56272419D01*
X90424687Y-55272419D02*
X91091353Y-56272419D01*
D10*
X123333333Y-42124819D02*
X123333333Y-42839104D01*
X123333333Y-42839104D02*
X123380952Y-42981961D01*
X123380952Y-42981961D02*
X123476190Y-43077200D01*
X123476190Y-43077200D02*
X123619047Y-43124819D01*
X123619047Y-43124819D02*
X123714285Y-43124819D01*
X122904761Y-42220057D02*
X122857142Y-42172438D01*
X122857142Y-42172438D02*
X122761904Y-42124819D01*
X122761904Y-42124819D02*
X122523809Y-42124819D01*
X122523809Y-42124819D02*
X122428571Y-42172438D01*
X122428571Y-42172438D02*
X122380952Y-42220057D01*
X122380952Y-42220057D02*
X122333333Y-42315295D01*
X122333333Y-42315295D02*
X122333333Y-42410533D01*
X122333333Y-42410533D02*
X122380952Y-42553390D01*
X122380952Y-42553390D02*
X122952380Y-43124819D01*
X122952380Y-43124819D02*
X122333333Y-43124819D01*
X123333333Y-101124819D02*
X123333333Y-101839104D01*
X123333333Y-101839104D02*
X123380952Y-101981961D01*
X123380952Y-101981961D02*
X123476190Y-102077200D01*
X123476190Y-102077200D02*
X123619047Y-102124819D01*
X123619047Y-102124819D02*
X123714285Y-102124819D01*
X122428571Y-101458152D02*
X122428571Y-102124819D01*
X122666666Y-101077200D02*
X122904761Y-101791485D01*
X122904761Y-101791485D02*
X122285714Y-101791485D01*
X58333333Y-42124819D02*
X58333333Y-42839104D01*
X58333333Y-42839104D02*
X58380952Y-42981961D01*
X58380952Y-42981961D02*
X58476190Y-43077200D01*
X58476190Y-43077200D02*
X58619047Y-43124819D01*
X58619047Y-43124819D02*
X58714285Y-43124819D01*
X57333333Y-43124819D02*
X57904761Y-43124819D01*
X57619047Y-43124819D02*
X57619047Y-42124819D01*
X57619047Y-42124819D02*
X57714285Y-42267676D01*
X57714285Y-42267676D02*
X57809523Y-42362914D01*
X57809523Y-42362914D02*
X57904761Y-42410533D01*
X58333333Y-101124819D02*
X58333333Y-101839104D01*
X58333333Y-101839104D02*
X58380952Y-101981961D01*
X58380952Y-101981961D02*
X58476190Y-102077200D01*
X58476190Y-102077200D02*
X58619047Y-102124819D01*
X58619047Y-102124819D02*
X58714285Y-102124819D01*
X57952380Y-101124819D02*
X57333333Y-101124819D01*
X57333333Y-101124819D02*
X57666666Y-101505771D01*
X57666666Y-101505771D02*
X57523809Y-101505771D01*
X57523809Y-101505771D02*
X57428571Y-101553390D01*
X57428571Y-101553390D02*
X57380952Y-101601009D01*
X57380952Y-101601009D02*
X57333333Y-101696247D01*
X57333333Y-101696247D02*
X57333333Y-101934342D01*
X57333333Y-101934342D02*
X57380952Y-102029580D01*
X57380952Y-102029580D02*
X57428571Y-102077200D01*
X57428571Y-102077200D02*
X57523809Y-102124819D01*
X57523809Y-102124819D02*
X57809523Y-102124819D01*
X57809523Y-102124819D02*
X57904761Y-102077200D01*
X57904761Y-102077200D02*
X57952380Y-102029580D01*
X97454819Y-116361905D02*
X96454819Y-116361905D01*
X96454819Y-116361905D02*
X96454819Y-116600000D01*
X96454819Y-116600000D02*
X96502438Y-116742857D01*
X96502438Y-116742857D02*
X96597676Y-116838095D01*
X96597676Y-116838095D02*
X96692914Y-116885714D01*
X96692914Y-116885714D02*
X96883390Y-116933333D01*
X96883390Y-116933333D02*
X97026247Y-116933333D01*
X97026247Y-116933333D02*
X97216723Y-116885714D01*
X97216723Y-116885714D02*
X97311961Y-116838095D01*
X97311961Y-116838095D02*
X97407200Y-116742857D01*
X97407200Y-116742857D02*
X97454819Y-116600000D01*
X97454819Y-116600000D02*
X97454819Y-116361905D01*
X96454819Y-117266667D02*
X96454819Y-117885714D01*
X96454819Y-117885714D02*
X96835771Y-117552381D01*
X96835771Y-117552381D02*
X96835771Y-117695238D01*
X96835771Y-117695238D02*
X96883390Y-117790476D01*
X96883390Y-117790476D02*
X96931009Y-117838095D01*
X96931009Y-117838095D02*
X97026247Y-117885714D01*
X97026247Y-117885714D02*
X97264342Y-117885714D01*
X97264342Y-117885714D02*
X97359580Y-117838095D01*
X97359580Y-117838095D02*
X97407200Y-117790476D01*
X97407200Y-117790476D02*
X97454819Y-117695238D01*
X97454819Y-117695238D02*
X97454819Y-117409524D01*
X97454819Y-117409524D02*
X97407200Y-117314286D01*
X97407200Y-117314286D02*
X97359580Y-117266667D01*
X100059580Y-57357142D02*
X100107200Y-57309523D01*
X100107200Y-57309523D02*
X100154819Y-57166666D01*
X100154819Y-57166666D02*
X100154819Y-57071428D01*
X100154819Y-57071428D02*
X100107200Y-56928571D01*
X100107200Y-56928571D02*
X100011961Y-56833333D01*
X100011961Y-56833333D02*
X99916723Y-56785714D01*
X99916723Y-56785714D02*
X99726247Y-56738095D01*
X99726247Y-56738095D02*
X99583390Y-56738095D01*
X99583390Y-56738095D02*
X99392914Y-56785714D01*
X99392914Y-56785714D02*
X99297676Y-56833333D01*
X99297676Y-56833333D02*
X99202438Y-56928571D01*
X99202438Y-56928571D02*
X99154819Y-57071428D01*
X99154819Y-57071428D02*
X99154819Y-57166666D01*
X99154819Y-57166666D02*
X99202438Y-57309523D01*
X99202438Y-57309523D02*
X99250057Y-57357142D01*
X100154819Y-58309523D02*
X100154819Y-57738095D01*
X100154819Y-58023809D02*
X99154819Y-58023809D01*
X99154819Y-58023809D02*
X99297676Y-57928571D01*
X99297676Y-57928571D02*
X99392914Y-57833333D01*
X99392914Y-57833333D02*
X99440533Y-57738095D01*
X99154819Y-59166666D02*
X99154819Y-58976190D01*
X99154819Y-58976190D02*
X99202438Y-58880952D01*
X99202438Y-58880952D02*
X99250057Y-58833333D01*
X99250057Y-58833333D02*
X99392914Y-58738095D01*
X99392914Y-58738095D02*
X99583390Y-58690476D01*
X99583390Y-58690476D02*
X99964342Y-58690476D01*
X99964342Y-58690476D02*
X100059580Y-58738095D01*
X100059580Y-58738095D02*
X100107200Y-58785714D01*
X100107200Y-58785714D02*
X100154819Y-58880952D01*
X100154819Y-58880952D02*
X100154819Y-59071428D01*
X100154819Y-59071428D02*
X100107200Y-59166666D01*
X100107200Y-59166666D02*
X100059580Y-59214285D01*
X100059580Y-59214285D02*
X99964342Y-59261904D01*
X99964342Y-59261904D02*
X99726247Y-59261904D01*
X99726247Y-59261904D02*
X99631009Y-59214285D01*
X99631009Y-59214285D02*
X99583390Y-59166666D01*
X99583390Y-59166666D02*
X99535771Y-59071428D01*
X99535771Y-59071428D02*
X99535771Y-58880952D01*
X99535771Y-58880952D02*
X99583390Y-58785714D01*
X99583390Y-58785714D02*
X99631009Y-58738095D01*
X99631009Y-58738095D02*
X99726247Y-58690476D01*
X76292857Y-63259580D02*
X76340476Y-63307200D01*
X76340476Y-63307200D02*
X76483333Y-63354819D01*
X76483333Y-63354819D02*
X76578571Y-63354819D01*
X76578571Y-63354819D02*
X76721428Y-63307200D01*
X76721428Y-63307200D02*
X76816666Y-63211961D01*
X76816666Y-63211961D02*
X76864285Y-63116723D01*
X76864285Y-63116723D02*
X76911904Y-62926247D01*
X76911904Y-62926247D02*
X76911904Y-62783390D01*
X76911904Y-62783390D02*
X76864285Y-62592914D01*
X76864285Y-62592914D02*
X76816666Y-62497676D01*
X76816666Y-62497676D02*
X76721428Y-62402438D01*
X76721428Y-62402438D02*
X76578571Y-62354819D01*
X76578571Y-62354819D02*
X76483333Y-62354819D01*
X76483333Y-62354819D02*
X76340476Y-62402438D01*
X76340476Y-62402438D02*
X76292857Y-62450057D01*
X75911904Y-62450057D02*
X75864285Y-62402438D01*
X75864285Y-62402438D02*
X75769047Y-62354819D01*
X75769047Y-62354819D02*
X75530952Y-62354819D01*
X75530952Y-62354819D02*
X75435714Y-62402438D01*
X75435714Y-62402438D02*
X75388095Y-62450057D01*
X75388095Y-62450057D02*
X75340476Y-62545295D01*
X75340476Y-62545295D02*
X75340476Y-62640533D01*
X75340476Y-62640533D02*
X75388095Y-62783390D01*
X75388095Y-62783390D02*
X75959523Y-63354819D01*
X75959523Y-63354819D02*
X75340476Y-63354819D01*
X74388095Y-63354819D02*
X74959523Y-63354819D01*
X74673809Y-63354819D02*
X74673809Y-62354819D01*
X74673809Y-62354819D02*
X74769047Y-62497676D01*
X74769047Y-62497676D02*
X74864285Y-62592914D01*
X74864285Y-62592914D02*
X74959523Y-62640533D01*
X107166666Y-51559580D02*
X107214285Y-51607200D01*
X107214285Y-51607200D02*
X107357142Y-51654819D01*
X107357142Y-51654819D02*
X107452380Y-51654819D01*
X107452380Y-51654819D02*
X107595237Y-51607200D01*
X107595237Y-51607200D02*
X107690475Y-51511961D01*
X107690475Y-51511961D02*
X107738094Y-51416723D01*
X107738094Y-51416723D02*
X107785713Y-51226247D01*
X107785713Y-51226247D02*
X107785713Y-51083390D01*
X107785713Y-51083390D02*
X107738094Y-50892914D01*
X107738094Y-50892914D02*
X107690475Y-50797676D01*
X107690475Y-50797676D02*
X107595237Y-50702438D01*
X107595237Y-50702438D02*
X107452380Y-50654819D01*
X107452380Y-50654819D02*
X107357142Y-50654819D01*
X107357142Y-50654819D02*
X107214285Y-50702438D01*
X107214285Y-50702438D02*
X107166666Y-50750057D01*
X106214285Y-51654819D02*
X106785713Y-51654819D01*
X106499999Y-51654819D02*
X106499999Y-50654819D01*
X106499999Y-50654819D02*
X106595237Y-50797676D01*
X106595237Y-50797676D02*
X106690475Y-50892914D01*
X106690475Y-50892914D02*
X106785713Y-50940533D01*
X95429580Y-57357142D02*
X95477200Y-57309523D01*
X95477200Y-57309523D02*
X95524819Y-57166666D01*
X95524819Y-57166666D02*
X95524819Y-57071428D01*
X95524819Y-57071428D02*
X95477200Y-56928571D01*
X95477200Y-56928571D02*
X95381961Y-56833333D01*
X95381961Y-56833333D02*
X95286723Y-56785714D01*
X95286723Y-56785714D02*
X95096247Y-56738095D01*
X95096247Y-56738095D02*
X94953390Y-56738095D01*
X94953390Y-56738095D02*
X94762914Y-56785714D01*
X94762914Y-56785714D02*
X94667676Y-56833333D01*
X94667676Y-56833333D02*
X94572438Y-56928571D01*
X94572438Y-56928571D02*
X94524819Y-57071428D01*
X94524819Y-57071428D02*
X94524819Y-57166666D01*
X94524819Y-57166666D02*
X94572438Y-57309523D01*
X94572438Y-57309523D02*
X94620057Y-57357142D01*
X94620057Y-57738095D02*
X94572438Y-57785714D01*
X94572438Y-57785714D02*
X94524819Y-57880952D01*
X94524819Y-57880952D02*
X94524819Y-58119047D01*
X94524819Y-58119047D02*
X94572438Y-58214285D01*
X94572438Y-58214285D02*
X94620057Y-58261904D01*
X94620057Y-58261904D02*
X94715295Y-58309523D01*
X94715295Y-58309523D02*
X94810533Y-58309523D01*
X94810533Y-58309523D02*
X94953390Y-58261904D01*
X94953390Y-58261904D02*
X95524819Y-57690476D01*
X95524819Y-57690476D02*
X95524819Y-58309523D01*
X94620057Y-58690476D02*
X94572438Y-58738095D01*
X94572438Y-58738095D02*
X94524819Y-58833333D01*
X94524819Y-58833333D02*
X94524819Y-59071428D01*
X94524819Y-59071428D02*
X94572438Y-59166666D01*
X94572438Y-59166666D02*
X94620057Y-59214285D01*
X94620057Y-59214285D02*
X94715295Y-59261904D01*
X94715295Y-59261904D02*
X94810533Y-59261904D01*
X94810533Y-59261904D02*
X94953390Y-59214285D01*
X94953390Y-59214285D02*
X95524819Y-58642857D01*
X95524819Y-58642857D02*
X95524819Y-59261904D01*
X67230357Y-107459580D02*
X67277976Y-107507200D01*
X67277976Y-107507200D02*
X67420833Y-107554819D01*
X67420833Y-107554819D02*
X67516071Y-107554819D01*
X67516071Y-107554819D02*
X67658928Y-107507200D01*
X67658928Y-107507200D02*
X67754166Y-107411961D01*
X67754166Y-107411961D02*
X67801785Y-107316723D01*
X67801785Y-107316723D02*
X67849404Y-107126247D01*
X67849404Y-107126247D02*
X67849404Y-106983390D01*
X67849404Y-106983390D02*
X67801785Y-106792914D01*
X67801785Y-106792914D02*
X67754166Y-106697676D01*
X67754166Y-106697676D02*
X67658928Y-106602438D01*
X67658928Y-106602438D02*
X67516071Y-106554819D01*
X67516071Y-106554819D02*
X67420833Y-106554819D01*
X67420833Y-106554819D02*
X67277976Y-106602438D01*
X67277976Y-106602438D02*
X67230357Y-106650057D01*
X66277976Y-107554819D02*
X66849404Y-107554819D01*
X66563690Y-107554819D02*
X66563690Y-106554819D01*
X66563690Y-106554819D02*
X66658928Y-106697676D01*
X66658928Y-106697676D02*
X66754166Y-106792914D01*
X66754166Y-106792914D02*
X66849404Y-106840533D01*
X65325595Y-107554819D02*
X65897023Y-107554819D01*
X65611309Y-107554819D02*
X65611309Y-106554819D01*
X65611309Y-106554819D02*
X65706547Y-106697676D01*
X65706547Y-106697676D02*
X65801785Y-106792914D01*
X65801785Y-106792914D02*
X65897023Y-106840533D01*
X85642857Y-129559580D02*
X85690476Y-129607200D01*
X85690476Y-129607200D02*
X85833333Y-129654819D01*
X85833333Y-129654819D02*
X85928571Y-129654819D01*
X85928571Y-129654819D02*
X86071428Y-129607200D01*
X86071428Y-129607200D02*
X86166666Y-129511961D01*
X86166666Y-129511961D02*
X86214285Y-129416723D01*
X86214285Y-129416723D02*
X86261904Y-129226247D01*
X86261904Y-129226247D02*
X86261904Y-129083390D01*
X86261904Y-129083390D02*
X86214285Y-128892914D01*
X86214285Y-128892914D02*
X86166666Y-128797676D01*
X86166666Y-128797676D02*
X86071428Y-128702438D01*
X86071428Y-128702438D02*
X85928571Y-128654819D01*
X85928571Y-128654819D02*
X85833333Y-128654819D01*
X85833333Y-128654819D02*
X85690476Y-128702438D01*
X85690476Y-128702438D02*
X85642857Y-128750057D01*
X85309523Y-128654819D02*
X84690476Y-128654819D01*
X84690476Y-128654819D02*
X85023809Y-129035771D01*
X85023809Y-129035771D02*
X84880952Y-129035771D01*
X84880952Y-129035771D02*
X84785714Y-129083390D01*
X84785714Y-129083390D02*
X84738095Y-129131009D01*
X84738095Y-129131009D02*
X84690476Y-129226247D01*
X84690476Y-129226247D02*
X84690476Y-129464342D01*
X84690476Y-129464342D02*
X84738095Y-129559580D01*
X84738095Y-129559580D02*
X84785714Y-129607200D01*
X84785714Y-129607200D02*
X84880952Y-129654819D01*
X84880952Y-129654819D02*
X85166666Y-129654819D01*
X85166666Y-129654819D02*
X85261904Y-129607200D01*
X85261904Y-129607200D02*
X85309523Y-129559580D01*
X84309523Y-128750057D02*
X84261904Y-128702438D01*
X84261904Y-128702438D02*
X84166666Y-128654819D01*
X84166666Y-128654819D02*
X83928571Y-128654819D01*
X83928571Y-128654819D02*
X83833333Y-128702438D01*
X83833333Y-128702438D02*
X83785714Y-128750057D01*
X83785714Y-128750057D02*
X83738095Y-128845295D01*
X83738095Y-128845295D02*
X83738095Y-128940533D01*
X83738095Y-128940533D02*
X83785714Y-129083390D01*
X83785714Y-129083390D02*
X84357142Y-129654819D01*
X84357142Y-129654819D02*
X83738095Y-129654819D01*
X117666666Y-50259580D02*
X117714285Y-50307200D01*
X117714285Y-50307200D02*
X117857142Y-50354819D01*
X117857142Y-50354819D02*
X117952380Y-50354819D01*
X117952380Y-50354819D02*
X118095237Y-50307200D01*
X118095237Y-50307200D02*
X118190475Y-50211961D01*
X118190475Y-50211961D02*
X118238094Y-50116723D01*
X118238094Y-50116723D02*
X118285713Y-49926247D01*
X118285713Y-49926247D02*
X118285713Y-49783390D01*
X118285713Y-49783390D02*
X118238094Y-49592914D01*
X118238094Y-49592914D02*
X118190475Y-49497676D01*
X118190475Y-49497676D02*
X118095237Y-49402438D01*
X118095237Y-49402438D02*
X117952380Y-49354819D01*
X117952380Y-49354819D02*
X117857142Y-49354819D01*
X117857142Y-49354819D02*
X117714285Y-49402438D01*
X117714285Y-49402438D02*
X117666666Y-49450057D01*
X117190475Y-50354819D02*
X116999999Y-50354819D01*
X116999999Y-50354819D02*
X116904761Y-50307200D01*
X116904761Y-50307200D02*
X116857142Y-50259580D01*
X116857142Y-50259580D02*
X116761904Y-50116723D01*
X116761904Y-50116723D02*
X116714285Y-49926247D01*
X116714285Y-49926247D02*
X116714285Y-49545295D01*
X116714285Y-49545295D02*
X116761904Y-49450057D01*
X116761904Y-49450057D02*
X116809523Y-49402438D01*
X116809523Y-49402438D02*
X116904761Y-49354819D01*
X116904761Y-49354819D02*
X117095237Y-49354819D01*
X117095237Y-49354819D02*
X117190475Y-49402438D01*
X117190475Y-49402438D02*
X117238094Y-49450057D01*
X117238094Y-49450057D02*
X117285713Y-49545295D01*
X117285713Y-49545295D02*
X117285713Y-49783390D01*
X117285713Y-49783390D02*
X117238094Y-49878628D01*
X117238094Y-49878628D02*
X117190475Y-49926247D01*
X117190475Y-49926247D02*
X117095237Y-49973866D01*
X117095237Y-49973866D02*
X116904761Y-49973866D01*
X116904761Y-49973866D02*
X116809523Y-49926247D01*
X116809523Y-49926247D02*
X116761904Y-49878628D01*
X116761904Y-49878628D02*
X116714285Y-49783390D01*
X97442857Y-108454819D02*
X97776190Y-107978628D01*
X98014285Y-108454819D02*
X98014285Y-107454819D01*
X98014285Y-107454819D02*
X97633333Y-107454819D01*
X97633333Y-107454819D02*
X97538095Y-107502438D01*
X97538095Y-107502438D02*
X97490476Y-107550057D01*
X97490476Y-107550057D02*
X97442857Y-107645295D01*
X97442857Y-107645295D02*
X97442857Y-107788152D01*
X97442857Y-107788152D02*
X97490476Y-107883390D01*
X97490476Y-107883390D02*
X97538095Y-107931009D01*
X97538095Y-107931009D02*
X97633333Y-107978628D01*
X97633333Y-107978628D02*
X98014285Y-107978628D01*
X97061904Y-107550057D02*
X97014285Y-107502438D01*
X97014285Y-107502438D02*
X96919047Y-107454819D01*
X96919047Y-107454819D02*
X96680952Y-107454819D01*
X96680952Y-107454819D02*
X96585714Y-107502438D01*
X96585714Y-107502438D02*
X96538095Y-107550057D01*
X96538095Y-107550057D02*
X96490476Y-107645295D01*
X96490476Y-107645295D02*
X96490476Y-107740533D01*
X96490476Y-107740533D02*
X96538095Y-107883390D01*
X96538095Y-107883390D02*
X97109523Y-108454819D01*
X97109523Y-108454819D02*
X96490476Y-108454819D01*
X95585714Y-107454819D02*
X96061904Y-107454819D01*
X96061904Y-107454819D02*
X96109523Y-107931009D01*
X96109523Y-107931009D02*
X96061904Y-107883390D01*
X96061904Y-107883390D02*
X95966666Y-107835771D01*
X95966666Y-107835771D02*
X95728571Y-107835771D01*
X95728571Y-107835771D02*
X95633333Y-107883390D01*
X95633333Y-107883390D02*
X95585714Y-107931009D01*
X95585714Y-107931009D02*
X95538095Y-108026247D01*
X95538095Y-108026247D02*
X95538095Y-108264342D01*
X95538095Y-108264342D02*
X95585714Y-108359580D01*
X95585714Y-108359580D02*
X95633333Y-108407200D01*
X95633333Y-108407200D02*
X95728571Y-108454819D01*
X95728571Y-108454819D02*
X95966666Y-108454819D01*
X95966666Y-108454819D02*
X96061904Y-108407200D01*
X96061904Y-108407200D02*
X96109523Y-108359580D01*
X83359580Y-79757142D02*
X83407200Y-79709523D01*
X83407200Y-79709523D02*
X83454819Y-79566666D01*
X83454819Y-79566666D02*
X83454819Y-79471428D01*
X83454819Y-79471428D02*
X83407200Y-79328571D01*
X83407200Y-79328571D02*
X83311961Y-79233333D01*
X83311961Y-79233333D02*
X83216723Y-79185714D01*
X83216723Y-79185714D02*
X83026247Y-79138095D01*
X83026247Y-79138095D02*
X82883390Y-79138095D01*
X82883390Y-79138095D02*
X82692914Y-79185714D01*
X82692914Y-79185714D02*
X82597676Y-79233333D01*
X82597676Y-79233333D02*
X82502438Y-79328571D01*
X82502438Y-79328571D02*
X82454819Y-79471428D01*
X82454819Y-79471428D02*
X82454819Y-79566666D01*
X82454819Y-79566666D02*
X82502438Y-79709523D01*
X82502438Y-79709523D02*
X82550057Y-79757142D01*
X82550057Y-80138095D02*
X82502438Y-80185714D01*
X82502438Y-80185714D02*
X82454819Y-80280952D01*
X82454819Y-80280952D02*
X82454819Y-80519047D01*
X82454819Y-80519047D02*
X82502438Y-80614285D01*
X82502438Y-80614285D02*
X82550057Y-80661904D01*
X82550057Y-80661904D02*
X82645295Y-80709523D01*
X82645295Y-80709523D02*
X82740533Y-80709523D01*
X82740533Y-80709523D02*
X82883390Y-80661904D01*
X82883390Y-80661904D02*
X83454819Y-80090476D01*
X83454819Y-80090476D02*
X83454819Y-80709523D01*
X82454819Y-81328571D02*
X82454819Y-81423809D01*
X82454819Y-81423809D02*
X82502438Y-81519047D01*
X82502438Y-81519047D02*
X82550057Y-81566666D01*
X82550057Y-81566666D02*
X82645295Y-81614285D01*
X82645295Y-81614285D02*
X82835771Y-81661904D01*
X82835771Y-81661904D02*
X83073866Y-81661904D01*
X83073866Y-81661904D02*
X83264342Y-81614285D01*
X83264342Y-81614285D02*
X83359580Y-81566666D01*
X83359580Y-81566666D02*
X83407200Y-81519047D01*
X83407200Y-81519047D02*
X83454819Y-81423809D01*
X83454819Y-81423809D02*
X83454819Y-81328571D01*
X83454819Y-81328571D02*
X83407200Y-81233333D01*
X83407200Y-81233333D02*
X83359580Y-81185714D01*
X83359580Y-81185714D02*
X83264342Y-81138095D01*
X83264342Y-81138095D02*
X83073866Y-81090476D01*
X83073866Y-81090476D02*
X82835771Y-81090476D01*
X82835771Y-81090476D02*
X82645295Y-81138095D01*
X82645295Y-81138095D02*
X82550057Y-81185714D01*
X82550057Y-81185714D02*
X82502438Y-81233333D01*
X82502438Y-81233333D02*
X82454819Y-81328571D01*
X76242857Y-70954819D02*
X76576190Y-70478628D01*
X76814285Y-70954819D02*
X76814285Y-69954819D01*
X76814285Y-69954819D02*
X76433333Y-69954819D01*
X76433333Y-69954819D02*
X76338095Y-70002438D01*
X76338095Y-70002438D02*
X76290476Y-70050057D01*
X76290476Y-70050057D02*
X76242857Y-70145295D01*
X76242857Y-70145295D02*
X76242857Y-70288152D01*
X76242857Y-70288152D02*
X76290476Y-70383390D01*
X76290476Y-70383390D02*
X76338095Y-70431009D01*
X76338095Y-70431009D02*
X76433333Y-70478628D01*
X76433333Y-70478628D02*
X76814285Y-70478628D01*
X75909523Y-69954819D02*
X75290476Y-69954819D01*
X75290476Y-69954819D02*
X75623809Y-70335771D01*
X75623809Y-70335771D02*
X75480952Y-70335771D01*
X75480952Y-70335771D02*
X75385714Y-70383390D01*
X75385714Y-70383390D02*
X75338095Y-70431009D01*
X75338095Y-70431009D02*
X75290476Y-70526247D01*
X75290476Y-70526247D02*
X75290476Y-70764342D01*
X75290476Y-70764342D02*
X75338095Y-70859580D01*
X75338095Y-70859580D02*
X75385714Y-70907200D01*
X75385714Y-70907200D02*
X75480952Y-70954819D01*
X75480952Y-70954819D02*
X75766666Y-70954819D01*
X75766666Y-70954819D02*
X75861904Y-70907200D01*
X75861904Y-70907200D02*
X75909523Y-70859580D01*
X74671428Y-69954819D02*
X74576190Y-69954819D01*
X74576190Y-69954819D02*
X74480952Y-70002438D01*
X74480952Y-70002438D02*
X74433333Y-70050057D01*
X74433333Y-70050057D02*
X74385714Y-70145295D01*
X74385714Y-70145295D02*
X74338095Y-70335771D01*
X74338095Y-70335771D02*
X74338095Y-70573866D01*
X74338095Y-70573866D02*
X74385714Y-70764342D01*
X74385714Y-70764342D02*
X74433333Y-70859580D01*
X74433333Y-70859580D02*
X74480952Y-70907200D01*
X74480952Y-70907200D02*
X74576190Y-70954819D01*
X74576190Y-70954819D02*
X74671428Y-70954819D01*
X74671428Y-70954819D02*
X74766666Y-70907200D01*
X74766666Y-70907200D02*
X74814285Y-70859580D01*
X74814285Y-70859580D02*
X74861904Y-70764342D01*
X74861904Y-70764342D02*
X74909523Y-70573866D01*
X74909523Y-70573866D02*
X74909523Y-70335771D01*
X74909523Y-70335771D02*
X74861904Y-70145295D01*
X74861904Y-70145295D02*
X74814285Y-70050057D01*
X74814285Y-70050057D02*
X74766666Y-70002438D01*
X74766666Y-70002438D02*
X74671428Y-69954819D01*
X67666666Y-124854819D02*
X67999999Y-124378628D01*
X68238094Y-124854819D02*
X68238094Y-123854819D01*
X68238094Y-123854819D02*
X67857142Y-123854819D01*
X67857142Y-123854819D02*
X67761904Y-123902438D01*
X67761904Y-123902438D02*
X67714285Y-123950057D01*
X67714285Y-123950057D02*
X67666666Y-124045295D01*
X67666666Y-124045295D02*
X67666666Y-124188152D01*
X67666666Y-124188152D02*
X67714285Y-124283390D01*
X67714285Y-124283390D02*
X67761904Y-124331009D01*
X67761904Y-124331009D02*
X67857142Y-124378628D01*
X67857142Y-124378628D02*
X68238094Y-124378628D01*
X67333332Y-123854819D02*
X66714285Y-123854819D01*
X66714285Y-123854819D02*
X67047618Y-124235771D01*
X67047618Y-124235771D02*
X66904761Y-124235771D01*
X66904761Y-124235771D02*
X66809523Y-124283390D01*
X66809523Y-124283390D02*
X66761904Y-124331009D01*
X66761904Y-124331009D02*
X66714285Y-124426247D01*
X66714285Y-124426247D02*
X66714285Y-124664342D01*
X66714285Y-124664342D02*
X66761904Y-124759580D01*
X66761904Y-124759580D02*
X66809523Y-124807200D01*
X66809523Y-124807200D02*
X66904761Y-124854819D01*
X66904761Y-124854819D02*
X67190475Y-124854819D01*
X67190475Y-124854819D02*
X67285713Y-124807200D01*
X67285713Y-124807200D02*
X67333332Y-124759580D01*
X67642857Y-129459580D02*
X67690476Y-129507200D01*
X67690476Y-129507200D02*
X67833333Y-129554819D01*
X67833333Y-129554819D02*
X67928571Y-129554819D01*
X67928571Y-129554819D02*
X68071428Y-129507200D01*
X68071428Y-129507200D02*
X68166666Y-129411961D01*
X68166666Y-129411961D02*
X68214285Y-129316723D01*
X68214285Y-129316723D02*
X68261904Y-129126247D01*
X68261904Y-129126247D02*
X68261904Y-128983390D01*
X68261904Y-128983390D02*
X68214285Y-128792914D01*
X68214285Y-128792914D02*
X68166666Y-128697676D01*
X68166666Y-128697676D02*
X68071428Y-128602438D01*
X68071428Y-128602438D02*
X67928571Y-128554819D01*
X67928571Y-128554819D02*
X67833333Y-128554819D01*
X67833333Y-128554819D02*
X67690476Y-128602438D01*
X67690476Y-128602438D02*
X67642857Y-128650057D01*
X67309523Y-128554819D02*
X66690476Y-128554819D01*
X66690476Y-128554819D02*
X67023809Y-128935771D01*
X67023809Y-128935771D02*
X66880952Y-128935771D01*
X66880952Y-128935771D02*
X66785714Y-128983390D01*
X66785714Y-128983390D02*
X66738095Y-129031009D01*
X66738095Y-129031009D02*
X66690476Y-129126247D01*
X66690476Y-129126247D02*
X66690476Y-129364342D01*
X66690476Y-129364342D02*
X66738095Y-129459580D01*
X66738095Y-129459580D02*
X66785714Y-129507200D01*
X66785714Y-129507200D02*
X66880952Y-129554819D01*
X66880952Y-129554819D02*
X67166666Y-129554819D01*
X67166666Y-129554819D02*
X67261904Y-129507200D01*
X67261904Y-129507200D02*
X67309523Y-129459580D01*
X65738095Y-129554819D02*
X66309523Y-129554819D01*
X66023809Y-129554819D02*
X66023809Y-128554819D01*
X66023809Y-128554819D02*
X66119047Y-128697676D01*
X66119047Y-128697676D02*
X66214285Y-128792914D01*
X66214285Y-128792914D02*
X66309523Y-128840533D01*
X74166666Y-51559580D02*
X74214285Y-51607200D01*
X74214285Y-51607200D02*
X74357142Y-51654819D01*
X74357142Y-51654819D02*
X74452380Y-51654819D01*
X74452380Y-51654819D02*
X74595237Y-51607200D01*
X74595237Y-51607200D02*
X74690475Y-51511961D01*
X74690475Y-51511961D02*
X74738094Y-51416723D01*
X74738094Y-51416723D02*
X74785713Y-51226247D01*
X74785713Y-51226247D02*
X74785713Y-51083390D01*
X74785713Y-51083390D02*
X74738094Y-50892914D01*
X74738094Y-50892914D02*
X74690475Y-50797676D01*
X74690475Y-50797676D02*
X74595237Y-50702438D01*
X74595237Y-50702438D02*
X74452380Y-50654819D01*
X74452380Y-50654819D02*
X74357142Y-50654819D01*
X74357142Y-50654819D02*
X74214285Y-50702438D01*
X74214285Y-50702438D02*
X74166666Y-50750057D01*
X73785713Y-50750057D02*
X73738094Y-50702438D01*
X73738094Y-50702438D02*
X73642856Y-50654819D01*
X73642856Y-50654819D02*
X73404761Y-50654819D01*
X73404761Y-50654819D02*
X73309523Y-50702438D01*
X73309523Y-50702438D02*
X73261904Y-50750057D01*
X73261904Y-50750057D02*
X73214285Y-50845295D01*
X73214285Y-50845295D02*
X73214285Y-50940533D01*
X73214285Y-50940533D02*
X73261904Y-51083390D01*
X73261904Y-51083390D02*
X73833332Y-51654819D01*
X73833332Y-51654819D02*
X73214285Y-51654819D01*
X105578628Y-68723809D02*
X106054819Y-68723809D01*
X105054819Y-68390476D02*
X105578628Y-68723809D01*
X105578628Y-68723809D02*
X105054819Y-69057142D01*
X106054819Y-69914285D02*
X106054819Y-69342857D01*
X106054819Y-69628571D02*
X105054819Y-69628571D01*
X105054819Y-69628571D02*
X105197676Y-69533333D01*
X105197676Y-69533333D02*
X105292914Y-69438095D01*
X105292914Y-69438095D02*
X105340533Y-69342857D01*
X84666666Y-126354819D02*
X84999999Y-125878628D01*
X85238094Y-126354819D02*
X85238094Y-125354819D01*
X85238094Y-125354819D02*
X84857142Y-125354819D01*
X84857142Y-125354819D02*
X84761904Y-125402438D01*
X84761904Y-125402438D02*
X84714285Y-125450057D01*
X84714285Y-125450057D02*
X84666666Y-125545295D01*
X84666666Y-125545295D02*
X84666666Y-125688152D01*
X84666666Y-125688152D02*
X84714285Y-125783390D01*
X84714285Y-125783390D02*
X84761904Y-125831009D01*
X84761904Y-125831009D02*
X84857142Y-125878628D01*
X84857142Y-125878628D02*
X85238094Y-125878628D01*
X83809523Y-125354819D02*
X83999999Y-125354819D01*
X83999999Y-125354819D02*
X84095237Y-125402438D01*
X84095237Y-125402438D02*
X84142856Y-125450057D01*
X84142856Y-125450057D02*
X84238094Y-125592914D01*
X84238094Y-125592914D02*
X84285713Y-125783390D01*
X84285713Y-125783390D02*
X84285713Y-126164342D01*
X84285713Y-126164342D02*
X84238094Y-126259580D01*
X84238094Y-126259580D02*
X84190475Y-126307200D01*
X84190475Y-126307200D02*
X84095237Y-126354819D01*
X84095237Y-126354819D02*
X83904761Y-126354819D01*
X83904761Y-126354819D02*
X83809523Y-126307200D01*
X83809523Y-126307200D02*
X83761904Y-126259580D01*
X83761904Y-126259580D02*
X83714285Y-126164342D01*
X83714285Y-126164342D02*
X83714285Y-125926247D01*
X83714285Y-125926247D02*
X83761904Y-125831009D01*
X83761904Y-125831009D02*
X83809523Y-125783390D01*
X83809523Y-125783390D02*
X83904761Y-125735771D01*
X83904761Y-125735771D02*
X84095237Y-125735771D01*
X84095237Y-125735771D02*
X84190475Y-125783390D01*
X84190475Y-125783390D02*
X84238094Y-125831009D01*
X84238094Y-125831009D02*
X84285713Y-125926247D01*
X110954819Y-46288095D02*
X111764342Y-46288095D01*
X111764342Y-46288095D02*
X111859580Y-46335714D01*
X111859580Y-46335714D02*
X111907200Y-46383333D01*
X111907200Y-46383333D02*
X111954819Y-46478571D01*
X111954819Y-46478571D02*
X111954819Y-46669047D01*
X111954819Y-46669047D02*
X111907200Y-46764285D01*
X111907200Y-46764285D02*
X111859580Y-46811904D01*
X111859580Y-46811904D02*
X111764342Y-46859523D01*
X111764342Y-46859523D02*
X110954819Y-46859523D01*
X110954819Y-47240476D02*
X110954819Y-47859523D01*
X110954819Y-47859523D02*
X111335771Y-47526190D01*
X111335771Y-47526190D02*
X111335771Y-47669047D01*
X111335771Y-47669047D02*
X111383390Y-47764285D01*
X111383390Y-47764285D02*
X111431009Y-47811904D01*
X111431009Y-47811904D02*
X111526247Y-47859523D01*
X111526247Y-47859523D02*
X111764342Y-47859523D01*
X111764342Y-47859523D02*
X111859580Y-47811904D01*
X111859580Y-47811904D02*
X111907200Y-47764285D01*
X111907200Y-47764285D02*
X111954819Y-47669047D01*
X111954819Y-47669047D02*
X111954819Y-47383333D01*
X111954819Y-47383333D02*
X111907200Y-47288095D01*
X111907200Y-47288095D02*
X111859580Y-47240476D01*
X67130357Y-105859580D02*
X67177976Y-105907200D01*
X67177976Y-105907200D02*
X67320833Y-105954819D01*
X67320833Y-105954819D02*
X67416071Y-105954819D01*
X67416071Y-105954819D02*
X67558928Y-105907200D01*
X67558928Y-105907200D02*
X67654166Y-105811961D01*
X67654166Y-105811961D02*
X67701785Y-105716723D01*
X67701785Y-105716723D02*
X67749404Y-105526247D01*
X67749404Y-105526247D02*
X67749404Y-105383390D01*
X67749404Y-105383390D02*
X67701785Y-105192914D01*
X67701785Y-105192914D02*
X67654166Y-105097676D01*
X67654166Y-105097676D02*
X67558928Y-105002438D01*
X67558928Y-105002438D02*
X67416071Y-104954819D01*
X67416071Y-104954819D02*
X67320833Y-104954819D01*
X67320833Y-104954819D02*
X67177976Y-105002438D01*
X67177976Y-105002438D02*
X67130357Y-105050057D01*
X66177976Y-105954819D02*
X66749404Y-105954819D01*
X66463690Y-105954819D02*
X66463690Y-104954819D01*
X66463690Y-104954819D02*
X66558928Y-105097676D01*
X66558928Y-105097676D02*
X66654166Y-105192914D01*
X66654166Y-105192914D02*
X66749404Y-105240533D01*
X65797023Y-105050057D02*
X65749404Y-105002438D01*
X65749404Y-105002438D02*
X65654166Y-104954819D01*
X65654166Y-104954819D02*
X65416071Y-104954819D01*
X65416071Y-104954819D02*
X65320833Y-105002438D01*
X65320833Y-105002438D02*
X65273214Y-105050057D01*
X65273214Y-105050057D02*
X65225595Y-105145295D01*
X65225595Y-105145295D02*
X65225595Y-105240533D01*
X65225595Y-105240533D02*
X65273214Y-105383390D01*
X65273214Y-105383390D02*
X65844642Y-105954819D01*
X65844642Y-105954819D02*
X65225595Y-105954819D01*
X91261904Y-85829819D02*
X91261904Y-86639342D01*
X91261904Y-86639342D02*
X91214285Y-86734580D01*
X91214285Y-86734580D02*
X91166666Y-86782200D01*
X91166666Y-86782200D02*
X91071428Y-86829819D01*
X91071428Y-86829819D02*
X90880952Y-86829819D01*
X90880952Y-86829819D02*
X90785714Y-86782200D01*
X90785714Y-86782200D02*
X90738095Y-86734580D01*
X90738095Y-86734580D02*
X90690476Y-86639342D01*
X90690476Y-86639342D02*
X90690476Y-85829819D01*
X89785714Y-85829819D02*
X89976190Y-85829819D01*
X89976190Y-85829819D02*
X90071428Y-85877438D01*
X90071428Y-85877438D02*
X90119047Y-85925057D01*
X90119047Y-85925057D02*
X90214285Y-86067914D01*
X90214285Y-86067914D02*
X90261904Y-86258390D01*
X90261904Y-86258390D02*
X90261904Y-86639342D01*
X90261904Y-86639342D02*
X90214285Y-86734580D01*
X90214285Y-86734580D02*
X90166666Y-86782200D01*
X90166666Y-86782200D02*
X90071428Y-86829819D01*
X90071428Y-86829819D02*
X89880952Y-86829819D01*
X89880952Y-86829819D02*
X89785714Y-86782200D01*
X89785714Y-86782200D02*
X89738095Y-86734580D01*
X89738095Y-86734580D02*
X89690476Y-86639342D01*
X89690476Y-86639342D02*
X89690476Y-86401247D01*
X89690476Y-86401247D02*
X89738095Y-86306009D01*
X89738095Y-86306009D02*
X89785714Y-86258390D01*
X89785714Y-86258390D02*
X89880952Y-86210771D01*
X89880952Y-86210771D02*
X90071428Y-86210771D01*
X90071428Y-86210771D02*
X90166666Y-86258390D01*
X90166666Y-86258390D02*
X90214285Y-86306009D01*
X90214285Y-86306009D02*
X90261904Y-86401247D01*
X84666666Y-124754819D02*
X84999999Y-124278628D01*
X85238094Y-124754819D02*
X85238094Y-123754819D01*
X85238094Y-123754819D02*
X84857142Y-123754819D01*
X84857142Y-123754819D02*
X84761904Y-123802438D01*
X84761904Y-123802438D02*
X84714285Y-123850057D01*
X84714285Y-123850057D02*
X84666666Y-123945295D01*
X84666666Y-123945295D02*
X84666666Y-124088152D01*
X84666666Y-124088152D02*
X84714285Y-124183390D01*
X84714285Y-124183390D02*
X84761904Y-124231009D01*
X84761904Y-124231009D02*
X84857142Y-124278628D01*
X84857142Y-124278628D02*
X85238094Y-124278628D01*
X83809523Y-124088152D02*
X83809523Y-124754819D01*
X84047618Y-123707200D02*
X84285713Y-124421485D01*
X84285713Y-124421485D02*
X83666666Y-124421485D01*
X97342857Y-120554819D02*
X97676190Y-120078628D01*
X97914285Y-120554819D02*
X97914285Y-119554819D01*
X97914285Y-119554819D02*
X97533333Y-119554819D01*
X97533333Y-119554819D02*
X97438095Y-119602438D01*
X97438095Y-119602438D02*
X97390476Y-119650057D01*
X97390476Y-119650057D02*
X97342857Y-119745295D01*
X97342857Y-119745295D02*
X97342857Y-119888152D01*
X97342857Y-119888152D02*
X97390476Y-119983390D01*
X97390476Y-119983390D02*
X97438095Y-120031009D01*
X97438095Y-120031009D02*
X97533333Y-120078628D01*
X97533333Y-120078628D02*
X97914285Y-120078628D01*
X96390476Y-120554819D02*
X96961904Y-120554819D01*
X96676190Y-120554819D02*
X96676190Y-119554819D01*
X96676190Y-119554819D02*
X96771428Y-119697676D01*
X96771428Y-119697676D02*
X96866666Y-119792914D01*
X96866666Y-119792914D02*
X96961904Y-119840533D01*
X95533333Y-119888152D02*
X95533333Y-120554819D01*
X95771428Y-119507200D02*
X96009523Y-120221485D01*
X96009523Y-120221485D02*
X95390476Y-120221485D01*
X111566666Y-41954819D02*
X111899999Y-41478628D01*
X112138094Y-41954819D02*
X112138094Y-40954819D01*
X112138094Y-40954819D02*
X111757142Y-40954819D01*
X111757142Y-40954819D02*
X111661904Y-41002438D01*
X111661904Y-41002438D02*
X111614285Y-41050057D01*
X111614285Y-41050057D02*
X111566666Y-41145295D01*
X111566666Y-41145295D02*
X111566666Y-41288152D01*
X111566666Y-41288152D02*
X111614285Y-41383390D01*
X111614285Y-41383390D02*
X111661904Y-41431009D01*
X111661904Y-41431009D02*
X111757142Y-41478628D01*
X111757142Y-41478628D02*
X112138094Y-41478628D01*
X110614285Y-41954819D02*
X111185713Y-41954819D01*
X110899999Y-41954819D02*
X110899999Y-40954819D01*
X110899999Y-40954819D02*
X110995237Y-41097676D01*
X110995237Y-41097676D02*
X111090475Y-41192914D01*
X111090475Y-41192914D02*
X111185713Y-41240533D01*
X97442857Y-124754819D02*
X97776190Y-124278628D01*
X98014285Y-124754819D02*
X98014285Y-123754819D01*
X98014285Y-123754819D02*
X97633333Y-123754819D01*
X97633333Y-123754819D02*
X97538095Y-123802438D01*
X97538095Y-123802438D02*
X97490476Y-123850057D01*
X97490476Y-123850057D02*
X97442857Y-123945295D01*
X97442857Y-123945295D02*
X97442857Y-124088152D01*
X97442857Y-124088152D02*
X97490476Y-124183390D01*
X97490476Y-124183390D02*
X97538095Y-124231009D01*
X97538095Y-124231009D02*
X97633333Y-124278628D01*
X97633333Y-124278628D02*
X98014285Y-124278628D01*
X97061904Y-123850057D02*
X97014285Y-123802438D01*
X97014285Y-123802438D02*
X96919047Y-123754819D01*
X96919047Y-123754819D02*
X96680952Y-123754819D01*
X96680952Y-123754819D02*
X96585714Y-123802438D01*
X96585714Y-123802438D02*
X96538095Y-123850057D01*
X96538095Y-123850057D02*
X96490476Y-123945295D01*
X96490476Y-123945295D02*
X96490476Y-124040533D01*
X96490476Y-124040533D02*
X96538095Y-124183390D01*
X96538095Y-124183390D02*
X97109523Y-124754819D01*
X97109523Y-124754819D02*
X96490476Y-124754819D01*
X96157142Y-123754819D02*
X95538095Y-123754819D01*
X95538095Y-123754819D02*
X95871428Y-124135771D01*
X95871428Y-124135771D02*
X95728571Y-124135771D01*
X95728571Y-124135771D02*
X95633333Y-124183390D01*
X95633333Y-124183390D02*
X95585714Y-124231009D01*
X95585714Y-124231009D02*
X95538095Y-124326247D01*
X95538095Y-124326247D02*
X95538095Y-124564342D01*
X95538095Y-124564342D02*
X95585714Y-124659580D01*
X95585714Y-124659580D02*
X95633333Y-124707200D01*
X95633333Y-124707200D02*
X95728571Y-124754819D01*
X95728571Y-124754819D02*
X96014285Y-124754819D01*
X96014285Y-124754819D02*
X96109523Y-124707200D01*
X96109523Y-124707200D02*
X96157142Y-124659580D01*
X84491666Y-131319819D02*
X84824999Y-130843628D01*
X85063094Y-131319819D02*
X85063094Y-130319819D01*
X85063094Y-130319819D02*
X84682142Y-130319819D01*
X84682142Y-130319819D02*
X84586904Y-130367438D01*
X84586904Y-130367438D02*
X84539285Y-130415057D01*
X84539285Y-130415057D02*
X84491666Y-130510295D01*
X84491666Y-130510295D02*
X84491666Y-130653152D01*
X84491666Y-130653152D02*
X84539285Y-130748390D01*
X84539285Y-130748390D02*
X84586904Y-130796009D01*
X84586904Y-130796009D02*
X84682142Y-130843628D01*
X84682142Y-130843628D02*
X85063094Y-130843628D01*
X83920237Y-130748390D02*
X84015475Y-130700771D01*
X84015475Y-130700771D02*
X84063094Y-130653152D01*
X84063094Y-130653152D02*
X84110713Y-130557914D01*
X84110713Y-130557914D02*
X84110713Y-130510295D01*
X84110713Y-130510295D02*
X84063094Y-130415057D01*
X84063094Y-130415057D02*
X84015475Y-130367438D01*
X84015475Y-130367438D02*
X83920237Y-130319819D01*
X83920237Y-130319819D02*
X83729761Y-130319819D01*
X83729761Y-130319819D02*
X83634523Y-130367438D01*
X83634523Y-130367438D02*
X83586904Y-130415057D01*
X83586904Y-130415057D02*
X83539285Y-130510295D01*
X83539285Y-130510295D02*
X83539285Y-130557914D01*
X83539285Y-130557914D02*
X83586904Y-130653152D01*
X83586904Y-130653152D02*
X83634523Y-130700771D01*
X83634523Y-130700771D02*
X83729761Y-130748390D01*
X83729761Y-130748390D02*
X83920237Y-130748390D01*
X83920237Y-130748390D02*
X84015475Y-130796009D01*
X84015475Y-130796009D02*
X84063094Y-130843628D01*
X84063094Y-130843628D02*
X84110713Y-130938866D01*
X84110713Y-130938866D02*
X84110713Y-131129342D01*
X84110713Y-131129342D02*
X84063094Y-131224580D01*
X84063094Y-131224580D02*
X84015475Y-131272200D01*
X84015475Y-131272200D02*
X83920237Y-131319819D01*
X83920237Y-131319819D02*
X83729761Y-131319819D01*
X83729761Y-131319819D02*
X83634523Y-131272200D01*
X83634523Y-131272200D02*
X83586904Y-131224580D01*
X83586904Y-131224580D02*
X83539285Y-131129342D01*
X83539285Y-131129342D02*
X83539285Y-130938866D01*
X83539285Y-130938866D02*
X83586904Y-130843628D01*
X83586904Y-130843628D02*
X83634523Y-130796009D01*
X83634523Y-130796009D02*
X83729761Y-130748390D01*
X97442857Y-126354819D02*
X97776190Y-125878628D01*
X98014285Y-126354819D02*
X98014285Y-125354819D01*
X98014285Y-125354819D02*
X97633333Y-125354819D01*
X97633333Y-125354819D02*
X97538095Y-125402438D01*
X97538095Y-125402438D02*
X97490476Y-125450057D01*
X97490476Y-125450057D02*
X97442857Y-125545295D01*
X97442857Y-125545295D02*
X97442857Y-125688152D01*
X97442857Y-125688152D02*
X97490476Y-125783390D01*
X97490476Y-125783390D02*
X97538095Y-125831009D01*
X97538095Y-125831009D02*
X97633333Y-125878628D01*
X97633333Y-125878628D02*
X98014285Y-125878628D01*
X97061904Y-125450057D02*
X97014285Y-125402438D01*
X97014285Y-125402438D02*
X96919047Y-125354819D01*
X96919047Y-125354819D02*
X96680952Y-125354819D01*
X96680952Y-125354819D02*
X96585714Y-125402438D01*
X96585714Y-125402438D02*
X96538095Y-125450057D01*
X96538095Y-125450057D02*
X96490476Y-125545295D01*
X96490476Y-125545295D02*
X96490476Y-125640533D01*
X96490476Y-125640533D02*
X96538095Y-125783390D01*
X96538095Y-125783390D02*
X97109523Y-126354819D01*
X97109523Y-126354819D02*
X96490476Y-126354819D01*
X95633333Y-125688152D02*
X95633333Y-126354819D01*
X95871428Y-125307200D02*
X96109523Y-126021485D01*
X96109523Y-126021485D02*
X95490476Y-126021485D01*
X115642857Y-113354819D02*
X115976190Y-112878628D01*
X116214285Y-113354819D02*
X116214285Y-112354819D01*
X116214285Y-112354819D02*
X115833333Y-112354819D01*
X115833333Y-112354819D02*
X115738095Y-112402438D01*
X115738095Y-112402438D02*
X115690476Y-112450057D01*
X115690476Y-112450057D02*
X115642857Y-112545295D01*
X115642857Y-112545295D02*
X115642857Y-112688152D01*
X115642857Y-112688152D02*
X115690476Y-112783390D01*
X115690476Y-112783390D02*
X115738095Y-112831009D01*
X115738095Y-112831009D02*
X115833333Y-112878628D01*
X115833333Y-112878628D02*
X116214285Y-112878628D01*
X115261904Y-112450057D02*
X115214285Y-112402438D01*
X115214285Y-112402438D02*
X115119047Y-112354819D01*
X115119047Y-112354819D02*
X114880952Y-112354819D01*
X114880952Y-112354819D02*
X114785714Y-112402438D01*
X114785714Y-112402438D02*
X114738095Y-112450057D01*
X114738095Y-112450057D02*
X114690476Y-112545295D01*
X114690476Y-112545295D02*
X114690476Y-112640533D01*
X114690476Y-112640533D02*
X114738095Y-112783390D01*
X114738095Y-112783390D02*
X115309523Y-113354819D01*
X115309523Y-113354819D02*
X114690476Y-113354819D01*
X114071428Y-112354819D02*
X113976190Y-112354819D01*
X113976190Y-112354819D02*
X113880952Y-112402438D01*
X113880952Y-112402438D02*
X113833333Y-112450057D01*
X113833333Y-112450057D02*
X113785714Y-112545295D01*
X113785714Y-112545295D02*
X113738095Y-112735771D01*
X113738095Y-112735771D02*
X113738095Y-112973866D01*
X113738095Y-112973866D02*
X113785714Y-113164342D01*
X113785714Y-113164342D02*
X113833333Y-113259580D01*
X113833333Y-113259580D02*
X113880952Y-113307200D01*
X113880952Y-113307200D02*
X113976190Y-113354819D01*
X113976190Y-113354819D02*
X114071428Y-113354819D01*
X114071428Y-113354819D02*
X114166666Y-113307200D01*
X114166666Y-113307200D02*
X114214285Y-113259580D01*
X114214285Y-113259580D02*
X114261904Y-113164342D01*
X114261904Y-113164342D02*
X114309523Y-112973866D01*
X114309523Y-112973866D02*
X114309523Y-112735771D01*
X114309523Y-112735771D02*
X114261904Y-112545295D01*
X114261904Y-112545295D02*
X114214285Y-112450057D01*
X114214285Y-112450057D02*
X114166666Y-112402438D01*
X114166666Y-112402438D02*
X114071428Y-112354819D01*
X107738094Y-40554819D02*
X107738094Y-39554819D01*
X107738094Y-39554819D02*
X107499999Y-39554819D01*
X107499999Y-39554819D02*
X107357142Y-39602438D01*
X107357142Y-39602438D02*
X107261904Y-39697676D01*
X107261904Y-39697676D02*
X107214285Y-39792914D01*
X107214285Y-39792914D02*
X107166666Y-39983390D01*
X107166666Y-39983390D02*
X107166666Y-40126247D01*
X107166666Y-40126247D02*
X107214285Y-40316723D01*
X107214285Y-40316723D02*
X107261904Y-40411961D01*
X107261904Y-40411961D02*
X107357142Y-40507200D01*
X107357142Y-40507200D02*
X107499999Y-40554819D01*
X107499999Y-40554819D02*
X107738094Y-40554819D01*
X106214285Y-40554819D02*
X106785713Y-40554819D01*
X106499999Y-40554819D02*
X106499999Y-39554819D01*
X106499999Y-39554819D02*
X106595237Y-39697676D01*
X106595237Y-39697676D02*
X106690475Y-39792914D01*
X106690475Y-39792914D02*
X106785713Y-39840533D01*
X76761904Y-122654819D02*
X76761904Y-123464342D01*
X76761904Y-123464342D02*
X76714285Y-123559580D01*
X76714285Y-123559580D02*
X76666666Y-123607200D01*
X76666666Y-123607200D02*
X76571428Y-123654819D01*
X76571428Y-123654819D02*
X76380952Y-123654819D01*
X76380952Y-123654819D02*
X76285714Y-123607200D01*
X76285714Y-123607200D02*
X76238095Y-123559580D01*
X76238095Y-123559580D02*
X76190476Y-123464342D01*
X76190476Y-123464342D02*
X76190476Y-122654819D01*
X75571428Y-123083390D02*
X75666666Y-123035771D01*
X75666666Y-123035771D02*
X75714285Y-122988152D01*
X75714285Y-122988152D02*
X75761904Y-122892914D01*
X75761904Y-122892914D02*
X75761904Y-122845295D01*
X75761904Y-122845295D02*
X75714285Y-122750057D01*
X75714285Y-122750057D02*
X75666666Y-122702438D01*
X75666666Y-122702438D02*
X75571428Y-122654819D01*
X75571428Y-122654819D02*
X75380952Y-122654819D01*
X75380952Y-122654819D02*
X75285714Y-122702438D01*
X75285714Y-122702438D02*
X75238095Y-122750057D01*
X75238095Y-122750057D02*
X75190476Y-122845295D01*
X75190476Y-122845295D02*
X75190476Y-122892914D01*
X75190476Y-122892914D02*
X75238095Y-122988152D01*
X75238095Y-122988152D02*
X75285714Y-123035771D01*
X75285714Y-123035771D02*
X75380952Y-123083390D01*
X75380952Y-123083390D02*
X75571428Y-123083390D01*
X75571428Y-123083390D02*
X75666666Y-123131009D01*
X75666666Y-123131009D02*
X75714285Y-123178628D01*
X75714285Y-123178628D02*
X75761904Y-123273866D01*
X75761904Y-123273866D02*
X75761904Y-123464342D01*
X75761904Y-123464342D02*
X75714285Y-123559580D01*
X75714285Y-123559580D02*
X75666666Y-123607200D01*
X75666666Y-123607200D02*
X75571428Y-123654819D01*
X75571428Y-123654819D02*
X75380952Y-123654819D01*
X75380952Y-123654819D02*
X75285714Y-123607200D01*
X75285714Y-123607200D02*
X75238095Y-123559580D01*
X75238095Y-123559580D02*
X75190476Y-123464342D01*
X75190476Y-123464342D02*
X75190476Y-123273866D01*
X75190476Y-123273866D02*
X75238095Y-123178628D01*
X75238095Y-123178628D02*
X75285714Y-123131009D01*
X75285714Y-123131009D02*
X75380952Y-123083390D01*
X115642857Y-110054819D02*
X115976190Y-109578628D01*
X116214285Y-110054819D02*
X116214285Y-109054819D01*
X116214285Y-109054819D02*
X115833333Y-109054819D01*
X115833333Y-109054819D02*
X115738095Y-109102438D01*
X115738095Y-109102438D02*
X115690476Y-109150057D01*
X115690476Y-109150057D02*
X115642857Y-109245295D01*
X115642857Y-109245295D02*
X115642857Y-109388152D01*
X115642857Y-109388152D02*
X115690476Y-109483390D01*
X115690476Y-109483390D02*
X115738095Y-109531009D01*
X115738095Y-109531009D02*
X115833333Y-109578628D01*
X115833333Y-109578628D02*
X116214285Y-109578628D01*
X115309523Y-109054819D02*
X114690476Y-109054819D01*
X114690476Y-109054819D02*
X115023809Y-109435771D01*
X115023809Y-109435771D02*
X114880952Y-109435771D01*
X114880952Y-109435771D02*
X114785714Y-109483390D01*
X114785714Y-109483390D02*
X114738095Y-109531009D01*
X114738095Y-109531009D02*
X114690476Y-109626247D01*
X114690476Y-109626247D02*
X114690476Y-109864342D01*
X114690476Y-109864342D02*
X114738095Y-109959580D01*
X114738095Y-109959580D02*
X114785714Y-110007200D01*
X114785714Y-110007200D02*
X114880952Y-110054819D01*
X114880952Y-110054819D02*
X115166666Y-110054819D01*
X115166666Y-110054819D02*
X115261904Y-110007200D01*
X115261904Y-110007200D02*
X115309523Y-109959580D01*
X114309523Y-109150057D02*
X114261904Y-109102438D01*
X114261904Y-109102438D02*
X114166666Y-109054819D01*
X114166666Y-109054819D02*
X113928571Y-109054819D01*
X113928571Y-109054819D02*
X113833333Y-109102438D01*
X113833333Y-109102438D02*
X113785714Y-109150057D01*
X113785714Y-109150057D02*
X113738095Y-109245295D01*
X113738095Y-109245295D02*
X113738095Y-109340533D01*
X113738095Y-109340533D02*
X113785714Y-109483390D01*
X113785714Y-109483390D02*
X114357142Y-110054819D01*
X114357142Y-110054819D02*
X113738095Y-110054819D01*
X97442857Y-129554819D02*
X97776190Y-129078628D01*
X98014285Y-129554819D02*
X98014285Y-128554819D01*
X98014285Y-128554819D02*
X97633333Y-128554819D01*
X97633333Y-128554819D02*
X97538095Y-128602438D01*
X97538095Y-128602438D02*
X97490476Y-128650057D01*
X97490476Y-128650057D02*
X97442857Y-128745295D01*
X97442857Y-128745295D02*
X97442857Y-128888152D01*
X97442857Y-128888152D02*
X97490476Y-128983390D01*
X97490476Y-128983390D02*
X97538095Y-129031009D01*
X97538095Y-129031009D02*
X97633333Y-129078628D01*
X97633333Y-129078628D02*
X98014285Y-129078628D01*
X97061904Y-128650057D02*
X97014285Y-128602438D01*
X97014285Y-128602438D02*
X96919047Y-128554819D01*
X96919047Y-128554819D02*
X96680952Y-128554819D01*
X96680952Y-128554819D02*
X96585714Y-128602438D01*
X96585714Y-128602438D02*
X96538095Y-128650057D01*
X96538095Y-128650057D02*
X96490476Y-128745295D01*
X96490476Y-128745295D02*
X96490476Y-128840533D01*
X96490476Y-128840533D02*
X96538095Y-128983390D01*
X96538095Y-128983390D02*
X97109523Y-129554819D01*
X97109523Y-129554819D02*
X96490476Y-129554819D01*
X96109523Y-128650057D02*
X96061904Y-128602438D01*
X96061904Y-128602438D02*
X95966666Y-128554819D01*
X95966666Y-128554819D02*
X95728571Y-128554819D01*
X95728571Y-128554819D02*
X95633333Y-128602438D01*
X95633333Y-128602438D02*
X95585714Y-128650057D01*
X95585714Y-128650057D02*
X95538095Y-128745295D01*
X95538095Y-128745295D02*
X95538095Y-128840533D01*
X95538095Y-128840533D02*
X95585714Y-128983390D01*
X95585714Y-128983390D02*
X96157142Y-129554819D01*
X96157142Y-129554819D02*
X95538095Y-129554819D01*
X97442857Y-110054819D02*
X97776190Y-109578628D01*
X98014285Y-110054819D02*
X98014285Y-109054819D01*
X98014285Y-109054819D02*
X97633333Y-109054819D01*
X97633333Y-109054819D02*
X97538095Y-109102438D01*
X97538095Y-109102438D02*
X97490476Y-109150057D01*
X97490476Y-109150057D02*
X97442857Y-109245295D01*
X97442857Y-109245295D02*
X97442857Y-109388152D01*
X97442857Y-109388152D02*
X97490476Y-109483390D01*
X97490476Y-109483390D02*
X97538095Y-109531009D01*
X97538095Y-109531009D02*
X97633333Y-109578628D01*
X97633333Y-109578628D02*
X98014285Y-109578628D01*
X96490476Y-110054819D02*
X97061904Y-110054819D01*
X96776190Y-110054819D02*
X96776190Y-109054819D01*
X96776190Y-109054819D02*
X96871428Y-109197676D01*
X96871428Y-109197676D02*
X96966666Y-109292914D01*
X96966666Y-109292914D02*
X97061904Y-109340533D01*
X95538095Y-110054819D02*
X96109523Y-110054819D01*
X95823809Y-110054819D02*
X95823809Y-109054819D01*
X95823809Y-109054819D02*
X95919047Y-109197676D01*
X95919047Y-109197676D02*
X96014285Y-109292914D01*
X96014285Y-109292914D02*
X96109523Y-109340533D01*
X86042857Y-109659580D02*
X86090476Y-109707200D01*
X86090476Y-109707200D02*
X86233333Y-109754819D01*
X86233333Y-109754819D02*
X86328571Y-109754819D01*
X86328571Y-109754819D02*
X86471428Y-109707200D01*
X86471428Y-109707200D02*
X86566666Y-109611961D01*
X86566666Y-109611961D02*
X86614285Y-109516723D01*
X86614285Y-109516723D02*
X86661904Y-109326247D01*
X86661904Y-109326247D02*
X86661904Y-109183390D01*
X86661904Y-109183390D02*
X86614285Y-108992914D01*
X86614285Y-108992914D02*
X86566666Y-108897676D01*
X86566666Y-108897676D02*
X86471428Y-108802438D01*
X86471428Y-108802438D02*
X86328571Y-108754819D01*
X86328571Y-108754819D02*
X86233333Y-108754819D01*
X86233333Y-108754819D02*
X86090476Y-108802438D01*
X86090476Y-108802438D02*
X86042857Y-108850057D01*
X85661904Y-108850057D02*
X85614285Y-108802438D01*
X85614285Y-108802438D02*
X85519047Y-108754819D01*
X85519047Y-108754819D02*
X85280952Y-108754819D01*
X85280952Y-108754819D02*
X85185714Y-108802438D01*
X85185714Y-108802438D02*
X85138095Y-108850057D01*
X85138095Y-108850057D02*
X85090476Y-108945295D01*
X85090476Y-108945295D02*
X85090476Y-109040533D01*
X85090476Y-109040533D02*
X85138095Y-109183390D01*
X85138095Y-109183390D02*
X85709523Y-109754819D01*
X85709523Y-109754819D02*
X85090476Y-109754819D01*
X84757142Y-108754819D02*
X84090476Y-108754819D01*
X84090476Y-108754819D02*
X84519047Y-109754819D01*
X67130357Y-110959580D02*
X67177976Y-111007200D01*
X67177976Y-111007200D02*
X67320833Y-111054819D01*
X67320833Y-111054819D02*
X67416071Y-111054819D01*
X67416071Y-111054819D02*
X67558928Y-111007200D01*
X67558928Y-111007200D02*
X67654166Y-110911961D01*
X67654166Y-110911961D02*
X67701785Y-110816723D01*
X67701785Y-110816723D02*
X67749404Y-110626247D01*
X67749404Y-110626247D02*
X67749404Y-110483390D01*
X67749404Y-110483390D02*
X67701785Y-110292914D01*
X67701785Y-110292914D02*
X67654166Y-110197676D01*
X67654166Y-110197676D02*
X67558928Y-110102438D01*
X67558928Y-110102438D02*
X67416071Y-110054819D01*
X67416071Y-110054819D02*
X67320833Y-110054819D01*
X67320833Y-110054819D02*
X67177976Y-110102438D01*
X67177976Y-110102438D02*
X67130357Y-110150057D01*
X66749404Y-110150057D02*
X66701785Y-110102438D01*
X66701785Y-110102438D02*
X66606547Y-110054819D01*
X66606547Y-110054819D02*
X66368452Y-110054819D01*
X66368452Y-110054819D02*
X66273214Y-110102438D01*
X66273214Y-110102438D02*
X66225595Y-110150057D01*
X66225595Y-110150057D02*
X66177976Y-110245295D01*
X66177976Y-110245295D02*
X66177976Y-110340533D01*
X66177976Y-110340533D02*
X66225595Y-110483390D01*
X66225595Y-110483390D02*
X66797023Y-111054819D01*
X66797023Y-111054819D02*
X66177976Y-111054819D01*
X65273214Y-110054819D02*
X65749404Y-110054819D01*
X65749404Y-110054819D02*
X65797023Y-110531009D01*
X65797023Y-110531009D02*
X65749404Y-110483390D01*
X65749404Y-110483390D02*
X65654166Y-110435771D01*
X65654166Y-110435771D02*
X65416071Y-110435771D01*
X65416071Y-110435771D02*
X65320833Y-110483390D01*
X65320833Y-110483390D02*
X65273214Y-110531009D01*
X65273214Y-110531009D02*
X65225595Y-110626247D01*
X65225595Y-110626247D02*
X65225595Y-110864342D01*
X65225595Y-110864342D02*
X65273214Y-110959580D01*
X65273214Y-110959580D02*
X65320833Y-111007200D01*
X65320833Y-111007200D02*
X65416071Y-111054819D01*
X65416071Y-111054819D02*
X65654166Y-111054819D01*
X65654166Y-111054819D02*
X65749404Y-111007200D01*
X65749404Y-111007200D02*
X65797023Y-110959580D01*
X115642857Y-128754819D02*
X115976190Y-128278628D01*
X116214285Y-128754819D02*
X116214285Y-127754819D01*
X116214285Y-127754819D02*
X115833333Y-127754819D01*
X115833333Y-127754819D02*
X115738095Y-127802438D01*
X115738095Y-127802438D02*
X115690476Y-127850057D01*
X115690476Y-127850057D02*
X115642857Y-127945295D01*
X115642857Y-127945295D02*
X115642857Y-128088152D01*
X115642857Y-128088152D02*
X115690476Y-128183390D01*
X115690476Y-128183390D02*
X115738095Y-128231009D01*
X115738095Y-128231009D02*
X115833333Y-128278628D01*
X115833333Y-128278628D02*
X116214285Y-128278628D01*
X114690476Y-128754819D02*
X115261904Y-128754819D01*
X114976190Y-128754819D02*
X114976190Y-127754819D01*
X114976190Y-127754819D02*
X115071428Y-127897676D01*
X115071428Y-127897676D02*
X115166666Y-127992914D01*
X115166666Y-127992914D02*
X115261904Y-128040533D01*
X114357142Y-127754819D02*
X113690476Y-127754819D01*
X113690476Y-127754819D02*
X114119047Y-128754819D01*
X111366666Y-51809580D02*
X111414285Y-51857200D01*
X111414285Y-51857200D02*
X111557142Y-51904819D01*
X111557142Y-51904819D02*
X111652380Y-51904819D01*
X111652380Y-51904819D02*
X111795237Y-51857200D01*
X111795237Y-51857200D02*
X111890475Y-51761961D01*
X111890475Y-51761961D02*
X111938094Y-51666723D01*
X111938094Y-51666723D02*
X111985713Y-51476247D01*
X111985713Y-51476247D02*
X111985713Y-51333390D01*
X111985713Y-51333390D02*
X111938094Y-51142914D01*
X111938094Y-51142914D02*
X111890475Y-51047676D01*
X111890475Y-51047676D02*
X111795237Y-50952438D01*
X111795237Y-50952438D02*
X111652380Y-50904819D01*
X111652380Y-50904819D02*
X111557142Y-50904819D01*
X111557142Y-50904819D02*
X111414285Y-50952438D01*
X111414285Y-50952438D02*
X111366666Y-51000057D01*
X110509523Y-50904819D02*
X110699999Y-50904819D01*
X110699999Y-50904819D02*
X110795237Y-50952438D01*
X110795237Y-50952438D02*
X110842856Y-51000057D01*
X110842856Y-51000057D02*
X110938094Y-51142914D01*
X110938094Y-51142914D02*
X110985713Y-51333390D01*
X110985713Y-51333390D02*
X110985713Y-51714342D01*
X110985713Y-51714342D02*
X110938094Y-51809580D01*
X110938094Y-51809580D02*
X110890475Y-51857200D01*
X110890475Y-51857200D02*
X110795237Y-51904819D01*
X110795237Y-51904819D02*
X110604761Y-51904819D01*
X110604761Y-51904819D02*
X110509523Y-51857200D01*
X110509523Y-51857200D02*
X110461904Y-51809580D01*
X110461904Y-51809580D02*
X110414285Y-51714342D01*
X110414285Y-51714342D02*
X110414285Y-51476247D01*
X110414285Y-51476247D02*
X110461904Y-51381009D01*
X110461904Y-51381009D02*
X110509523Y-51333390D01*
X110509523Y-51333390D02*
X110604761Y-51285771D01*
X110604761Y-51285771D02*
X110795237Y-51285771D01*
X110795237Y-51285771D02*
X110890475Y-51333390D01*
X110890475Y-51333390D02*
X110938094Y-51381009D01*
X110938094Y-51381009D02*
X110985713Y-51476247D01*
X76292857Y-64859580D02*
X76340476Y-64907200D01*
X76340476Y-64907200D02*
X76483333Y-64954819D01*
X76483333Y-64954819D02*
X76578571Y-64954819D01*
X76578571Y-64954819D02*
X76721428Y-64907200D01*
X76721428Y-64907200D02*
X76816666Y-64811961D01*
X76816666Y-64811961D02*
X76864285Y-64716723D01*
X76864285Y-64716723D02*
X76911904Y-64526247D01*
X76911904Y-64526247D02*
X76911904Y-64383390D01*
X76911904Y-64383390D02*
X76864285Y-64192914D01*
X76864285Y-64192914D02*
X76816666Y-64097676D01*
X76816666Y-64097676D02*
X76721428Y-64002438D01*
X76721428Y-64002438D02*
X76578571Y-63954819D01*
X76578571Y-63954819D02*
X76483333Y-63954819D01*
X76483333Y-63954819D02*
X76340476Y-64002438D01*
X76340476Y-64002438D02*
X76292857Y-64050057D01*
X75959523Y-63954819D02*
X75340476Y-63954819D01*
X75340476Y-63954819D02*
X75673809Y-64335771D01*
X75673809Y-64335771D02*
X75530952Y-64335771D01*
X75530952Y-64335771D02*
X75435714Y-64383390D01*
X75435714Y-64383390D02*
X75388095Y-64431009D01*
X75388095Y-64431009D02*
X75340476Y-64526247D01*
X75340476Y-64526247D02*
X75340476Y-64764342D01*
X75340476Y-64764342D02*
X75388095Y-64859580D01*
X75388095Y-64859580D02*
X75435714Y-64907200D01*
X75435714Y-64907200D02*
X75530952Y-64954819D01*
X75530952Y-64954819D02*
X75816666Y-64954819D01*
X75816666Y-64954819D02*
X75911904Y-64907200D01*
X75911904Y-64907200D02*
X75959523Y-64859580D01*
X74864285Y-64954819D02*
X74673809Y-64954819D01*
X74673809Y-64954819D02*
X74578571Y-64907200D01*
X74578571Y-64907200D02*
X74530952Y-64859580D01*
X74530952Y-64859580D02*
X74435714Y-64716723D01*
X74435714Y-64716723D02*
X74388095Y-64526247D01*
X74388095Y-64526247D02*
X74388095Y-64145295D01*
X74388095Y-64145295D02*
X74435714Y-64050057D01*
X74435714Y-64050057D02*
X74483333Y-64002438D01*
X74483333Y-64002438D02*
X74578571Y-63954819D01*
X74578571Y-63954819D02*
X74769047Y-63954819D01*
X74769047Y-63954819D02*
X74864285Y-64002438D01*
X74864285Y-64002438D02*
X74911904Y-64050057D01*
X74911904Y-64050057D02*
X74959523Y-64145295D01*
X74959523Y-64145295D02*
X74959523Y-64383390D01*
X74959523Y-64383390D02*
X74911904Y-64478628D01*
X74911904Y-64478628D02*
X74864285Y-64526247D01*
X74864285Y-64526247D02*
X74769047Y-64573866D01*
X74769047Y-64573866D02*
X74578571Y-64573866D01*
X74578571Y-64573866D02*
X74483333Y-64526247D01*
X74483333Y-64526247D02*
X74435714Y-64478628D01*
X74435714Y-64478628D02*
X74388095Y-64383390D01*
X85542857Y-123059580D02*
X85590476Y-123107200D01*
X85590476Y-123107200D02*
X85733333Y-123154819D01*
X85733333Y-123154819D02*
X85828571Y-123154819D01*
X85828571Y-123154819D02*
X85971428Y-123107200D01*
X85971428Y-123107200D02*
X86066666Y-123011961D01*
X86066666Y-123011961D02*
X86114285Y-122916723D01*
X86114285Y-122916723D02*
X86161904Y-122726247D01*
X86161904Y-122726247D02*
X86161904Y-122583390D01*
X86161904Y-122583390D02*
X86114285Y-122392914D01*
X86114285Y-122392914D02*
X86066666Y-122297676D01*
X86066666Y-122297676D02*
X85971428Y-122202438D01*
X85971428Y-122202438D02*
X85828571Y-122154819D01*
X85828571Y-122154819D02*
X85733333Y-122154819D01*
X85733333Y-122154819D02*
X85590476Y-122202438D01*
X85590476Y-122202438D02*
X85542857Y-122250057D01*
X85209523Y-122154819D02*
X84590476Y-122154819D01*
X84590476Y-122154819D02*
X84923809Y-122535771D01*
X84923809Y-122535771D02*
X84780952Y-122535771D01*
X84780952Y-122535771D02*
X84685714Y-122583390D01*
X84685714Y-122583390D02*
X84638095Y-122631009D01*
X84638095Y-122631009D02*
X84590476Y-122726247D01*
X84590476Y-122726247D02*
X84590476Y-122964342D01*
X84590476Y-122964342D02*
X84638095Y-123059580D01*
X84638095Y-123059580D02*
X84685714Y-123107200D01*
X84685714Y-123107200D02*
X84780952Y-123154819D01*
X84780952Y-123154819D02*
X85066666Y-123154819D01*
X85066666Y-123154819D02*
X85161904Y-123107200D01*
X85161904Y-123107200D02*
X85209523Y-123059580D01*
X83971428Y-122154819D02*
X83876190Y-122154819D01*
X83876190Y-122154819D02*
X83780952Y-122202438D01*
X83780952Y-122202438D02*
X83733333Y-122250057D01*
X83733333Y-122250057D02*
X83685714Y-122345295D01*
X83685714Y-122345295D02*
X83638095Y-122535771D01*
X83638095Y-122535771D02*
X83638095Y-122773866D01*
X83638095Y-122773866D02*
X83685714Y-122964342D01*
X83685714Y-122964342D02*
X83733333Y-123059580D01*
X83733333Y-123059580D02*
X83780952Y-123107200D01*
X83780952Y-123107200D02*
X83876190Y-123154819D01*
X83876190Y-123154819D02*
X83971428Y-123154819D01*
X83971428Y-123154819D02*
X84066666Y-123107200D01*
X84066666Y-123107200D02*
X84114285Y-123059580D01*
X84114285Y-123059580D02*
X84161904Y-122964342D01*
X84161904Y-122964342D02*
X84209523Y-122773866D01*
X84209523Y-122773866D02*
X84209523Y-122535771D01*
X84209523Y-122535771D02*
X84161904Y-122345295D01*
X84161904Y-122345295D02*
X84114285Y-122250057D01*
X84114285Y-122250057D02*
X84066666Y-122202438D01*
X84066666Y-122202438D02*
X83971428Y-122154819D01*
X82159580Y-96457142D02*
X82207200Y-96409523D01*
X82207200Y-96409523D02*
X82254819Y-96266666D01*
X82254819Y-96266666D02*
X82254819Y-96171428D01*
X82254819Y-96171428D02*
X82207200Y-96028571D01*
X82207200Y-96028571D02*
X82111961Y-95933333D01*
X82111961Y-95933333D02*
X82016723Y-95885714D01*
X82016723Y-95885714D02*
X81826247Y-95838095D01*
X81826247Y-95838095D02*
X81683390Y-95838095D01*
X81683390Y-95838095D02*
X81492914Y-95885714D01*
X81492914Y-95885714D02*
X81397676Y-95933333D01*
X81397676Y-95933333D02*
X81302438Y-96028571D01*
X81302438Y-96028571D02*
X81254819Y-96171428D01*
X81254819Y-96171428D02*
X81254819Y-96266666D01*
X81254819Y-96266666D02*
X81302438Y-96409523D01*
X81302438Y-96409523D02*
X81350057Y-96457142D01*
X81254819Y-96790476D02*
X81254819Y-97409523D01*
X81254819Y-97409523D02*
X81635771Y-97076190D01*
X81635771Y-97076190D02*
X81635771Y-97219047D01*
X81635771Y-97219047D02*
X81683390Y-97314285D01*
X81683390Y-97314285D02*
X81731009Y-97361904D01*
X81731009Y-97361904D02*
X81826247Y-97409523D01*
X81826247Y-97409523D02*
X82064342Y-97409523D01*
X82064342Y-97409523D02*
X82159580Y-97361904D01*
X82159580Y-97361904D02*
X82207200Y-97314285D01*
X82207200Y-97314285D02*
X82254819Y-97219047D01*
X82254819Y-97219047D02*
X82254819Y-96933333D01*
X82254819Y-96933333D02*
X82207200Y-96838095D01*
X82207200Y-96838095D02*
X82159580Y-96790476D01*
X81254819Y-97742857D02*
X81254819Y-98361904D01*
X81254819Y-98361904D02*
X81635771Y-98028571D01*
X81635771Y-98028571D02*
X81635771Y-98171428D01*
X81635771Y-98171428D02*
X81683390Y-98266666D01*
X81683390Y-98266666D02*
X81731009Y-98314285D01*
X81731009Y-98314285D02*
X81826247Y-98361904D01*
X81826247Y-98361904D02*
X82064342Y-98361904D01*
X82064342Y-98361904D02*
X82159580Y-98314285D01*
X82159580Y-98314285D02*
X82207200Y-98266666D01*
X82207200Y-98266666D02*
X82254819Y-98171428D01*
X82254819Y-98171428D02*
X82254819Y-97885714D01*
X82254819Y-97885714D02*
X82207200Y-97790476D01*
X82207200Y-97790476D02*
X82159580Y-97742857D01*
X105742857Y-74059580D02*
X105790476Y-74107200D01*
X105790476Y-74107200D02*
X105933333Y-74154819D01*
X105933333Y-74154819D02*
X106028571Y-74154819D01*
X106028571Y-74154819D02*
X106171428Y-74107200D01*
X106171428Y-74107200D02*
X106266666Y-74011961D01*
X106266666Y-74011961D02*
X106314285Y-73916723D01*
X106314285Y-73916723D02*
X106361904Y-73726247D01*
X106361904Y-73726247D02*
X106361904Y-73583390D01*
X106361904Y-73583390D02*
X106314285Y-73392914D01*
X106314285Y-73392914D02*
X106266666Y-73297676D01*
X106266666Y-73297676D02*
X106171428Y-73202438D01*
X106171428Y-73202438D02*
X106028571Y-73154819D01*
X106028571Y-73154819D02*
X105933333Y-73154819D01*
X105933333Y-73154819D02*
X105790476Y-73202438D01*
X105790476Y-73202438D02*
X105742857Y-73250057D01*
X105361904Y-73250057D02*
X105314285Y-73202438D01*
X105314285Y-73202438D02*
X105219047Y-73154819D01*
X105219047Y-73154819D02*
X104980952Y-73154819D01*
X104980952Y-73154819D02*
X104885714Y-73202438D01*
X104885714Y-73202438D02*
X104838095Y-73250057D01*
X104838095Y-73250057D02*
X104790476Y-73345295D01*
X104790476Y-73345295D02*
X104790476Y-73440533D01*
X104790476Y-73440533D02*
X104838095Y-73583390D01*
X104838095Y-73583390D02*
X105409523Y-74154819D01*
X105409523Y-74154819D02*
X104790476Y-74154819D01*
X104457142Y-73154819D02*
X103838095Y-73154819D01*
X103838095Y-73154819D02*
X104171428Y-73535771D01*
X104171428Y-73535771D02*
X104028571Y-73535771D01*
X104028571Y-73535771D02*
X103933333Y-73583390D01*
X103933333Y-73583390D02*
X103885714Y-73631009D01*
X103885714Y-73631009D02*
X103838095Y-73726247D01*
X103838095Y-73726247D02*
X103838095Y-73964342D01*
X103838095Y-73964342D02*
X103885714Y-74059580D01*
X103885714Y-74059580D02*
X103933333Y-74107200D01*
X103933333Y-74107200D02*
X104028571Y-74154819D01*
X104028571Y-74154819D02*
X104314285Y-74154819D01*
X104314285Y-74154819D02*
X104409523Y-74107200D01*
X104409523Y-74107200D02*
X104457142Y-74059580D01*
X97442857Y-113354819D02*
X97776190Y-112878628D01*
X98014285Y-113354819D02*
X98014285Y-112354819D01*
X98014285Y-112354819D02*
X97633333Y-112354819D01*
X97633333Y-112354819D02*
X97538095Y-112402438D01*
X97538095Y-112402438D02*
X97490476Y-112450057D01*
X97490476Y-112450057D02*
X97442857Y-112545295D01*
X97442857Y-112545295D02*
X97442857Y-112688152D01*
X97442857Y-112688152D02*
X97490476Y-112783390D01*
X97490476Y-112783390D02*
X97538095Y-112831009D01*
X97538095Y-112831009D02*
X97633333Y-112878628D01*
X97633333Y-112878628D02*
X98014285Y-112878628D01*
X97061904Y-112450057D02*
X97014285Y-112402438D01*
X97014285Y-112402438D02*
X96919047Y-112354819D01*
X96919047Y-112354819D02*
X96680952Y-112354819D01*
X96680952Y-112354819D02*
X96585714Y-112402438D01*
X96585714Y-112402438D02*
X96538095Y-112450057D01*
X96538095Y-112450057D02*
X96490476Y-112545295D01*
X96490476Y-112545295D02*
X96490476Y-112640533D01*
X96490476Y-112640533D02*
X96538095Y-112783390D01*
X96538095Y-112783390D02*
X97109523Y-113354819D01*
X97109523Y-113354819D02*
X96490476Y-113354819D01*
X95538095Y-113354819D02*
X96109523Y-113354819D01*
X95823809Y-113354819D02*
X95823809Y-112354819D01*
X95823809Y-112354819D02*
X95919047Y-112497676D01*
X95919047Y-112497676D02*
X96014285Y-112592914D01*
X96014285Y-112592914D02*
X96109523Y-112640533D01*
X67642857Y-123059580D02*
X67690476Y-123107200D01*
X67690476Y-123107200D02*
X67833333Y-123154819D01*
X67833333Y-123154819D02*
X67928571Y-123154819D01*
X67928571Y-123154819D02*
X68071428Y-123107200D01*
X68071428Y-123107200D02*
X68166666Y-123011961D01*
X68166666Y-123011961D02*
X68214285Y-122916723D01*
X68214285Y-122916723D02*
X68261904Y-122726247D01*
X68261904Y-122726247D02*
X68261904Y-122583390D01*
X68261904Y-122583390D02*
X68214285Y-122392914D01*
X68214285Y-122392914D02*
X68166666Y-122297676D01*
X68166666Y-122297676D02*
X68071428Y-122202438D01*
X68071428Y-122202438D02*
X67928571Y-122154819D01*
X67928571Y-122154819D02*
X67833333Y-122154819D01*
X67833333Y-122154819D02*
X67690476Y-122202438D01*
X67690476Y-122202438D02*
X67642857Y-122250057D01*
X67261904Y-122250057D02*
X67214285Y-122202438D01*
X67214285Y-122202438D02*
X67119047Y-122154819D01*
X67119047Y-122154819D02*
X66880952Y-122154819D01*
X66880952Y-122154819D02*
X66785714Y-122202438D01*
X66785714Y-122202438D02*
X66738095Y-122250057D01*
X66738095Y-122250057D02*
X66690476Y-122345295D01*
X66690476Y-122345295D02*
X66690476Y-122440533D01*
X66690476Y-122440533D02*
X66738095Y-122583390D01*
X66738095Y-122583390D02*
X67309523Y-123154819D01*
X67309523Y-123154819D02*
X66690476Y-123154819D01*
X66214285Y-123154819D02*
X66023809Y-123154819D01*
X66023809Y-123154819D02*
X65928571Y-123107200D01*
X65928571Y-123107200D02*
X65880952Y-123059580D01*
X65880952Y-123059580D02*
X65785714Y-122916723D01*
X65785714Y-122916723D02*
X65738095Y-122726247D01*
X65738095Y-122726247D02*
X65738095Y-122345295D01*
X65738095Y-122345295D02*
X65785714Y-122250057D01*
X65785714Y-122250057D02*
X65833333Y-122202438D01*
X65833333Y-122202438D02*
X65928571Y-122154819D01*
X65928571Y-122154819D02*
X66119047Y-122154819D01*
X66119047Y-122154819D02*
X66214285Y-122202438D01*
X66214285Y-122202438D02*
X66261904Y-122250057D01*
X66261904Y-122250057D02*
X66309523Y-122345295D01*
X66309523Y-122345295D02*
X66309523Y-122583390D01*
X66309523Y-122583390D02*
X66261904Y-122678628D01*
X66261904Y-122678628D02*
X66214285Y-122726247D01*
X66214285Y-122726247D02*
X66119047Y-122773866D01*
X66119047Y-122773866D02*
X65928571Y-122773866D01*
X65928571Y-122773866D02*
X65833333Y-122726247D01*
X65833333Y-122726247D02*
X65785714Y-122678628D01*
X65785714Y-122678628D02*
X65738095Y-122583390D01*
X67130357Y-112459580D02*
X67177976Y-112507200D01*
X67177976Y-112507200D02*
X67320833Y-112554819D01*
X67320833Y-112554819D02*
X67416071Y-112554819D01*
X67416071Y-112554819D02*
X67558928Y-112507200D01*
X67558928Y-112507200D02*
X67654166Y-112411961D01*
X67654166Y-112411961D02*
X67701785Y-112316723D01*
X67701785Y-112316723D02*
X67749404Y-112126247D01*
X67749404Y-112126247D02*
X67749404Y-111983390D01*
X67749404Y-111983390D02*
X67701785Y-111792914D01*
X67701785Y-111792914D02*
X67654166Y-111697676D01*
X67654166Y-111697676D02*
X67558928Y-111602438D01*
X67558928Y-111602438D02*
X67416071Y-111554819D01*
X67416071Y-111554819D02*
X67320833Y-111554819D01*
X67320833Y-111554819D02*
X67177976Y-111602438D01*
X67177976Y-111602438D02*
X67130357Y-111650057D01*
X66177976Y-112554819D02*
X66749404Y-112554819D01*
X66463690Y-112554819D02*
X66463690Y-111554819D01*
X66463690Y-111554819D02*
X66558928Y-111697676D01*
X66558928Y-111697676D02*
X66654166Y-111792914D01*
X66654166Y-111792914D02*
X66749404Y-111840533D01*
X65558928Y-111554819D02*
X65463690Y-111554819D01*
X65463690Y-111554819D02*
X65368452Y-111602438D01*
X65368452Y-111602438D02*
X65320833Y-111650057D01*
X65320833Y-111650057D02*
X65273214Y-111745295D01*
X65273214Y-111745295D02*
X65225595Y-111935771D01*
X65225595Y-111935771D02*
X65225595Y-112173866D01*
X65225595Y-112173866D02*
X65273214Y-112364342D01*
X65273214Y-112364342D02*
X65320833Y-112459580D01*
X65320833Y-112459580D02*
X65368452Y-112507200D01*
X65368452Y-112507200D02*
X65463690Y-112554819D01*
X65463690Y-112554819D02*
X65558928Y-112554819D01*
X65558928Y-112554819D02*
X65654166Y-112507200D01*
X65654166Y-112507200D02*
X65701785Y-112459580D01*
X65701785Y-112459580D02*
X65749404Y-112364342D01*
X65749404Y-112364342D02*
X65797023Y-112173866D01*
X65797023Y-112173866D02*
X65797023Y-111935771D01*
X65797023Y-111935771D02*
X65749404Y-111745295D01*
X65749404Y-111745295D02*
X65701785Y-111650057D01*
X65701785Y-111650057D02*
X65654166Y-111602438D01*
X65654166Y-111602438D02*
X65558928Y-111554819D01*
X115642857Y-108454819D02*
X115976190Y-107978628D01*
X116214285Y-108454819D02*
X116214285Y-107454819D01*
X116214285Y-107454819D02*
X115833333Y-107454819D01*
X115833333Y-107454819D02*
X115738095Y-107502438D01*
X115738095Y-107502438D02*
X115690476Y-107550057D01*
X115690476Y-107550057D02*
X115642857Y-107645295D01*
X115642857Y-107645295D02*
X115642857Y-107788152D01*
X115642857Y-107788152D02*
X115690476Y-107883390D01*
X115690476Y-107883390D02*
X115738095Y-107931009D01*
X115738095Y-107931009D02*
X115833333Y-107978628D01*
X115833333Y-107978628D02*
X116214285Y-107978628D01*
X115309523Y-107454819D02*
X114690476Y-107454819D01*
X114690476Y-107454819D02*
X115023809Y-107835771D01*
X115023809Y-107835771D02*
X114880952Y-107835771D01*
X114880952Y-107835771D02*
X114785714Y-107883390D01*
X114785714Y-107883390D02*
X114738095Y-107931009D01*
X114738095Y-107931009D02*
X114690476Y-108026247D01*
X114690476Y-108026247D02*
X114690476Y-108264342D01*
X114690476Y-108264342D02*
X114738095Y-108359580D01*
X114738095Y-108359580D02*
X114785714Y-108407200D01*
X114785714Y-108407200D02*
X114880952Y-108454819D01*
X114880952Y-108454819D02*
X115166666Y-108454819D01*
X115166666Y-108454819D02*
X115261904Y-108407200D01*
X115261904Y-108407200D02*
X115309523Y-108359580D01*
X113738095Y-108454819D02*
X114309523Y-108454819D01*
X114023809Y-108454819D02*
X114023809Y-107454819D01*
X114023809Y-107454819D02*
X114119047Y-107597676D01*
X114119047Y-107597676D02*
X114214285Y-107692914D01*
X114214285Y-107692914D02*
X114309523Y-107740533D01*
X67130357Y-109259580D02*
X67177976Y-109307200D01*
X67177976Y-109307200D02*
X67320833Y-109354819D01*
X67320833Y-109354819D02*
X67416071Y-109354819D01*
X67416071Y-109354819D02*
X67558928Y-109307200D01*
X67558928Y-109307200D02*
X67654166Y-109211961D01*
X67654166Y-109211961D02*
X67701785Y-109116723D01*
X67701785Y-109116723D02*
X67749404Y-108926247D01*
X67749404Y-108926247D02*
X67749404Y-108783390D01*
X67749404Y-108783390D02*
X67701785Y-108592914D01*
X67701785Y-108592914D02*
X67654166Y-108497676D01*
X67654166Y-108497676D02*
X67558928Y-108402438D01*
X67558928Y-108402438D02*
X67416071Y-108354819D01*
X67416071Y-108354819D02*
X67320833Y-108354819D01*
X67320833Y-108354819D02*
X67177976Y-108402438D01*
X67177976Y-108402438D02*
X67130357Y-108450057D01*
X66749404Y-108450057D02*
X66701785Y-108402438D01*
X66701785Y-108402438D02*
X66606547Y-108354819D01*
X66606547Y-108354819D02*
X66368452Y-108354819D01*
X66368452Y-108354819D02*
X66273214Y-108402438D01*
X66273214Y-108402438D02*
X66225595Y-108450057D01*
X66225595Y-108450057D02*
X66177976Y-108545295D01*
X66177976Y-108545295D02*
X66177976Y-108640533D01*
X66177976Y-108640533D02*
X66225595Y-108783390D01*
X66225595Y-108783390D02*
X66797023Y-109354819D01*
X66797023Y-109354819D02*
X66177976Y-109354819D01*
X65320833Y-108354819D02*
X65511309Y-108354819D01*
X65511309Y-108354819D02*
X65606547Y-108402438D01*
X65606547Y-108402438D02*
X65654166Y-108450057D01*
X65654166Y-108450057D02*
X65749404Y-108592914D01*
X65749404Y-108592914D02*
X65797023Y-108783390D01*
X65797023Y-108783390D02*
X65797023Y-109164342D01*
X65797023Y-109164342D02*
X65749404Y-109259580D01*
X65749404Y-109259580D02*
X65701785Y-109307200D01*
X65701785Y-109307200D02*
X65606547Y-109354819D01*
X65606547Y-109354819D02*
X65416071Y-109354819D01*
X65416071Y-109354819D02*
X65320833Y-109307200D01*
X65320833Y-109307200D02*
X65273214Y-109259580D01*
X65273214Y-109259580D02*
X65225595Y-109164342D01*
X65225595Y-109164342D02*
X65225595Y-108926247D01*
X65225595Y-108926247D02*
X65273214Y-108831009D01*
X65273214Y-108831009D02*
X65320833Y-108783390D01*
X65320833Y-108783390D02*
X65416071Y-108735771D01*
X65416071Y-108735771D02*
X65606547Y-108735771D01*
X65606547Y-108735771D02*
X65701785Y-108783390D01*
X65701785Y-108783390D02*
X65749404Y-108831009D01*
X65749404Y-108831009D02*
X65797023Y-108926247D01*
X110089580Y-70357142D02*
X110137200Y-70309523D01*
X110137200Y-70309523D02*
X110184819Y-70166666D01*
X110184819Y-70166666D02*
X110184819Y-70071428D01*
X110184819Y-70071428D02*
X110137200Y-69928571D01*
X110137200Y-69928571D02*
X110041961Y-69833333D01*
X110041961Y-69833333D02*
X109946723Y-69785714D01*
X109946723Y-69785714D02*
X109756247Y-69738095D01*
X109756247Y-69738095D02*
X109613390Y-69738095D01*
X109613390Y-69738095D02*
X109422914Y-69785714D01*
X109422914Y-69785714D02*
X109327676Y-69833333D01*
X109327676Y-69833333D02*
X109232438Y-69928571D01*
X109232438Y-69928571D02*
X109184819Y-70071428D01*
X109184819Y-70071428D02*
X109184819Y-70166666D01*
X109184819Y-70166666D02*
X109232438Y-70309523D01*
X109232438Y-70309523D02*
X109280057Y-70357142D01*
X110184819Y-71309523D02*
X110184819Y-70738095D01*
X110184819Y-71023809D02*
X109184819Y-71023809D01*
X109184819Y-71023809D02*
X109327676Y-70928571D01*
X109327676Y-70928571D02*
X109422914Y-70833333D01*
X109422914Y-70833333D02*
X109470533Y-70738095D01*
X109184819Y-72214285D02*
X109184819Y-71738095D01*
X109184819Y-71738095D02*
X109661009Y-71690476D01*
X109661009Y-71690476D02*
X109613390Y-71738095D01*
X109613390Y-71738095D02*
X109565771Y-71833333D01*
X109565771Y-71833333D02*
X109565771Y-72071428D01*
X109565771Y-72071428D02*
X109613390Y-72166666D01*
X109613390Y-72166666D02*
X109661009Y-72214285D01*
X109661009Y-72214285D02*
X109756247Y-72261904D01*
X109756247Y-72261904D02*
X109994342Y-72261904D01*
X109994342Y-72261904D02*
X110089580Y-72214285D01*
X110089580Y-72214285D02*
X110137200Y-72166666D01*
X110137200Y-72166666D02*
X110184819Y-72071428D01*
X110184819Y-72071428D02*
X110184819Y-71833333D01*
X110184819Y-71833333D02*
X110137200Y-71738095D01*
X110137200Y-71738095D02*
X110089580Y-71690476D01*
X97342857Y-127859580D02*
X97390476Y-127907200D01*
X97390476Y-127907200D02*
X97533333Y-127954819D01*
X97533333Y-127954819D02*
X97628571Y-127954819D01*
X97628571Y-127954819D02*
X97771428Y-127907200D01*
X97771428Y-127907200D02*
X97866666Y-127811961D01*
X97866666Y-127811961D02*
X97914285Y-127716723D01*
X97914285Y-127716723D02*
X97961904Y-127526247D01*
X97961904Y-127526247D02*
X97961904Y-127383390D01*
X97961904Y-127383390D02*
X97914285Y-127192914D01*
X97914285Y-127192914D02*
X97866666Y-127097676D01*
X97866666Y-127097676D02*
X97771428Y-127002438D01*
X97771428Y-127002438D02*
X97628571Y-126954819D01*
X97628571Y-126954819D02*
X97533333Y-126954819D01*
X97533333Y-126954819D02*
X97390476Y-127002438D01*
X97390476Y-127002438D02*
X97342857Y-127050057D01*
X97009523Y-126954819D02*
X96390476Y-126954819D01*
X96390476Y-126954819D02*
X96723809Y-127335771D01*
X96723809Y-127335771D02*
X96580952Y-127335771D01*
X96580952Y-127335771D02*
X96485714Y-127383390D01*
X96485714Y-127383390D02*
X96438095Y-127431009D01*
X96438095Y-127431009D02*
X96390476Y-127526247D01*
X96390476Y-127526247D02*
X96390476Y-127764342D01*
X96390476Y-127764342D02*
X96438095Y-127859580D01*
X96438095Y-127859580D02*
X96485714Y-127907200D01*
X96485714Y-127907200D02*
X96580952Y-127954819D01*
X96580952Y-127954819D02*
X96866666Y-127954819D01*
X96866666Y-127954819D02*
X96961904Y-127907200D01*
X96961904Y-127907200D02*
X97009523Y-127859580D01*
X95485714Y-126954819D02*
X95961904Y-126954819D01*
X95961904Y-126954819D02*
X96009523Y-127431009D01*
X96009523Y-127431009D02*
X95961904Y-127383390D01*
X95961904Y-127383390D02*
X95866666Y-127335771D01*
X95866666Y-127335771D02*
X95628571Y-127335771D01*
X95628571Y-127335771D02*
X95533333Y-127383390D01*
X95533333Y-127383390D02*
X95485714Y-127431009D01*
X95485714Y-127431009D02*
X95438095Y-127526247D01*
X95438095Y-127526247D02*
X95438095Y-127764342D01*
X95438095Y-127764342D02*
X95485714Y-127859580D01*
X95485714Y-127859580D02*
X95533333Y-127907200D01*
X95533333Y-127907200D02*
X95628571Y-127954819D01*
X95628571Y-127954819D02*
X95866666Y-127954819D01*
X95866666Y-127954819D02*
X95961904Y-127907200D01*
X95961904Y-127907200D02*
X96009523Y-127859580D01*
X91261904Y-59534819D02*
X91261904Y-60344342D01*
X91261904Y-60344342D02*
X91214285Y-60439580D01*
X91214285Y-60439580D02*
X91166666Y-60487200D01*
X91166666Y-60487200D02*
X91071428Y-60534819D01*
X91071428Y-60534819D02*
X90880952Y-60534819D01*
X90880952Y-60534819D02*
X90785714Y-60487200D01*
X90785714Y-60487200D02*
X90738095Y-60439580D01*
X90738095Y-60439580D02*
X90690476Y-60344342D01*
X90690476Y-60344342D02*
X90690476Y-59534819D01*
X89690476Y-60534819D02*
X90261904Y-60534819D01*
X89976190Y-60534819D02*
X89976190Y-59534819D01*
X89976190Y-59534819D02*
X90071428Y-59677676D01*
X90071428Y-59677676D02*
X90166666Y-59772914D01*
X90166666Y-59772914D02*
X90261904Y-59820533D01*
X105742857Y-75759580D02*
X105790476Y-75807200D01*
X105790476Y-75807200D02*
X105933333Y-75854819D01*
X105933333Y-75854819D02*
X106028571Y-75854819D01*
X106028571Y-75854819D02*
X106171428Y-75807200D01*
X106171428Y-75807200D02*
X106266666Y-75711961D01*
X106266666Y-75711961D02*
X106314285Y-75616723D01*
X106314285Y-75616723D02*
X106361904Y-75426247D01*
X106361904Y-75426247D02*
X106361904Y-75283390D01*
X106361904Y-75283390D02*
X106314285Y-75092914D01*
X106314285Y-75092914D02*
X106266666Y-74997676D01*
X106266666Y-74997676D02*
X106171428Y-74902438D01*
X106171428Y-74902438D02*
X106028571Y-74854819D01*
X106028571Y-74854819D02*
X105933333Y-74854819D01*
X105933333Y-74854819D02*
X105790476Y-74902438D01*
X105790476Y-74902438D02*
X105742857Y-74950057D01*
X105361904Y-74950057D02*
X105314285Y-74902438D01*
X105314285Y-74902438D02*
X105219047Y-74854819D01*
X105219047Y-74854819D02*
X104980952Y-74854819D01*
X104980952Y-74854819D02*
X104885714Y-74902438D01*
X104885714Y-74902438D02*
X104838095Y-74950057D01*
X104838095Y-74950057D02*
X104790476Y-75045295D01*
X104790476Y-75045295D02*
X104790476Y-75140533D01*
X104790476Y-75140533D02*
X104838095Y-75283390D01*
X104838095Y-75283390D02*
X105409523Y-75854819D01*
X105409523Y-75854819D02*
X104790476Y-75854819D01*
X103933333Y-75188152D02*
X103933333Y-75854819D01*
X104171428Y-74807200D02*
X104409523Y-75521485D01*
X104409523Y-75521485D02*
X103790476Y-75521485D01*
X106761904Y-122754819D02*
X106761904Y-123564342D01*
X106761904Y-123564342D02*
X106714285Y-123659580D01*
X106714285Y-123659580D02*
X106666666Y-123707200D01*
X106666666Y-123707200D02*
X106571428Y-123754819D01*
X106571428Y-123754819D02*
X106380952Y-123754819D01*
X106380952Y-123754819D02*
X106285714Y-123707200D01*
X106285714Y-123707200D02*
X106238095Y-123659580D01*
X106238095Y-123659580D02*
X106190476Y-123564342D01*
X106190476Y-123564342D02*
X106190476Y-122754819D01*
X105238095Y-122754819D02*
X105714285Y-122754819D01*
X105714285Y-122754819D02*
X105761904Y-123231009D01*
X105761904Y-123231009D02*
X105714285Y-123183390D01*
X105714285Y-123183390D02*
X105619047Y-123135771D01*
X105619047Y-123135771D02*
X105380952Y-123135771D01*
X105380952Y-123135771D02*
X105285714Y-123183390D01*
X105285714Y-123183390D02*
X105238095Y-123231009D01*
X105238095Y-123231009D02*
X105190476Y-123326247D01*
X105190476Y-123326247D02*
X105190476Y-123564342D01*
X105190476Y-123564342D02*
X105238095Y-123659580D01*
X105238095Y-123659580D02*
X105285714Y-123707200D01*
X105285714Y-123707200D02*
X105380952Y-123754819D01*
X105380952Y-123754819D02*
X105619047Y-123754819D01*
X105619047Y-123754819D02*
X105714285Y-123707200D01*
X105714285Y-123707200D02*
X105761904Y-123659580D01*
X76761904Y-103854819D02*
X76761904Y-104664342D01*
X76761904Y-104664342D02*
X76714285Y-104759580D01*
X76714285Y-104759580D02*
X76666666Y-104807200D01*
X76666666Y-104807200D02*
X76571428Y-104854819D01*
X76571428Y-104854819D02*
X76380952Y-104854819D01*
X76380952Y-104854819D02*
X76285714Y-104807200D01*
X76285714Y-104807200D02*
X76238095Y-104759580D01*
X76238095Y-104759580D02*
X76190476Y-104664342D01*
X76190476Y-104664342D02*
X76190476Y-103854819D01*
X75761904Y-103950057D02*
X75714285Y-103902438D01*
X75714285Y-103902438D02*
X75619047Y-103854819D01*
X75619047Y-103854819D02*
X75380952Y-103854819D01*
X75380952Y-103854819D02*
X75285714Y-103902438D01*
X75285714Y-103902438D02*
X75238095Y-103950057D01*
X75238095Y-103950057D02*
X75190476Y-104045295D01*
X75190476Y-104045295D02*
X75190476Y-104140533D01*
X75190476Y-104140533D02*
X75238095Y-104283390D01*
X75238095Y-104283390D02*
X75809523Y-104854819D01*
X75809523Y-104854819D02*
X75190476Y-104854819D01*
X115542857Y-125554819D02*
X115876190Y-125078628D01*
X116114285Y-125554819D02*
X116114285Y-124554819D01*
X116114285Y-124554819D02*
X115733333Y-124554819D01*
X115733333Y-124554819D02*
X115638095Y-124602438D01*
X115638095Y-124602438D02*
X115590476Y-124650057D01*
X115590476Y-124650057D02*
X115542857Y-124745295D01*
X115542857Y-124745295D02*
X115542857Y-124888152D01*
X115542857Y-124888152D02*
X115590476Y-124983390D01*
X115590476Y-124983390D02*
X115638095Y-125031009D01*
X115638095Y-125031009D02*
X115733333Y-125078628D01*
X115733333Y-125078628D02*
X116114285Y-125078628D01*
X114590476Y-125554819D02*
X115161904Y-125554819D01*
X114876190Y-125554819D02*
X114876190Y-124554819D01*
X114876190Y-124554819D02*
X114971428Y-124697676D01*
X114971428Y-124697676D02*
X115066666Y-124792914D01*
X115066666Y-124792914D02*
X115161904Y-124840533D01*
X114114285Y-125554819D02*
X113923809Y-125554819D01*
X113923809Y-125554819D02*
X113828571Y-125507200D01*
X113828571Y-125507200D02*
X113780952Y-125459580D01*
X113780952Y-125459580D02*
X113685714Y-125316723D01*
X113685714Y-125316723D02*
X113638095Y-125126247D01*
X113638095Y-125126247D02*
X113638095Y-124745295D01*
X113638095Y-124745295D02*
X113685714Y-124650057D01*
X113685714Y-124650057D02*
X113733333Y-124602438D01*
X113733333Y-124602438D02*
X113828571Y-124554819D01*
X113828571Y-124554819D02*
X114019047Y-124554819D01*
X114019047Y-124554819D02*
X114114285Y-124602438D01*
X114114285Y-124602438D02*
X114161904Y-124650057D01*
X114161904Y-124650057D02*
X114209523Y-124745295D01*
X114209523Y-124745295D02*
X114209523Y-124983390D01*
X114209523Y-124983390D02*
X114161904Y-125078628D01*
X114161904Y-125078628D02*
X114114285Y-125126247D01*
X114114285Y-125126247D02*
X114019047Y-125173866D01*
X114019047Y-125173866D02*
X113828571Y-125173866D01*
X113828571Y-125173866D02*
X113733333Y-125126247D01*
X113733333Y-125126247D02*
X113685714Y-125078628D01*
X113685714Y-125078628D02*
X113638095Y-124983390D01*
X67666666Y-126354819D02*
X67999999Y-125878628D01*
X68238094Y-126354819D02*
X68238094Y-125354819D01*
X68238094Y-125354819D02*
X67857142Y-125354819D01*
X67857142Y-125354819D02*
X67761904Y-125402438D01*
X67761904Y-125402438D02*
X67714285Y-125450057D01*
X67714285Y-125450057D02*
X67666666Y-125545295D01*
X67666666Y-125545295D02*
X67666666Y-125688152D01*
X67666666Y-125688152D02*
X67714285Y-125783390D01*
X67714285Y-125783390D02*
X67761904Y-125831009D01*
X67761904Y-125831009D02*
X67857142Y-125878628D01*
X67857142Y-125878628D02*
X68238094Y-125878628D01*
X66761904Y-125354819D02*
X67238094Y-125354819D01*
X67238094Y-125354819D02*
X67285713Y-125831009D01*
X67285713Y-125831009D02*
X67238094Y-125783390D01*
X67238094Y-125783390D02*
X67142856Y-125735771D01*
X67142856Y-125735771D02*
X66904761Y-125735771D01*
X66904761Y-125735771D02*
X66809523Y-125783390D01*
X66809523Y-125783390D02*
X66761904Y-125831009D01*
X66761904Y-125831009D02*
X66714285Y-125926247D01*
X66714285Y-125926247D02*
X66714285Y-126164342D01*
X66714285Y-126164342D02*
X66761904Y-126259580D01*
X66761904Y-126259580D02*
X66809523Y-126307200D01*
X66809523Y-126307200D02*
X66904761Y-126354819D01*
X66904761Y-126354819D02*
X67142856Y-126354819D01*
X67142856Y-126354819D02*
X67238094Y-126307200D01*
X67238094Y-126307200D02*
X67285713Y-126259580D01*
X97442857Y-111654819D02*
X97776190Y-111178628D01*
X98014285Y-111654819D02*
X98014285Y-110654819D01*
X98014285Y-110654819D02*
X97633333Y-110654819D01*
X97633333Y-110654819D02*
X97538095Y-110702438D01*
X97538095Y-110702438D02*
X97490476Y-110750057D01*
X97490476Y-110750057D02*
X97442857Y-110845295D01*
X97442857Y-110845295D02*
X97442857Y-110988152D01*
X97442857Y-110988152D02*
X97490476Y-111083390D01*
X97490476Y-111083390D02*
X97538095Y-111131009D01*
X97538095Y-111131009D02*
X97633333Y-111178628D01*
X97633333Y-111178628D02*
X98014285Y-111178628D01*
X96490476Y-111654819D02*
X97061904Y-111654819D01*
X96776190Y-111654819D02*
X96776190Y-110654819D01*
X96776190Y-110654819D02*
X96871428Y-110797676D01*
X96871428Y-110797676D02*
X96966666Y-110892914D01*
X96966666Y-110892914D02*
X97061904Y-110940533D01*
X96109523Y-110750057D02*
X96061904Y-110702438D01*
X96061904Y-110702438D02*
X95966666Y-110654819D01*
X95966666Y-110654819D02*
X95728571Y-110654819D01*
X95728571Y-110654819D02*
X95633333Y-110702438D01*
X95633333Y-110702438D02*
X95585714Y-110750057D01*
X95585714Y-110750057D02*
X95538095Y-110845295D01*
X95538095Y-110845295D02*
X95538095Y-110940533D01*
X95538095Y-110940533D02*
X95585714Y-111083390D01*
X95585714Y-111083390D02*
X96157142Y-111654819D01*
X96157142Y-111654819D02*
X95538095Y-111654819D01*
X97442857Y-105354819D02*
X97776190Y-104878628D01*
X98014285Y-105354819D02*
X98014285Y-104354819D01*
X98014285Y-104354819D02*
X97633333Y-104354819D01*
X97633333Y-104354819D02*
X97538095Y-104402438D01*
X97538095Y-104402438D02*
X97490476Y-104450057D01*
X97490476Y-104450057D02*
X97442857Y-104545295D01*
X97442857Y-104545295D02*
X97442857Y-104688152D01*
X97442857Y-104688152D02*
X97490476Y-104783390D01*
X97490476Y-104783390D02*
X97538095Y-104831009D01*
X97538095Y-104831009D02*
X97633333Y-104878628D01*
X97633333Y-104878628D02*
X98014285Y-104878628D01*
X97061904Y-104450057D02*
X97014285Y-104402438D01*
X97014285Y-104402438D02*
X96919047Y-104354819D01*
X96919047Y-104354819D02*
X96680952Y-104354819D01*
X96680952Y-104354819D02*
X96585714Y-104402438D01*
X96585714Y-104402438D02*
X96538095Y-104450057D01*
X96538095Y-104450057D02*
X96490476Y-104545295D01*
X96490476Y-104545295D02*
X96490476Y-104640533D01*
X96490476Y-104640533D02*
X96538095Y-104783390D01*
X96538095Y-104783390D02*
X97109523Y-105354819D01*
X97109523Y-105354819D02*
X96490476Y-105354819D01*
X96157142Y-104354819D02*
X95490476Y-104354819D01*
X95490476Y-104354819D02*
X95919047Y-105354819D01*
X111566666Y-43534819D02*
X111899999Y-43058628D01*
X112138094Y-43534819D02*
X112138094Y-42534819D01*
X112138094Y-42534819D02*
X111757142Y-42534819D01*
X111757142Y-42534819D02*
X111661904Y-42582438D01*
X111661904Y-42582438D02*
X111614285Y-42630057D01*
X111614285Y-42630057D02*
X111566666Y-42725295D01*
X111566666Y-42725295D02*
X111566666Y-42868152D01*
X111566666Y-42868152D02*
X111614285Y-42963390D01*
X111614285Y-42963390D02*
X111661904Y-43011009D01*
X111661904Y-43011009D02*
X111757142Y-43058628D01*
X111757142Y-43058628D02*
X112138094Y-43058628D01*
X111185713Y-42630057D02*
X111138094Y-42582438D01*
X111138094Y-42582438D02*
X111042856Y-42534819D01*
X111042856Y-42534819D02*
X110804761Y-42534819D01*
X110804761Y-42534819D02*
X110709523Y-42582438D01*
X110709523Y-42582438D02*
X110661904Y-42630057D01*
X110661904Y-42630057D02*
X110614285Y-42725295D01*
X110614285Y-42725295D02*
X110614285Y-42820533D01*
X110614285Y-42820533D02*
X110661904Y-42963390D01*
X110661904Y-42963390D02*
X111233332Y-43534819D01*
X111233332Y-43534819D02*
X110614285Y-43534819D01*
X85642857Y-127954819D02*
X85976190Y-127478628D01*
X86214285Y-127954819D02*
X86214285Y-126954819D01*
X86214285Y-126954819D02*
X85833333Y-126954819D01*
X85833333Y-126954819D02*
X85738095Y-127002438D01*
X85738095Y-127002438D02*
X85690476Y-127050057D01*
X85690476Y-127050057D02*
X85642857Y-127145295D01*
X85642857Y-127145295D02*
X85642857Y-127288152D01*
X85642857Y-127288152D02*
X85690476Y-127383390D01*
X85690476Y-127383390D02*
X85738095Y-127431009D01*
X85738095Y-127431009D02*
X85833333Y-127478628D01*
X85833333Y-127478628D02*
X86214285Y-127478628D01*
X84690476Y-127954819D02*
X85261904Y-127954819D01*
X84976190Y-127954819D02*
X84976190Y-126954819D01*
X84976190Y-126954819D02*
X85071428Y-127097676D01*
X85071428Y-127097676D02*
X85166666Y-127192914D01*
X85166666Y-127192914D02*
X85261904Y-127240533D01*
X84071428Y-126954819D02*
X83976190Y-126954819D01*
X83976190Y-126954819D02*
X83880952Y-127002438D01*
X83880952Y-127002438D02*
X83833333Y-127050057D01*
X83833333Y-127050057D02*
X83785714Y-127145295D01*
X83785714Y-127145295D02*
X83738095Y-127335771D01*
X83738095Y-127335771D02*
X83738095Y-127573866D01*
X83738095Y-127573866D02*
X83785714Y-127764342D01*
X83785714Y-127764342D02*
X83833333Y-127859580D01*
X83833333Y-127859580D02*
X83880952Y-127907200D01*
X83880952Y-127907200D02*
X83976190Y-127954819D01*
X83976190Y-127954819D02*
X84071428Y-127954819D01*
X84071428Y-127954819D02*
X84166666Y-127907200D01*
X84166666Y-127907200D02*
X84214285Y-127859580D01*
X84214285Y-127859580D02*
X84261904Y-127764342D01*
X84261904Y-127764342D02*
X84309523Y-127573866D01*
X84309523Y-127573866D02*
X84309523Y-127335771D01*
X84309523Y-127335771D02*
X84261904Y-127145295D01*
X84261904Y-127145295D02*
X84214285Y-127050057D01*
X84214285Y-127050057D02*
X84166666Y-127002438D01*
X84166666Y-127002438D02*
X84071428Y-126954819D01*
X85942857Y-112659580D02*
X85990476Y-112707200D01*
X85990476Y-112707200D02*
X86133333Y-112754819D01*
X86133333Y-112754819D02*
X86228571Y-112754819D01*
X86228571Y-112754819D02*
X86371428Y-112707200D01*
X86371428Y-112707200D02*
X86466666Y-112611961D01*
X86466666Y-112611961D02*
X86514285Y-112516723D01*
X86514285Y-112516723D02*
X86561904Y-112326247D01*
X86561904Y-112326247D02*
X86561904Y-112183390D01*
X86561904Y-112183390D02*
X86514285Y-111992914D01*
X86514285Y-111992914D02*
X86466666Y-111897676D01*
X86466666Y-111897676D02*
X86371428Y-111802438D01*
X86371428Y-111802438D02*
X86228571Y-111754819D01*
X86228571Y-111754819D02*
X86133333Y-111754819D01*
X86133333Y-111754819D02*
X85990476Y-111802438D01*
X85990476Y-111802438D02*
X85942857Y-111850057D01*
X85561904Y-111850057D02*
X85514285Y-111802438D01*
X85514285Y-111802438D02*
X85419047Y-111754819D01*
X85419047Y-111754819D02*
X85180952Y-111754819D01*
X85180952Y-111754819D02*
X85085714Y-111802438D01*
X85085714Y-111802438D02*
X85038095Y-111850057D01*
X85038095Y-111850057D02*
X84990476Y-111945295D01*
X84990476Y-111945295D02*
X84990476Y-112040533D01*
X84990476Y-112040533D02*
X85038095Y-112183390D01*
X85038095Y-112183390D02*
X85609523Y-112754819D01*
X85609523Y-112754819D02*
X84990476Y-112754819D01*
X84419047Y-112183390D02*
X84514285Y-112135771D01*
X84514285Y-112135771D02*
X84561904Y-112088152D01*
X84561904Y-112088152D02*
X84609523Y-111992914D01*
X84609523Y-111992914D02*
X84609523Y-111945295D01*
X84609523Y-111945295D02*
X84561904Y-111850057D01*
X84561904Y-111850057D02*
X84514285Y-111802438D01*
X84514285Y-111802438D02*
X84419047Y-111754819D01*
X84419047Y-111754819D02*
X84228571Y-111754819D01*
X84228571Y-111754819D02*
X84133333Y-111802438D01*
X84133333Y-111802438D02*
X84085714Y-111850057D01*
X84085714Y-111850057D02*
X84038095Y-111945295D01*
X84038095Y-111945295D02*
X84038095Y-111992914D01*
X84038095Y-111992914D02*
X84085714Y-112088152D01*
X84085714Y-112088152D02*
X84133333Y-112135771D01*
X84133333Y-112135771D02*
X84228571Y-112183390D01*
X84228571Y-112183390D02*
X84419047Y-112183390D01*
X84419047Y-112183390D02*
X84514285Y-112231009D01*
X84514285Y-112231009D02*
X84561904Y-112278628D01*
X84561904Y-112278628D02*
X84609523Y-112373866D01*
X84609523Y-112373866D02*
X84609523Y-112564342D01*
X84609523Y-112564342D02*
X84561904Y-112659580D01*
X84561904Y-112659580D02*
X84514285Y-112707200D01*
X84514285Y-112707200D02*
X84419047Y-112754819D01*
X84419047Y-112754819D02*
X84228571Y-112754819D01*
X84228571Y-112754819D02*
X84133333Y-112707200D01*
X84133333Y-112707200D02*
X84085714Y-112659580D01*
X84085714Y-112659580D02*
X84038095Y-112564342D01*
X84038095Y-112564342D02*
X84038095Y-112373866D01*
X84038095Y-112373866D02*
X84085714Y-112278628D01*
X84085714Y-112278628D02*
X84133333Y-112231009D01*
X84133333Y-112231009D02*
X84228571Y-112183390D01*
X99489580Y-89157142D02*
X99537200Y-89109523D01*
X99537200Y-89109523D02*
X99584819Y-88966666D01*
X99584819Y-88966666D02*
X99584819Y-88871428D01*
X99584819Y-88871428D02*
X99537200Y-88728571D01*
X99537200Y-88728571D02*
X99441961Y-88633333D01*
X99441961Y-88633333D02*
X99346723Y-88585714D01*
X99346723Y-88585714D02*
X99156247Y-88538095D01*
X99156247Y-88538095D02*
X99013390Y-88538095D01*
X99013390Y-88538095D02*
X98822914Y-88585714D01*
X98822914Y-88585714D02*
X98727676Y-88633333D01*
X98727676Y-88633333D02*
X98632438Y-88728571D01*
X98632438Y-88728571D02*
X98584819Y-88871428D01*
X98584819Y-88871428D02*
X98584819Y-88966666D01*
X98584819Y-88966666D02*
X98632438Y-89109523D01*
X98632438Y-89109523D02*
X98680057Y-89157142D01*
X98584819Y-89490476D02*
X98584819Y-90109523D01*
X98584819Y-90109523D02*
X98965771Y-89776190D01*
X98965771Y-89776190D02*
X98965771Y-89919047D01*
X98965771Y-89919047D02*
X99013390Y-90014285D01*
X99013390Y-90014285D02*
X99061009Y-90061904D01*
X99061009Y-90061904D02*
X99156247Y-90109523D01*
X99156247Y-90109523D02*
X99394342Y-90109523D01*
X99394342Y-90109523D02*
X99489580Y-90061904D01*
X99489580Y-90061904D02*
X99537200Y-90014285D01*
X99537200Y-90014285D02*
X99584819Y-89919047D01*
X99584819Y-89919047D02*
X99584819Y-89633333D01*
X99584819Y-89633333D02*
X99537200Y-89538095D01*
X99537200Y-89538095D02*
X99489580Y-89490476D01*
X98918152Y-90966666D02*
X99584819Y-90966666D01*
X98537200Y-90728571D02*
X99251485Y-90490476D01*
X99251485Y-90490476D02*
X99251485Y-91109523D01*
X106761904Y-102874819D02*
X106761904Y-103684342D01*
X106761904Y-103684342D02*
X106714285Y-103779580D01*
X106714285Y-103779580D02*
X106666666Y-103827200D01*
X106666666Y-103827200D02*
X106571428Y-103874819D01*
X106571428Y-103874819D02*
X106380952Y-103874819D01*
X106380952Y-103874819D02*
X106285714Y-103827200D01*
X106285714Y-103827200D02*
X106238095Y-103779580D01*
X106238095Y-103779580D02*
X106190476Y-103684342D01*
X106190476Y-103684342D02*
X106190476Y-102874819D01*
X105809523Y-102874819D02*
X105142857Y-102874819D01*
X105142857Y-102874819D02*
X105571428Y-103874819D01*
X87859580Y-79757142D02*
X87907200Y-79709523D01*
X87907200Y-79709523D02*
X87954819Y-79566666D01*
X87954819Y-79566666D02*
X87954819Y-79471428D01*
X87954819Y-79471428D02*
X87907200Y-79328571D01*
X87907200Y-79328571D02*
X87811961Y-79233333D01*
X87811961Y-79233333D02*
X87716723Y-79185714D01*
X87716723Y-79185714D02*
X87526247Y-79138095D01*
X87526247Y-79138095D02*
X87383390Y-79138095D01*
X87383390Y-79138095D02*
X87192914Y-79185714D01*
X87192914Y-79185714D02*
X87097676Y-79233333D01*
X87097676Y-79233333D02*
X87002438Y-79328571D01*
X87002438Y-79328571D02*
X86954819Y-79471428D01*
X86954819Y-79471428D02*
X86954819Y-79566666D01*
X86954819Y-79566666D02*
X87002438Y-79709523D01*
X87002438Y-79709523D02*
X87050057Y-79757142D01*
X86954819Y-80090476D02*
X86954819Y-80709523D01*
X86954819Y-80709523D02*
X87335771Y-80376190D01*
X87335771Y-80376190D02*
X87335771Y-80519047D01*
X87335771Y-80519047D02*
X87383390Y-80614285D01*
X87383390Y-80614285D02*
X87431009Y-80661904D01*
X87431009Y-80661904D02*
X87526247Y-80709523D01*
X87526247Y-80709523D02*
X87764342Y-80709523D01*
X87764342Y-80709523D02*
X87859580Y-80661904D01*
X87859580Y-80661904D02*
X87907200Y-80614285D01*
X87907200Y-80614285D02*
X87954819Y-80519047D01*
X87954819Y-80519047D02*
X87954819Y-80233333D01*
X87954819Y-80233333D02*
X87907200Y-80138095D01*
X87907200Y-80138095D02*
X87859580Y-80090476D01*
X87383390Y-81280952D02*
X87335771Y-81185714D01*
X87335771Y-81185714D02*
X87288152Y-81138095D01*
X87288152Y-81138095D02*
X87192914Y-81090476D01*
X87192914Y-81090476D02*
X87145295Y-81090476D01*
X87145295Y-81090476D02*
X87050057Y-81138095D01*
X87050057Y-81138095D02*
X87002438Y-81185714D01*
X87002438Y-81185714D02*
X86954819Y-81280952D01*
X86954819Y-81280952D02*
X86954819Y-81471428D01*
X86954819Y-81471428D02*
X87002438Y-81566666D01*
X87002438Y-81566666D02*
X87050057Y-81614285D01*
X87050057Y-81614285D02*
X87145295Y-81661904D01*
X87145295Y-81661904D02*
X87192914Y-81661904D01*
X87192914Y-81661904D02*
X87288152Y-81614285D01*
X87288152Y-81614285D02*
X87335771Y-81566666D01*
X87335771Y-81566666D02*
X87383390Y-81471428D01*
X87383390Y-81471428D02*
X87383390Y-81280952D01*
X87383390Y-81280952D02*
X87431009Y-81185714D01*
X87431009Y-81185714D02*
X87478628Y-81138095D01*
X87478628Y-81138095D02*
X87573866Y-81090476D01*
X87573866Y-81090476D02*
X87764342Y-81090476D01*
X87764342Y-81090476D02*
X87859580Y-81138095D01*
X87859580Y-81138095D02*
X87907200Y-81185714D01*
X87907200Y-81185714D02*
X87954819Y-81280952D01*
X87954819Y-81280952D02*
X87954819Y-81471428D01*
X87954819Y-81471428D02*
X87907200Y-81566666D01*
X87907200Y-81566666D02*
X87859580Y-81614285D01*
X87859580Y-81614285D02*
X87764342Y-81661904D01*
X87764342Y-81661904D02*
X87573866Y-81661904D01*
X87573866Y-81661904D02*
X87478628Y-81614285D01*
X87478628Y-81614285D02*
X87431009Y-81566666D01*
X87431009Y-81566666D02*
X87383390Y-81471428D01*
X98189580Y-79757142D02*
X98237200Y-79709523D01*
X98237200Y-79709523D02*
X98284819Y-79566666D01*
X98284819Y-79566666D02*
X98284819Y-79471428D01*
X98284819Y-79471428D02*
X98237200Y-79328571D01*
X98237200Y-79328571D02*
X98141961Y-79233333D01*
X98141961Y-79233333D02*
X98046723Y-79185714D01*
X98046723Y-79185714D02*
X97856247Y-79138095D01*
X97856247Y-79138095D02*
X97713390Y-79138095D01*
X97713390Y-79138095D02*
X97522914Y-79185714D01*
X97522914Y-79185714D02*
X97427676Y-79233333D01*
X97427676Y-79233333D02*
X97332438Y-79328571D01*
X97332438Y-79328571D02*
X97284819Y-79471428D01*
X97284819Y-79471428D02*
X97284819Y-79566666D01*
X97284819Y-79566666D02*
X97332438Y-79709523D01*
X97332438Y-79709523D02*
X97380057Y-79757142D01*
X98284819Y-80709523D02*
X98284819Y-80138095D01*
X98284819Y-80423809D02*
X97284819Y-80423809D01*
X97284819Y-80423809D02*
X97427676Y-80328571D01*
X97427676Y-80328571D02*
X97522914Y-80233333D01*
X97522914Y-80233333D02*
X97570533Y-80138095D01*
X98284819Y-81185714D02*
X98284819Y-81376190D01*
X98284819Y-81376190D02*
X98237200Y-81471428D01*
X98237200Y-81471428D02*
X98189580Y-81519047D01*
X98189580Y-81519047D02*
X98046723Y-81614285D01*
X98046723Y-81614285D02*
X97856247Y-81661904D01*
X97856247Y-81661904D02*
X97475295Y-81661904D01*
X97475295Y-81661904D02*
X97380057Y-81614285D01*
X97380057Y-81614285D02*
X97332438Y-81566666D01*
X97332438Y-81566666D02*
X97284819Y-81471428D01*
X97284819Y-81471428D02*
X97284819Y-81280952D01*
X97284819Y-81280952D02*
X97332438Y-81185714D01*
X97332438Y-81185714D02*
X97380057Y-81138095D01*
X97380057Y-81138095D02*
X97475295Y-81090476D01*
X97475295Y-81090476D02*
X97713390Y-81090476D01*
X97713390Y-81090476D02*
X97808628Y-81138095D01*
X97808628Y-81138095D02*
X97856247Y-81185714D01*
X97856247Y-81185714D02*
X97903866Y-81280952D01*
X97903866Y-81280952D02*
X97903866Y-81471428D01*
X97903866Y-81471428D02*
X97856247Y-81566666D01*
X97856247Y-81566666D02*
X97808628Y-81614285D01*
X97808628Y-81614285D02*
X97713390Y-81661904D01*
X97342857Y-122059580D02*
X97390476Y-122107200D01*
X97390476Y-122107200D02*
X97533333Y-122154819D01*
X97533333Y-122154819D02*
X97628571Y-122154819D01*
X97628571Y-122154819D02*
X97771428Y-122107200D01*
X97771428Y-122107200D02*
X97866666Y-122011961D01*
X97866666Y-122011961D02*
X97914285Y-121916723D01*
X97914285Y-121916723D02*
X97961904Y-121726247D01*
X97961904Y-121726247D02*
X97961904Y-121583390D01*
X97961904Y-121583390D02*
X97914285Y-121392914D01*
X97914285Y-121392914D02*
X97866666Y-121297676D01*
X97866666Y-121297676D02*
X97771428Y-121202438D01*
X97771428Y-121202438D02*
X97628571Y-121154819D01*
X97628571Y-121154819D02*
X97533333Y-121154819D01*
X97533333Y-121154819D02*
X97390476Y-121202438D01*
X97390476Y-121202438D02*
X97342857Y-121250057D01*
X97009523Y-121154819D02*
X96390476Y-121154819D01*
X96390476Y-121154819D02*
X96723809Y-121535771D01*
X96723809Y-121535771D02*
X96580952Y-121535771D01*
X96580952Y-121535771D02*
X96485714Y-121583390D01*
X96485714Y-121583390D02*
X96438095Y-121631009D01*
X96438095Y-121631009D02*
X96390476Y-121726247D01*
X96390476Y-121726247D02*
X96390476Y-121964342D01*
X96390476Y-121964342D02*
X96438095Y-122059580D01*
X96438095Y-122059580D02*
X96485714Y-122107200D01*
X96485714Y-122107200D02*
X96580952Y-122154819D01*
X96580952Y-122154819D02*
X96866666Y-122154819D01*
X96866666Y-122154819D02*
X96961904Y-122107200D01*
X96961904Y-122107200D02*
X97009523Y-122059580D01*
X95533333Y-121154819D02*
X95723809Y-121154819D01*
X95723809Y-121154819D02*
X95819047Y-121202438D01*
X95819047Y-121202438D02*
X95866666Y-121250057D01*
X95866666Y-121250057D02*
X95961904Y-121392914D01*
X95961904Y-121392914D02*
X96009523Y-121583390D01*
X96009523Y-121583390D02*
X96009523Y-121964342D01*
X96009523Y-121964342D02*
X95961904Y-122059580D01*
X95961904Y-122059580D02*
X95914285Y-122107200D01*
X95914285Y-122107200D02*
X95819047Y-122154819D01*
X95819047Y-122154819D02*
X95628571Y-122154819D01*
X95628571Y-122154819D02*
X95533333Y-122107200D01*
X95533333Y-122107200D02*
X95485714Y-122059580D01*
X95485714Y-122059580D02*
X95438095Y-121964342D01*
X95438095Y-121964342D02*
X95438095Y-121726247D01*
X95438095Y-121726247D02*
X95485714Y-121631009D01*
X95485714Y-121631009D02*
X95533333Y-121583390D01*
X95533333Y-121583390D02*
X95628571Y-121535771D01*
X95628571Y-121535771D02*
X95819047Y-121535771D01*
X95819047Y-121535771D02*
X95914285Y-121583390D01*
X95914285Y-121583390D02*
X95961904Y-121631009D01*
X95961904Y-121631009D02*
X96009523Y-121726247D01*
X86042857Y-111159580D02*
X86090476Y-111207200D01*
X86090476Y-111207200D02*
X86233333Y-111254819D01*
X86233333Y-111254819D02*
X86328571Y-111254819D01*
X86328571Y-111254819D02*
X86471428Y-111207200D01*
X86471428Y-111207200D02*
X86566666Y-111111961D01*
X86566666Y-111111961D02*
X86614285Y-111016723D01*
X86614285Y-111016723D02*
X86661904Y-110826247D01*
X86661904Y-110826247D02*
X86661904Y-110683390D01*
X86661904Y-110683390D02*
X86614285Y-110492914D01*
X86614285Y-110492914D02*
X86566666Y-110397676D01*
X86566666Y-110397676D02*
X86471428Y-110302438D01*
X86471428Y-110302438D02*
X86328571Y-110254819D01*
X86328571Y-110254819D02*
X86233333Y-110254819D01*
X86233333Y-110254819D02*
X86090476Y-110302438D01*
X86090476Y-110302438D02*
X86042857Y-110350057D01*
X85090476Y-111254819D02*
X85661904Y-111254819D01*
X85376190Y-111254819D02*
X85376190Y-110254819D01*
X85376190Y-110254819D02*
X85471428Y-110397676D01*
X85471428Y-110397676D02*
X85566666Y-110492914D01*
X85566666Y-110492914D02*
X85661904Y-110540533D01*
X84757142Y-110254819D02*
X84138095Y-110254819D01*
X84138095Y-110254819D02*
X84471428Y-110635771D01*
X84471428Y-110635771D02*
X84328571Y-110635771D01*
X84328571Y-110635771D02*
X84233333Y-110683390D01*
X84233333Y-110683390D02*
X84185714Y-110731009D01*
X84185714Y-110731009D02*
X84138095Y-110826247D01*
X84138095Y-110826247D02*
X84138095Y-111064342D01*
X84138095Y-111064342D02*
X84185714Y-111159580D01*
X84185714Y-111159580D02*
X84233333Y-111207200D01*
X84233333Y-111207200D02*
X84328571Y-111254819D01*
X84328571Y-111254819D02*
X84614285Y-111254819D01*
X84614285Y-111254819D02*
X84709523Y-111207200D01*
X84709523Y-111207200D02*
X84757142Y-111159580D01*
X115642857Y-111754819D02*
X115976190Y-111278628D01*
X116214285Y-111754819D02*
X116214285Y-110754819D01*
X116214285Y-110754819D02*
X115833333Y-110754819D01*
X115833333Y-110754819D02*
X115738095Y-110802438D01*
X115738095Y-110802438D02*
X115690476Y-110850057D01*
X115690476Y-110850057D02*
X115642857Y-110945295D01*
X115642857Y-110945295D02*
X115642857Y-111088152D01*
X115642857Y-111088152D02*
X115690476Y-111183390D01*
X115690476Y-111183390D02*
X115738095Y-111231009D01*
X115738095Y-111231009D02*
X115833333Y-111278628D01*
X115833333Y-111278628D02*
X116214285Y-111278628D01*
X114690476Y-111754819D02*
X115261904Y-111754819D01*
X114976190Y-111754819D02*
X114976190Y-110754819D01*
X114976190Y-110754819D02*
X115071428Y-110897676D01*
X115071428Y-110897676D02*
X115166666Y-110992914D01*
X115166666Y-110992914D02*
X115261904Y-111040533D01*
X114119047Y-111183390D02*
X114214285Y-111135771D01*
X114214285Y-111135771D02*
X114261904Y-111088152D01*
X114261904Y-111088152D02*
X114309523Y-110992914D01*
X114309523Y-110992914D02*
X114309523Y-110945295D01*
X114309523Y-110945295D02*
X114261904Y-110850057D01*
X114261904Y-110850057D02*
X114214285Y-110802438D01*
X114214285Y-110802438D02*
X114119047Y-110754819D01*
X114119047Y-110754819D02*
X113928571Y-110754819D01*
X113928571Y-110754819D02*
X113833333Y-110802438D01*
X113833333Y-110802438D02*
X113785714Y-110850057D01*
X113785714Y-110850057D02*
X113738095Y-110945295D01*
X113738095Y-110945295D02*
X113738095Y-110992914D01*
X113738095Y-110992914D02*
X113785714Y-111088152D01*
X113785714Y-111088152D02*
X113833333Y-111135771D01*
X113833333Y-111135771D02*
X113928571Y-111183390D01*
X113928571Y-111183390D02*
X114119047Y-111183390D01*
X114119047Y-111183390D02*
X114214285Y-111231009D01*
X114214285Y-111231009D02*
X114261904Y-111278628D01*
X114261904Y-111278628D02*
X114309523Y-111373866D01*
X114309523Y-111373866D02*
X114309523Y-111564342D01*
X114309523Y-111564342D02*
X114261904Y-111659580D01*
X114261904Y-111659580D02*
X114214285Y-111707200D01*
X114214285Y-111707200D02*
X114119047Y-111754819D01*
X114119047Y-111754819D02*
X113928571Y-111754819D01*
X113928571Y-111754819D02*
X113833333Y-111707200D01*
X113833333Y-111707200D02*
X113785714Y-111659580D01*
X113785714Y-111659580D02*
X113738095Y-111564342D01*
X113738095Y-111564342D02*
X113738095Y-111373866D01*
X113738095Y-111373866D02*
X113785714Y-111278628D01*
X113785714Y-111278628D02*
X113833333Y-111231009D01*
X113833333Y-111231009D02*
X113928571Y-111183390D01*
X109666666Y-78259580D02*
X109714285Y-78307200D01*
X109714285Y-78307200D02*
X109857142Y-78354819D01*
X109857142Y-78354819D02*
X109952380Y-78354819D01*
X109952380Y-78354819D02*
X110095237Y-78307200D01*
X110095237Y-78307200D02*
X110190475Y-78211961D01*
X110190475Y-78211961D02*
X110238094Y-78116723D01*
X110238094Y-78116723D02*
X110285713Y-77926247D01*
X110285713Y-77926247D02*
X110285713Y-77783390D01*
X110285713Y-77783390D02*
X110238094Y-77592914D01*
X110238094Y-77592914D02*
X110190475Y-77497676D01*
X110190475Y-77497676D02*
X110095237Y-77402438D01*
X110095237Y-77402438D02*
X109952380Y-77354819D01*
X109952380Y-77354819D02*
X109857142Y-77354819D01*
X109857142Y-77354819D02*
X109714285Y-77402438D01*
X109714285Y-77402438D02*
X109666666Y-77450057D01*
X108761904Y-77354819D02*
X109238094Y-77354819D01*
X109238094Y-77354819D02*
X109285713Y-77831009D01*
X109285713Y-77831009D02*
X109238094Y-77783390D01*
X109238094Y-77783390D02*
X109142856Y-77735771D01*
X109142856Y-77735771D02*
X108904761Y-77735771D01*
X108904761Y-77735771D02*
X108809523Y-77783390D01*
X108809523Y-77783390D02*
X108761904Y-77831009D01*
X108761904Y-77831009D02*
X108714285Y-77926247D01*
X108714285Y-77926247D02*
X108714285Y-78164342D01*
X108714285Y-78164342D02*
X108761904Y-78259580D01*
X108761904Y-78259580D02*
X108809523Y-78307200D01*
X108809523Y-78307200D02*
X108904761Y-78354819D01*
X108904761Y-78354819D02*
X109142856Y-78354819D01*
X109142856Y-78354819D02*
X109238094Y-78307200D01*
X109238094Y-78307200D02*
X109285713Y-78259580D01*
X115642857Y-114954819D02*
X115976190Y-114478628D01*
X116214285Y-114954819D02*
X116214285Y-113954819D01*
X116214285Y-113954819D02*
X115833333Y-113954819D01*
X115833333Y-113954819D02*
X115738095Y-114002438D01*
X115738095Y-114002438D02*
X115690476Y-114050057D01*
X115690476Y-114050057D02*
X115642857Y-114145295D01*
X115642857Y-114145295D02*
X115642857Y-114288152D01*
X115642857Y-114288152D02*
X115690476Y-114383390D01*
X115690476Y-114383390D02*
X115738095Y-114431009D01*
X115738095Y-114431009D02*
X115833333Y-114478628D01*
X115833333Y-114478628D02*
X116214285Y-114478628D01*
X114690476Y-114954819D02*
X115261904Y-114954819D01*
X114976190Y-114954819D02*
X114976190Y-113954819D01*
X114976190Y-113954819D02*
X115071428Y-114097676D01*
X115071428Y-114097676D02*
X115166666Y-114192914D01*
X115166666Y-114192914D02*
X115261904Y-114240533D01*
X114357142Y-113954819D02*
X113738095Y-113954819D01*
X113738095Y-113954819D02*
X114071428Y-114335771D01*
X114071428Y-114335771D02*
X113928571Y-114335771D01*
X113928571Y-114335771D02*
X113833333Y-114383390D01*
X113833333Y-114383390D02*
X113785714Y-114431009D01*
X113785714Y-114431009D02*
X113738095Y-114526247D01*
X113738095Y-114526247D02*
X113738095Y-114764342D01*
X113738095Y-114764342D02*
X113785714Y-114859580D01*
X113785714Y-114859580D02*
X113833333Y-114907200D01*
X113833333Y-114907200D02*
X113928571Y-114954819D01*
X113928571Y-114954819D02*
X114214285Y-114954819D01*
X114214285Y-114954819D02*
X114309523Y-114907200D01*
X114309523Y-114907200D02*
X114357142Y-114859580D01*
X87461904Y-51273866D02*
X86700000Y-51273866D01*
X85700000Y-51654819D02*
X86271428Y-51654819D01*
X85985714Y-51654819D02*
X85985714Y-50654819D01*
X85985714Y-50654819D02*
X86080952Y-50797676D01*
X86080952Y-50797676D02*
X86176190Y-50892914D01*
X86176190Y-50892914D02*
X86271428Y-50940533D01*
X85319047Y-50750057D02*
X85271428Y-50702438D01*
X85271428Y-50702438D02*
X85176190Y-50654819D01*
X85176190Y-50654819D02*
X84938095Y-50654819D01*
X84938095Y-50654819D02*
X84842857Y-50702438D01*
X84842857Y-50702438D02*
X84795238Y-50750057D01*
X84795238Y-50750057D02*
X84747619Y-50845295D01*
X84747619Y-50845295D02*
X84747619Y-50940533D01*
X84747619Y-50940533D02*
X84795238Y-51083390D01*
X84795238Y-51083390D02*
X85366666Y-51654819D01*
X85366666Y-51654819D02*
X84747619Y-51654819D01*
X84461904Y-50654819D02*
X84128571Y-51654819D01*
X84128571Y-51654819D02*
X83795238Y-50654819D01*
X97442857Y-106854819D02*
X97776190Y-106378628D01*
X98014285Y-106854819D02*
X98014285Y-105854819D01*
X98014285Y-105854819D02*
X97633333Y-105854819D01*
X97633333Y-105854819D02*
X97538095Y-105902438D01*
X97538095Y-105902438D02*
X97490476Y-105950057D01*
X97490476Y-105950057D02*
X97442857Y-106045295D01*
X97442857Y-106045295D02*
X97442857Y-106188152D01*
X97442857Y-106188152D02*
X97490476Y-106283390D01*
X97490476Y-106283390D02*
X97538095Y-106331009D01*
X97538095Y-106331009D02*
X97633333Y-106378628D01*
X97633333Y-106378628D02*
X98014285Y-106378628D01*
X97061904Y-105950057D02*
X97014285Y-105902438D01*
X97014285Y-105902438D02*
X96919047Y-105854819D01*
X96919047Y-105854819D02*
X96680952Y-105854819D01*
X96680952Y-105854819D02*
X96585714Y-105902438D01*
X96585714Y-105902438D02*
X96538095Y-105950057D01*
X96538095Y-105950057D02*
X96490476Y-106045295D01*
X96490476Y-106045295D02*
X96490476Y-106140533D01*
X96490476Y-106140533D02*
X96538095Y-106283390D01*
X96538095Y-106283390D02*
X97109523Y-106854819D01*
X97109523Y-106854819D02*
X96490476Y-106854819D01*
X95633333Y-105854819D02*
X95823809Y-105854819D01*
X95823809Y-105854819D02*
X95919047Y-105902438D01*
X95919047Y-105902438D02*
X95966666Y-105950057D01*
X95966666Y-105950057D02*
X96061904Y-106092914D01*
X96061904Y-106092914D02*
X96109523Y-106283390D01*
X96109523Y-106283390D02*
X96109523Y-106664342D01*
X96109523Y-106664342D02*
X96061904Y-106759580D01*
X96061904Y-106759580D02*
X96014285Y-106807200D01*
X96014285Y-106807200D02*
X95919047Y-106854819D01*
X95919047Y-106854819D02*
X95728571Y-106854819D01*
X95728571Y-106854819D02*
X95633333Y-106807200D01*
X95633333Y-106807200D02*
X95585714Y-106759580D01*
X95585714Y-106759580D02*
X95538095Y-106664342D01*
X95538095Y-106664342D02*
X95538095Y-106426247D01*
X95538095Y-106426247D02*
X95585714Y-106331009D01*
X95585714Y-106331009D02*
X95633333Y-106283390D01*
X95633333Y-106283390D02*
X95728571Y-106235771D01*
X95728571Y-106235771D02*
X95919047Y-106235771D01*
X95919047Y-106235771D02*
X96014285Y-106283390D01*
X96014285Y-106283390D02*
X96061904Y-106331009D01*
X96061904Y-106331009D02*
X96109523Y-106426247D01*
X115642857Y-103554819D02*
X115976190Y-103078628D01*
X116214285Y-103554819D02*
X116214285Y-102554819D01*
X116214285Y-102554819D02*
X115833333Y-102554819D01*
X115833333Y-102554819D02*
X115738095Y-102602438D01*
X115738095Y-102602438D02*
X115690476Y-102650057D01*
X115690476Y-102650057D02*
X115642857Y-102745295D01*
X115642857Y-102745295D02*
X115642857Y-102888152D01*
X115642857Y-102888152D02*
X115690476Y-102983390D01*
X115690476Y-102983390D02*
X115738095Y-103031009D01*
X115738095Y-103031009D02*
X115833333Y-103078628D01*
X115833333Y-103078628D02*
X116214285Y-103078628D01*
X115309523Y-102554819D02*
X114690476Y-102554819D01*
X114690476Y-102554819D02*
X115023809Y-102935771D01*
X115023809Y-102935771D02*
X114880952Y-102935771D01*
X114880952Y-102935771D02*
X114785714Y-102983390D01*
X114785714Y-102983390D02*
X114738095Y-103031009D01*
X114738095Y-103031009D02*
X114690476Y-103126247D01*
X114690476Y-103126247D02*
X114690476Y-103364342D01*
X114690476Y-103364342D02*
X114738095Y-103459580D01*
X114738095Y-103459580D02*
X114785714Y-103507200D01*
X114785714Y-103507200D02*
X114880952Y-103554819D01*
X114880952Y-103554819D02*
X115166666Y-103554819D01*
X115166666Y-103554819D02*
X115261904Y-103507200D01*
X115261904Y-103507200D02*
X115309523Y-103459580D01*
X113833333Y-102888152D02*
X113833333Y-103554819D01*
X114071428Y-102507200D02*
X114309523Y-103221485D01*
X114309523Y-103221485D02*
X113690476Y-103221485D01*
X111366666Y-54209580D02*
X111414285Y-54257200D01*
X111414285Y-54257200D02*
X111557142Y-54304819D01*
X111557142Y-54304819D02*
X111652380Y-54304819D01*
X111652380Y-54304819D02*
X111795237Y-54257200D01*
X111795237Y-54257200D02*
X111890475Y-54161961D01*
X111890475Y-54161961D02*
X111938094Y-54066723D01*
X111938094Y-54066723D02*
X111985713Y-53876247D01*
X111985713Y-53876247D02*
X111985713Y-53733390D01*
X111985713Y-53733390D02*
X111938094Y-53542914D01*
X111938094Y-53542914D02*
X111890475Y-53447676D01*
X111890475Y-53447676D02*
X111795237Y-53352438D01*
X111795237Y-53352438D02*
X111652380Y-53304819D01*
X111652380Y-53304819D02*
X111557142Y-53304819D01*
X111557142Y-53304819D02*
X111414285Y-53352438D01*
X111414285Y-53352438D02*
X111366666Y-53400057D01*
X111033332Y-53304819D02*
X110366666Y-53304819D01*
X110366666Y-53304819D02*
X110795237Y-54304819D01*
X115542857Y-127154819D02*
X115876190Y-126678628D01*
X116114285Y-127154819D02*
X116114285Y-126154819D01*
X116114285Y-126154819D02*
X115733333Y-126154819D01*
X115733333Y-126154819D02*
X115638095Y-126202438D01*
X115638095Y-126202438D02*
X115590476Y-126250057D01*
X115590476Y-126250057D02*
X115542857Y-126345295D01*
X115542857Y-126345295D02*
X115542857Y-126488152D01*
X115542857Y-126488152D02*
X115590476Y-126583390D01*
X115590476Y-126583390D02*
X115638095Y-126631009D01*
X115638095Y-126631009D02*
X115733333Y-126678628D01*
X115733333Y-126678628D02*
X116114285Y-126678628D01*
X114590476Y-127154819D02*
X115161904Y-127154819D01*
X114876190Y-127154819D02*
X114876190Y-126154819D01*
X114876190Y-126154819D02*
X114971428Y-126297676D01*
X114971428Y-126297676D02*
X115066666Y-126392914D01*
X115066666Y-126392914D02*
X115161904Y-126440533D01*
X113733333Y-126154819D02*
X113923809Y-126154819D01*
X113923809Y-126154819D02*
X114019047Y-126202438D01*
X114019047Y-126202438D02*
X114066666Y-126250057D01*
X114066666Y-126250057D02*
X114161904Y-126392914D01*
X114161904Y-126392914D02*
X114209523Y-126583390D01*
X114209523Y-126583390D02*
X114209523Y-126964342D01*
X114209523Y-126964342D02*
X114161904Y-127059580D01*
X114161904Y-127059580D02*
X114114285Y-127107200D01*
X114114285Y-127107200D02*
X114019047Y-127154819D01*
X114019047Y-127154819D02*
X113828571Y-127154819D01*
X113828571Y-127154819D02*
X113733333Y-127107200D01*
X113733333Y-127107200D02*
X113685714Y-127059580D01*
X113685714Y-127059580D02*
X113638095Y-126964342D01*
X113638095Y-126964342D02*
X113638095Y-126726247D01*
X113638095Y-126726247D02*
X113685714Y-126631009D01*
X113685714Y-126631009D02*
X113733333Y-126583390D01*
X113733333Y-126583390D02*
X113828571Y-126535771D01*
X113828571Y-126535771D02*
X114019047Y-126535771D01*
X114019047Y-126535771D02*
X114114285Y-126583390D01*
X114114285Y-126583390D02*
X114161904Y-126631009D01*
X114161904Y-126631009D02*
X114209523Y-126726247D01*
X115642857Y-105059580D02*
X115690476Y-105107200D01*
X115690476Y-105107200D02*
X115833333Y-105154819D01*
X115833333Y-105154819D02*
X115928571Y-105154819D01*
X115928571Y-105154819D02*
X116071428Y-105107200D01*
X116071428Y-105107200D02*
X116166666Y-105011961D01*
X116166666Y-105011961D02*
X116214285Y-104916723D01*
X116214285Y-104916723D02*
X116261904Y-104726247D01*
X116261904Y-104726247D02*
X116261904Y-104583390D01*
X116261904Y-104583390D02*
X116214285Y-104392914D01*
X116214285Y-104392914D02*
X116166666Y-104297676D01*
X116166666Y-104297676D02*
X116071428Y-104202438D01*
X116071428Y-104202438D02*
X115928571Y-104154819D01*
X115928571Y-104154819D02*
X115833333Y-104154819D01*
X115833333Y-104154819D02*
X115690476Y-104202438D01*
X115690476Y-104202438D02*
X115642857Y-104250057D01*
X115309523Y-104154819D02*
X114690476Y-104154819D01*
X114690476Y-104154819D02*
X115023809Y-104535771D01*
X115023809Y-104535771D02*
X114880952Y-104535771D01*
X114880952Y-104535771D02*
X114785714Y-104583390D01*
X114785714Y-104583390D02*
X114738095Y-104631009D01*
X114738095Y-104631009D02*
X114690476Y-104726247D01*
X114690476Y-104726247D02*
X114690476Y-104964342D01*
X114690476Y-104964342D02*
X114738095Y-105059580D01*
X114738095Y-105059580D02*
X114785714Y-105107200D01*
X114785714Y-105107200D02*
X114880952Y-105154819D01*
X114880952Y-105154819D02*
X115166666Y-105154819D01*
X115166666Y-105154819D02*
X115261904Y-105107200D01*
X115261904Y-105107200D02*
X115309523Y-105059580D01*
X114357142Y-104154819D02*
X113690476Y-104154819D01*
X113690476Y-104154819D02*
X114119047Y-105154819D01*
X115642857Y-106854819D02*
X115976190Y-106378628D01*
X116214285Y-106854819D02*
X116214285Y-105854819D01*
X116214285Y-105854819D02*
X115833333Y-105854819D01*
X115833333Y-105854819D02*
X115738095Y-105902438D01*
X115738095Y-105902438D02*
X115690476Y-105950057D01*
X115690476Y-105950057D02*
X115642857Y-106045295D01*
X115642857Y-106045295D02*
X115642857Y-106188152D01*
X115642857Y-106188152D02*
X115690476Y-106283390D01*
X115690476Y-106283390D02*
X115738095Y-106331009D01*
X115738095Y-106331009D02*
X115833333Y-106378628D01*
X115833333Y-106378628D02*
X116214285Y-106378628D01*
X115309523Y-105854819D02*
X114690476Y-105854819D01*
X114690476Y-105854819D02*
X115023809Y-106235771D01*
X115023809Y-106235771D02*
X114880952Y-106235771D01*
X114880952Y-106235771D02*
X114785714Y-106283390D01*
X114785714Y-106283390D02*
X114738095Y-106331009D01*
X114738095Y-106331009D02*
X114690476Y-106426247D01*
X114690476Y-106426247D02*
X114690476Y-106664342D01*
X114690476Y-106664342D02*
X114738095Y-106759580D01*
X114738095Y-106759580D02*
X114785714Y-106807200D01*
X114785714Y-106807200D02*
X114880952Y-106854819D01*
X114880952Y-106854819D02*
X115166666Y-106854819D01*
X115166666Y-106854819D02*
X115261904Y-106807200D01*
X115261904Y-106807200D02*
X115309523Y-106759580D01*
X114357142Y-105854819D02*
X113738095Y-105854819D01*
X113738095Y-105854819D02*
X114071428Y-106235771D01*
X114071428Y-106235771D02*
X113928571Y-106235771D01*
X113928571Y-106235771D02*
X113833333Y-106283390D01*
X113833333Y-106283390D02*
X113785714Y-106331009D01*
X113785714Y-106331009D02*
X113738095Y-106426247D01*
X113738095Y-106426247D02*
X113738095Y-106664342D01*
X113738095Y-106664342D02*
X113785714Y-106759580D01*
X113785714Y-106759580D02*
X113833333Y-106807200D01*
X113833333Y-106807200D02*
X113928571Y-106854819D01*
X113928571Y-106854819D02*
X114214285Y-106854819D01*
X114214285Y-106854819D02*
X114309523Y-106807200D01*
X114309523Y-106807200D02*
X114357142Y-106759580D01*
X67666666Y-131154819D02*
X67999999Y-130678628D01*
X68238094Y-131154819D02*
X68238094Y-130154819D01*
X68238094Y-130154819D02*
X67857142Y-130154819D01*
X67857142Y-130154819D02*
X67761904Y-130202438D01*
X67761904Y-130202438D02*
X67714285Y-130250057D01*
X67714285Y-130250057D02*
X67666666Y-130345295D01*
X67666666Y-130345295D02*
X67666666Y-130488152D01*
X67666666Y-130488152D02*
X67714285Y-130583390D01*
X67714285Y-130583390D02*
X67761904Y-130631009D01*
X67761904Y-130631009D02*
X67857142Y-130678628D01*
X67857142Y-130678628D02*
X68238094Y-130678628D01*
X67190475Y-131154819D02*
X66999999Y-131154819D01*
X66999999Y-131154819D02*
X66904761Y-131107200D01*
X66904761Y-131107200D02*
X66857142Y-131059580D01*
X66857142Y-131059580D02*
X66761904Y-130916723D01*
X66761904Y-130916723D02*
X66714285Y-130726247D01*
X66714285Y-130726247D02*
X66714285Y-130345295D01*
X66714285Y-130345295D02*
X66761904Y-130250057D01*
X66761904Y-130250057D02*
X66809523Y-130202438D01*
X66809523Y-130202438D02*
X66904761Y-130154819D01*
X66904761Y-130154819D02*
X67095237Y-130154819D01*
X67095237Y-130154819D02*
X67190475Y-130202438D01*
X67190475Y-130202438D02*
X67238094Y-130250057D01*
X67238094Y-130250057D02*
X67285713Y-130345295D01*
X67285713Y-130345295D02*
X67285713Y-130583390D01*
X67285713Y-130583390D02*
X67238094Y-130678628D01*
X67238094Y-130678628D02*
X67190475Y-130726247D01*
X67190475Y-130726247D02*
X67095237Y-130773866D01*
X67095237Y-130773866D02*
X66904761Y-130773866D01*
X66904761Y-130773866D02*
X66809523Y-130726247D01*
X66809523Y-130726247D02*
X66761904Y-130678628D01*
X66761904Y-130678628D02*
X66714285Y-130583390D01*
X102742857Y-64929580D02*
X102790476Y-64977200D01*
X102790476Y-64977200D02*
X102933333Y-65024819D01*
X102933333Y-65024819D02*
X103028571Y-65024819D01*
X103028571Y-65024819D02*
X103171428Y-64977200D01*
X103171428Y-64977200D02*
X103266666Y-64881961D01*
X103266666Y-64881961D02*
X103314285Y-64786723D01*
X103314285Y-64786723D02*
X103361904Y-64596247D01*
X103361904Y-64596247D02*
X103361904Y-64453390D01*
X103361904Y-64453390D02*
X103314285Y-64262914D01*
X103314285Y-64262914D02*
X103266666Y-64167676D01*
X103266666Y-64167676D02*
X103171428Y-64072438D01*
X103171428Y-64072438D02*
X103028571Y-64024819D01*
X103028571Y-64024819D02*
X102933333Y-64024819D01*
X102933333Y-64024819D02*
X102790476Y-64072438D01*
X102790476Y-64072438D02*
X102742857Y-64120057D01*
X101790476Y-65024819D02*
X102361904Y-65024819D01*
X102076190Y-65024819D02*
X102076190Y-64024819D01*
X102076190Y-64024819D02*
X102171428Y-64167676D01*
X102171428Y-64167676D02*
X102266666Y-64262914D01*
X102266666Y-64262914D02*
X102361904Y-64310533D01*
X101457142Y-64024819D02*
X100790476Y-64024819D01*
X100790476Y-64024819D02*
X101219047Y-65024819D01*
X67666666Y-127954819D02*
X67999999Y-127478628D01*
X68238094Y-127954819D02*
X68238094Y-126954819D01*
X68238094Y-126954819D02*
X67857142Y-126954819D01*
X67857142Y-126954819D02*
X67761904Y-127002438D01*
X67761904Y-127002438D02*
X67714285Y-127050057D01*
X67714285Y-127050057D02*
X67666666Y-127145295D01*
X67666666Y-127145295D02*
X67666666Y-127288152D01*
X67666666Y-127288152D02*
X67714285Y-127383390D01*
X67714285Y-127383390D02*
X67761904Y-127431009D01*
X67761904Y-127431009D02*
X67857142Y-127478628D01*
X67857142Y-127478628D02*
X68238094Y-127478628D01*
X67333332Y-126954819D02*
X66666666Y-126954819D01*
X66666666Y-126954819D02*
X67095237Y-127954819D01*
X61295238Y-82259580D02*
X61342857Y-82307200D01*
X61342857Y-82307200D02*
X61485714Y-82354819D01*
X61485714Y-82354819D02*
X61580952Y-82354819D01*
X61580952Y-82354819D02*
X61723809Y-82307200D01*
X61723809Y-82307200D02*
X61819047Y-82211961D01*
X61819047Y-82211961D02*
X61866666Y-82116723D01*
X61866666Y-82116723D02*
X61914285Y-81926247D01*
X61914285Y-81926247D02*
X61914285Y-81783390D01*
X61914285Y-81783390D02*
X61866666Y-81592914D01*
X61866666Y-81592914D02*
X61819047Y-81497676D01*
X61819047Y-81497676D02*
X61723809Y-81402438D01*
X61723809Y-81402438D02*
X61580952Y-81354819D01*
X61580952Y-81354819D02*
X61485714Y-81354819D01*
X61485714Y-81354819D02*
X61342857Y-81402438D01*
X61342857Y-81402438D02*
X61295238Y-81450057D01*
X60390476Y-82354819D02*
X60866666Y-82354819D01*
X60866666Y-82354819D02*
X60866666Y-81354819D01*
X60057142Y-82354819D02*
X60057142Y-81354819D01*
X59485714Y-82354819D02*
X59914285Y-81783390D01*
X59485714Y-81354819D02*
X60057142Y-81926247D01*
X61661904Y-86462438D02*
X61757142Y-86414819D01*
X61757142Y-86414819D02*
X61899999Y-86414819D01*
X61899999Y-86414819D02*
X62042856Y-86462438D01*
X62042856Y-86462438D02*
X62138094Y-86557676D01*
X62138094Y-86557676D02*
X62185713Y-86652914D01*
X62185713Y-86652914D02*
X62233332Y-86843390D01*
X62233332Y-86843390D02*
X62233332Y-86986247D01*
X62233332Y-86986247D02*
X62185713Y-87176723D01*
X62185713Y-87176723D02*
X62138094Y-87271961D01*
X62138094Y-87271961D02*
X62042856Y-87367200D01*
X62042856Y-87367200D02*
X61899999Y-87414819D01*
X61899999Y-87414819D02*
X61804761Y-87414819D01*
X61804761Y-87414819D02*
X61661904Y-87367200D01*
X61661904Y-87367200D02*
X61614285Y-87319580D01*
X61614285Y-87319580D02*
X61614285Y-86986247D01*
X61614285Y-86986247D02*
X61804761Y-86986247D01*
X61185713Y-87414819D02*
X61185713Y-86414819D01*
X61185713Y-86414819D02*
X60614285Y-87414819D01*
X60614285Y-87414819D02*
X60614285Y-86414819D01*
X60138094Y-87414819D02*
X60138094Y-86414819D01*
X60138094Y-86414819D02*
X59899999Y-86414819D01*
X59899999Y-86414819D02*
X59757142Y-86462438D01*
X59757142Y-86462438D02*
X59661904Y-86557676D01*
X59661904Y-86557676D02*
X59614285Y-86652914D01*
X59614285Y-86652914D02*
X59566666Y-86843390D01*
X59566666Y-86843390D02*
X59566666Y-86986247D01*
X59566666Y-86986247D02*
X59614285Y-87176723D01*
X59614285Y-87176723D02*
X59661904Y-87271961D01*
X59661904Y-87271961D02*
X59757142Y-87367200D01*
X59757142Y-87367200D02*
X59899999Y-87414819D01*
X59899999Y-87414819D02*
X60138094Y-87414819D01*
X60723808Y-84854819D02*
X60723808Y-83854819D01*
X60057142Y-83854819D02*
X59866666Y-83854819D01*
X59866666Y-83854819D02*
X59771428Y-83902438D01*
X59771428Y-83902438D02*
X59676190Y-83997676D01*
X59676190Y-83997676D02*
X59628571Y-84188152D01*
X59628571Y-84188152D02*
X59628571Y-84521485D01*
X59628571Y-84521485D02*
X59676190Y-84711961D01*
X59676190Y-84711961D02*
X59771428Y-84807200D01*
X59771428Y-84807200D02*
X59866666Y-84854819D01*
X59866666Y-84854819D02*
X60057142Y-84854819D01*
X60057142Y-84854819D02*
X60152380Y-84807200D01*
X60152380Y-84807200D02*
X60247618Y-84711961D01*
X60247618Y-84711961D02*
X60295237Y-84521485D01*
X60295237Y-84521485D02*
X60295237Y-84188152D01*
X60295237Y-84188152D02*
X60247618Y-83997676D01*
X60247618Y-83997676D02*
X60152380Y-83902438D01*
X60152380Y-83902438D02*
X60057142Y-83854819D01*
X62576189Y-88954819D02*
X61957142Y-88954819D01*
X61957142Y-88954819D02*
X62290475Y-89335771D01*
X62290475Y-89335771D02*
X62147618Y-89335771D01*
X62147618Y-89335771D02*
X62052380Y-89383390D01*
X62052380Y-89383390D02*
X62004761Y-89431009D01*
X62004761Y-89431009D02*
X61957142Y-89526247D01*
X61957142Y-89526247D02*
X61957142Y-89764342D01*
X61957142Y-89764342D02*
X62004761Y-89859580D01*
X62004761Y-89859580D02*
X62052380Y-89907200D01*
X62052380Y-89907200D02*
X62147618Y-89954819D01*
X62147618Y-89954819D02*
X62433332Y-89954819D01*
X62433332Y-89954819D02*
X62528570Y-89907200D01*
X62528570Y-89907200D02*
X62576189Y-89859580D01*
X61528570Y-89859580D02*
X61480951Y-89907200D01*
X61480951Y-89907200D02*
X61528570Y-89954819D01*
X61528570Y-89954819D02*
X61576189Y-89907200D01*
X61576189Y-89907200D02*
X61528570Y-89859580D01*
X61528570Y-89859580D02*
X61528570Y-89954819D01*
X61147618Y-88954819D02*
X60528571Y-88954819D01*
X60528571Y-88954819D02*
X60861904Y-89335771D01*
X60861904Y-89335771D02*
X60719047Y-89335771D01*
X60719047Y-89335771D02*
X60623809Y-89383390D01*
X60623809Y-89383390D02*
X60576190Y-89431009D01*
X60576190Y-89431009D02*
X60528571Y-89526247D01*
X60528571Y-89526247D02*
X60528571Y-89764342D01*
X60528571Y-89764342D02*
X60576190Y-89859580D01*
X60576190Y-89859580D02*
X60623809Y-89907200D01*
X60623809Y-89907200D02*
X60719047Y-89954819D01*
X60719047Y-89954819D02*
X61004761Y-89954819D01*
X61004761Y-89954819D02*
X61099999Y-89907200D01*
X61099999Y-89907200D02*
X61147618Y-89859580D01*
X60242856Y-88954819D02*
X59909523Y-89954819D01*
X59909523Y-89954819D02*
X59576190Y-88954819D01*
X117359580Y-42633333D02*
X117407200Y-42585714D01*
X117407200Y-42585714D02*
X117454819Y-42442857D01*
X117454819Y-42442857D02*
X117454819Y-42347619D01*
X117454819Y-42347619D02*
X117407200Y-42204762D01*
X117407200Y-42204762D02*
X117311961Y-42109524D01*
X117311961Y-42109524D02*
X117216723Y-42061905D01*
X117216723Y-42061905D02*
X117026247Y-42014286D01*
X117026247Y-42014286D02*
X116883390Y-42014286D01*
X116883390Y-42014286D02*
X116692914Y-42061905D01*
X116692914Y-42061905D02*
X116597676Y-42109524D01*
X116597676Y-42109524D02*
X116502438Y-42204762D01*
X116502438Y-42204762D02*
X116454819Y-42347619D01*
X116454819Y-42347619D02*
X116454819Y-42442857D01*
X116454819Y-42442857D02*
X116502438Y-42585714D01*
X116502438Y-42585714D02*
X116550057Y-42633333D01*
X116883390Y-43204762D02*
X116835771Y-43109524D01*
X116835771Y-43109524D02*
X116788152Y-43061905D01*
X116788152Y-43061905D02*
X116692914Y-43014286D01*
X116692914Y-43014286D02*
X116645295Y-43014286D01*
X116645295Y-43014286D02*
X116550057Y-43061905D01*
X116550057Y-43061905D02*
X116502438Y-43109524D01*
X116502438Y-43109524D02*
X116454819Y-43204762D01*
X116454819Y-43204762D02*
X116454819Y-43395238D01*
X116454819Y-43395238D02*
X116502438Y-43490476D01*
X116502438Y-43490476D02*
X116550057Y-43538095D01*
X116550057Y-43538095D02*
X116645295Y-43585714D01*
X116645295Y-43585714D02*
X116692914Y-43585714D01*
X116692914Y-43585714D02*
X116788152Y-43538095D01*
X116788152Y-43538095D02*
X116835771Y-43490476D01*
X116835771Y-43490476D02*
X116883390Y-43395238D01*
X116883390Y-43395238D02*
X116883390Y-43204762D01*
X116883390Y-43204762D02*
X116931009Y-43109524D01*
X116931009Y-43109524D02*
X116978628Y-43061905D01*
X116978628Y-43061905D02*
X117073866Y-43014286D01*
X117073866Y-43014286D02*
X117264342Y-43014286D01*
X117264342Y-43014286D02*
X117359580Y-43061905D01*
X117359580Y-43061905D02*
X117407200Y-43109524D01*
X117407200Y-43109524D02*
X117454819Y-43204762D01*
X117454819Y-43204762D02*
X117454819Y-43395238D01*
X117454819Y-43395238D02*
X117407200Y-43490476D01*
X117407200Y-43490476D02*
X117359580Y-43538095D01*
X117359580Y-43538095D02*
X117264342Y-43585714D01*
X117264342Y-43585714D02*
X117073866Y-43585714D01*
X117073866Y-43585714D02*
X116978628Y-43538095D01*
X116978628Y-43538095D02*
X116931009Y-43490476D01*
X116931009Y-43490476D02*
X116883390Y-43395238D01*
X120454819Y-41757142D02*
X119978628Y-41423809D01*
X120454819Y-41185714D02*
X119454819Y-41185714D01*
X119454819Y-41185714D02*
X119454819Y-41566666D01*
X119454819Y-41566666D02*
X119502438Y-41661904D01*
X119502438Y-41661904D02*
X119550057Y-41709523D01*
X119550057Y-41709523D02*
X119645295Y-41757142D01*
X119645295Y-41757142D02*
X119788152Y-41757142D01*
X119788152Y-41757142D02*
X119883390Y-41709523D01*
X119883390Y-41709523D02*
X119931009Y-41661904D01*
X119931009Y-41661904D02*
X119978628Y-41566666D01*
X119978628Y-41566666D02*
X119978628Y-41185714D01*
X120454819Y-42709523D02*
X120454819Y-42138095D01*
X120454819Y-42423809D02*
X119454819Y-42423809D01*
X119454819Y-42423809D02*
X119597676Y-42328571D01*
X119597676Y-42328571D02*
X119692914Y-42233333D01*
X119692914Y-42233333D02*
X119740533Y-42138095D01*
X119454819Y-43614285D02*
X119454819Y-43138095D01*
X119454819Y-43138095D02*
X119931009Y-43090476D01*
X119931009Y-43090476D02*
X119883390Y-43138095D01*
X119883390Y-43138095D02*
X119835771Y-43233333D01*
X119835771Y-43233333D02*
X119835771Y-43471428D01*
X119835771Y-43471428D02*
X119883390Y-43566666D01*
X119883390Y-43566666D02*
X119931009Y-43614285D01*
X119931009Y-43614285D02*
X120026247Y-43661904D01*
X120026247Y-43661904D02*
X120264342Y-43661904D01*
X120264342Y-43661904D02*
X120359580Y-43614285D01*
X120359580Y-43614285D02*
X120407200Y-43566666D01*
X120407200Y-43566666D02*
X120454819Y-43471428D01*
X120454819Y-43471428D02*
X120454819Y-43233333D01*
X120454819Y-43233333D02*
X120407200Y-43138095D01*
X120407200Y-43138095D02*
X120359580Y-43090476D01*
X74738094Y-40654819D02*
X74738094Y-39654819D01*
X74738094Y-39654819D02*
X74499999Y-39654819D01*
X74499999Y-39654819D02*
X74357142Y-39702438D01*
X74357142Y-39702438D02*
X74261904Y-39797676D01*
X74261904Y-39797676D02*
X74214285Y-39892914D01*
X74214285Y-39892914D02*
X74166666Y-40083390D01*
X74166666Y-40083390D02*
X74166666Y-40226247D01*
X74166666Y-40226247D02*
X74214285Y-40416723D01*
X74214285Y-40416723D02*
X74261904Y-40511961D01*
X74261904Y-40511961D02*
X74357142Y-40607200D01*
X74357142Y-40607200D02*
X74499999Y-40654819D01*
X74499999Y-40654819D02*
X74738094Y-40654819D01*
X73785713Y-39750057D02*
X73738094Y-39702438D01*
X73738094Y-39702438D02*
X73642856Y-39654819D01*
X73642856Y-39654819D02*
X73404761Y-39654819D01*
X73404761Y-39654819D02*
X73309523Y-39702438D01*
X73309523Y-39702438D02*
X73261904Y-39750057D01*
X73261904Y-39750057D02*
X73214285Y-39845295D01*
X73214285Y-39845295D02*
X73214285Y-39940533D01*
X73214285Y-39940533D02*
X73261904Y-40083390D01*
X73261904Y-40083390D02*
X73833332Y-40654819D01*
X73833332Y-40654819D02*
X73214285Y-40654819D01*
X110059580Y-66757142D02*
X110107200Y-66709523D01*
X110107200Y-66709523D02*
X110154819Y-66566666D01*
X110154819Y-66566666D02*
X110154819Y-66471428D01*
X110154819Y-66471428D02*
X110107200Y-66328571D01*
X110107200Y-66328571D02*
X110011961Y-66233333D01*
X110011961Y-66233333D02*
X109916723Y-66185714D01*
X109916723Y-66185714D02*
X109726247Y-66138095D01*
X109726247Y-66138095D02*
X109583390Y-66138095D01*
X109583390Y-66138095D02*
X109392914Y-66185714D01*
X109392914Y-66185714D02*
X109297676Y-66233333D01*
X109297676Y-66233333D02*
X109202438Y-66328571D01*
X109202438Y-66328571D02*
X109154819Y-66471428D01*
X109154819Y-66471428D02*
X109154819Y-66566666D01*
X109154819Y-66566666D02*
X109202438Y-66709523D01*
X109202438Y-66709523D02*
X109250057Y-66757142D01*
X110154819Y-67709523D02*
X110154819Y-67138095D01*
X110154819Y-67423809D02*
X109154819Y-67423809D01*
X109154819Y-67423809D02*
X109297676Y-67328571D01*
X109297676Y-67328571D02*
X109392914Y-67233333D01*
X109392914Y-67233333D02*
X109440533Y-67138095D01*
X109488152Y-68566666D02*
X110154819Y-68566666D01*
X109107200Y-68328571D02*
X109821485Y-68090476D01*
X109821485Y-68090476D02*
X109821485Y-68709523D01*
X116066666Y-58954819D02*
X116542856Y-58954819D01*
X116542856Y-58954819D02*
X116542856Y-57954819D01*
X115780951Y-58050057D02*
X115733332Y-58002438D01*
X115733332Y-58002438D02*
X115638094Y-57954819D01*
X115638094Y-57954819D02*
X115399999Y-57954819D01*
X115399999Y-57954819D02*
X115304761Y-58002438D01*
X115304761Y-58002438D02*
X115257142Y-58050057D01*
X115257142Y-58050057D02*
X115209523Y-58145295D01*
X115209523Y-58145295D02*
X115209523Y-58240533D01*
X115209523Y-58240533D02*
X115257142Y-58383390D01*
X115257142Y-58383390D02*
X115828570Y-58954819D01*
X115828570Y-58954819D02*
X115209523Y-58954819D01*
X118561904Y-84954819D02*
X118561904Y-85764342D01*
X118561904Y-85764342D02*
X118514285Y-85859580D01*
X118514285Y-85859580D02*
X118466666Y-85907200D01*
X118466666Y-85907200D02*
X118371428Y-85954819D01*
X118371428Y-85954819D02*
X118180952Y-85954819D01*
X118180952Y-85954819D02*
X118085714Y-85907200D01*
X118085714Y-85907200D02*
X118038095Y-85859580D01*
X118038095Y-85859580D02*
X117990476Y-85764342D01*
X117990476Y-85764342D02*
X117990476Y-84954819D01*
X117085714Y-85288152D02*
X117085714Y-85954819D01*
X117323809Y-84907200D02*
X117561904Y-85621485D01*
X117561904Y-85621485D02*
X116942857Y-85621485D01*
D13*
%TO.C,D3*%
X99050000Y-115540000D02*
X99700000Y-115540000D01*
X99050000Y-118660000D02*
X99700000Y-118660000D01*
X100350000Y-115540000D02*
X99700000Y-115540000D01*
X100350000Y-118660000D02*
X99700000Y-118660000D01*
X100862500Y-115590000D02*
X100622500Y-115260000D01*
X101102500Y-115260000D01*
X100862500Y-115590000D01*
G36*
X100862500Y-115590000D02*
G01*
X100622500Y-115260000D01*
X101102500Y-115260000D01*
X100862500Y-115590000D01*
G37*
%TO.C,C16*%
X97590000Y-58140580D02*
X97590000Y-57859420D01*
X98610000Y-58140580D02*
X98610000Y-57859420D01*
%TO.C,C21*%
X78740580Y-62390000D02*
X78459420Y-62390000D01*
X78740580Y-63410000D02*
X78459420Y-63410000D01*
%TO.C,C1*%
X104740000Y-44740000D02*
X104740000Y-48195563D01*
X104740000Y-48195563D02*
X105804437Y-49260000D01*
X105940000Y-44740000D02*
X104740000Y-44740000D01*
X105940000Y-49260000D02*
X105804437Y-49260000D01*
X108060000Y-44740000D02*
X109260000Y-44740000D01*
X108060000Y-49260000D02*
X108195563Y-49260000D01*
X108310000Y-49750000D02*
X108810000Y-49750000D01*
X108560000Y-49500000D02*
X108560000Y-50000000D01*
X109260000Y-44740000D02*
X109260000Y-48195563D01*
X109260000Y-48195563D02*
X108195563Y-49260000D01*
%TO.C,C22*%
X95990000Y-58140580D02*
X95990000Y-57859420D01*
X97010000Y-58140580D02*
X97010000Y-57859420D01*
%TO.C,C11*%
X69359420Y-106590000D02*
X69640580Y-106590000D01*
X69359420Y-107610000D02*
X69640580Y-107610000D01*
%TO.C,C32*%
X82140580Y-128690000D02*
X81859420Y-128690000D01*
X82140580Y-129710000D02*
X81859420Y-129710000D01*
%TO.C,C9*%
X116590000Y-52088748D02*
X116590000Y-53511252D01*
X118410000Y-52088748D02*
X118410000Y-53511252D01*
%TO.C,R25*%
X99462742Y-107477500D02*
X99937258Y-107477500D01*
X99462742Y-108522500D02*
X99937258Y-108522500D01*
%TO.C,C20*%
X83890000Y-80259420D02*
X83890000Y-80540580D01*
X84910000Y-80259420D02*
X84910000Y-80540580D01*
%TO.C,R30*%
X78362742Y-69977500D02*
X78837258Y-69977500D01*
X78362742Y-71022500D02*
X78837258Y-71022500D01*
%TO.C,R3*%
X69662742Y-123777500D02*
X70137258Y-123777500D01*
X69662742Y-124822500D02*
X70137258Y-124822500D01*
%TO.C,C31*%
X70040580Y-128590000D02*
X69759420Y-128590000D01*
X70040580Y-129610000D02*
X69759420Y-129610000D01*
%TO.C,C2*%
X71740000Y-45804437D02*
X72804437Y-44740000D01*
X71740000Y-49260000D02*
X71740000Y-45804437D01*
X72440000Y-44500000D02*
X72440000Y-44000000D01*
X72690000Y-44250000D02*
X72190000Y-44250000D01*
X72940000Y-44740000D02*
X72804437Y-44740000D01*
X72940000Y-49260000D02*
X71740000Y-49260000D01*
X75060000Y-44740000D02*
X75195563Y-44740000D01*
X75060000Y-49260000D02*
X76260000Y-49260000D01*
X76260000Y-45804437D02*
X75195563Y-44740000D01*
X76260000Y-49260000D02*
X76260000Y-45804437D01*
%TO.C,Y1*%
X103800000Y-66500000D02*
X103800000Y-72400000D01*
X103800000Y-72400000D02*
X107400000Y-72400000D01*
X107400000Y-72400000D02*
X107400000Y-66500000D01*
%TO.C,R6*%
X82237258Y-125377500D02*
X81762742Y-125377500D01*
X82237258Y-126422500D02*
X81762742Y-126422500D01*
%TO.C,U3*%
X112340000Y-46120000D02*
X112340000Y-47880000D01*
X115410000Y-46120000D02*
X115410000Y-46920000D01*
X115410000Y-47720000D02*
X115410000Y-46920000D01*
X115690000Y-48460000D02*
X115360000Y-48220000D01*
X115690000Y-47980000D01*
X115690000Y-48460000D01*
G36*
X115690000Y-48460000D02*
G01*
X115360000Y-48220000D01*
X115690000Y-47980000D01*
X115690000Y-48460000D01*
G37*
%TO.C,C12*%
X69359420Y-104990000D02*
X69640580Y-104990000D01*
X69359420Y-106010000D02*
X69640580Y-106010000D01*
%TO.C,U6*%
X86640000Y-87140000D02*
X90500000Y-87140000D01*
X86640000Y-87395000D02*
X86640000Y-87140000D01*
X86640000Y-97405000D02*
X86640000Y-97660000D01*
X86640000Y-97660000D02*
X90500000Y-97660000D01*
X94360000Y-87140000D02*
X90500000Y-87140000D01*
X94360000Y-87395000D02*
X94360000Y-87140000D01*
X94360000Y-97405000D02*
X94360000Y-97660000D01*
X94360000Y-97660000D02*
X90500000Y-97660000D01*
X86127500Y-97875000D02*
X85447500Y-97875000D01*
X85787500Y-97405000D01*
X86127500Y-97875000D01*
G36*
X86127500Y-97875000D02*
G01*
X85447500Y-97875000D01*
X85787500Y-97405000D01*
X86127500Y-97875000D01*
G37*
%TO.C,R4*%
X82237258Y-123777500D02*
X81762742Y-123777500D01*
X82237258Y-124822500D02*
X81762742Y-124822500D01*
%TO.C,R14*%
X99937258Y-119577500D02*
X99462742Y-119577500D01*
X99937258Y-120622500D02*
X99462742Y-120622500D01*
%TO.C,R1*%
X113662742Y-41027500D02*
X114137258Y-41027500D01*
X113662742Y-42072500D02*
X114137258Y-42072500D01*
%TO.C,R23*%
X99462742Y-123777500D02*
X99937258Y-123777500D01*
X99462742Y-124822500D02*
X99937258Y-124822500D01*
%TO.C,R8*%
X82237258Y-130277500D02*
X81762742Y-130277500D01*
X82237258Y-131322500D02*
X81762742Y-131322500D01*
%TO.C,R24*%
X99462742Y-125377500D02*
X99937258Y-125377500D01*
X99462742Y-126422500D02*
X99937258Y-126422500D01*
%TO.C,R20*%
X112337258Y-112377500D02*
X111862742Y-112377500D01*
X112337258Y-113422500D02*
X111862742Y-113422500D01*
%TO.C,D1*%
X105350000Y-40900000D02*
X109360000Y-40900000D01*
X105350000Y-42900000D02*
X109360000Y-42900000D01*
X109360000Y-42900000D02*
X109360000Y-40900000D01*
%TO.C,U8*%
X74050000Y-124140000D02*
X76000000Y-124140000D01*
X74050000Y-129260000D02*
X76000000Y-129260000D01*
X77950000Y-124140000D02*
X76000000Y-124140000D01*
X77950000Y-129260000D02*
X76000000Y-129260000D01*
X73540000Y-129495000D02*
X73060000Y-129495000D01*
X73300000Y-129165000D01*
X73540000Y-129495000D01*
G36*
X73540000Y-129495000D02*
G01*
X73060000Y-129495000D01*
X73300000Y-129165000D01*
X73540000Y-129495000D01*
G37*
%TO.C,R32*%
X112337258Y-109077500D02*
X111862742Y-109077500D01*
X112337258Y-110122500D02*
X111862742Y-110122500D01*
%TO.C,R22*%
X99462742Y-128577500D02*
X99937258Y-128577500D01*
X99462742Y-129622500D02*
X99937258Y-129622500D01*
%TO.C,R11*%
X99462742Y-109077500D02*
X99937258Y-109077500D01*
X99462742Y-110122500D02*
X99937258Y-110122500D01*
%TO.C,C27*%
X82259420Y-108690000D02*
X82540580Y-108690000D01*
X82259420Y-109710000D02*
X82540580Y-109710000D01*
%TO.C,C4*%
X101959420Y-71590000D02*
X102240580Y-71590000D01*
X101959420Y-72610000D02*
X102240580Y-72610000D01*
%TO.C,C25*%
X69359420Y-109990000D02*
X69640580Y-109990000D01*
X69359420Y-111010000D02*
X69640580Y-111010000D01*
%TO.C,R17*%
X112237258Y-127777500D02*
X111762742Y-127777500D01*
X112237258Y-128822500D02*
X111762742Y-128822500D01*
%TO.C,C6*%
X114161252Y-50715000D02*
X113638748Y-50715000D01*
X114161252Y-52185000D02*
X113638748Y-52185000D01*
%TO.C,C39*%
X78459420Y-63990000D02*
X78740580Y-63990000D01*
X78459420Y-65010000D02*
X78740580Y-65010000D01*
%TO.C,C30*%
X82140580Y-122190000D02*
X81859420Y-122190000D01*
X82140580Y-123210000D02*
X81859420Y-123210000D01*
%TO.C,C33*%
X82690000Y-97240580D02*
X82690000Y-96959420D01*
X83710000Y-97240580D02*
X83710000Y-96959420D01*
%TO.C,C23*%
X101959420Y-73190000D02*
X102240580Y-73190000D01*
X101959420Y-74210000D02*
X102240580Y-74210000D01*
%TO.C,R21*%
X99462742Y-112277500D02*
X99937258Y-112277500D01*
X99462742Y-113322500D02*
X99937258Y-113322500D01*
%TO.C,C29*%
X69759420Y-122190000D02*
X70040580Y-122190000D01*
X69759420Y-123210000D02*
X70040580Y-123210000D01*
%TO.C,J7*%
X87895000Y-52370000D02*
X89225000Y-52370000D01*
X87895000Y-53700000D02*
X87895000Y-52370000D01*
X90495000Y-55030000D02*
X90495000Y-52370000D01*
X93095000Y-52370000D02*
X90495000Y-52370000D01*
X93095000Y-55030000D02*
X90495000Y-55030000D01*
X93095000Y-55030000D02*
X93095000Y-52370000D01*
%TO.C,C10*%
X69359420Y-111590000D02*
X69640580Y-111590000D01*
X69359420Y-112610000D02*
X69640580Y-112610000D01*
%TO.C,R31*%
X111862742Y-107477500D02*
X112337258Y-107477500D01*
X111862742Y-108522500D02*
X112337258Y-108522500D01*
%TO.C,C26*%
X69359420Y-108390000D02*
X69640580Y-108390000D01*
X69359420Y-109410000D02*
X69640580Y-109410000D01*
%TO.C,C15*%
X107790000Y-70859420D02*
X107790000Y-71140580D01*
X108810000Y-70859420D02*
X108810000Y-71140580D01*
%TO.C,C35*%
X99559420Y-126990000D02*
X99840580Y-126990000D01*
X99559420Y-128010000D02*
X99840580Y-128010000D01*
%TO.C,U1*%
X83390000Y-62390000D02*
X84090000Y-62390000D01*
X83390000Y-63090000D02*
X83390000Y-62390000D01*
X83390000Y-75910000D02*
X83390000Y-76610000D01*
X83390000Y-76610000D02*
X84090000Y-76610000D01*
X97610000Y-62390000D02*
X96910000Y-62390000D01*
X97610000Y-63090000D02*
X97610000Y-62390000D01*
X97610000Y-75910000D02*
X97610000Y-76610000D01*
X97610000Y-76610000D02*
X96910000Y-76610000D01*
X98237500Y-63090000D02*
X97897500Y-62620000D01*
X98577500Y-62620000D01*
X98237500Y-63090000D01*
G36*
X98237500Y-63090000D02*
G01*
X97897500Y-62620000D01*
X98577500Y-62620000D01*
X98237500Y-63090000D01*
G37*
%TO.C,C24*%
X101959420Y-74890000D02*
X102240580Y-74890000D01*
X101959420Y-75910000D02*
X102240580Y-75910000D01*
%TO.C,U5*%
X104050000Y-124140000D02*
X106000000Y-124140000D01*
X104050000Y-129260000D02*
X106000000Y-129260000D01*
X107950000Y-124140000D02*
X106000000Y-124140000D01*
X107950000Y-129260000D02*
X106000000Y-129260000D01*
X108700000Y-124235000D02*
X108460000Y-123905000D01*
X108940000Y-123905000D01*
X108700000Y-124235000D01*
G36*
X108700000Y-124235000D02*
G01*
X108460000Y-123905000D01*
X108940000Y-123905000D01*
X108700000Y-124235000D01*
G37*
%TO.C,U2*%
X73800000Y-105315000D02*
X76000000Y-105315000D01*
X73800000Y-112085000D02*
X76000000Y-112085000D01*
X78200000Y-105315000D02*
X76000000Y-105315000D01*
X78200000Y-112085000D02*
X76000000Y-112085000D01*
X72140000Y-111625000D02*
X71810000Y-111865000D01*
X71810000Y-111385000D01*
X72140000Y-111625000D01*
G36*
X72140000Y-111625000D02*
G01*
X71810000Y-111865000D01*
X71810000Y-111385000D01*
X72140000Y-111625000D01*
G37*
%TO.C,R19*%
X112237258Y-124577500D02*
X111762742Y-124577500D01*
X112237258Y-125622500D02*
X111762742Y-125622500D01*
%TO.C,R5*%
X69662742Y-125377500D02*
X70137258Y-125377500D01*
X69662742Y-126422500D02*
X70137258Y-126422500D01*
%TO.C,R12*%
X99462742Y-110677500D02*
X99937258Y-110677500D01*
X99462742Y-111722500D02*
X99937258Y-111722500D01*
%TO.C,R27*%
X99937258Y-104277500D02*
X99462742Y-104277500D01*
X99937258Y-105322500D02*
X99462742Y-105322500D01*
%TO.C,R2*%
X114137258Y-42627500D02*
X113662742Y-42627500D01*
X114137258Y-43672500D02*
X113662742Y-43672500D01*
%TO.C,R10*%
X82237258Y-126977500D02*
X81762742Y-126977500D01*
X82237258Y-128022500D02*
X81762742Y-128022500D01*
%TO.C,C28*%
X82540580Y-111790000D02*
X82259420Y-111790000D01*
X82540580Y-112810000D02*
X82259420Y-112810000D01*
%TO.C,C34*%
X97190000Y-89659420D02*
X97190000Y-89940580D01*
X98210000Y-89659420D02*
X98210000Y-89940580D01*
%TO.C,U7*%
X104050000Y-104265000D02*
X106000000Y-104265000D01*
X104050000Y-113135000D02*
X106000000Y-113135000D01*
X107950000Y-104265000D02*
X106000000Y-104265000D01*
X107950000Y-113135000D02*
X106000000Y-113135000D01*
X108700000Y-104330000D02*
X108460000Y-104000000D01*
X108940000Y-104000000D01*
X108700000Y-104330000D01*
G36*
X108700000Y-104330000D02*
G01*
X108460000Y-104000000D01*
X108940000Y-104000000D01*
X108700000Y-104330000D01*
G37*
%TO.C,C18*%
X101959420Y-67590000D02*
X102240580Y-67590000D01*
X101959420Y-68610000D02*
X102240580Y-68610000D01*
%TO.C,C38*%
X85540000Y-80540580D02*
X85540000Y-80259420D01*
X86560000Y-80540580D02*
X86560000Y-80259420D01*
%TO.C,C19*%
X95890000Y-80259420D02*
X95890000Y-80540580D01*
X96910000Y-80259420D02*
X96910000Y-80540580D01*
%TO.C,C36*%
X99840580Y-121190000D02*
X99559420Y-121190000D01*
X99840580Y-122210000D02*
X99559420Y-122210000D01*
%TO.C,C13*%
X82540580Y-110290000D02*
X82259420Y-110290000D01*
X82540580Y-111310000D02*
X82259420Y-111310000D01*
%TO.C,R18*%
X112337258Y-110777500D02*
X111862742Y-110777500D01*
X112337258Y-111822500D02*
X111862742Y-111822500D01*
%TO.C,C5*%
X107215000Y-78740000D02*
X110670563Y-78740000D01*
X107215000Y-79940000D02*
X107215000Y-78740000D01*
X107215000Y-82060000D02*
X107215000Y-83260000D01*
X107215000Y-83260000D02*
X110670563Y-83260000D01*
X110670563Y-78740000D02*
X111735000Y-79804437D01*
X110670563Y-83260000D02*
X111735000Y-82195563D01*
X111735000Y-79940000D02*
X111735000Y-79804437D01*
X111735000Y-82060000D02*
X111735000Y-82195563D01*
X111975000Y-79440000D02*
X112475000Y-79440000D01*
X112225000Y-79690000D02*
X112225000Y-79190000D01*
%TO.C,R13*%
X112337258Y-114077500D02*
X111862742Y-114077500D01*
X112337258Y-115122500D02*
X111862742Y-115122500D01*
D10*
%TO.C,J5*%
X80330000Y-40425000D02*
X100630000Y-40425000D01*
X80330000Y-49365000D02*
X80330000Y-40425000D01*
X81530000Y-41725000D02*
X88255000Y-41725000D01*
X81530000Y-48065000D02*
X81530000Y-41725000D01*
X82750000Y-49565000D02*
X82750000Y-49365000D01*
X83250000Y-49365000D02*
X83250000Y-49565000D01*
X83250000Y-49465000D02*
X82750000Y-49465000D01*
X83250000Y-49565000D02*
X82750000Y-49565000D01*
X88255000Y-41725000D02*
X88255000Y-40425000D01*
X90230000Y-49565000D02*
X90230000Y-49365000D01*
X90730000Y-49365000D02*
X90730000Y-49565000D01*
X90730000Y-49465000D02*
X90230000Y-49465000D01*
X90730000Y-49565000D02*
X90230000Y-49565000D01*
X92705000Y-40425000D02*
X92705000Y-41725000D01*
X92705000Y-41725000D02*
X99430000Y-41725000D01*
X97710000Y-49565000D02*
X97710000Y-49365000D01*
X98210000Y-49365000D02*
X98210000Y-49565000D01*
X98210000Y-49465000D02*
X97710000Y-49465000D01*
X98210000Y-49565000D02*
X97710000Y-49565000D01*
X99430000Y-41725000D02*
X99430000Y-48065000D01*
X99430000Y-48065000D02*
X81530000Y-48065000D01*
X100630000Y-40425000D02*
X100630000Y-49365000D01*
X100630000Y-49365000D02*
X80330000Y-49365000D01*
D11*
X86400000Y-42675000D02*
X84400000Y-42675000D01*
X84400000Y-39975000D01*
X86400000Y-39975000D01*
X86400000Y-42675000D01*
G36*
X86400000Y-42675000D02*
G01*
X84400000Y-42675000D01*
X84400000Y-39975000D01*
X86400000Y-39975000D01*
X86400000Y-42675000D01*
G37*
X86400000Y-49825000D02*
X84400000Y-49825000D01*
X84400000Y-47125000D01*
X86400000Y-47125000D01*
X86400000Y-49825000D01*
G36*
X86400000Y-49825000D02*
G01*
X84400000Y-49825000D01*
X84400000Y-47125000D01*
X86400000Y-47125000D01*
X86400000Y-49825000D01*
G37*
D13*
%TO.C,R26*%
X99462742Y-105877500D02*
X99937258Y-105877500D01*
X99462742Y-106922500D02*
X99937258Y-106922500D01*
%TO.C,R34*%
X111862742Y-102577500D02*
X112337258Y-102577500D01*
X111862742Y-103622500D02*
X112337258Y-103622500D01*
%TO.C,C7*%
X114161252Y-53115000D02*
X113638748Y-53115000D01*
X114161252Y-54585000D02*
X113638748Y-54585000D01*
%TO.C,R16*%
X112237258Y-126177500D02*
X111762742Y-126177500D01*
X112237258Y-127222500D02*
X111762742Y-127222500D01*
%TO.C,C37*%
X111959420Y-104190000D02*
X112240580Y-104190000D01*
X111959420Y-105210000D02*
X112240580Y-105210000D01*
%TO.C,R33*%
X112337258Y-105877500D02*
X111862742Y-105877500D01*
X112337258Y-106922500D02*
X111862742Y-106922500D01*
%TO.C,R9*%
X69662742Y-130177500D02*
X70137258Y-130177500D01*
X69662742Y-131222500D02*
X70137258Y-131222500D01*
%TO.C,C17*%
X101959420Y-65490000D02*
X102240580Y-65490000D01*
X101959420Y-66510000D02*
X102240580Y-66510000D01*
%TO.C,R7*%
X70137258Y-126977500D02*
X69662742Y-126977500D01*
X70137258Y-128022500D02*
X69662742Y-128022500D01*
D10*
%TO.C,J6*%
X56730000Y-80610000D02*
X56730000Y-90770000D01*
X56730000Y-90770000D02*
X59270000Y-90770000D01*
X59270000Y-80610000D02*
X56730000Y-80610000D01*
X59270000Y-90770000D02*
X59270000Y-80610000D01*
D13*
%TO.C,C8*%
X116490000Y-45159420D02*
X116490000Y-45440580D01*
X117510000Y-45159420D02*
X117510000Y-45440580D01*
%TO.C,R15*%
X119477500Y-45062742D02*
X119477500Y-45537258D01*
X120522500Y-45062742D02*
X120522500Y-45537258D01*
%TO.C,D2*%
X72350000Y-41000000D02*
X76360000Y-41000000D01*
X72350000Y-43000000D02*
X76360000Y-43000000D01*
X76360000Y-43000000D02*
X76360000Y-41000000D01*
%TO.C,C14*%
X107790000Y-67540580D02*
X107790000Y-67259420D01*
X108810000Y-67540580D02*
X108810000Y-67259420D01*
%TO.C,L2*%
X115300000Y-55520000D02*
X116500000Y-55520000D01*
X116500000Y-57280000D02*
X115300000Y-57280000D01*
%TO.C,U4*%
X119785000Y-77590000D02*
X116025000Y-77590000D01*
X119785000Y-78850000D02*
X119785000Y-77590000D01*
X119785000Y-83150000D02*
X119785000Y-84410000D01*
X119785000Y-84410000D02*
X116025000Y-84410000D01*
X114985000Y-84640000D02*
X114505000Y-84640000D01*
X114745000Y-84310000D01*
X114985000Y-84640000D01*
G36*
X114985000Y-84640000D02*
G01*
X114505000Y-84640000D01*
X114745000Y-84310000D01*
X114985000Y-84640000D01*
G37*
%TO.C,C3*%
X101959420Y-69990000D02*
X102240580Y-69990000D01*
X101959420Y-71010000D02*
X102240580Y-71010000D01*
%TD*%
M02*
