%TF.GenerationSoftware,KiCad,Pcbnew,8.0.1*%
%TF.CreationDate,2024-04-24T14:52:54+01:00*%
%TF.ProjectId,Kishoof_Components,4b697368-6f6f-4665-9f43-6f6d706f6e65,rev?*%
%TF.SameCoordinates,Original*%
%TF.FileFunction,Copper,L2,Inr*%
%TF.FilePolarity,Positive*%
%FSLAX46Y46*%
G04 Gerber Fmt 4.6, Leading zero omitted, Abs format (unit mm)*
G04 Created by KiCad (PCBNEW 8.0.1) date 2024-04-24 14:52:54*
%MOMM*%
%LPD*%
G01*
G04 APERTURE LIST*
%TA.AperFunction,ComponentPad*%
%ADD10R,1.700000X1.700000*%
%TD*%
%TA.AperFunction,ComponentPad*%
%ADD11O,1.700000X1.700000*%
%TD*%
%TA.AperFunction,ComponentPad*%
%ADD12C,2.000000*%
%TD*%
%TA.AperFunction,ComponentPad*%
%ADD13C,1.700000*%
%TD*%
%TA.AperFunction,ViaPad*%
%ADD14C,0.800000*%
%TD*%
%TA.AperFunction,ViaPad*%
%ADD15C,1.000000*%
%TD*%
G04 APERTURE END LIST*
D10*
%TO.N,/LCD_Backlight*%
%TO.C,J2*%
X123000000Y-45000000D03*
D11*
%TO.N,/Octave_Up*%
X123000000Y-47540000D03*
%TO.N,/Octave_Down*%
X123000000Y-50080000D03*
%TO.N,/LCD_DC*%
X123000000Y-52620000D03*
%TO.N,/LCD_RESET*%
X123000000Y-55160000D03*
%TO.N,/Mode*%
X123000000Y-57700000D03*
%TO.N,GND*%
X123000000Y-60240000D03*
%TO.N,/Warp_Polarity_Btn*%
X123000000Y-62780000D03*
%TO.N,/Encoder_Btn*%
X123000000Y-65320000D03*
%TO.N,/Warp_Amt_Trm*%
X123000000Y-67860000D03*
%TO.N,/Warp_Amt_Pot*%
X123000000Y-70400000D03*
%TO.N,/Wavetable_Pos_B_Pot*%
X123000000Y-72940000D03*
%TD*%
D10*
%TO.N,/Wavetable_Pos_A_Trm*%
%TO.C,J4*%
X123000000Y-104000000D03*
D11*
%TO.N,GND*%
X123000000Y-106540000D03*
%TO.N,/Ext_Audio_In*%
X123000000Y-109080000D03*
%TO.N,/Warp_CV_In*%
X123000000Y-111620000D03*
%TO.N,GND*%
X123000000Y-114160000D03*
%TO.N,/Wavetable_Pos_A_CV_In*%
X123000000Y-116700000D03*
%TO.N,/Pitch_CV_In*%
X123000000Y-119240000D03*
%TO.N,GND*%
X123000000Y-121780000D03*
%TO.N,/Wavetable_Pos_B_CV_In*%
X123000000Y-124320000D03*
%TO.N,/VCA_CV_In*%
X123000000Y-126860000D03*
%TD*%
D10*
%TO.N,/LCD_SPI3_MOSI*%
%TO.C,J1*%
X58000000Y-45000000D03*
D11*
%TO.N,GND*%
X58000000Y-47540000D03*
%TO.N,/LCD_SPI3_SCK*%
X58000000Y-50080000D03*
%TO.N,/LCD_SPI3_SS*%
X58000000Y-52620000D03*
%TO.N,/USB_DP*%
X58000000Y-55160000D03*
%TO.N,GND*%
X58000000Y-57700000D03*
%TO.N,/USB_DM*%
X58000000Y-60240000D03*
%TO.N,/USB_VBUS*%
X58000000Y-62780000D03*
%TO.N,/Encoder_Down*%
X58000000Y-65320000D03*
%TO.N,/Encoder_Up*%
X58000000Y-67860000D03*
%TO.N,/LED_Oct_B_Out*%
X58000000Y-70400000D03*
%TO.N,/B_Octave_Btn*%
X58000000Y-72940000D03*
%TD*%
D10*
%TO.N,/ChB_RM*%
%TO.C,J3*%
X58000000Y-104000000D03*
D11*
%TO.N,/Wavetable_Pos_A_Pot*%
X58000000Y-106540000D03*
%TO.N,GND*%
X58000000Y-109080000D03*
%TO.N,/ChB_Mix*%
X58000000Y-111620000D03*
%TO.N,+3.3V*%
X58000000Y-114160000D03*
%TO.N,+3.3VA*%
X58000000Y-116700000D03*
%TO.N,GND*%
X58000000Y-119240000D03*
%TO.N,/Audio_Out_L*%
X58000000Y-121780000D03*
%TO.N,/Audio_Out_R*%
X58000000Y-124320000D03*
%TO.N,/Warp_Type_Pot*%
X58000000Y-126860000D03*
%TD*%
D12*
%TO.N,GND*%
%TO.C,TP8*%
X122900000Y-134900000D03*
%TD*%
%TO.N,+3.3VA*%
%TO.C,TP6*%
X67300000Y-94000000D03*
%TD*%
%TO.N,+3.3V*%
%TO.C,TP5*%
X71300000Y-94000000D03*
%TD*%
D10*
%TO.N,/UART_TX*%
%TO.C,J7*%
X89225000Y-53700000D03*
D11*
%TO.N,/UART_RX*%
X91765000Y-53700000D03*
%TD*%
D12*
%TO.N,+12V*%
%TO.C,TP2*%
X90500000Y-135000000D03*
%TD*%
%TO.N,-12V*%
%TO.C,TP3*%
X84000000Y-135000000D03*
%TD*%
%TO.N,/-5V_REF*%
%TO.C,TP7*%
X97000000Y-135000000D03*
%TD*%
D10*
%TO.N,/-12V_IN*%
%TO.C,J5*%
X85400000Y-43625000D03*
D13*
X85400000Y-46165000D03*
%TO.N,GND*%
X87940000Y-43625000D03*
X87940000Y-46165000D03*
X90480000Y-43625000D03*
X90480000Y-46165000D03*
X93020000Y-43625000D03*
X93020000Y-46165000D03*
%TO.N,/+12V_IN*%
X95560000Y-43625000D03*
X95560000Y-46165000D03*
%TD*%
D12*
%TO.N,GND*%
%TO.C,TP4*%
X58000000Y-135000000D03*
%TD*%
D10*
%TO.N,+3.3V*%
%TO.C,J6*%
X58000000Y-89500000D03*
D13*
%TO.N,GND*%
X58000000Y-86960000D03*
%TO.N,/SWIO*%
X58000000Y-84420000D03*
%TO.N,/SWCLK*%
X58000000Y-81880000D03*
%TD*%
D14*
%TO.N,GND*%
X102300000Y-71300000D03*
X109700000Y-65600000D03*
X117200000Y-76700000D03*
X114500000Y-65500000D03*
X120400000Y-66000000D03*
X121400000Y-76100000D03*
X101800000Y-113600000D03*
X112100000Y-122900000D03*
X104300000Y-122700000D03*
X107800000Y-115100000D03*
D15*
%TO.N,+12V*%
X78500000Y-129800000D03*
X109200000Y-51399998D03*
X117200000Y-78650000D03*
X112400000Y-66200000D03*
D14*
%TO.N,GND*%
X93500000Y-87000000D03*
X110200000Y-110400000D03*
X90500000Y-113100000D03*
X120500000Y-85700000D03*
X67787500Y-112100000D03*
X75400000Y-45100000D03*
X75400000Y-127300000D03*
X91132788Y-75575000D03*
X67787500Y-107100000D03*
X111300000Y-44800000D03*
X76300000Y-75000000D03*
X81200000Y-95400000D03*
X88600000Y-89000000D03*
X83200000Y-61600000D03*
X101800000Y-107400000D03*
X90200000Y-71400000D03*
X88200000Y-73000000D03*
X105800000Y-81000000D03*
X97200000Y-77744436D03*
X66100000Y-127400000D03*
X97625000Y-81410460D03*
X79000000Y-92500000D03*
X107500000Y-53600000D03*
X81587500Y-107900000D03*
X111700000Y-57400000D03*
X114900000Y-107700000D03*
X103000000Y-76400000D03*
X107200000Y-73100000D03*
X97900000Y-121700000D03*
X76800000Y-124800000D03*
X99900000Y-96000000D03*
X91600000Y-95100000D03*
X85400000Y-54600000D03*
X115600000Y-48350000D03*
X73400000Y-87300000D03*
X84600000Y-99100000D03*
X66500000Y-56000000D03*
X110900000Y-49000000D03*
X74200000Y-96000000D03*
X65600000Y-75800000D03*
X81100000Y-90900000D03*
X67787500Y-105500000D03*
X85700000Y-86300000D03*
X80900000Y-63700000D03*
X103900000Y-75400000D03*
X82500000Y-85300000D03*
X116200000Y-83300000D03*
X91800000Y-63900000D03*
X60100000Y-55600000D03*
X119600000Y-89200000D03*
X73700000Y-83700000D03*
X101900000Y-110000000D03*
X77584740Y-110738449D03*
X96700000Y-89200000D03*
X124600000Y-78700000D03*
X77900000Y-62000000D03*
X121400000Y-58300000D03*
X57800000Y-100400000D03*
X99100000Y-115800000D03*
X86900000Y-67500000D03*
X94800000Y-84000000D03*
X58400000Y-129100000D03*
X84500000Y-82100000D03*
X116100000Y-58000000D03*
X99200000Y-57100000D03*
X64900000Y-84000000D03*
X119400000Y-97100000D03*
X88200000Y-99100000D03*
X77100000Y-63700000D03*
X100600000Y-92300000D03*
X67787500Y-108900000D03*
X98200000Y-92200000D03*
X95900000Y-66700000D03*
X115200000Y-113100000D03*
X65200000Y-91400000D03*
X85265620Y-73079949D03*
X74000000Y-43000000D03*
X64700000Y-64300000D03*
X112500000Y-78800000D03*
X93700000Y-70600000D03*
X112300000Y-89300000D03*
X97100000Y-95300000D03*
X86537742Y-70202464D03*
X115488603Y-43838603D03*
X87300000Y-135000000D03*
X90500000Y-118300000D03*
X76000000Y-119400000D03*
X57400000Y-78500000D03*
X90500000Y-116100000D03*
X70600000Y-54600000D03*
X103400000Y-65275000D03*
X88200000Y-93800000D03*
X74100000Y-91500000D03*
X124600000Y-85000000D03*
X59400000Y-74600000D03*
X91900000Y-99000000D03*
X78100000Y-116600000D03*
X100800000Y-99700000D03*
X79100000Y-80000000D03*
X115600000Y-47250000D03*
X106800000Y-128000000D03*
X88400000Y-96500000D03*
X113200000Y-83300000D03*
X115300000Y-123800000D03*
X82300000Y-99100000D03*
X87100000Y-116200000D03*
X60200000Y-80800000D03*
X96400000Y-72300000D03*
X74100000Y-116500000D03*
X116000000Y-53150000D03*
X114000000Y-96800000D03*
X124300000Y-100400000D03*
X86100000Y-63500000D03*
X81600000Y-102100000D03*
X100744839Y-88270107D03*
X121500000Y-41900000D03*
X74387500Y-110300000D03*
X94000000Y-135100000D03*
X69200000Y-121700000D03*
X108800000Y-40100000D03*
X90500000Y-121600000D03*
X90400000Y-127900000D03*
X94600000Y-69100000D03*
X113300000Y-76200000D03*
X94500000Y-59900000D03*
X79000000Y-95500000D03*
X124100000Y-74900000D03*
X87400000Y-121800000D03*
X108300002Y-69199998D03*
X105500000Y-44925000D03*
X116036397Y-51386397D03*
X107000000Y-43200000D03*
X97800000Y-61600000D03*
X60000000Y-83200000D03*
X95200000Y-57100000D03*
X61100000Y-43900000D03*
X88300000Y-75500000D03*
X84100000Y-90300000D03*
X107700000Y-82400000D03*
X74387500Y-106100000D03*
X65800000Y-101900000D03*
X62600000Y-112000000D03*
X113200000Y-72600000D03*
X78887500Y-105000000D03*
X101600000Y-78800000D03*
X65200000Y-87600000D03*
X109200000Y-88400000D03*
X86100000Y-82200000D03*
X63500000Y-73400000D03*
X64200000Y-98300000D03*
D15*
%TO.N,-12V*%
X94400000Y-120100000D03*
X73500000Y-123600000D03*
X57850001Y-130850001D03*
D14*
%TO.N,+3.3VA*%
X70287500Y-104200000D03*
X110500000Y-84200000D03*
X110100000Y-108700000D03*
X103200000Y-114600000D03*
%TO.N,/VSW*%
X114100000Y-56850000D03*
X117232353Y-47232353D03*
X113900000Y-50050000D03*
X114100000Y-55900000D03*
%TO.N,+3.3V*%
X81587500Y-113400000D03*
X99600000Y-58800000D03*
X99100000Y-90500000D03*
X83500000Y-79700000D03*
X101325000Y-67100000D03*
X97500000Y-79600000D03*
X118100000Y-55500000D03*
X79400000Y-61700000D03*
X82700000Y-95300000D03*
%TO.N,/OCTOSPIM_P1_IO6*%
X88500000Y-92499998D03*
X97000000Y-91900000D03*
%TO.N,/Wavetable_Pos_A_Pot*%
X85899999Y-75099999D03*
%TO.N,/OCTOSPIM_P1_IO3*%
X87200000Y-96500000D03*
X84900000Y-70900000D03*
%TO.N,/OCTOSPIM_P1_IO4*%
X91683290Y-93900545D03*
X98300000Y-94700000D03*
%TO.N,/SWCLK*%
X84800000Y-63700000D03*
%TO.N,/OCTOSPIM_P1_IO0*%
X85600000Y-68000000D03*
X93200000Y-88500000D03*
%TO.N,/OCTOSPIM_P1_IO2*%
X95200000Y-87100000D03*
X94000000Y-71900000D03*
%TO.N,/SWIO*%
X76200000Y-65600000D03*
%TO.N,/OCTOSPIM_P1_IO1*%
X89100000Y-87649999D03*
X89399998Y-72900000D03*
%TO.N,/-5V_REF*%
X113900000Y-119000000D03*
X100525000Y-119000000D03*
%TO.N,/Warp_Amt_Pot*%
X99700000Y-71400000D03*
%TO.N,/Warp_Amt_Trm*%
X99700000Y-70300000D03*
%TD*%
%TA.AperFunction,Conductor*%
%TO.N,GND*%
G36*
X92554075Y-43817993D02*
G01*
X92619901Y-43932007D01*
X92712993Y-44025099D01*
X92827007Y-44090925D01*
X92890590Y-44107962D01*
X92258625Y-44739925D01*
X92335031Y-44793425D01*
X92378655Y-44848002D01*
X92385848Y-44917501D01*
X92354326Y-44979855D01*
X92335029Y-44996576D01*
X92258625Y-45050072D01*
X92890590Y-45682037D01*
X92827007Y-45699075D01*
X92712993Y-45764901D01*
X92619901Y-45857993D01*
X92554075Y-45972007D01*
X92537037Y-46035590D01*
X91905072Y-45403625D01*
X91905072Y-45403626D01*
X91851574Y-45480030D01*
X91796998Y-45523655D01*
X91727499Y-45530849D01*
X91665144Y-45499326D01*
X91648424Y-45480030D01*
X91594925Y-45403626D01*
X91594925Y-45403625D01*
X90962962Y-46035589D01*
X90945925Y-45972007D01*
X90880099Y-45857993D01*
X90787007Y-45764901D01*
X90672993Y-45699075D01*
X90609410Y-45682037D01*
X91241373Y-45050073D01*
X91164969Y-44996576D01*
X91121344Y-44941999D01*
X91114150Y-44872501D01*
X91145672Y-44810146D01*
X91164968Y-44793425D01*
X91241373Y-44739925D01*
X90609409Y-44107962D01*
X90672993Y-44090925D01*
X90787007Y-44025099D01*
X90880099Y-43932007D01*
X90945925Y-43817993D01*
X90962962Y-43754410D01*
X91594925Y-44386373D01*
X91648425Y-44309968D01*
X91703002Y-44266344D01*
X91772501Y-44259151D01*
X91834855Y-44290673D01*
X91851576Y-44309969D01*
X91905073Y-44386372D01*
X92537037Y-43754409D01*
X92554075Y-43817993D01*
G37*
%TD.AperFunction*%
%TA.AperFunction,Conductor*%
G36*
X87474075Y-43817993D02*
G01*
X87539901Y-43932007D01*
X87632993Y-44025099D01*
X87747007Y-44090925D01*
X87810590Y-44107962D01*
X87178625Y-44739925D01*
X87255031Y-44793425D01*
X87298655Y-44848002D01*
X87305848Y-44917501D01*
X87274326Y-44979855D01*
X87255029Y-44996576D01*
X87178625Y-45050072D01*
X87810590Y-45682037D01*
X87747007Y-45699075D01*
X87632993Y-45764901D01*
X87539901Y-45857993D01*
X87474075Y-45972007D01*
X87457037Y-46035589D01*
X86825073Y-45403626D01*
X86771881Y-45479594D01*
X86717304Y-45523219D01*
X86647806Y-45530413D01*
X86585451Y-45498891D01*
X86568730Y-45479594D01*
X86438496Y-45293600D01*
X86438493Y-45293597D01*
X86316567Y-45171671D01*
X86283084Y-45110351D01*
X86288068Y-45040659D01*
X86329939Y-44984725D01*
X86360915Y-44967810D01*
X86492331Y-44918796D01*
X86607546Y-44832546D01*
X86693796Y-44717331D01*
X86744091Y-44582483D01*
X86750500Y-44522873D01*
X86750499Y-44512314D01*
X86770179Y-44445277D01*
X86786818Y-44424628D01*
X87457037Y-43754409D01*
X87474075Y-43817993D01*
G37*
%TD.AperFunction*%
%TA.AperFunction,Conductor*%
G36*
X90014075Y-43817993D02*
G01*
X90079901Y-43932007D01*
X90172993Y-44025099D01*
X90287007Y-44090925D01*
X90350590Y-44107962D01*
X89718625Y-44739925D01*
X89795031Y-44793425D01*
X89838655Y-44848002D01*
X89845848Y-44917501D01*
X89814326Y-44979855D01*
X89795029Y-44996576D01*
X89718625Y-45050072D01*
X90350590Y-45682037D01*
X90287007Y-45699075D01*
X90172993Y-45764901D01*
X90079901Y-45857993D01*
X90014075Y-45972007D01*
X89997037Y-46035589D01*
X89365073Y-45403625D01*
X89365072Y-45403626D01*
X89311574Y-45480030D01*
X89256998Y-45523655D01*
X89187499Y-45530849D01*
X89125144Y-45499326D01*
X89108424Y-45480030D01*
X89054925Y-45403626D01*
X89054925Y-45403625D01*
X88422962Y-46035589D01*
X88405925Y-45972007D01*
X88340099Y-45857993D01*
X88247007Y-45764901D01*
X88132993Y-45699075D01*
X88069410Y-45682037D01*
X88701373Y-45050073D01*
X88624969Y-44996576D01*
X88581344Y-44941999D01*
X88574150Y-44872501D01*
X88605672Y-44810146D01*
X88624968Y-44793425D01*
X88701373Y-44739925D01*
X88069409Y-44107962D01*
X88132993Y-44090925D01*
X88247007Y-44025099D01*
X88340099Y-43932007D01*
X88405925Y-43817993D01*
X88422962Y-43754410D01*
X89054925Y-44386373D01*
X89108425Y-44309968D01*
X89163002Y-44266344D01*
X89232501Y-44259151D01*
X89294855Y-44290673D01*
X89311576Y-44309969D01*
X89365073Y-44386372D01*
X89997037Y-43754409D01*
X90014075Y-43817993D01*
G37*
%TD.AperFunction*%
%TA.AperFunction,Conductor*%
G36*
X94134925Y-44386373D02*
G01*
X94188119Y-44310405D01*
X94242696Y-44266781D01*
X94312195Y-44259588D01*
X94374549Y-44291110D01*
X94391269Y-44310405D01*
X94521505Y-44496401D01*
X94521506Y-44496402D01*
X94688597Y-44663493D01*
X94688603Y-44663498D01*
X94874158Y-44793425D01*
X94917783Y-44848002D01*
X94924977Y-44917500D01*
X94893454Y-44979855D01*
X94874158Y-44996575D01*
X94688597Y-45126505D01*
X94521505Y-45293597D01*
X94391269Y-45479595D01*
X94336692Y-45523220D01*
X94267194Y-45530414D01*
X94204839Y-45498891D01*
X94188119Y-45479595D01*
X94134925Y-45403626D01*
X94134925Y-45403625D01*
X93502962Y-46035589D01*
X93485925Y-45972007D01*
X93420099Y-45857993D01*
X93327007Y-45764901D01*
X93212993Y-45699075D01*
X93149410Y-45682037D01*
X93781373Y-45050073D01*
X93704969Y-44996576D01*
X93661344Y-44941999D01*
X93654150Y-44872501D01*
X93685672Y-44810146D01*
X93704968Y-44793425D01*
X93781373Y-44739925D01*
X93149409Y-44107962D01*
X93212993Y-44090925D01*
X93327007Y-44025099D01*
X93420099Y-43932007D01*
X93485925Y-43817993D01*
X93502962Y-43754410D01*
X94134925Y-44386373D01*
G37*
%TD.AperFunction*%
%TA.AperFunction,Conductor*%
G36*
X125342539Y-39520185D02*
G01*
X125388294Y-39572989D01*
X125399500Y-39624500D01*
X125399500Y-138375500D01*
X125379815Y-138442539D01*
X125327011Y-138488294D01*
X125275500Y-138499500D01*
X55724500Y-138499500D01*
X55657461Y-138479815D01*
X55611706Y-138427011D01*
X55600500Y-138375500D01*
X55600500Y-135000005D01*
X56494859Y-135000005D01*
X56515385Y-135247729D01*
X56515387Y-135247738D01*
X56576412Y-135488717D01*
X56676266Y-135716364D01*
X56776564Y-135869882D01*
X57398958Y-135247488D01*
X57423978Y-135307890D01*
X57495112Y-135414351D01*
X57585649Y-135504888D01*
X57692110Y-135576022D01*
X57752511Y-135601041D01*
X57129942Y-136223609D01*
X57176768Y-136260055D01*
X57176770Y-136260056D01*
X57395385Y-136378364D01*
X57395396Y-136378369D01*
X57630506Y-136459083D01*
X57875707Y-136500000D01*
X58124293Y-136500000D01*
X58369493Y-136459083D01*
X58604603Y-136378369D01*
X58604614Y-136378364D01*
X58823228Y-136260057D01*
X58823231Y-136260055D01*
X58870056Y-136223609D01*
X58247488Y-135601041D01*
X58307890Y-135576022D01*
X58414351Y-135504888D01*
X58504888Y-135414351D01*
X58576022Y-135307890D01*
X58601041Y-135247488D01*
X59223434Y-135869882D01*
X59323731Y-135716369D01*
X59423587Y-135488717D01*
X59484612Y-135247738D01*
X59484614Y-135247729D01*
X59505141Y-135000005D01*
X82494357Y-135000005D01*
X82514890Y-135247812D01*
X82514892Y-135247824D01*
X82575936Y-135488881D01*
X82675826Y-135716606D01*
X82811833Y-135924782D01*
X82811836Y-135924785D01*
X82980256Y-136107738D01*
X83176491Y-136260474D01*
X83176493Y-136260475D01*
X83394332Y-136378364D01*
X83395190Y-136378828D01*
X83614141Y-136453994D01*
X83628964Y-136459083D01*
X83630386Y-136459571D01*
X83875665Y-136500500D01*
X84124335Y-136500500D01*
X84369614Y-136459571D01*
X84604810Y-136378828D01*
X84823509Y-136260474D01*
X85019744Y-136107738D01*
X85188164Y-135924785D01*
X85324173Y-135716607D01*
X85424063Y-135488881D01*
X85485108Y-135247821D01*
X85488417Y-135207890D01*
X85505643Y-135000005D01*
X88994357Y-135000005D01*
X89014890Y-135247812D01*
X89014892Y-135247824D01*
X89075936Y-135488881D01*
X89175826Y-135716606D01*
X89311833Y-135924782D01*
X89311836Y-135924785D01*
X89480256Y-136107738D01*
X89676491Y-136260474D01*
X89676493Y-136260475D01*
X89894332Y-136378364D01*
X89895190Y-136378828D01*
X90114141Y-136453994D01*
X90128964Y-136459083D01*
X90130386Y-136459571D01*
X90375665Y-136500500D01*
X90624335Y-136500500D01*
X90869614Y-136459571D01*
X91104810Y-136378828D01*
X91323509Y-136260474D01*
X91519744Y-136107738D01*
X91688164Y-135924785D01*
X91824173Y-135716607D01*
X91924063Y-135488881D01*
X91985108Y-135247821D01*
X91988417Y-135207890D01*
X92005643Y-135000005D01*
X95494357Y-135000005D01*
X95514890Y-135247812D01*
X95514892Y-135247824D01*
X95575936Y-135488881D01*
X95675826Y-135716606D01*
X95811833Y-135924782D01*
X95811836Y-135924785D01*
X95980256Y-136107738D01*
X96176491Y-136260474D01*
X96176493Y-136260475D01*
X96394332Y-136378364D01*
X96395190Y-136378828D01*
X96614141Y-136453994D01*
X96628964Y-136459083D01*
X96630386Y-136459571D01*
X96875665Y-136500500D01*
X97124335Y-136500500D01*
X97369614Y-136459571D01*
X97604810Y-136378828D01*
X97823509Y-136260474D01*
X98019744Y-136107738D01*
X98188164Y-135924785D01*
X98324173Y-135716607D01*
X98424063Y-135488881D01*
X98485108Y-135247821D01*
X98488417Y-135207890D01*
X98505643Y-135000005D01*
X98505643Y-134999994D01*
X98497358Y-134900005D01*
X121394859Y-134900005D01*
X121415385Y-135147729D01*
X121415387Y-135147738D01*
X121476412Y-135388717D01*
X121576266Y-135616364D01*
X121676564Y-135769882D01*
X122298958Y-135147488D01*
X122323978Y-135207890D01*
X122395112Y-135314351D01*
X122485649Y-135404888D01*
X122592110Y-135476022D01*
X122652511Y-135501041D01*
X122029942Y-136123609D01*
X122076768Y-136160055D01*
X122076770Y-136160056D01*
X122295385Y-136278364D01*
X122295396Y-136278369D01*
X122530506Y-136359083D01*
X122775707Y-136400000D01*
X123024293Y-136400000D01*
X123269493Y-136359083D01*
X123504603Y-136278369D01*
X123504614Y-136278364D01*
X123723228Y-136160057D01*
X123723231Y-136160055D01*
X123770056Y-136123609D01*
X123147488Y-135501041D01*
X123207890Y-135476022D01*
X123314351Y-135404888D01*
X123404888Y-135314351D01*
X123476022Y-135207890D01*
X123501041Y-135147489D01*
X124123434Y-135769882D01*
X124223731Y-135616369D01*
X124323587Y-135388717D01*
X124384612Y-135147738D01*
X124384614Y-135147729D01*
X124405141Y-134900005D01*
X124405141Y-134899994D01*
X124384614Y-134652270D01*
X124384612Y-134652261D01*
X124323587Y-134411282D01*
X124223731Y-134183630D01*
X124123434Y-134030116D01*
X123501041Y-134652510D01*
X123476022Y-134592110D01*
X123404888Y-134485649D01*
X123314351Y-134395112D01*
X123207890Y-134323978D01*
X123147489Y-134298958D01*
X123770057Y-133676390D01*
X123770056Y-133676389D01*
X123723229Y-133639943D01*
X123504614Y-133521635D01*
X123504603Y-133521630D01*
X123269493Y-133440916D01*
X123024293Y-133400000D01*
X122775707Y-133400000D01*
X122530506Y-133440916D01*
X122295396Y-133521630D01*
X122295390Y-133521632D01*
X122076761Y-133639949D01*
X122029942Y-133676388D01*
X122029942Y-133676390D01*
X122652511Y-134298958D01*
X122592110Y-134323978D01*
X122485649Y-134395112D01*
X122395112Y-134485649D01*
X122323978Y-134592110D01*
X122298958Y-134652510D01*
X121676564Y-134030116D01*
X121576267Y-134183632D01*
X121476412Y-134411282D01*
X121415387Y-134652261D01*
X121415385Y-134652270D01*
X121394859Y-134899994D01*
X121394859Y-134900005D01*
X98497358Y-134900005D01*
X98485109Y-134752187D01*
X98485107Y-134752175D01*
X98424063Y-134511118D01*
X98324173Y-134283393D01*
X98188166Y-134075217D01*
X98146647Y-134030116D01*
X98019744Y-133892262D01*
X97823509Y-133739526D01*
X97823507Y-133739525D01*
X97823506Y-133739524D01*
X97604811Y-133621172D01*
X97604802Y-133621169D01*
X97369616Y-133540429D01*
X97124335Y-133499500D01*
X96875665Y-133499500D01*
X96630383Y-133540429D01*
X96395197Y-133621169D01*
X96395188Y-133621172D01*
X96176493Y-133739524D01*
X95980257Y-133892261D01*
X95811833Y-134075217D01*
X95675826Y-134283393D01*
X95575936Y-134511118D01*
X95514892Y-134752175D01*
X95514890Y-134752187D01*
X95494357Y-134999994D01*
X95494357Y-135000005D01*
X92005643Y-135000005D01*
X92005643Y-134999994D01*
X91985109Y-134752187D01*
X91985107Y-134752175D01*
X91924063Y-134511118D01*
X91824173Y-134283393D01*
X91688166Y-134075217D01*
X91646647Y-134030116D01*
X91519744Y-133892262D01*
X91323509Y-133739526D01*
X91323507Y-133739525D01*
X91323506Y-133739524D01*
X91104811Y-133621172D01*
X91104802Y-133621169D01*
X90869616Y-133540429D01*
X90624335Y-133499500D01*
X90375665Y-133499500D01*
X90130383Y-133540429D01*
X89895197Y-133621169D01*
X89895188Y-133621172D01*
X89676493Y-133739524D01*
X89480257Y-133892261D01*
X89311833Y-134075217D01*
X89175826Y-134283393D01*
X89075936Y-134511118D01*
X89014892Y-134752175D01*
X89014890Y-134752187D01*
X88994357Y-134999994D01*
X88994357Y-135000005D01*
X85505643Y-135000005D01*
X85505643Y-134999994D01*
X85485109Y-134752187D01*
X85485107Y-134752175D01*
X85424063Y-134511118D01*
X85324173Y-134283393D01*
X85188166Y-134075217D01*
X85146647Y-134030116D01*
X85019744Y-133892262D01*
X84823509Y-133739526D01*
X84823507Y-133739525D01*
X84823506Y-133739524D01*
X84604811Y-133621172D01*
X84604802Y-133621169D01*
X84369616Y-133540429D01*
X84124335Y-133499500D01*
X83875665Y-133499500D01*
X83630383Y-133540429D01*
X83395197Y-133621169D01*
X83395188Y-133621172D01*
X83176493Y-133739524D01*
X82980257Y-133892261D01*
X82811833Y-134075217D01*
X82675826Y-134283393D01*
X82575936Y-134511118D01*
X82514892Y-134752175D01*
X82514890Y-134752187D01*
X82494357Y-134999994D01*
X82494357Y-135000005D01*
X59505141Y-135000005D01*
X59505141Y-134999994D01*
X59484614Y-134752270D01*
X59484612Y-134752261D01*
X59423587Y-134511282D01*
X59323731Y-134283630D01*
X59223434Y-134130116D01*
X58601041Y-134752510D01*
X58576022Y-134692110D01*
X58504888Y-134585649D01*
X58414351Y-134495112D01*
X58307890Y-134423978D01*
X58247489Y-134398958D01*
X58870057Y-133776390D01*
X58870056Y-133776389D01*
X58823229Y-133739943D01*
X58604614Y-133621635D01*
X58604603Y-133621630D01*
X58369493Y-133540916D01*
X58124293Y-133500000D01*
X57875707Y-133500000D01*
X57630506Y-133540916D01*
X57395396Y-133621630D01*
X57395390Y-133621632D01*
X57176761Y-133739949D01*
X57129942Y-133776388D01*
X57129942Y-133776390D01*
X57752511Y-134398958D01*
X57692110Y-134423978D01*
X57585649Y-134495112D01*
X57495112Y-134585649D01*
X57423978Y-134692110D01*
X57398958Y-134752510D01*
X56776564Y-134130116D01*
X56676267Y-134283632D01*
X56576412Y-134511282D01*
X56515387Y-134752261D01*
X56515385Y-134752270D01*
X56494859Y-134999994D01*
X56494859Y-135000005D01*
X55600500Y-135000005D01*
X55600500Y-130850001D01*
X56844660Y-130850001D01*
X56863976Y-131046130D01*
X56921189Y-131234734D01*
X57014087Y-131408533D01*
X57014091Y-131408540D01*
X57139117Y-131560884D01*
X57291461Y-131685910D01*
X57291468Y-131685914D01*
X57465267Y-131778812D01*
X57465270Y-131778812D01*
X57465274Y-131778815D01*
X57653869Y-131836025D01*
X57850001Y-131855342D01*
X58046133Y-131836025D01*
X58234728Y-131778815D01*
X58408539Y-131685911D01*
X58560884Y-131560884D01*
X58685911Y-131408539D01*
X58778815Y-131234728D01*
X58836025Y-131046133D01*
X58855342Y-130850001D01*
X58836025Y-130653869D01*
X58778815Y-130465274D01*
X58778812Y-130465270D01*
X58778812Y-130465267D01*
X58685914Y-130291468D01*
X58685910Y-130291461D01*
X58560884Y-130139117D01*
X58408540Y-130014091D01*
X58408533Y-130014087D01*
X58234734Y-129921189D01*
X58234728Y-129921187D01*
X58046133Y-129863977D01*
X58046130Y-129863976D01*
X57850001Y-129844660D01*
X57653871Y-129863976D01*
X57465267Y-129921189D01*
X57291468Y-130014087D01*
X57291461Y-130014091D01*
X57139117Y-130139117D01*
X57014091Y-130291461D01*
X57014087Y-130291468D01*
X56921189Y-130465267D01*
X56863976Y-130653871D01*
X56844660Y-130850001D01*
X55600500Y-130850001D01*
X55600500Y-129800000D01*
X77494659Y-129800000D01*
X77513975Y-129996129D01*
X77571188Y-130184733D01*
X77664086Y-130358532D01*
X77664090Y-130358539D01*
X77789116Y-130510883D01*
X77941460Y-130635909D01*
X77941467Y-130635913D01*
X78115266Y-130728811D01*
X78115269Y-130728811D01*
X78115273Y-130728814D01*
X78303868Y-130786024D01*
X78500000Y-130805341D01*
X78696132Y-130786024D01*
X78884727Y-130728814D01*
X79058538Y-130635910D01*
X79210883Y-130510883D01*
X79335910Y-130358538D01*
X79428814Y-130184727D01*
X79486024Y-129996132D01*
X79505341Y-129800000D01*
X79486024Y-129603868D01*
X79428814Y-129415273D01*
X79428811Y-129415269D01*
X79428811Y-129415266D01*
X79335913Y-129241467D01*
X79335909Y-129241460D01*
X79210883Y-129089116D01*
X79058539Y-128964090D01*
X79058532Y-128964086D01*
X78884733Y-128871188D01*
X78884727Y-128871186D01*
X78696132Y-128813976D01*
X78696129Y-128813975D01*
X78500000Y-128794659D01*
X78303870Y-128813975D01*
X78115266Y-128871188D01*
X77941467Y-128964086D01*
X77941460Y-128964090D01*
X77789116Y-129089116D01*
X77664090Y-129241460D01*
X77664086Y-129241467D01*
X77571188Y-129415266D01*
X77513975Y-129603870D01*
X77494659Y-129800000D01*
X55600500Y-129800000D01*
X55600500Y-126860000D01*
X56644341Y-126860000D01*
X56664936Y-127095403D01*
X56664938Y-127095413D01*
X56726094Y-127323655D01*
X56726096Y-127323659D01*
X56726097Y-127323663D01*
X56825965Y-127537830D01*
X56825967Y-127537834D01*
X56934281Y-127692521D01*
X56961505Y-127731401D01*
X57128599Y-127898495D01*
X57225384Y-127966265D01*
X57322165Y-128034032D01*
X57322167Y-128034033D01*
X57322170Y-128034035D01*
X57536337Y-128133903D01*
X57764592Y-128195063D01*
X57952918Y-128211539D01*
X57999999Y-128215659D01*
X58000000Y-128215659D01*
X58000001Y-128215659D01*
X58039234Y-128212226D01*
X58235408Y-128195063D01*
X58463663Y-128133903D01*
X58677830Y-128034035D01*
X58871401Y-127898495D01*
X59038495Y-127731401D01*
X59174035Y-127537830D01*
X59273903Y-127323663D01*
X59335063Y-127095408D01*
X59355659Y-126860000D01*
X121644341Y-126860000D01*
X121664936Y-127095403D01*
X121664938Y-127095413D01*
X121726094Y-127323655D01*
X121726096Y-127323659D01*
X121726097Y-127323663D01*
X121825965Y-127537830D01*
X121825967Y-127537834D01*
X121934281Y-127692521D01*
X121961505Y-127731401D01*
X122128599Y-127898495D01*
X122225384Y-127966265D01*
X122322165Y-128034032D01*
X122322167Y-128034033D01*
X122322170Y-128034035D01*
X122536337Y-128133903D01*
X122764592Y-128195063D01*
X122952918Y-128211539D01*
X122999999Y-128215659D01*
X123000000Y-128215659D01*
X123000001Y-128215659D01*
X123039234Y-128212226D01*
X123235408Y-128195063D01*
X123463663Y-128133903D01*
X123677830Y-128034035D01*
X123871401Y-127898495D01*
X124038495Y-127731401D01*
X124174035Y-127537830D01*
X124273903Y-127323663D01*
X124335063Y-127095408D01*
X124355659Y-126860000D01*
X124335063Y-126624592D01*
X124273903Y-126396337D01*
X124174035Y-126182171D01*
X124038495Y-125988599D01*
X124038494Y-125988597D01*
X123871402Y-125821506D01*
X123871396Y-125821501D01*
X123685842Y-125691575D01*
X123642217Y-125636998D01*
X123635023Y-125567500D01*
X123666546Y-125505145D01*
X123685842Y-125488425D01*
X123708026Y-125472891D01*
X123871401Y-125358495D01*
X124038495Y-125191401D01*
X124174035Y-124997830D01*
X124273903Y-124783663D01*
X124335063Y-124555408D01*
X124355659Y-124320000D01*
X124335063Y-124084592D01*
X124273903Y-123856337D01*
X124174035Y-123642171D01*
X124038495Y-123448599D01*
X124038494Y-123448597D01*
X123871402Y-123281506D01*
X123871401Y-123281505D01*
X123685405Y-123151269D01*
X123641781Y-123096692D01*
X123634588Y-123027193D01*
X123666110Y-122964839D01*
X123685405Y-122948119D01*
X123871082Y-122818105D01*
X124038105Y-122651082D01*
X124173600Y-122457578D01*
X124273429Y-122243492D01*
X124273432Y-122243486D01*
X124330636Y-122030000D01*
X123433012Y-122030000D01*
X123465925Y-121972993D01*
X123500000Y-121845826D01*
X123500000Y-121714174D01*
X123465925Y-121587007D01*
X123433012Y-121530000D01*
X124330636Y-121530000D01*
X124330635Y-121529999D01*
X124273432Y-121316513D01*
X124273429Y-121316507D01*
X124173600Y-121102422D01*
X124173599Y-121102420D01*
X124038113Y-120908926D01*
X124038108Y-120908920D01*
X123871078Y-120741890D01*
X123685405Y-120611879D01*
X123641780Y-120557302D01*
X123634588Y-120487804D01*
X123666110Y-120425449D01*
X123685406Y-120408730D01*
X123686279Y-120408119D01*
X123871401Y-120278495D01*
X124038495Y-120111401D01*
X124174035Y-119917830D01*
X124273903Y-119703663D01*
X124335063Y-119475408D01*
X124355659Y-119240000D01*
X124335063Y-119004592D01*
X124273903Y-118776337D01*
X124174035Y-118562171D01*
X124107946Y-118467785D01*
X124038494Y-118368597D01*
X123871402Y-118201506D01*
X123871396Y-118201501D01*
X123685842Y-118071575D01*
X123642217Y-118016998D01*
X123635023Y-117947500D01*
X123666546Y-117885145D01*
X123685842Y-117868425D01*
X123708026Y-117852891D01*
X123871401Y-117738495D01*
X124038495Y-117571401D01*
X124174035Y-117377830D01*
X124273903Y-117163663D01*
X124335063Y-116935408D01*
X124355659Y-116700000D01*
X124335063Y-116464592D01*
X124273903Y-116236337D01*
X124174035Y-116022171D01*
X124038495Y-115828599D01*
X124038494Y-115828597D01*
X123871402Y-115661506D01*
X123871401Y-115661505D01*
X123685405Y-115531269D01*
X123641781Y-115476692D01*
X123634588Y-115407193D01*
X123666110Y-115344839D01*
X123685405Y-115328119D01*
X123871082Y-115198105D01*
X124038105Y-115031082D01*
X124173600Y-114837578D01*
X124273429Y-114623492D01*
X124273432Y-114623486D01*
X124330636Y-114410000D01*
X123433012Y-114410000D01*
X123465925Y-114352993D01*
X123500000Y-114225826D01*
X123500000Y-114094174D01*
X123465925Y-113967007D01*
X123433012Y-113910000D01*
X124330636Y-113910000D01*
X124330635Y-113909999D01*
X124273432Y-113696513D01*
X124273429Y-113696507D01*
X124173600Y-113482422D01*
X124173599Y-113482420D01*
X124038113Y-113288926D01*
X124038108Y-113288920D01*
X123871078Y-113121890D01*
X123685405Y-112991879D01*
X123641780Y-112937302D01*
X123634588Y-112867804D01*
X123666110Y-112805449D01*
X123685406Y-112788730D01*
X123685842Y-112788425D01*
X123871401Y-112658495D01*
X124038495Y-112491401D01*
X124174035Y-112297830D01*
X124273903Y-112083663D01*
X124335063Y-111855408D01*
X124355659Y-111620000D01*
X124335063Y-111384592D01*
X124273903Y-111156337D01*
X124174035Y-110942171D01*
X124038495Y-110748599D01*
X124038494Y-110748597D01*
X123871402Y-110581506D01*
X123871396Y-110581501D01*
X123685842Y-110451575D01*
X123642217Y-110396998D01*
X123635023Y-110327500D01*
X123666546Y-110265145D01*
X123685842Y-110248425D01*
X123708026Y-110232891D01*
X123871401Y-110118495D01*
X124038495Y-109951401D01*
X124174035Y-109757830D01*
X124273903Y-109543663D01*
X124335063Y-109315408D01*
X124355659Y-109080000D01*
X124335063Y-108844592D01*
X124273903Y-108616337D01*
X124174035Y-108402171D01*
X124124707Y-108331722D01*
X124038494Y-108208597D01*
X123871402Y-108041506D01*
X123871401Y-108041505D01*
X123691944Y-107915848D01*
X123685405Y-107911269D01*
X123641781Y-107856692D01*
X123634588Y-107787193D01*
X123666110Y-107724839D01*
X123685405Y-107708119D01*
X123871082Y-107578105D01*
X124038105Y-107411082D01*
X124173600Y-107217578D01*
X124273429Y-107003492D01*
X124273432Y-107003486D01*
X124330636Y-106790000D01*
X123433012Y-106790000D01*
X123465925Y-106732993D01*
X123500000Y-106605826D01*
X123500000Y-106474174D01*
X123465925Y-106347007D01*
X123433012Y-106290000D01*
X124330636Y-106290000D01*
X124330635Y-106289999D01*
X124273432Y-106076513D01*
X124273429Y-106076507D01*
X124173600Y-105862422D01*
X124173599Y-105862420D01*
X124038113Y-105668926D01*
X124038108Y-105668920D01*
X123916053Y-105546865D01*
X123882568Y-105485542D01*
X123887552Y-105415850D01*
X123929424Y-105359917D01*
X123960400Y-105343002D01*
X124092331Y-105293796D01*
X124207546Y-105207546D01*
X124293796Y-105092331D01*
X124344091Y-104957483D01*
X124350500Y-104897873D01*
X124350499Y-103102128D01*
X124344091Y-103042517D01*
X124293796Y-102907669D01*
X124293795Y-102907668D01*
X124293793Y-102907664D01*
X124207547Y-102792455D01*
X124207544Y-102792452D01*
X124092335Y-102706206D01*
X124092328Y-102706202D01*
X123957482Y-102655908D01*
X123957483Y-102655908D01*
X123897883Y-102649501D01*
X123897881Y-102649500D01*
X123897873Y-102649500D01*
X123897864Y-102649500D01*
X122102129Y-102649500D01*
X122102123Y-102649501D01*
X122042516Y-102655908D01*
X121907671Y-102706202D01*
X121907664Y-102706206D01*
X121792455Y-102792452D01*
X121792452Y-102792455D01*
X121706206Y-102907664D01*
X121706202Y-102907671D01*
X121655908Y-103042517D01*
X121649501Y-103102116D01*
X121649501Y-103102123D01*
X121649500Y-103102135D01*
X121649500Y-104897870D01*
X121649501Y-104897876D01*
X121655908Y-104957483D01*
X121706202Y-105092328D01*
X121706206Y-105092335D01*
X121792452Y-105207544D01*
X121792455Y-105207547D01*
X121907664Y-105293793D01*
X121907671Y-105293797D01*
X121907674Y-105293798D01*
X122039598Y-105343002D01*
X122095531Y-105384873D01*
X122119949Y-105450337D01*
X122105098Y-105518610D01*
X122083947Y-105546865D01*
X121961886Y-105668926D01*
X121826400Y-105862420D01*
X121826399Y-105862422D01*
X121726570Y-106076507D01*
X121726567Y-106076513D01*
X121669364Y-106289999D01*
X121669364Y-106290000D01*
X122566988Y-106290000D01*
X122534075Y-106347007D01*
X122500000Y-106474174D01*
X122500000Y-106605826D01*
X122534075Y-106732993D01*
X122566988Y-106790000D01*
X121669364Y-106790000D01*
X121726567Y-107003486D01*
X121726570Y-107003492D01*
X121826399Y-107217578D01*
X121961894Y-107411082D01*
X122128917Y-107578105D01*
X122314595Y-107708119D01*
X122358219Y-107762696D01*
X122365412Y-107832195D01*
X122333890Y-107894549D01*
X122314595Y-107911269D01*
X122128594Y-108041508D01*
X121961505Y-108208597D01*
X121825965Y-108402169D01*
X121825964Y-108402171D01*
X121726098Y-108616335D01*
X121726094Y-108616344D01*
X121664938Y-108844586D01*
X121664936Y-108844596D01*
X121644341Y-109079999D01*
X121644341Y-109080000D01*
X121664936Y-109315403D01*
X121664938Y-109315413D01*
X121726094Y-109543655D01*
X121726096Y-109543659D01*
X121726097Y-109543663D01*
X121752601Y-109600500D01*
X121825965Y-109757830D01*
X121825967Y-109757834D01*
X121961501Y-109951395D01*
X121961506Y-109951402D01*
X122128597Y-110118493D01*
X122128603Y-110118498D01*
X122314158Y-110248425D01*
X122357783Y-110303002D01*
X122364977Y-110372500D01*
X122333454Y-110434855D01*
X122314158Y-110451575D01*
X122128597Y-110581505D01*
X121961505Y-110748597D01*
X121825965Y-110942169D01*
X121825964Y-110942171D01*
X121726098Y-111156335D01*
X121726094Y-111156344D01*
X121664938Y-111384586D01*
X121664936Y-111384596D01*
X121644341Y-111619999D01*
X121644341Y-111620000D01*
X121664936Y-111855403D01*
X121664938Y-111855413D01*
X121726094Y-112083655D01*
X121726096Y-112083659D01*
X121726097Y-112083663D01*
X121825965Y-112297830D01*
X121825967Y-112297834D01*
X121961501Y-112491395D01*
X121961506Y-112491402D01*
X122128597Y-112658493D01*
X122128603Y-112658498D01*
X122314594Y-112788730D01*
X122358219Y-112843307D01*
X122365413Y-112912805D01*
X122333890Y-112975160D01*
X122314595Y-112991880D01*
X122128922Y-113121890D01*
X122128920Y-113121891D01*
X121961891Y-113288920D01*
X121961886Y-113288926D01*
X121826400Y-113482420D01*
X121826399Y-113482422D01*
X121726570Y-113696507D01*
X121726567Y-113696513D01*
X121669364Y-113909999D01*
X121669364Y-113910000D01*
X122566988Y-113910000D01*
X122534075Y-113967007D01*
X122500000Y-114094174D01*
X122500000Y-114225826D01*
X122534075Y-114352993D01*
X122566988Y-114410000D01*
X121669364Y-114410000D01*
X121726567Y-114623486D01*
X121726570Y-114623492D01*
X121826399Y-114837578D01*
X121961894Y-115031082D01*
X122128917Y-115198105D01*
X122314595Y-115328119D01*
X122358219Y-115382696D01*
X122365412Y-115452195D01*
X122333890Y-115514549D01*
X122314595Y-115531269D01*
X122128594Y-115661508D01*
X121961505Y-115828597D01*
X121825965Y-116022169D01*
X121825964Y-116022171D01*
X121726098Y-116236335D01*
X121726094Y-116236344D01*
X121664938Y-116464586D01*
X121664936Y-116464596D01*
X121644341Y-116699999D01*
X121644341Y-116700000D01*
X121664936Y-116935403D01*
X121664938Y-116935413D01*
X121726094Y-117163655D01*
X121726096Y-117163659D01*
X121726097Y-117163663D01*
X121825965Y-117377830D01*
X121825967Y-117377834D01*
X121961501Y-117571395D01*
X121961506Y-117571402D01*
X122128597Y-117738493D01*
X122128603Y-117738498D01*
X122314158Y-117868425D01*
X122357783Y-117923002D01*
X122364977Y-117992500D01*
X122333454Y-118054855D01*
X122314158Y-118071575D01*
X122128597Y-118201505D01*
X121961505Y-118368597D01*
X121825965Y-118562169D01*
X121825964Y-118562171D01*
X121726098Y-118776335D01*
X121726094Y-118776344D01*
X121664938Y-119004586D01*
X121664936Y-119004596D01*
X121644341Y-119239999D01*
X121644341Y-119240000D01*
X121664936Y-119475403D01*
X121664938Y-119475413D01*
X121726094Y-119703655D01*
X121726096Y-119703659D01*
X121726097Y-119703663D01*
X121799531Y-119861142D01*
X121825965Y-119917830D01*
X121825967Y-119917834D01*
X121961501Y-120111395D01*
X121961506Y-120111402D01*
X122128597Y-120278493D01*
X122128603Y-120278498D01*
X122314594Y-120408730D01*
X122358219Y-120463307D01*
X122365413Y-120532805D01*
X122333890Y-120595160D01*
X122314595Y-120611880D01*
X122128922Y-120741890D01*
X122128920Y-120741891D01*
X121961891Y-120908920D01*
X121961886Y-120908926D01*
X121826400Y-121102420D01*
X121826399Y-121102422D01*
X121726570Y-121316507D01*
X121726567Y-121316513D01*
X121669364Y-121529999D01*
X121669364Y-121530000D01*
X122566988Y-121530000D01*
X122534075Y-121587007D01*
X122500000Y-121714174D01*
X122500000Y-121845826D01*
X122534075Y-121972993D01*
X122566988Y-122030000D01*
X121669364Y-122030000D01*
X121726567Y-122243486D01*
X121726570Y-122243492D01*
X121826399Y-122457578D01*
X121961894Y-122651082D01*
X122128917Y-122818105D01*
X122314595Y-122948119D01*
X122358219Y-123002696D01*
X122365412Y-123072195D01*
X122333890Y-123134549D01*
X122314595Y-123151269D01*
X122128594Y-123281508D01*
X121961505Y-123448597D01*
X121825965Y-123642169D01*
X121825964Y-123642171D01*
X121726098Y-123856335D01*
X121726094Y-123856344D01*
X121664938Y-124084586D01*
X121664936Y-124084596D01*
X121644341Y-124319999D01*
X121644341Y-124320000D01*
X121664936Y-124555403D01*
X121664938Y-124555413D01*
X121726094Y-124783655D01*
X121726096Y-124783659D01*
X121726097Y-124783663D01*
X121825965Y-124997830D01*
X121825967Y-124997834D01*
X121961501Y-125191395D01*
X121961506Y-125191402D01*
X122128597Y-125358493D01*
X122128603Y-125358498D01*
X122314158Y-125488425D01*
X122357783Y-125543002D01*
X122364977Y-125612500D01*
X122333454Y-125674855D01*
X122314158Y-125691575D01*
X122128597Y-125821505D01*
X121961505Y-125988597D01*
X121825965Y-126182169D01*
X121825964Y-126182171D01*
X121726098Y-126396335D01*
X121726094Y-126396344D01*
X121664938Y-126624586D01*
X121664936Y-126624596D01*
X121644341Y-126859999D01*
X121644341Y-126860000D01*
X59355659Y-126860000D01*
X59335063Y-126624592D01*
X59273903Y-126396337D01*
X59174035Y-126182171D01*
X59038495Y-125988599D01*
X59038494Y-125988597D01*
X58871402Y-125821506D01*
X58871396Y-125821501D01*
X58685842Y-125691575D01*
X58642217Y-125636998D01*
X58635023Y-125567500D01*
X58666546Y-125505145D01*
X58685842Y-125488425D01*
X58708026Y-125472891D01*
X58871401Y-125358495D01*
X59038495Y-125191401D01*
X59174035Y-124997830D01*
X59273903Y-124783663D01*
X59335063Y-124555408D01*
X59355659Y-124320000D01*
X59335063Y-124084592D01*
X59273903Y-123856337D01*
X59174035Y-123642171D01*
X59144507Y-123600000D01*
X72494659Y-123600000D01*
X72513975Y-123796129D01*
X72571188Y-123984733D01*
X72664086Y-124158532D01*
X72664090Y-124158539D01*
X72789116Y-124310883D01*
X72941460Y-124435909D01*
X72941467Y-124435913D01*
X73115266Y-124528811D01*
X73115269Y-124528811D01*
X73115273Y-124528814D01*
X73303868Y-124586024D01*
X73500000Y-124605341D01*
X73696132Y-124586024D01*
X73884727Y-124528814D01*
X74058538Y-124435910D01*
X74210883Y-124310883D01*
X74335910Y-124158538D01*
X74428814Y-123984727D01*
X74486024Y-123796132D01*
X74505341Y-123600000D01*
X74486024Y-123403868D01*
X74428814Y-123215273D01*
X74428811Y-123215269D01*
X74428811Y-123215266D01*
X74335913Y-123041467D01*
X74335909Y-123041460D01*
X74210883Y-122889116D01*
X74058539Y-122764090D01*
X74058532Y-122764086D01*
X73884733Y-122671188D01*
X73884727Y-122671186D01*
X73696132Y-122613976D01*
X73696129Y-122613975D01*
X73500000Y-122594659D01*
X73303870Y-122613975D01*
X73115266Y-122671188D01*
X72941467Y-122764086D01*
X72941460Y-122764090D01*
X72789116Y-122889116D01*
X72664090Y-123041460D01*
X72664086Y-123041467D01*
X72571188Y-123215266D01*
X72513975Y-123403870D01*
X72494659Y-123600000D01*
X59144507Y-123600000D01*
X59038495Y-123448599D01*
X59038494Y-123448597D01*
X58871402Y-123281506D01*
X58871396Y-123281501D01*
X58685842Y-123151575D01*
X58642217Y-123096998D01*
X58635023Y-123027500D01*
X58666546Y-122965145D01*
X58685842Y-122948425D01*
X58770544Y-122889116D01*
X58871401Y-122818495D01*
X59038495Y-122651401D01*
X59174035Y-122457830D01*
X59273903Y-122243663D01*
X59335063Y-122015408D01*
X59355659Y-121780000D01*
X59335063Y-121544592D01*
X59273903Y-121316337D01*
X59174035Y-121102171D01*
X59057621Y-120935913D01*
X59038494Y-120908597D01*
X58871402Y-120741506D01*
X58871401Y-120741505D01*
X58703844Y-120624180D01*
X58685405Y-120611269D01*
X58641781Y-120556692D01*
X58634588Y-120487193D01*
X58666110Y-120424839D01*
X58685405Y-120408119D01*
X58871082Y-120278105D01*
X59038105Y-120111082D01*
X59045865Y-120100000D01*
X93394659Y-120100000D01*
X93413975Y-120296129D01*
X93471188Y-120484733D01*
X93564086Y-120658532D01*
X93564090Y-120658539D01*
X93689116Y-120810883D01*
X93841460Y-120935909D01*
X93841467Y-120935913D01*
X94015266Y-121028811D01*
X94015269Y-121028811D01*
X94015273Y-121028814D01*
X94203868Y-121086024D01*
X94400000Y-121105341D01*
X94596132Y-121086024D01*
X94784727Y-121028814D01*
X94958538Y-120935910D01*
X95110883Y-120810883D01*
X95235910Y-120658538D01*
X95313219Y-120513903D01*
X95328811Y-120484733D01*
X95328811Y-120484732D01*
X95328814Y-120484727D01*
X95386024Y-120296132D01*
X95405341Y-120100000D01*
X95386024Y-119903868D01*
X95328814Y-119715273D01*
X95328811Y-119715269D01*
X95328811Y-119715266D01*
X95235913Y-119541467D01*
X95235909Y-119541460D01*
X95110883Y-119389116D01*
X94958539Y-119264090D01*
X94958532Y-119264086D01*
X94784733Y-119171188D01*
X94784727Y-119171186D01*
X94596132Y-119113976D01*
X94596129Y-119113975D01*
X94400000Y-119094659D01*
X94203870Y-119113975D01*
X94015266Y-119171188D01*
X93841467Y-119264086D01*
X93841460Y-119264090D01*
X93689116Y-119389116D01*
X93564090Y-119541460D01*
X93564086Y-119541467D01*
X93471188Y-119715266D01*
X93413975Y-119903870D01*
X93394659Y-120100000D01*
X59045865Y-120100000D01*
X59173600Y-119917578D01*
X59273429Y-119703492D01*
X59273432Y-119703486D01*
X59330636Y-119490000D01*
X58433012Y-119490000D01*
X58465925Y-119432993D01*
X58500000Y-119305826D01*
X58500000Y-119174174D01*
X58465925Y-119047007D01*
X58438786Y-119000000D01*
X99619540Y-119000000D01*
X99639326Y-119188256D01*
X99639327Y-119188259D01*
X99697818Y-119368277D01*
X99697821Y-119368284D01*
X99792467Y-119532216D01*
X99889606Y-119640099D01*
X99919129Y-119672888D01*
X100072265Y-119784148D01*
X100072270Y-119784151D01*
X100245192Y-119861142D01*
X100245197Y-119861144D01*
X100430354Y-119900500D01*
X100430355Y-119900500D01*
X100619644Y-119900500D01*
X100619646Y-119900500D01*
X100804803Y-119861144D01*
X100977730Y-119784151D01*
X101130871Y-119672888D01*
X101257533Y-119532216D01*
X101352179Y-119368284D01*
X101410674Y-119188256D01*
X101430460Y-119000000D01*
X112994540Y-119000000D01*
X113014326Y-119188256D01*
X113014327Y-119188259D01*
X113072818Y-119368277D01*
X113072821Y-119368284D01*
X113167467Y-119532216D01*
X113264606Y-119640099D01*
X113294129Y-119672888D01*
X113447265Y-119784148D01*
X113447270Y-119784151D01*
X113620192Y-119861142D01*
X113620197Y-119861144D01*
X113805354Y-119900500D01*
X113805355Y-119900500D01*
X113994644Y-119900500D01*
X113994646Y-119900500D01*
X114179803Y-119861144D01*
X114352730Y-119784151D01*
X114505871Y-119672888D01*
X114632533Y-119532216D01*
X114727179Y-119368284D01*
X114785674Y-119188256D01*
X114805460Y-119000000D01*
X114785674Y-118811744D01*
X114727179Y-118631716D01*
X114632533Y-118467784D01*
X114505871Y-118327112D01*
X114505870Y-118327111D01*
X114352734Y-118215851D01*
X114352729Y-118215848D01*
X114179807Y-118138857D01*
X114179802Y-118138855D01*
X114034001Y-118107865D01*
X113994646Y-118099500D01*
X113805354Y-118099500D01*
X113772897Y-118106398D01*
X113620197Y-118138855D01*
X113620192Y-118138857D01*
X113447270Y-118215848D01*
X113447265Y-118215851D01*
X113294129Y-118327111D01*
X113167466Y-118467785D01*
X113072821Y-118631715D01*
X113072818Y-118631722D01*
X113025828Y-118776344D01*
X113014326Y-118811744D01*
X112994540Y-119000000D01*
X101430460Y-119000000D01*
X101410674Y-118811744D01*
X101352179Y-118631716D01*
X101257533Y-118467784D01*
X101130871Y-118327112D01*
X101130870Y-118327111D01*
X100977734Y-118215851D01*
X100977729Y-118215848D01*
X100804807Y-118138857D01*
X100804802Y-118138855D01*
X100659001Y-118107865D01*
X100619646Y-118099500D01*
X100430354Y-118099500D01*
X100397897Y-118106398D01*
X100245197Y-118138855D01*
X100245192Y-118138857D01*
X100072270Y-118215848D01*
X100072265Y-118215851D01*
X99919129Y-118327111D01*
X99792466Y-118467785D01*
X99697821Y-118631715D01*
X99697818Y-118631722D01*
X99650828Y-118776344D01*
X99639326Y-118811744D01*
X99619540Y-119000000D01*
X58438786Y-119000000D01*
X58433012Y-118990000D01*
X59330636Y-118990000D01*
X59330635Y-118989999D01*
X59273432Y-118776513D01*
X59273429Y-118776507D01*
X59173600Y-118562422D01*
X59173599Y-118562420D01*
X59038113Y-118368926D01*
X59038108Y-118368920D01*
X58871078Y-118201890D01*
X58685405Y-118071879D01*
X58641780Y-118017302D01*
X58634588Y-117947804D01*
X58666110Y-117885449D01*
X58685406Y-117868730D01*
X58685842Y-117868425D01*
X58871401Y-117738495D01*
X59038495Y-117571401D01*
X59174035Y-117377830D01*
X59273903Y-117163663D01*
X59335063Y-116935408D01*
X59355659Y-116700000D01*
X59335063Y-116464592D01*
X59273903Y-116236337D01*
X59174035Y-116022171D01*
X59038495Y-115828599D01*
X59038494Y-115828597D01*
X58871402Y-115661506D01*
X58871396Y-115661501D01*
X58685842Y-115531575D01*
X58642217Y-115476998D01*
X58635023Y-115407500D01*
X58666546Y-115345145D01*
X58685842Y-115328425D01*
X58765157Y-115272888D01*
X58871401Y-115198495D01*
X59038495Y-115031401D01*
X59174035Y-114837830D01*
X59273903Y-114623663D01*
X59280243Y-114600000D01*
X102294540Y-114600000D01*
X102314326Y-114788256D01*
X102314327Y-114788259D01*
X102372818Y-114968277D01*
X102372821Y-114968284D01*
X102467467Y-115132216D01*
X102527145Y-115198495D01*
X102594129Y-115272888D01*
X102747265Y-115384148D01*
X102747270Y-115384151D01*
X102920192Y-115461142D01*
X102920197Y-115461144D01*
X103105354Y-115500500D01*
X103105355Y-115500500D01*
X103294644Y-115500500D01*
X103294646Y-115500500D01*
X103479803Y-115461144D01*
X103652730Y-115384151D01*
X103805871Y-115272888D01*
X103932533Y-115132216D01*
X104027179Y-114968284D01*
X104085674Y-114788256D01*
X104105460Y-114600000D01*
X104085674Y-114411744D01*
X104027179Y-114231716D01*
X103932533Y-114067784D01*
X103805871Y-113927112D01*
X103802403Y-113924592D01*
X103652734Y-113815851D01*
X103652729Y-113815848D01*
X103479807Y-113738857D01*
X103479802Y-113738855D01*
X103334001Y-113707865D01*
X103294646Y-113699500D01*
X103105354Y-113699500D01*
X103072897Y-113706398D01*
X102920197Y-113738855D01*
X102920192Y-113738857D01*
X102747270Y-113815848D01*
X102747265Y-113815851D01*
X102594129Y-113927111D01*
X102467466Y-114067785D01*
X102372821Y-114231715D01*
X102372818Y-114231722D01*
X102314327Y-114411740D01*
X102314326Y-114411744D01*
X102294540Y-114600000D01*
X59280243Y-114600000D01*
X59335063Y-114395408D01*
X59355659Y-114160000D01*
X59335063Y-113924592D01*
X59273903Y-113696337D01*
X59174035Y-113482171D01*
X59116499Y-113400000D01*
X80682040Y-113400000D01*
X80701826Y-113588256D01*
X80701827Y-113588259D01*
X80760318Y-113768277D01*
X80760321Y-113768284D01*
X80854967Y-113932216D01*
X80977033Y-114067784D01*
X80981629Y-114072888D01*
X81134765Y-114184148D01*
X81134770Y-114184151D01*
X81307692Y-114261142D01*
X81307697Y-114261144D01*
X81492854Y-114300500D01*
X81492855Y-114300500D01*
X81682144Y-114300500D01*
X81682146Y-114300500D01*
X81867303Y-114261144D01*
X82040230Y-114184151D01*
X82193371Y-114072888D01*
X82320033Y-113932216D01*
X82414679Y-113768284D01*
X82473174Y-113588256D01*
X82492960Y-113400000D01*
X82473174Y-113211744D01*
X82414679Y-113031716D01*
X82320033Y-112867784D01*
X82193371Y-112727112D01*
X82098932Y-112658498D01*
X82040234Y-112615851D01*
X82040229Y-112615848D01*
X81867307Y-112538857D01*
X81867302Y-112538855D01*
X81721501Y-112507865D01*
X81682146Y-112499500D01*
X81492854Y-112499500D01*
X81460397Y-112506398D01*
X81307697Y-112538855D01*
X81307692Y-112538857D01*
X81134770Y-112615848D01*
X81134765Y-112615851D01*
X80981629Y-112727111D01*
X80854966Y-112867785D01*
X80760321Y-113031715D01*
X80760318Y-113031722D01*
X80731021Y-113121891D01*
X80701826Y-113211744D01*
X80682040Y-113400000D01*
X59116499Y-113400000D01*
X59038494Y-113288597D01*
X58871402Y-113121506D01*
X58871396Y-113121501D01*
X58685842Y-112991575D01*
X58642217Y-112936998D01*
X58635023Y-112867500D01*
X58666546Y-112805145D01*
X58685842Y-112788425D01*
X58773407Y-112727111D01*
X58871401Y-112658495D01*
X59038495Y-112491401D01*
X59174035Y-112297830D01*
X59273903Y-112083663D01*
X59335063Y-111855408D01*
X59355659Y-111620000D01*
X59335063Y-111384592D01*
X59273903Y-111156337D01*
X59174035Y-110942171D01*
X59038495Y-110748599D01*
X59038494Y-110748597D01*
X58871402Y-110581506D01*
X58871401Y-110581505D01*
X58685405Y-110451269D01*
X58641781Y-110396692D01*
X58634588Y-110327193D01*
X58666110Y-110264839D01*
X58685405Y-110248119D01*
X58871082Y-110118105D01*
X59038105Y-109951082D01*
X59173600Y-109757578D01*
X59273429Y-109543492D01*
X59273432Y-109543486D01*
X59330636Y-109330000D01*
X58433012Y-109330000D01*
X58465925Y-109272993D01*
X58500000Y-109145826D01*
X58500000Y-109014174D01*
X58465925Y-108887007D01*
X58433012Y-108830000D01*
X59330636Y-108830000D01*
X59330635Y-108829999D01*
X59295802Y-108700000D01*
X109194540Y-108700000D01*
X109214326Y-108888256D01*
X109214327Y-108888259D01*
X109272818Y-109068277D01*
X109272821Y-109068284D01*
X109367467Y-109232216D01*
X109494129Y-109372888D01*
X109647265Y-109484148D01*
X109647270Y-109484151D01*
X109820192Y-109561142D01*
X109820197Y-109561144D01*
X110005354Y-109600500D01*
X110005355Y-109600500D01*
X110194644Y-109600500D01*
X110194646Y-109600500D01*
X110379803Y-109561144D01*
X110552730Y-109484151D01*
X110705871Y-109372888D01*
X110832533Y-109232216D01*
X110927179Y-109068284D01*
X110985674Y-108888256D01*
X111005460Y-108700000D01*
X110985674Y-108511744D01*
X110927179Y-108331716D01*
X110832533Y-108167784D01*
X110705871Y-108027112D01*
X110705870Y-108027111D01*
X110552734Y-107915851D01*
X110552729Y-107915848D01*
X110379807Y-107838857D01*
X110379802Y-107838855D01*
X110234001Y-107807865D01*
X110194646Y-107799500D01*
X110005354Y-107799500D01*
X109974317Y-107806097D01*
X109820197Y-107838855D01*
X109820192Y-107838857D01*
X109647270Y-107915848D01*
X109647265Y-107915851D01*
X109494129Y-108027111D01*
X109367466Y-108167785D01*
X109272821Y-108331715D01*
X109272818Y-108331722D01*
X109214327Y-108511740D01*
X109214326Y-108511744D01*
X109194540Y-108700000D01*
X59295802Y-108700000D01*
X59273432Y-108616513D01*
X59273429Y-108616507D01*
X59173600Y-108402422D01*
X59173599Y-108402420D01*
X59038113Y-108208926D01*
X59038108Y-108208920D01*
X58871078Y-108041890D01*
X58685405Y-107911879D01*
X58641780Y-107857302D01*
X58634588Y-107787804D01*
X58666110Y-107725449D01*
X58685406Y-107708730D01*
X58686279Y-107708119D01*
X58871401Y-107578495D01*
X59038495Y-107411401D01*
X59174035Y-107217830D01*
X59273903Y-107003663D01*
X59335063Y-106775408D01*
X59355659Y-106540000D01*
X59335063Y-106304592D01*
X59273903Y-106076337D01*
X59174035Y-105862171D01*
X59038495Y-105668599D01*
X58916567Y-105546671D01*
X58883084Y-105485351D01*
X58888068Y-105415659D01*
X58929939Y-105359725D01*
X58960915Y-105342810D01*
X59092331Y-105293796D01*
X59207546Y-105207546D01*
X59293796Y-105092331D01*
X59344091Y-104957483D01*
X59350500Y-104897873D01*
X59350500Y-104200000D01*
X69382040Y-104200000D01*
X69401826Y-104388256D01*
X69401827Y-104388259D01*
X69460318Y-104568277D01*
X69460321Y-104568284D01*
X69554967Y-104732216D01*
X69681629Y-104872888D01*
X69834765Y-104984148D01*
X69834770Y-104984151D01*
X70007692Y-105061142D01*
X70007697Y-105061144D01*
X70192854Y-105100500D01*
X70192855Y-105100500D01*
X70382144Y-105100500D01*
X70382146Y-105100500D01*
X70567303Y-105061144D01*
X70740230Y-104984151D01*
X70893371Y-104872888D01*
X71020033Y-104732216D01*
X71114679Y-104568284D01*
X71173174Y-104388256D01*
X71192960Y-104200000D01*
X71173174Y-104011744D01*
X71114679Y-103831716D01*
X71020033Y-103667784D01*
X70893371Y-103527112D01*
X70893370Y-103527111D01*
X70740234Y-103415851D01*
X70740229Y-103415848D01*
X70567307Y-103338857D01*
X70567302Y-103338855D01*
X70421501Y-103307865D01*
X70382146Y-103299500D01*
X70192854Y-103299500D01*
X70160397Y-103306398D01*
X70007697Y-103338855D01*
X70007692Y-103338857D01*
X69834770Y-103415848D01*
X69834765Y-103415851D01*
X69681629Y-103527111D01*
X69554966Y-103667785D01*
X69460321Y-103831715D01*
X69460318Y-103831722D01*
X69401827Y-104011740D01*
X69401826Y-104011744D01*
X69382040Y-104200000D01*
X59350500Y-104200000D01*
X59350499Y-103102128D01*
X59344091Y-103042517D01*
X59293796Y-102907669D01*
X59293795Y-102907668D01*
X59293793Y-102907664D01*
X59207547Y-102792455D01*
X59207544Y-102792452D01*
X59092335Y-102706206D01*
X59092328Y-102706202D01*
X58957482Y-102655908D01*
X58957483Y-102655908D01*
X58897883Y-102649501D01*
X58897881Y-102649500D01*
X58897873Y-102649500D01*
X58897864Y-102649500D01*
X57102129Y-102649500D01*
X57102123Y-102649501D01*
X57042516Y-102655908D01*
X56907671Y-102706202D01*
X56907664Y-102706206D01*
X56792455Y-102792452D01*
X56792452Y-102792455D01*
X56706206Y-102907664D01*
X56706202Y-102907671D01*
X56655908Y-103042517D01*
X56649501Y-103102116D01*
X56649501Y-103102123D01*
X56649500Y-103102135D01*
X56649500Y-104897870D01*
X56649501Y-104897876D01*
X56655908Y-104957483D01*
X56706202Y-105092328D01*
X56706206Y-105092335D01*
X56792452Y-105207544D01*
X56792455Y-105207547D01*
X56907664Y-105293793D01*
X56907671Y-105293797D01*
X57039081Y-105342810D01*
X57095015Y-105384681D01*
X57119432Y-105450145D01*
X57104580Y-105518418D01*
X57083430Y-105546673D01*
X56961503Y-105668600D01*
X56825965Y-105862169D01*
X56825964Y-105862171D01*
X56726098Y-106076335D01*
X56726094Y-106076344D01*
X56664938Y-106304586D01*
X56664936Y-106304596D01*
X56644341Y-106539999D01*
X56644341Y-106540000D01*
X56664936Y-106775403D01*
X56664938Y-106775413D01*
X56726094Y-107003655D01*
X56726096Y-107003659D01*
X56726097Y-107003663D01*
X56825847Y-107217578D01*
X56825965Y-107217830D01*
X56825967Y-107217834D01*
X56961501Y-107411395D01*
X56961506Y-107411402D01*
X57128597Y-107578493D01*
X57128603Y-107578498D01*
X57314594Y-107708730D01*
X57358219Y-107763307D01*
X57365413Y-107832805D01*
X57333890Y-107895160D01*
X57314595Y-107911880D01*
X57128922Y-108041890D01*
X57128920Y-108041891D01*
X56961891Y-108208920D01*
X56961886Y-108208926D01*
X56826400Y-108402420D01*
X56826399Y-108402422D01*
X56726570Y-108616507D01*
X56726567Y-108616513D01*
X56669364Y-108829999D01*
X56669364Y-108830000D01*
X57566988Y-108830000D01*
X57534075Y-108887007D01*
X57500000Y-109014174D01*
X57500000Y-109145826D01*
X57534075Y-109272993D01*
X57566988Y-109330000D01*
X56669364Y-109330000D01*
X56726567Y-109543486D01*
X56726570Y-109543492D01*
X56826399Y-109757578D01*
X56961894Y-109951082D01*
X57128917Y-110118105D01*
X57314595Y-110248119D01*
X57358219Y-110302696D01*
X57365412Y-110372195D01*
X57333890Y-110434549D01*
X57314595Y-110451269D01*
X57128594Y-110581508D01*
X56961505Y-110748597D01*
X56825965Y-110942169D01*
X56825964Y-110942171D01*
X56726098Y-111156335D01*
X56726094Y-111156344D01*
X56664938Y-111384586D01*
X56664936Y-111384596D01*
X56644341Y-111619999D01*
X56644341Y-111620000D01*
X56664936Y-111855403D01*
X56664938Y-111855413D01*
X56726094Y-112083655D01*
X56726096Y-112083659D01*
X56726097Y-112083663D01*
X56825965Y-112297830D01*
X56825967Y-112297834D01*
X56961501Y-112491395D01*
X56961506Y-112491402D01*
X57128597Y-112658493D01*
X57128603Y-112658498D01*
X57314158Y-112788425D01*
X57357783Y-112843002D01*
X57364977Y-112912500D01*
X57333454Y-112974855D01*
X57314158Y-112991575D01*
X57128597Y-113121505D01*
X56961505Y-113288597D01*
X56825965Y-113482169D01*
X56825964Y-113482171D01*
X56726098Y-113696335D01*
X56726094Y-113696344D01*
X56664938Y-113924586D01*
X56664936Y-113924596D01*
X56644341Y-114159999D01*
X56644341Y-114160000D01*
X56664936Y-114395403D01*
X56664938Y-114395413D01*
X56726094Y-114623655D01*
X56726096Y-114623659D01*
X56726097Y-114623663D01*
X56802848Y-114788256D01*
X56825965Y-114837830D01*
X56825967Y-114837834D01*
X56961501Y-115031395D01*
X56961506Y-115031402D01*
X57128597Y-115198493D01*
X57128603Y-115198498D01*
X57314158Y-115328425D01*
X57357783Y-115383002D01*
X57364977Y-115452500D01*
X57333454Y-115514855D01*
X57314158Y-115531575D01*
X57128597Y-115661505D01*
X56961505Y-115828597D01*
X56825965Y-116022169D01*
X56825964Y-116022171D01*
X56726098Y-116236335D01*
X56726094Y-116236344D01*
X56664938Y-116464586D01*
X56664936Y-116464596D01*
X56644341Y-116699999D01*
X56644341Y-116700000D01*
X56664936Y-116935403D01*
X56664938Y-116935413D01*
X56726094Y-117163655D01*
X56726096Y-117163659D01*
X56726097Y-117163663D01*
X56825965Y-117377830D01*
X56825967Y-117377834D01*
X56961501Y-117571395D01*
X56961506Y-117571402D01*
X57128597Y-117738493D01*
X57128603Y-117738498D01*
X57314594Y-117868730D01*
X57358219Y-117923307D01*
X57365413Y-117992805D01*
X57333890Y-118055160D01*
X57314595Y-118071880D01*
X57128922Y-118201890D01*
X57128920Y-118201891D01*
X56961891Y-118368920D01*
X56961886Y-118368926D01*
X56826400Y-118562420D01*
X56826399Y-118562422D01*
X56726570Y-118776507D01*
X56726567Y-118776513D01*
X56669364Y-118989999D01*
X56669364Y-118990000D01*
X57566988Y-118990000D01*
X57534075Y-119047007D01*
X57500000Y-119174174D01*
X57500000Y-119305826D01*
X57534075Y-119432993D01*
X57566988Y-119490000D01*
X56669364Y-119490000D01*
X56726567Y-119703486D01*
X56726570Y-119703492D01*
X56826399Y-119917578D01*
X56961894Y-120111082D01*
X57128917Y-120278105D01*
X57314595Y-120408119D01*
X57358219Y-120462696D01*
X57365412Y-120532195D01*
X57333890Y-120594549D01*
X57314595Y-120611269D01*
X57128594Y-120741508D01*
X56961505Y-120908597D01*
X56825965Y-121102169D01*
X56825964Y-121102171D01*
X56726098Y-121316335D01*
X56726094Y-121316344D01*
X56664938Y-121544586D01*
X56664936Y-121544596D01*
X56644341Y-121779999D01*
X56644341Y-121780000D01*
X56664936Y-122015403D01*
X56664938Y-122015413D01*
X56726094Y-122243655D01*
X56726096Y-122243659D01*
X56726097Y-122243663D01*
X56825847Y-122457578D01*
X56825965Y-122457830D01*
X56825967Y-122457834D01*
X56961501Y-122651395D01*
X56961506Y-122651402D01*
X57128597Y-122818493D01*
X57128603Y-122818498D01*
X57314158Y-122948425D01*
X57357783Y-123003002D01*
X57364977Y-123072500D01*
X57333454Y-123134855D01*
X57314158Y-123151575D01*
X57128597Y-123281505D01*
X56961505Y-123448597D01*
X56825965Y-123642169D01*
X56825964Y-123642171D01*
X56726098Y-123856335D01*
X56726094Y-123856344D01*
X56664938Y-124084586D01*
X56664936Y-124084596D01*
X56644341Y-124319999D01*
X56644341Y-124320000D01*
X56664936Y-124555403D01*
X56664938Y-124555413D01*
X56726094Y-124783655D01*
X56726096Y-124783659D01*
X56726097Y-124783663D01*
X56825965Y-124997830D01*
X56825967Y-124997834D01*
X56961501Y-125191395D01*
X56961506Y-125191402D01*
X57128597Y-125358493D01*
X57128603Y-125358498D01*
X57314158Y-125488425D01*
X57357783Y-125543002D01*
X57364977Y-125612500D01*
X57333454Y-125674855D01*
X57314158Y-125691575D01*
X57128597Y-125821505D01*
X56961505Y-125988597D01*
X56825965Y-126182169D01*
X56825964Y-126182171D01*
X56726098Y-126396335D01*
X56726094Y-126396344D01*
X56664938Y-126624586D01*
X56664936Y-126624596D01*
X56644341Y-126859999D01*
X56644341Y-126860000D01*
X55600500Y-126860000D01*
X55600500Y-96500000D01*
X86294540Y-96500000D01*
X86314326Y-96688256D01*
X86314327Y-96688259D01*
X86372818Y-96868277D01*
X86372821Y-96868284D01*
X86467467Y-97032216D01*
X86594129Y-97172888D01*
X86747265Y-97284148D01*
X86747270Y-97284151D01*
X86920192Y-97361142D01*
X86920197Y-97361144D01*
X87105354Y-97400500D01*
X87105355Y-97400500D01*
X87294644Y-97400500D01*
X87294646Y-97400500D01*
X87479803Y-97361144D01*
X87652730Y-97284151D01*
X87805871Y-97172888D01*
X87932533Y-97032216D01*
X88027179Y-96868284D01*
X88085674Y-96688256D01*
X88105460Y-96500000D01*
X88085674Y-96311744D01*
X88027179Y-96131716D01*
X87932533Y-95967784D01*
X87805871Y-95827112D01*
X87805870Y-95827111D01*
X87652734Y-95715851D01*
X87652729Y-95715848D01*
X87479807Y-95638857D01*
X87479802Y-95638855D01*
X87334001Y-95607865D01*
X87294646Y-95599500D01*
X87105354Y-95599500D01*
X87072897Y-95606398D01*
X86920197Y-95638855D01*
X86920192Y-95638857D01*
X86747270Y-95715848D01*
X86747265Y-95715851D01*
X86594129Y-95827111D01*
X86467466Y-95967785D01*
X86372821Y-96131715D01*
X86372818Y-96131722D01*
X86314327Y-96311740D01*
X86314326Y-96311744D01*
X86294540Y-96500000D01*
X55600500Y-96500000D01*
X55600500Y-94000005D01*
X65794357Y-94000005D01*
X65814890Y-94247812D01*
X65814892Y-94247824D01*
X65875936Y-94488881D01*
X65975826Y-94716606D01*
X66111833Y-94924782D01*
X66118216Y-94931716D01*
X66280256Y-95107738D01*
X66476491Y-95260474D01*
X66695190Y-95378828D01*
X66930386Y-95459571D01*
X67175665Y-95500500D01*
X67424335Y-95500500D01*
X67669614Y-95459571D01*
X67904810Y-95378828D01*
X68123509Y-95260474D01*
X68319744Y-95107738D01*
X68488164Y-94924785D01*
X68624173Y-94716607D01*
X68724063Y-94488881D01*
X68785108Y-94247821D01*
X68798285Y-94088801D01*
X68805643Y-94000005D01*
X69794357Y-94000005D01*
X69814890Y-94247812D01*
X69814892Y-94247824D01*
X69875936Y-94488881D01*
X69975826Y-94716606D01*
X70111833Y-94924782D01*
X70118216Y-94931716D01*
X70280256Y-95107738D01*
X70476491Y-95260474D01*
X70695190Y-95378828D01*
X70930386Y-95459571D01*
X71175665Y-95500500D01*
X71424335Y-95500500D01*
X71669614Y-95459571D01*
X71904810Y-95378828D01*
X72050471Y-95300000D01*
X81794540Y-95300000D01*
X81814326Y-95488256D01*
X81814327Y-95488259D01*
X81872818Y-95668277D01*
X81872821Y-95668284D01*
X81967467Y-95832216D01*
X82089533Y-95967784D01*
X82094129Y-95972888D01*
X82247265Y-96084148D01*
X82247270Y-96084151D01*
X82420192Y-96161142D01*
X82420197Y-96161144D01*
X82605354Y-96200500D01*
X82605355Y-96200500D01*
X82794644Y-96200500D01*
X82794646Y-96200500D01*
X82979803Y-96161144D01*
X83152730Y-96084151D01*
X83305871Y-95972888D01*
X83432533Y-95832216D01*
X83527179Y-95668284D01*
X83585674Y-95488256D01*
X83605460Y-95300000D01*
X83585674Y-95111744D01*
X83527179Y-94931716D01*
X83432533Y-94767784D01*
X83305871Y-94627112D01*
X83305870Y-94627111D01*
X83152734Y-94515851D01*
X83152729Y-94515848D01*
X82979807Y-94438857D01*
X82979802Y-94438855D01*
X82834001Y-94407865D01*
X82794646Y-94399500D01*
X82605354Y-94399500D01*
X82572897Y-94406398D01*
X82420197Y-94438855D01*
X82420192Y-94438857D01*
X82247270Y-94515848D01*
X82247265Y-94515851D01*
X82094129Y-94627111D01*
X81967466Y-94767785D01*
X81872821Y-94931715D01*
X81872818Y-94931722D01*
X81814327Y-95111740D01*
X81814326Y-95111744D01*
X81794540Y-95300000D01*
X72050471Y-95300000D01*
X72123509Y-95260474D01*
X72319744Y-95107738D01*
X72488164Y-94924785D01*
X72624173Y-94716607D01*
X72724063Y-94488881D01*
X72785108Y-94247821D01*
X72798285Y-94088801D01*
X72805643Y-94000005D01*
X72805643Y-93999994D01*
X72797402Y-93900545D01*
X90777830Y-93900545D01*
X90797616Y-94088801D01*
X90797617Y-94088804D01*
X90856108Y-94268822D01*
X90856111Y-94268829D01*
X90950757Y-94432761D01*
X91021874Y-94511744D01*
X91077419Y-94573433D01*
X91230555Y-94684693D01*
X91230560Y-94684696D01*
X91403482Y-94761687D01*
X91403487Y-94761689D01*
X91588644Y-94801045D01*
X91588645Y-94801045D01*
X91777934Y-94801045D01*
X91777936Y-94801045D01*
X91963093Y-94761689D01*
X92101647Y-94700000D01*
X97394540Y-94700000D01*
X97414326Y-94888256D01*
X97414327Y-94888259D01*
X97472818Y-95068277D01*
X97472821Y-95068284D01*
X97567467Y-95232216D01*
X97694129Y-95372888D01*
X97847265Y-95484148D01*
X97847270Y-95484151D01*
X98020192Y-95561142D01*
X98020197Y-95561144D01*
X98205354Y-95600500D01*
X98205355Y-95600500D01*
X98394644Y-95600500D01*
X98394646Y-95600500D01*
X98579803Y-95561144D01*
X98752730Y-95484151D01*
X98905871Y-95372888D01*
X99032533Y-95232216D01*
X99127179Y-95068284D01*
X99185674Y-94888256D01*
X99205460Y-94700000D01*
X99185674Y-94511744D01*
X99127179Y-94331716D01*
X99032533Y-94167784D01*
X98905871Y-94027112D01*
X98905870Y-94027111D01*
X98752734Y-93915851D01*
X98752729Y-93915848D01*
X98579807Y-93838857D01*
X98579802Y-93838855D01*
X98434001Y-93807865D01*
X98394646Y-93799500D01*
X98205354Y-93799500D01*
X98172897Y-93806398D01*
X98020197Y-93838855D01*
X98020192Y-93838857D01*
X97847270Y-93915848D01*
X97847265Y-93915851D01*
X97694129Y-94027111D01*
X97567466Y-94167785D01*
X97472821Y-94331715D01*
X97472818Y-94331722D01*
X97414327Y-94511740D01*
X97414326Y-94511744D01*
X97394540Y-94700000D01*
X92101647Y-94700000D01*
X92136020Y-94684696D01*
X92289161Y-94573433D01*
X92415823Y-94432761D01*
X92510469Y-94268829D01*
X92568964Y-94088801D01*
X92588750Y-93900545D01*
X92568964Y-93712289D01*
X92510469Y-93532261D01*
X92415823Y-93368329D01*
X92289161Y-93227657D01*
X92289160Y-93227656D01*
X92136024Y-93116396D01*
X92136019Y-93116393D01*
X91963097Y-93039402D01*
X91963092Y-93039400D01*
X91817291Y-93008410D01*
X91777936Y-93000045D01*
X91588644Y-93000045D01*
X91556187Y-93006943D01*
X91403487Y-93039400D01*
X91403482Y-93039402D01*
X91230560Y-93116393D01*
X91230555Y-93116396D01*
X91077419Y-93227656D01*
X90950756Y-93368330D01*
X90856111Y-93532260D01*
X90856108Y-93532267D01*
X90797617Y-93712285D01*
X90797616Y-93712289D01*
X90777830Y-93900545D01*
X72797402Y-93900545D01*
X72785109Y-93752187D01*
X72785107Y-93752175D01*
X72724063Y-93511118D01*
X72624173Y-93283393D01*
X72488166Y-93075217D01*
X72418965Y-93000045D01*
X72319744Y-92892262D01*
X72123509Y-92739526D01*
X72123507Y-92739525D01*
X72123506Y-92739524D01*
X71904811Y-92621172D01*
X71904802Y-92621169D01*
X71669616Y-92540429D01*
X71427319Y-92499998D01*
X87594540Y-92499998D01*
X87614326Y-92688254D01*
X87614327Y-92688257D01*
X87672818Y-92868275D01*
X87672821Y-92868282D01*
X87767467Y-93032214D01*
X87843265Y-93116396D01*
X87894129Y-93172886D01*
X88047265Y-93284146D01*
X88047270Y-93284149D01*
X88220192Y-93361140D01*
X88220197Y-93361142D01*
X88405354Y-93400498D01*
X88405355Y-93400498D01*
X88594644Y-93400498D01*
X88594646Y-93400498D01*
X88779803Y-93361142D01*
X88952730Y-93284149D01*
X89105871Y-93172886D01*
X89232533Y-93032214D01*
X89327179Y-92868282D01*
X89385674Y-92688254D01*
X89405460Y-92499998D01*
X89385674Y-92311742D01*
X89327179Y-92131714D01*
X89232533Y-91967782D01*
X89171502Y-91900000D01*
X96094540Y-91900000D01*
X96114326Y-92088256D01*
X96114327Y-92088259D01*
X96172818Y-92268277D01*
X96172821Y-92268284D01*
X96267467Y-92432216D01*
X96364903Y-92540429D01*
X96394129Y-92572888D01*
X96547265Y-92684148D01*
X96547270Y-92684151D01*
X96720192Y-92761142D01*
X96720197Y-92761144D01*
X96905354Y-92800500D01*
X96905355Y-92800500D01*
X97094644Y-92800500D01*
X97094646Y-92800500D01*
X97279803Y-92761144D01*
X97452730Y-92684151D01*
X97605871Y-92572888D01*
X97732533Y-92432216D01*
X97827179Y-92268284D01*
X97885674Y-92088256D01*
X97905460Y-91900000D01*
X97885674Y-91711744D01*
X97827179Y-91531716D01*
X97732533Y-91367784D01*
X97605871Y-91227112D01*
X97605870Y-91227111D01*
X97452734Y-91115851D01*
X97452729Y-91115848D01*
X97279807Y-91038857D01*
X97279802Y-91038855D01*
X97134001Y-91007865D01*
X97094646Y-90999500D01*
X96905354Y-90999500D01*
X96872897Y-91006398D01*
X96720197Y-91038855D01*
X96720192Y-91038857D01*
X96547270Y-91115848D01*
X96547265Y-91115851D01*
X96394129Y-91227111D01*
X96267466Y-91367785D01*
X96172821Y-91531715D01*
X96172818Y-91531722D01*
X96138009Y-91638855D01*
X96114326Y-91711744D01*
X96094540Y-91900000D01*
X89171502Y-91900000D01*
X89105871Y-91827110D01*
X89105870Y-91827109D01*
X88952734Y-91715849D01*
X88952729Y-91715846D01*
X88779807Y-91638855D01*
X88779802Y-91638853D01*
X88634001Y-91607863D01*
X88594646Y-91599498D01*
X88405354Y-91599498D01*
X88372897Y-91606396D01*
X88220197Y-91638853D01*
X88220192Y-91638855D01*
X88047270Y-91715846D01*
X88047265Y-91715849D01*
X87894129Y-91827109D01*
X87767466Y-91967783D01*
X87672821Y-92131713D01*
X87672818Y-92131720D01*
X87628446Y-92268284D01*
X87614326Y-92311742D01*
X87594540Y-92499998D01*
X71427319Y-92499998D01*
X71424335Y-92499500D01*
X71175665Y-92499500D01*
X70930383Y-92540429D01*
X70695197Y-92621169D01*
X70695188Y-92621172D01*
X70476493Y-92739524D01*
X70280257Y-92892261D01*
X70111833Y-93075217D01*
X69975826Y-93283393D01*
X69875936Y-93511118D01*
X69814892Y-93752175D01*
X69814890Y-93752187D01*
X69794357Y-93999994D01*
X69794357Y-94000005D01*
X68805643Y-94000005D01*
X68805643Y-93999994D01*
X68785109Y-93752187D01*
X68785107Y-93752175D01*
X68724063Y-93511118D01*
X68624173Y-93283393D01*
X68488166Y-93075217D01*
X68418965Y-93000045D01*
X68319744Y-92892262D01*
X68123509Y-92739526D01*
X68123507Y-92739525D01*
X68123506Y-92739524D01*
X67904811Y-92621172D01*
X67904802Y-92621169D01*
X67669616Y-92540429D01*
X67424335Y-92499500D01*
X67175665Y-92499500D01*
X66930383Y-92540429D01*
X66695197Y-92621169D01*
X66695188Y-92621172D01*
X66476493Y-92739524D01*
X66280257Y-92892261D01*
X66111833Y-93075217D01*
X65975826Y-93283393D01*
X65875936Y-93511118D01*
X65814892Y-93752175D01*
X65814890Y-93752187D01*
X65794357Y-93999994D01*
X65794357Y-94000005D01*
X55600500Y-94000005D01*
X55600500Y-84420000D01*
X56644341Y-84420000D01*
X56664936Y-84655403D01*
X56664938Y-84655413D01*
X56726094Y-84883655D01*
X56726096Y-84883659D01*
X56726097Y-84883663D01*
X56808857Y-85061142D01*
X56825965Y-85097830D01*
X56825967Y-85097834D01*
X56934281Y-85252521D01*
X56961505Y-85291401D01*
X57128599Y-85458495D01*
X57314594Y-85588730D01*
X57358218Y-85643307D01*
X57365411Y-85712806D01*
X57333889Y-85775160D01*
X57314593Y-85791880D01*
X57238626Y-85845072D01*
X57238625Y-85845072D01*
X57870590Y-86477037D01*
X57807007Y-86494075D01*
X57692993Y-86559901D01*
X57599901Y-86652993D01*
X57534075Y-86767007D01*
X57517037Y-86830590D01*
X56885072Y-86198625D01*
X56826401Y-86282419D01*
X56726570Y-86496507D01*
X56726566Y-86496516D01*
X56665432Y-86724673D01*
X56665430Y-86724684D01*
X56644843Y-86959998D01*
X56644843Y-86960001D01*
X56665430Y-87195315D01*
X56665432Y-87195326D01*
X56726566Y-87423483D01*
X56726570Y-87423492D01*
X56826400Y-87637579D01*
X56826402Y-87637583D01*
X56885072Y-87721373D01*
X56885073Y-87721373D01*
X57517037Y-87089409D01*
X57534075Y-87152993D01*
X57599901Y-87267007D01*
X57692993Y-87360099D01*
X57807007Y-87425925D01*
X57870590Y-87442962D01*
X57200369Y-88113181D01*
X57139046Y-88146666D01*
X57112697Y-88149500D01*
X57102134Y-88149500D01*
X57102123Y-88149501D01*
X57042516Y-88155908D01*
X56907671Y-88206202D01*
X56907664Y-88206206D01*
X56792455Y-88292452D01*
X56792452Y-88292455D01*
X56706206Y-88407664D01*
X56706202Y-88407671D01*
X56655908Y-88542517D01*
X56649501Y-88602116D01*
X56649501Y-88602123D01*
X56649500Y-88602135D01*
X56649500Y-90397870D01*
X56649501Y-90397876D01*
X56655908Y-90457483D01*
X56706202Y-90592328D01*
X56706206Y-90592335D01*
X56792452Y-90707544D01*
X56792455Y-90707547D01*
X56907664Y-90793793D01*
X56907671Y-90793797D01*
X57042517Y-90844091D01*
X57042516Y-90844091D01*
X57049444Y-90844835D01*
X57102127Y-90850500D01*
X58897872Y-90850499D01*
X58957483Y-90844091D01*
X59092331Y-90793796D01*
X59207546Y-90707546D01*
X59293796Y-90592331D01*
X59328233Y-90500000D01*
X98194540Y-90500000D01*
X98214326Y-90688256D01*
X98214327Y-90688259D01*
X98272818Y-90868277D01*
X98272821Y-90868284D01*
X98367467Y-91032216D01*
X98373446Y-91038856D01*
X98494129Y-91172888D01*
X98647265Y-91284148D01*
X98647270Y-91284151D01*
X98820192Y-91361142D01*
X98820197Y-91361144D01*
X99005354Y-91400500D01*
X99005355Y-91400500D01*
X99194644Y-91400500D01*
X99194646Y-91400500D01*
X99379803Y-91361144D01*
X99552730Y-91284151D01*
X99705871Y-91172888D01*
X99832533Y-91032216D01*
X99927179Y-90868284D01*
X99985674Y-90688256D01*
X100005460Y-90500000D01*
X99985674Y-90311744D01*
X99927179Y-90131716D01*
X99832533Y-89967784D01*
X99705871Y-89827112D01*
X99705870Y-89827111D01*
X99552734Y-89715851D01*
X99552729Y-89715848D01*
X99379807Y-89638857D01*
X99379802Y-89638855D01*
X99234001Y-89607865D01*
X99194646Y-89599500D01*
X99005354Y-89599500D01*
X98972897Y-89606398D01*
X98820197Y-89638855D01*
X98820192Y-89638857D01*
X98647270Y-89715848D01*
X98647265Y-89715851D01*
X98494129Y-89827111D01*
X98367466Y-89967785D01*
X98272821Y-90131715D01*
X98272818Y-90131722D01*
X98214327Y-90311740D01*
X98214326Y-90311744D01*
X98194540Y-90500000D01*
X59328233Y-90500000D01*
X59344091Y-90457483D01*
X59350500Y-90397873D01*
X59350499Y-88602128D01*
X59344091Y-88542517D01*
X59332389Y-88511143D01*
X59293797Y-88407671D01*
X59293793Y-88407664D01*
X59207547Y-88292455D01*
X59207544Y-88292452D01*
X59092335Y-88206206D01*
X59092328Y-88206202D01*
X58957482Y-88155908D01*
X58957483Y-88155908D01*
X58897883Y-88149501D01*
X58897881Y-88149500D01*
X58897873Y-88149500D01*
X58897865Y-88149500D01*
X58887310Y-88149500D01*
X58820271Y-88129815D01*
X58799629Y-88113181D01*
X58129409Y-87442962D01*
X58192993Y-87425925D01*
X58307007Y-87360099D01*
X58400099Y-87267007D01*
X58465925Y-87152993D01*
X58482962Y-87089410D01*
X59114925Y-87721373D01*
X59114926Y-87721373D01*
X59164903Y-87649999D01*
X88194540Y-87649999D01*
X88214326Y-87838255D01*
X88214327Y-87838258D01*
X88272818Y-88018276D01*
X88272821Y-88018283D01*
X88367467Y-88182215D01*
X88389069Y-88206206D01*
X88494129Y-88322887D01*
X88647265Y-88434147D01*
X88647270Y-88434150D01*
X88820192Y-88511141D01*
X88820197Y-88511143D01*
X89005354Y-88550499D01*
X89005355Y-88550499D01*
X89194644Y-88550499D01*
X89194646Y-88550499D01*
X89379803Y-88511143D01*
X89404830Y-88500000D01*
X92294540Y-88500000D01*
X92314326Y-88688256D01*
X92314327Y-88688259D01*
X92372818Y-88868277D01*
X92372821Y-88868284D01*
X92467467Y-89032216D01*
X92594129Y-89172888D01*
X92747265Y-89284148D01*
X92747270Y-89284151D01*
X92920192Y-89361142D01*
X92920197Y-89361144D01*
X93105354Y-89400500D01*
X93105355Y-89400500D01*
X93294644Y-89400500D01*
X93294646Y-89400500D01*
X93479803Y-89361144D01*
X93652730Y-89284151D01*
X93805871Y-89172888D01*
X93932533Y-89032216D01*
X94027179Y-88868284D01*
X94085674Y-88688256D01*
X94105460Y-88500000D01*
X94085674Y-88311744D01*
X94027179Y-88131716D01*
X93932533Y-87967784D01*
X93805871Y-87827112D01*
X93805870Y-87827111D01*
X93652734Y-87715851D01*
X93652729Y-87715848D01*
X93479807Y-87638857D01*
X93479802Y-87638855D01*
X93334001Y-87607865D01*
X93294646Y-87599500D01*
X93105354Y-87599500D01*
X93072897Y-87606398D01*
X92920197Y-87638855D01*
X92920192Y-87638857D01*
X92747270Y-87715848D01*
X92747265Y-87715851D01*
X92594129Y-87827111D01*
X92467466Y-87967785D01*
X92372821Y-88131715D01*
X92372818Y-88131722D01*
X92320593Y-88292455D01*
X92314326Y-88311744D01*
X92294540Y-88500000D01*
X89404830Y-88500000D01*
X89552730Y-88434150D01*
X89705871Y-88322887D01*
X89832533Y-88182215D01*
X89927179Y-88018283D01*
X89985674Y-87838255D01*
X90005460Y-87649999D01*
X89985674Y-87461743D01*
X89927179Y-87281715D01*
X89832533Y-87117783D01*
X89816521Y-87100000D01*
X94294540Y-87100000D01*
X94314326Y-87288256D01*
X94314327Y-87288259D01*
X94372818Y-87468277D01*
X94372821Y-87468284D01*
X94467467Y-87632216D01*
X94542770Y-87715848D01*
X94594129Y-87772888D01*
X94747265Y-87884148D01*
X94747270Y-87884151D01*
X94920192Y-87961142D01*
X94920197Y-87961144D01*
X95105354Y-88000500D01*
X95105355Y-88000500D01*
X95294644Y-88000500D01*
X95294646Y-88000500D01*
X95479803Y-87961144D01*
X95652730Y-87884151D01*
X95805871Y-87772888D01*
X95932533Y-87632216D01*
X96027179Y-87468284D01*
X96085674Y-87288256D01*
X96105460Y-87100000D01*
X96085674Y-86911744D01*
X96027179Y-86731716D01*
X95932533Y-86567784D01*
X95805871Y-86427112D01*
X95805870Y-86427111D01*
X95652734Y-86315851D01*
X95652729Y-86315848D01*
X95479807Y-86238857D01*
X95479802Y-86238855D01*
X95334001Y-86207865D01*
X95294646Y-86199500D01*
X95105354Y-86199500D01*
X95072897Y-86206398D01*
X94920197Y-86238855D01*
X94920192Y-86238857D01*
X94747270Y-86315848D01*
X94747265Y-86315851D01*
X94594129Y-86427111D01*
X94467466Y-86567785D01*
X94372821Y-86731715D01*
X94372818Y-86731722D01*
X94320035Y-86894174D01*
X94314326Y-86911744D01*
X94294540Y-87100000D01*
X89816521Y-87100000D01*
X89705871Y-86977111D01*
X89705870Y-86977110D01*
X89552734Y-86865850D01*
X89552729Y-86865847D01*
X89379807Y-86788856D01*
X89379802Y-86788854D01*
X89234001Y-86757864D01*
X89194646Y-86749499D01*
X89005354Y-86749499D01*
X88972897Y-86756397D01*
X88820197Y-86788854D01*
X88820192Y-86788856D01*
X88647270Y-86865847D01*
X88647265Y-86865850D01*
X88494129Y-86977110D01*
X88367466Y-87117784D01*
X88272821Y-87281714D01*
X88272818Y-87281721D01*
X88225964Y-87425925D01*
X88214326Y-87461743D01*
X88194540Y-87649999D01*
X59164903Y-87649999D01*
X59173598Y-87637582D01*
X59173600Y-87637578D01*
X59273429Y-87423492D01*
X59273433Y-87423483D01*
X59334567Y-87195326D01*
X59334569Y-87195315D01*
X59355157Y-86960001D01*
X59355157Y-86959998D01*
X59334569Y-86724684D01*
X59334567Y-86724673D01*
X59273433Y-86496516D01*
X59273429Y-86496507D01*
X59173600Y-86282423D01*
X59173599Y-86282421D01*
X59114925Y-86198626D01*
X59114925Y-86198625D01*
X58482962Y-86830589D01*
X58465925Y-86767007D01*
X58400099Y-86652993D01*
X58307007Y-86559901D01*
X58192993Y-86494075D01*
X58129410Y-86477037D01*
X58761373Y-85845073D01*
X58761373Y-85845072D01*
X58685405Y-85791880D01*
X58641780Y-85737304D01*
X58634586Y-85667805D01*
X58666108Y-85605451D01*
X58685399Y-85588734D01*
X58871401Y-85458495D01*
X59038495Y-85291401D01*
X59174035Y-85097830D01*
X59273903Y-84883663D01*
X59335063Y-84655408D01*
X59355659Y-84420000D01*
X59336411Y-84200000D01*
X109594540Y-84200000D01*
X109614326Y-84388256D01*
X109614327Y-84388259D01*
X109672818Y-84568277D01*
X109672821Y-84568284D01*
X109767467Y-84732216D01*
X109894129Y-84872888D01*
X110047265Y-84984148D01*
X110047270Y-84984151D01*
X110220192Y-85061142D01*
X110220197Y-85061144D01*
X110405354Y-85100500D01*
X110405355Y-85100500D01*
X110594644Y-85100500D01*
X110594646Y-85100500D01*
X110779803Y-85061144D01*
X110952730Y-84984151D01*
X111105871Y-84872888D01*
X111232533Y-84732216D01*
X111327179Y-84568284D01*
X111385674Y-84388256D01*
X111405460Y-84200000D01*
X111385674Y-84011744D01*
X111327179Y-83831716D01*
X111232533Y-83667784D01*
X111105871Y-83527112D01*
X111105870Y-83527111D01*
X110952734Y-83415851D01*
X110952729Y-83415848D01*
X110779807Y-83338857D01*
X110779802Y-83338855D01*
X110634001Y-83307865D01*
X110594646Y-83299500D01*
X110405354Y-83299500D01*
X110372897Y-83306398D01*
X110220197Y-83338855D01*
X110220192Y-83338857D01*
X110047270Y-83415848D01*
X110047265Y-83415851D01*
X109894129Y-83527111D01*
X109767466Y-83667785D01*
X109672821Y-83831715D01*
X109672818Y-83831722D01*
X109614327Y-84011740D01*
X109614326Y-84011744D01*
X109594540Y-84200000D01*
X59336411Y-84200000D01*
X59335063Y-84184592D01*
X59273903Y-83956337D01*
X59174035Y-83742171D01*
X59038495Y-83548599D01*
X59038494Y-83548597D01*
X58871402Y-83381506D01*
X58871396Y-83381501D01*
X58685842Y-83251575D01*
X58642217Y-83196998D01*
X58635023Y-83127500D01*
X58666546Y-83065145D01*
X58685842Y-83048425D01*
X58708026Y-83032891D01*
X58871401Y-82918495D01*
X59038495Y-82751401D01*
X59174035Y-82557830D01*
X59273903Y-82343663D01*
X59335063Y-82115408D01*
X59355659Y-81880000D01*
X59335063Y-81644592D01*
X59273903Y-81416337D01*
X59174035Y-81202171D01*
X59038495Y-81008599D01*
X59038494Y-81008597D01*
X58871402Y-80841506D01*
X58871395Y-80841501D01*
X58677834Y-80705967D01*
X58677830Y-80705965D01*
X58677828Y-80705964D01*
X58463663Y-80606097D01*
X58463659Y-80606096D01*
X58463655Y-80606094D01*
X58235413Y-80544938D01*
X58235403Y-80544936D01*
X58000001Y-80524341D01*
X57999999Y-80524341D01*
X57764596Y-80544936D01*
X57764586Y-80544938D01*
X57536344Y-80606094D01*
X57536335Y-80606098D01*
X57322171Y-80705964D01*
X57322169Y-80705965D01*
X57128597Y-80841505D01*
X56961505Y-81008597D01*
X56825965Y-81202169D01*
X56825964Y-81202171D01*
X56726098Y-81416335D01*
X56726094Y-81416344D01*
X56664938Y-81644586D01*
X56664936Y-81644596D01*
X56644341Y-81879999D01*
X56644341Y-81880000D01*
X56664936Y-82115403D01*
X56664938Y-82115413D01*
X56726094Y-82343655D01*
X56726096Y-82343659D01*
X56726097Y-82343663D01*
X56825965Y-82557830D01*
X56825967Y-82557834D01*
X56961501Y-82751395D01*
X56961506Y-82751402D01*
X57128597Y-82918493D01*
X57128603Y-82918498D01*
X57314158Y-83048425D01*
X57357783Y-83103002D01*
X57364977Y-83172500D01*
X57333454Y-83234855D01*
X57314158Y-83251575D01*
X57128597Y-83381505D01*
X56961505Y-83548597D01*
X56825965Y-83742169D01*
X56825964Y-83742171D01*
X56726098Y-83956335D01*
X56726094Y-83956344D01*
X56664938Y-84184586D01*
X56664936Y-84184596D01*
X56644341Y-84419999D01*
X56644341Y-84420000D01*
X55600500Y-84420000D01*
X55600500Y-79700000D01*
X82594540Y-79700000D01*
X82614326Y-79888256D01*
X82614327Y-79888259D01*
X82672818Y-80068277D01*
X82672821Y-80068284D01*
X82767467Y-80232216D01*
X82894129Y-80372888D01*
X83047265Y-80484148D01*
X83047270Y-80484151D01*
X83220192Y-80561142D01*
X83220197Y-80561144D01*
X83405354Y-80600500D01*
X83405355Y-80600500D01*
X83594644Y-80600500D01*
X83594646Y-80600500D01*
X83779803Y-80561144D01*
X83952730Y-80484151D01*
X84105871Y-80372888D01*
X84232533Y-80232216D01*
X84327179Y-80068284D01*
X84385674Y-79888256D01*
X84405460Y-79700000D01*
X84394950Y-79600000D01*
X96594540Y-79600000D01*
X96614326Y-79788256D01*
X96614327Y-79788259D01*
X96672818Y-79968277D01*
X96672821Y-79968284D01*
X96767467Y-80132216D01*
X96857506Y-80232214D01*
X96894129Y-80272888D01*
X97047265Y-80384148D01*
X97047270Y-80384151D01*
X97220192Y-80461142D01*
X97220197Y-80461144D01*
X97405354Y-80500500D01*
X97405355Y-80500500D01*
X97594644Y-80500500D01*
X97594646Y-80500500D01*
X97779803Y-80461144D01*
X97952730Y-80384151D01*
X98105871Y-80272888D01*
X98232533Y-80132216D01*
X98327179Y-79968284D01*
X98385674Y-79788256D01*
X98405460Y-79600000D01*
X98385674Y-79411744D01*
X98327179Y-79231716D01*
X98232533Y-79067784D01*
X98105871Y-78927112D01*
X98090369Y-78915849D01*
X97952734Y-78815851D01*
X97952729Y-78815848D01*
X97779807Y-78738857D01*
X97779802Y-78738855D01*
X97634001Y-78707865D01*
X97594646Y-78699500D01*
X97405354Y-78699500D01*
X97372897Y-78706398D01*
X97220197Y-78738855D01*
X97220192Y-78738857D01*
X97047270Y-78815848D01*
X97047265Y-78815851D01*
X96894129Y-78927111D01*
X96767466Y-79067785D01*
X96672821Y-79231715D01*
X96672818Y-79231722D01*
X96614327Y-79411740D01*
X96614326Y-79411744D01*
X96594540Y-79600000D01*
X84394950Y-79600000D01*
X84385674Y-79511744D01*
X84327179Y-79331716D01*
X84232533Y-79167784D01*
X84105871Y-79027112D01*
X84105870Y-79027111D01*
X83952734Y-78915851D01*
X83952729Y-78915848D01*
X83779807Y-78838857D01*
X83779802Y-78838855D01*
X83634001Y-78807865D01*
X83594646Y-78799500D01*
X83405354Y-78799500D01*
X83372897Y-78806398D01*
X83220197Y-78838855D01*
X83220192Y-78838857D01*
X83047270Y-78915848D01*
X83047265Y-78915851D01*
X82894129Y-79027111D01*
X82767466Y-79167785D01*
X82672821Y-79331715D01*
X82672818Y-79331722D01*
X82622720Y-79485909D01*
X82614326Y-79511744D01*
X82594540Y-79700000D01*
X55600500Y-79700000D01*
X55600500Y-78650000D01*
X116194659Y-78650000D01*
X116213975Y-78846129D01*
X116271188Y-79034733D01*
X116364086Y-79208532D01*
X116364090Y-79208539D01*
X116489116Y-79360883D01*
X116641460Y-79485909D01*
X116641467Y-79485913D01*
X116815266Y-79578811D01*
X116815269Y-79578811D01*
X116815273Y-79578814D01*
X117003868Y-79636024D01*
X117200000Y-79655341D01*
X117396132Y-79636024D01*
X117584727Y-79578814D01*
X117758538Y-79485910D01*
X117910883Y-79360883D01*
X118035910Y-79208538D01*
X118128814Y-79034727D01*
X118186024Y-78846132D01*
X118205341Y-78650000D01*
X118186024Y-78453868D01*
X118128814Y-78265273D01*
X118128811Y-78265269D01*
X118128811Y-78265266D01*
X118035913Y-78091467D01*
X118035909Y-78091460D01*
X117910883Y-77939116D01*
X117758539Y-77814090D01*
X117758532Y-77814086D01*
X117584733Y-77721188D01*
X117584727Y-77721186D01*
X117396132Y-77663976D01*
X117396129Y-77663975D01*
X117200000Y-77644659D01*
X117003870Y-77663975D01*
X116815266Y-77721188D01*
X116641467Y-77814086D01*
X116641460Y-77814090D01*
X116489116Y-77939116D01*
X116364090Y-78091460D01*
X116364086Y-78091467D01*
X116271188Y-78265266D01*
X116213975Y-78453870D01*
X116194659Y-78650000D01*
X55600500Y-78650000D01*
X55600500Y-75099999D01*
X84994539Y-75099999D01*
X85014325Y-75288255D01*
X85014326Y-75288258D01*
X85072817Y-75468276D01*
X85072820Y-75468283D01*
X85167466Y-75632215D01*
X85294128Y-75772887D01*
X85447264Y-75884147D01*
X85447269Y-75884150D01*
X85620191Y-75961141D01*
X85620196Y-75961143D01*
X85805353Y-76000499D01*
X85805354Y-76000499D01*
X85994643Y-76000499D01*
X85994645Y-76000499D01*
X86179802Y-75961143D01*
X86352729Y-75884150D01*
X86505870Y-75772887D01*
X86632532Y-75632215D01*
X86727178Y-75468283D01*
X86785673Y-75288255D01*
X86805459Y-75099999D01*
X86785673Y-74911743D01*
X86727178Y-74731715D01*
X86632532Y-74567783D01*
X86505870Y-74427111D01*
X86505869Y-74427110D01*
X86352733Y-74315850D01*
X86352728Y-74315847D01*
X86179806Y-74238856D01*
X86179801Y-74238854D01*
X86034000Y-74207864D01*
X85994645Y-74199499D01*
X85805353Y-74199499D01*
X85772896Y-74206397D01*
X85620196Y-74238854D01*
X85620191Y-74238856D01*
X85447269Y-74315847D01*
X85447264Y-74315850D01*
X85294128Y-74427110D01*
X85167465Y-74567784D01*
X85072820Y-74731714D01*
X85072817Y-74731721D01*
X85014326Y-74911739D01*
X85014325Y-74911743D01*
X84994539Y-75099999D01*
X55600500Y-75099999D01*
X55600500Y-72940000D01*
X56644341Y-72940000D01*
X56664936Y-73175403D01*
X56664938Y-73175413D01*
X56726094Y-73403655D01*
X56726096Y-73403659D01*
X56726097Y-73403663D01*
X56739411Y-73432214D01*
X56825965Y-73617830D01*
X56825967Y-73617834D01*
X56926313Y-73761142D01*
X56961505Y-73811401D01*
X57128599Y-73978495D01*
X57225384Y-74046265D01*
X57322165Y-74114032D01*
X57322167Y-74114033D01*
X57322170Y-74114035D01*
X57536337Y-74213903D01*
X57764592Y-74275063D01*
X57952918Y-74291539D01*
X57999999Y-74295659D01*
X58000000Y-74295659D01*
X58000001Y-74295659D01*
X58039234Y-74292226D01*
X58235408Y-74275063D01*
X58463663Y-74213903D01*
X58677830Y-74114035D01*
X58871401Y-73978495D01*
X59038495Y-73811401D01*
X59174035Y-73617830D01*
X59273903Y-73403663D01*
X59335063Y-73175408D01*
X59355659Y-72940000D01*
X59352159Y-72900000D01*
X88494538Y-72900000D01*
X88514324Y-73088256D01*
X88514325Y-73088259D01*
X88572816Y-73268277D01*
X88572819Y-73268284D01*
X88667465Y-73432216D01*
X88794127Y-73572888D01*
X88947263Y-73684148D01*
X88947268Y-73684151D01*
X89120190Y-73761142D01*
X89120195Y-73761144D01*
X89305352Y-73800500D01*
X89305353Y-73800500D01*
X89494642Y-73800500D01*
X89494644Y-73800500D01*
X89679801Y-73761144D01*
X89852728Y-73684151D01*
X90005869Y-73572888D01*
X90132531Y-73432216D01*
X90227177Y-73268284D01*
X90285672Y-73088256D01*
X90301254Y-72940000D01*
X121644341Y-72940000D01*
X121664936Y-73175403D01*
X121664938Y-73175413D01*
X121726094Y-73403655D01*
X121726096Y-73403659D01*
X121726097Y-73403663D01*
X121739411Y-73432214D01*
X121825965Y-73617830D01*
X121825967Y-73617834D01*
X121926313Y-73761142D01*
X121961505Y-73811401D01*
X122128599Y-73978495D01*
X122225384Y-74046265D01*
X122322165Y-74114032D01*
X122322167Y-74114033D01*
X122322170Y-74114035D01*
X122536337Y-74213903D01*
X122764592Y-74275063D01*
X122952918Y-74291539D01*
X122999999Y-74295659D01*
X123000000Y-74295659D01*
X123000001Y-74295659D01*
X123039234Y-74292226D01*
X123235408Y-74275063D01*
X123463663Y-74213903D01*
X123677830Y-74114035D01*
X123871401Y-73978495D01*
X124038495Y-73811401D01*
X124174035Y-73617830D01*
X124273903Y-73403663D01*
X124335063Y-73175408D01*
X124355659Y-72940000D01*
X124335063Y-72704592D01*
X124273903Y-72476337D01*
X124174035Y-72262171D01*
X124173315Y-72261142D01*
X124038494Y-72068597D01*
X123871402Y-71901506D01*
X123871396Y-71901501D01*
X123685842Y-71771575D01*
X123642217Y-71716998D01*
X123635023Y-71647500D01*
X123666546Y-71585145D01*
X123685842Y-71568425D01*
X123738269Y-71531715D01*
X123871401Y-71438495D01*
X124038495Y-71271401D01*
X124174035Y-71077830D01*
X124273903Y-70863663D01*
X124335063Y-70635408D01*
X124355659Y-70400000D01*
X124352840Y-70367785D01*
X124335063Y-70164596D01*
X124335063Y-70164592D01*
X124273903Y-69936337D01*
X124174035Y-69722171D01*
X124107475Y-69627112D01*
X124038494Y-69528597D01*
X123871402Y-69361506D01*
X123871396Y-69361501D01*
X123685842Y-69231575D01*
X123642217Y-69176998D01*
X123635023Y-69107500D01*
X123666546Y-69045145D01*
X123685842Y-69028425D01*
X123708026Y-69012891D01*
X123871401Y-68898495D01*
X124038495Y-68731401D01*
X124174035Y-68537830D01*
X124273903Y-68323663D01*
X124335063Y-68095408D01*
X124355659Y-67860000D01*
X124335063Y-67624592D01*
X124273903Y-67396337D01*
X124174035Y-67182171D01*
X124143707Y-67138857D01*
X124038494Y-66988597D01*
X123871402Y-66821506D01*
X123871396Y-66821501D01*
X123685842Y-66691575D01*
X123642217Y-66636998D01*
X123635023Y-66567500D01*
X123666546Y-66505145D01*
X123685842Y-66488425D01*
X123773407Y-66427111D01*
X123871401Y-66358495D01*
X124038495Y-66191401D01*
X124174035Y-65997830D01*
X124273903Y-65783663D01*
X124335063Y-65555408D01*
X124355659Y-65320000D01*
X124335063Y-65084592D01*
X124273903Y-64856337D01*
X124174035Y-64642171D01*
X124117299Y-64561142D01*
X124038494Y-64448597D01*
X123871402Y-64281506D01*
X123871396Y-64281501D01*
X123685842Y-64151575D01*
X123642217Y-64096998D01*
X123635023Y-64027500D01*
X123666546Y-63965145D01*
X123685842Y-63948425D01*
X123708026Y-63932891D01*
X123871401Y-63818495D01*
X124038495Y-63651401D01*
X124174035Y-63457830D01*
X124273903Y-63243663D01*
X124335063Y-63015408D01*
X124355659Y-62780000D01*
X124335063Y-62544592D01*
X124273903Y-62316337D01*
X124174035Y-62102171D01*
X124150308Y-62068284D01*
X124038494Y-61908597D01*
X123871402Y-61741506D01*
X123871401Y-61741505D01*
X123685405Y-61611269D01*
X123641781Y-61556692D01*
X123634588Y-61487193D01*
X123666110Y-61424839D01*
X123685405Y-61408119D01*
X123871082Y-61278105D01*
X124038105Y-61111082D01*
X124173600Y-60917578D01*
X124273429Y-60703492D01*
X124273432Y-60703486D01*
X124330636Y-60490000D01*
X123433012Y-60490000D01*
X123465925Y-60432993D01*
X123500000Y-60305826D01*
X123500000Y-60174174D01*
X123465925Y-60047007D01*
X123433012Y-59990000D01*
X124330636Y-59990000D01*
X124330635Y-59989999D01*
X124273432Y-59776513D01*
X124273429Y-59776507D01*
X124173600Y-59562422D01*
X124173599Y-59562420D01*
X124038113Y-59368926D01*
X124038108Y-59368920D01*
X123871078Y-59201890D01*
X123685405Y-59071879D01*
X123641780Y-59017302D01*
X123634588Y-58947804D01*
X123666110Y-58885449D01*
X123685406Y-58868730D01*
X123686279Y-58868119D01*
X123871401Y-58738495D01*
X124038495Y-58571401D01*
X124174035Y-58377830D01*
X124273903Y-58163663D01*
X124335063Y-57935408D01*
X124355659Y-57700000D01*
X124335063Y-57464592D01*
X124273903Y-57236337D01*
X124174035Y-57022171D01*
X124038495Y-56828599D01*
X124038494Y-56828597D01*
X123871402Y-56661506D01*
X123871396Y-56661501D01*
X123685842Y-56531575D01*
X123642217Y-56476998D01*
X123635023Y-56407500D01*
X123666546Y-56345145D01*
X123685842Y-56328425D01*
X123708026Y-56312891D01*
X123871401Y-56198495D01*
X124038495Y-56031401D01*
X124174035Y-55837830D01*
X124273903Y-55623663D01*
X124335063Y-55395408D01*
X124355659Y-55160000D01*
X124335063Y-54924592D01*
X124273903Y-54696337D01*
X124174035Y-54482171D01*
X124038495Y-54288599D01*
X124038494Y-54288597D01*
X123871402Y-54121506D01*
X123871396Y-54121501D01*
X123685842Y-53991575D01*
X123642217Y-53936998D01*
X123635023Y-53867500D01*
X123666546Y-53805145D01*
X123685842Y-53788425D01*
X123708026Y-53772891D01*
X123871401Y-53658495D01*
X124038495Y-53491401D01*
X124174035Y-53297830D01*
X124273903Y-53083663D01*
X124335063Y-52855408D01*
X124355659Y-52620000D01*
X124335063Y-52384592D01*
X124273903Y-52156337D01*
X124174035Y-51942171D01*
X124038495Y-51748599D01*
X124038494Y-51748597D01*
X123871402Y-51581506D01*
X123871396Y-51581501D01*
X123685842Y-51451575D01*
X123642217Y-51396998D01*
X123635023Y-51327500D01*
X123666546Y-51265145D01*
X123685842Y-51248425D01*
X123749479Y-51203866D01*
X123871401Y-51118495D01*
X124038495Y-50951401D01*
X124174035Y-50757830D01*
X124273903Y-50543663D01*
X124335063Y-50315408D01*
X124355659Y-50080000D01*
X124335063Y-49844592D01*
X124273903Y-49616337D01*
X124174035Y-49402171D01*
X124078584Y-49265851D01*
X124038494Y-49208597D01*
X123871402Y-49041506D01*
X123871396Y-49041501D01*
X123685842Y-48911575D01*
X123642217Y-48856998D01*
X123635023Y-48787500D01*
X123666546Y-48725145D01*
X123685842Y-48708425D01*
X123708026Y-48692891D01*
X123871401Y-48578495D01*
X124038495Y-48411401D01*
X124174035Y-48217830D01*
X124273903Y-48003663D01*
X124335063Y-47775408D01*
X124355659Y-47540000D01*
X124352121Y-47499567D01*
X124335063Y-47304596D01*
X124335063Y-47304592D01*
X124273903Y-47076337D01*
X124174035Y-46862171D01*
X124165796Y-46850405D01*
X124038496Y-46668600D01*
X123998551Y-46628655D01*
X123916567Y-46546671D01*
X123883084Y-46485351D01*
X123888068Y-46415659D01*
X123929939Y-46359725D01*
X123960915Y-46342810D01*
X124092331Y-46293796D01*
X124207546Y-46207546D01*
X124293796Y-46092331D01*
X124344091Y-45957483D01*
X124350500Y-45897873D01*
X124350499Y-44102128D01*
X124344091Y-44042517D01*
X124302873Y-43932007D01*
X124293797Y-43907671D01*
X124293793Y-43907664D01*
X124207547Y-43792455D01*
X124207544Y-43792452D01*
X124092335Y-43706206D01*
X124092328Y-43706202D01*
X123957482Y-43655908D01*
X123957483Y-43655908D01*
X123897883Y-43649501D01*
X123897881Y-43649500D01*
X123897873Y-43649500D01*
X123897864Y-43649500D01*
X122102129Y-43649500D01*
X122102123Y-43649501D01*
X122042516Y-43655908D01*
X121907671Y-43706202D01*
X121907664Y-43706206D01*
X121792455Y-43792452D01*
X121792452Y-43792455D01*
X121706206Y-43907664D01*
X121706202Y-43907671D01*
X121655908Y-44042517D01*
X121650947Y-44088664D01*
X121649501Y-44102123D01*
X121649500Y-44102135D01*
X121649500Y-45897870D01*
X121649501Y-45897876D01*
X121655908Y-45957483D01*
X121706202Y-46092328D01*
X121706206Y-46092335D01*
X121792452Y-46207544D01*
X121792455Y-46207547D01*
X121907664Y-46293793D01*
X121907671Y-46293797D01*
X122039081Y-46342810D01*
X122095015Y-46384681D01*
X122119432Y-46450145D01*
X122104580Y-46518418D01*
X122083430Y-46546673D01*
X121961503Y-46668600D01*
X121825965Y-46862169D01*
X121825964Y-46862171D01*
X121726098Y-47076335D01*
X121726094Y-47076344D01*
X121664938Y-47304586D01*
X121664936Y-47304596D01*
X121644341Y-47539999D01*
X121644341Y-47540000D01*
X121664936Y-47775403D01*
X121664938Y-47775413D01*
X121726094Y-48003655D01*
X121726096Y-48003659D01*
X121726097Y-48003663D01*
X121825847Y-48217578D01*
X121825965Y-48217830D01*
X121825967Y-48217834D01*
X121961501Y-48411395D01*
X121961506Y-48411402D01*
X122128597Y-48578493D01*
X122128603Y-48578498D01*
X122314158Y-48708425D01*
X122357783Y-48763002D01*
X122364977Y-48832500D01*
X122333454Y-48894855D01*
X122314158Y-48911575D01*
X122128597Y-49041505D01*
X121961505Y-49208597D01*
X121825965Y-49402169D01*
X121825964Y-49402171D01*
X121726098Y-49616335D01*
X121726094Y-49616344D01*
X121664938Y-49844586D01*
X121664936Y-49844596D01*
X121644341Y-50079999D01*
X121644341Y-50080000D01*
X121664936Y-50315403D01*
X121664938Y-50315413D01*
X121726094Y-50543655D01*
X121726096Y-50543659D01*
X121726097Y-50543663D01*
X121744074Y-50582214D01*
X121825965Y-50757830D01*
X121825967Y-50757834D01*
X121961501Y-50951395D01*
X121961506Y-50951402D01*
X122128597Y-51118493D01*
X122128603Y-51118498D01*
X122314158Y-51248425D01*
X122357783Y-51303002D01*
X122364977Y-51372500D01*
X122333454Y-51434855D01*
X122314158Y-51451575D01*
X122128597Y-51581505D01*
X121961505Y-51748597D01*
X121825965Y-51942169D01*
X121825964Y-51942171D01*
X121726098Y-52156335D01*
X121726094Y-52156344D01*
X121664938Y-52384586D01*
X121664936Y-52384596D01*
X121644341Y-52619999D01*
X121644341Y-52620000D01*
X121664936Y-52855403D01*
X121664938Y-52855413D01*
X121726094Y-53083655D01*
X121726096Y-53083659D01*
X121726097Y-53083663D01*
X121797289Y-53236335D01*
X121825965Y-53297830D01*
X121825967Y-53297834D01*
X121961501Y-53491395D01*
X121961506Y-53491402D01*
X122128597Y-53658493D01*
X122128603Y-53658498D01*
X122314158Y-53788425D01*
X122357783Y-53843002D01*
X122364977Y-53912500D01*
X122333454Y-53974855D01*
X122314158Y-53991575D01*
X122128597Y-54121505D01*
X121961505Y-54288597D01*
X121825965Y-54482169D01*
X121825964Y-54482171D01*
X121726098Y-54696335D01*
X121726094Y-54696344D01*
X121664938Y-54924586D01*
X121664936Y-54924596D01*
X121644341Y-55159999D01*
X121644341Y-55160000D01*
X121664936Y-55395403D01*
X121664938Y-55395413D01*
X121726094Y-55623655D01*
X121726096Y-55623659D01*
X121726097Y-55623663D01*
X121756219Y-55688259D01*
X121825965Y-55837830D01*
X121825967Y-55837834D01*
X121961501Y-56031395D01*
X121961506Y-56031402D01*
X122128597Y-56198493D01*
X122128603Y-56198498D01*
X122314158Y-56328425D01*
X122357783Y-56383002D01*
X122364977Y-56452500D01*
X122333454Y-56514855D01*
X122314158Y-56531575D01*
X122128597Y-56661505D01*
X121961505Y-56828597D01*
X121825965Y-57022169D01*
X121825964Y-57022171D01*
X121726098Y-57236335D01*
X121726094Y-57236344D01*
X121664938Y-57464586D01*
X121664936Y-57464596D01*
X121644341Y-57699999D01*
X121644341Y-57700000D01*
X121664936Y-57935403D01*
X121664938Y-57935413D01*
X121726094Y-58163655D01*
X121726096Y-58163659D01*
X121726097Y-58163663D01*
X121774650Y-58267784D01*
X121825965Y-58377830D01*
X121825967Y-58377834D01*
X121961501Y-58571395D01*
X121961506Y-58571402D01*
X122128597Y-58738493D01*
X122128603Y-58738498D01*
X122314594Y-58868730D01*
X122358219Y-58923307D01*
X122365413Y-58992805D01*
X122333890Y-59055160D01*
X122314595Y-59071880D01*
X122128922Y-59201890D01*
X122128920Y-59201891D01*
X121961891Y-59368920D01*
X121961886Y-59368926D01*
X121826400Y-59562420D01*
X121826399Y-59562422D01*
X121726570Y-59776507D01*
X121726567Y-59776513D01*
X121669364Y-59989999D01*
X121669364Y-59990000D01*
X122566988Y-59990000D01*
X122534075Y-60047007D01*
X122500000Y-60174174D01*
X122500000Y-60305826D01*
X122534075Y-60432993D01*
X122566988Y-60490000D01*
X121669364Y-60490000D01*
X121726567Y-60703486D01*
X121726570Y-60703492D01*
X121826399Y-60917578D01*
X121961894Y-61111082D01*
X122128917Y-61278105D01*
X122314595Y-61408119D01*
X122358219Y-61462696D01*
X122365412Y-61532195D01*
X122333890Y-61594549D01*
X122314595Y-61611269D01*
X122128594Y-61741508D01*
X121961505Y-61908597D01*
X121825965Y-62102169D01*
X121825964Y-62102171D01*
X121726098Y-62316335D01*
X121726094Y-62316344D01*
X121664938Y-62544586D01*
X121664936Y-62544596D01*
X121644341Y-62779999D01*
X121644341Y-62780000D01*
X121664936Y-63015403D01*
X121664938Y-63015413D01*
X121726094Y-63243655D01*
X121726096Y-63243659D01*
X121726097Y-63243663D01*
X121767157Y-63331716D01*
X121825965Y-63457830D01*
X121825967Y-63457834D01*
X121961501Y-63651395D01*
X121961506Y-63651402D01*
X122128597Y-63818493D01*
X122128603Y-63818498D01*
X122314158Y-63948425D01*
X122357783Y-64003002D01*
X122364977Y-64072500D01*
X122333454Y-64134855D01*
X122314158Y-64151575D01*
X122128597Y-64281505D01*
X121961505Y-64448597D01*
X121825965Y-64642169D01*
X121825964Y-64642171D01*
X121726098Y-64856335D01*
X121726094Y-64856344D01*
X121664938Y-65084586D01*
X121664936Y-65084596D01*
X121644341Y-65319999D01*
X121644341Y-65320000D01*
X121664936Y-65555403D01*
X121664938Y-65555413D01*
X121726094Y-65783655D01*
X121726096Y-65783659D01*
X121726097Y-65783663D01*
X121825965Y-65997830D01*
X121825967Y-65997834D01*
X121961501Y-66191395D01*
X121961506Y-66191402D01*
X122128597Y-66358493D01*
X122128603Y-66358498D01*
X122314158Y-66488425D01*
X122357783Y-66543002D01*
X122364977Y-66612500D01*
X122333454Y-66674855D01*
X122314158Y-66691575D01*
X122128597Y-66821505D01*
X121961505Y-66988597D01*
X121825965Y-67182169D01*
X121825964Y-67182171D01*
X121726098Y-67396335D01*
X121726094Y-67396344D01*
X121664938Y-67624586D01*
X121664936Y-67624596D01*
X121644341Y-67859999D01*
X121644341Y-67860000D01*
X121664936Y-68095403D01*
X121664938Y-68095413D01*
X121726094Y-68323655D01*
X121726096Y-68323659D01*
X121726097Y-68323663D01*
X121823346Y-68532214D01*
X121825965Y-68537830D01*
X121825967Y-68537834D01*
X121961501Y-68731395D01*
X121961506Y-68731402D01*
X122128597Y-68898493D01*
X122128603Y-68898498D01*
X122314158Y-69028425D01*
X122357783Y-69083002D01*
X122364977Y-69152500D01*
X122333454Y-69214855D01*
X122314158Y-69231575D01*
X122128597Y-69361505D01*
X121961505Y-69528597D01*
X121825965Y-69722169D01*
X121825964Y-69722171D01*
X121726098Y-69936335D01*
X121726094Y-69936344D01*
X121664938Y-70164586D01*
X121664936Y-70164596D01*
X121644341Y-70399999D01*
X121644341Y-70400000D01*
X121664936Y-70635403D01*
X121664938Y-70635413D01*
X121726094Y-70863655D01*
X121726096Y-70863659D01*
X121726097Y-70863663D01*
X121807791Y-71038855D01*
X121825965Y-71077830D01*
X121825967Y-71077834D01*
X121919730Y-71211740D01*
X121959322Y-71268284D01*
X121961501Y-71271395D01*
X121961506Y-71271402D01*
X122128597Y-71438493D01*
X122128603Y-71438498D01*
X122314158Y-71568425D01*
X122357783Y-71623002D01*
X122364977Y-71692500D01*
X122333454Y-71754855D01*
X122314158Y-71771575D01*
X122128597Y-71901505D01*
X121961505Y-72068597D01*
X121825965Y-72262169D01*
X121825964Y-72262171D01*
X121726098Y-72476335D01*
X121726094Y-72476344D01*
X121664938Y-72704586D01*
X121664936Y-72704596D01*
X121644341Y-72939999D01*
X121644341Y-72940000D01*
X90301254Y-72940000D01*
X90305458Y-72900000D01*
X90285672Y-72711744D01*
X90227177Y-72531716D01*
X90132531Y-72367784D01*
X90005869Y-72227112D01*
X90005868Y-72227111D01*
X89852732Y-72115851D01*
X89852727Y-72115848D01*
X89679805Y-72038857D01*
X89679800Y-72038855D01*
X89533999Y-72007865D01*
X89494644Y-71999500D01*
X89305352Y-71999500D01*
X89272895Y-72006398D01*
X89120195Y-72038855D01*
X89120190Y-72038857D01*
X88947268Y-72115848D01*
X88947263Y-72115851D01*
X88794127Y-72227111D01*
X88667464Y-72367785D01*
X88572819Y-72531715D01*
X88572816Y-72531722D01*
X88514325Y-72711740D01*
X88514324Y-72711744D01*
X88494538Y-72900000D01*
X59352159Y-72900000D01*
X59335063Y-72704592D01*
X59273903Y-72476337D01*
X59174035Y-72262171D01*
X59173315Y-72261142D01*
X59038494Y-72068597D01*
X58871402Y-71901506D01*
X58871396Y-71901501D01*
X58869252Y-71900000D01*
X93094540Y-71900000D01*
X93114326Y-72088256D01*
X93114327Y-72088259D01*
X93172818Y-72268277D01*
X93172821Y-72268284D01*
X93267467Y-72432216D01*
X93357063Y-72531722D01*
X93394129Y-72572888D01*
X93547265Y-72684148D01*
X93547270Y-72684151D01*
X93720192Y-72761142D01*
X93720197Y-72761144D01*
X93905354Y-72800500D01*
X93905355Y-72800500D01*
X94094644Y-72800500D01*
X94094646Y-72800500D01*
X94279803Y-72761144D01*
X94452730Y-72684151D01*
X94605871Y-72572888D01*
X94732533Y-72432216D01*
X94827179Y-72268284D01*
X94885674Y-72088256D01*
X94905460Y-71900000D01*
X94885674Y-71711744D01*
X94827179Y-71531716D01*
X94751133Y-71400000D01*
X98794540Y-71400000D01*
X98814326Y-71588256D01*
X98814327Y-71588259D01*
X98872818Y-71768277D01*
X98872821Y-71768284D01*
X98967467Y-71932216D01*
X99063487Y-72038857D01*
X99094129Y-72072888D01*
X99247265Y-72184148D01*
X99247270Y-72184151D01*
X99420192Y-72261142D01*
X99420197Y-72261144D01*
X99605354Y-72300500D01*
X99605355Y-72300500D01*
X99794644Y-72300500D01*
X99794646Y-72300500D01*
X99979803Y-72261144D01*
X100152730Y-72184151D01*
X100305871Y-72072888D01*
X100432533Y-71932216D01*
X100527179Y-71768284D01*
X100585674Y-71588256D01*
X100605460Y-71400000D01*
X100585674Y-71211744D01*
X100527179Y-71031716D01*
X100458060Y-70911999D01*
X100441588Y-70844100D01*
X100458061Y-70788000D01*
X100502087Y-70711744D01*
X100527179Y-70668284D01*
X100585674Y-70488256D01*
X100605460Y-70300000D01*
X100585674Y-70111744D01*
X100527179Y-69931716D01*
X100432533Y-69767784D01*
X100305871Y-69627112D01*
X100305870Y-69627111D01*
X100152734Y-69515851D01*
X100152729Y-69515848D01*
X99979807Y-69438857D01*
X99979802Y-69438855D01*
X99834001Y-69407865D01*
X99794646Y-69399500D01*
X99605354Y-69399500D01*
X99572897Y-69406398D01*
X99420197Y-69438855D01*
X99420192Y-69438857D01*
X99247270Y-69515848D01*
X99247265Y-69515851D01*
X99094129Y-69627111D01*
X98967466Y-69767785D01*
X98872821Y-69931715D01*
X98872818Y-69931722D01*
X98814327Y-70111740D01*
X98814326Y-70111744D01*
X98794540Y-70300000D01*
X98814326Y-70488256D01*
X98814327Y-70488259D01*
X98872818Y-70668277D01*
X98872821Y-70668284D01*
X98941939Y-70788000D01*
X98958412Y-70855900D01*
X98941939Y-70912000D01*
X98872821Y-71031715D01*
X98872818Y-71031722D01*
X98814327Y-71211740D01*
X98814326Y-71211744D01*
X98794540Y-71400000D01*
X94751133Y-71400000D01*
X94732533Y-71367784D01*
X94605871Y-71227112D01*
X94584719Y-71211744D01*
X94452734Y-71115851D01*
X94452729Y-71115848D01*
X94279807Y-71038857D01*
X94279802Y-71038855D01*
X94134001Y-71007865D01*
X94094646Y-70999500D01*
X93905354Y-70999500D01*
X93872897Y-71006398D01*
X93720197Y-71038855D01*
X93720192Y-71038857D01*
X93547270Y-71115848D01*
X93547265Y-71115851D01*
X93394129Y-71227111D01*
X93267466Y-71367785D01*
X93172821Y-71531715D01*
X93172818Y-71531722D01*
X93114327Y-71711740D01*
X93114326Y-71711744D01*
X93094540Y-71900000D01*
X58869252Y-71900000D01*
X58685842Y-71771575D01*
X58642217Y-71716998D01*
X58635023Y-71647500D01*
X58666546Y-71585145D01*
X58685842Y-71568425D01*
X58738269Y-71531715D01*
X58871401Y-71438495D01*
X59038495Y-71271401D01*
X59174035Y-71077830D01*
X59256959Y-70900000D01*
X83994540Y-70900000D01*
X84014326Y-71088256D01*
X84014327Y-71088259D01*
X84072818Y-71268277D01*
X84072821Y-71268284D01*
X84167467Y-71432216D01*
X84294129Y-71572888D01*
X84447265Y-71684148D01*
X84447270Y-71684151D01*
X84620192Y-71761142D01*
X84620197Y-71761144D01*
X84805354Y-71800500D01*
X84805355Y-71800500D01*
X84994644Y-71800500D01*
X84994646Y-71800500D01*
X85179803Y-71761144D01*
X85352730Y-71684151D01*
X85505871Y-71572888D01*
X85632533Y-71432216D01*
X85727179Y-71268284D01*
X85785674Y-71088256D01*
X85805460Y-70900000D01*
X85785674Y-70711744D01*
X85727179Y-70531716D01*
X85632533Y-70367784D01*
X85505871Y-70227112D01*
X85505870Y-70227111D01*
X85352734Y-70115851D01*
X85352729Y-70115848D01*
X85179807Y-70038857D01*
X85179802Y-70038855D01*
X85034001Y-70007865D01*
X84994646Y-69999500D01*
X84805354Y-69999500D01*
X84772897Y-70006398D01*
X84620197Y-70038855D01*
X84620192Y-70038857D01*
X84447270Y-70115848D01*
X84447265Y-70115851D01*
X84294129Y-70227111D01*
X84167466Y-70367785D01*
X84072821Y-70531715D01*
X84072818Y-70531722D01*
X84028449Y-70668277D01*
X84014326Y-70711744D01*
X83994540Y-70900000D01*
X59256959Y-70900000D01*
X59273903Y-70863663D01*
X59335063Y-70635408D01*
X59355659Y-70400000D01*
X59352840Y-70367785D01*
X59335063Y-70164596D01*
X59335063Y-70164592D01*
X59273903Y-69936337D01*
X59174035Y-69722171D01*
X59107475Y-69627112D01*
X59038494Y-69528597D01*
X58871402Y-69361506D01*
X58871396Y-69361501D01*
X58685842Y-69231575D01*
X58642217Y-69176998D01*
X58635023Y-69107500D01*
X58666546Y-69045145D01*
X58685842Y-69028425D01*
X58708026Y-69012891D01*
X58871401Y-68898495D01*
X59038495Y-68731401D01*
X59174035Y-68537830D01*
X59273903Y-68323663D01*
X59335063Y-68095408D01*
X59343410Y-68000000D01*
X84694540Y-68000000D01*
X84714326Y-68188256D01*
X84714327Y-68188259D01*
X84772818Y-68368277D01*
X84772821Y-68368284D01*
X84867467Y-68532216D01*
X84994129Y-68672888D01*
X85147265Y-68784148D01*
X85147270Y-68784151D01*
X85320192Y-68861142D01*
X85320197Y-68861144D01*
X85505354Y-68900500D01*
X85505355Y-68900500D01*
X85694644Y-68900500D01*
X85694646Y-68900500D01*
X85879803Y-68861144D01*
X86052730Y-68784151D01*
X86205871Y-68672888D01*
X86332533Y-68532216D01*
X86427179Y-68368284D01*
X86485674Y-68188256D01*
X86505460Y-68000000D01*
X86485674Y-67811744D01*
X86431112Y-67643823D01*
X86427181Y-67631722D01*
X86427180Y-67631721D01*
X86427179Y-67631716D01*
X86332533Y-67467784D01*
X86205871Y-67327112D01*
X86205870Y-67327111D01*
X86052734Y-67215851D01*
X86052729Y-67215848D01*
X85879807Y-67138857D01*
X85879802Y-67138855D01*
X85734001Y-67107865D01*
X85696998Y-67100000D01*
X100419540Y-67100000D01*
X100439326Y-67288256D01*
X100439327Y-67288259D01*
X100497818Y-67468277D01*
X100497821Y-67468284D01*
X100592467Y-67632216D01*
X100719129Y-67772888D01*
X100872265Y-67884148D01*
X100872270Y-67884151D01*
X101045192Y-67961142D01*
X101045197Y-67961144D01*
X101230354Y-68000500D01*
X101230355Y-68000500D01*
X101419644Y-68000500D01*
X101419646Y-68000500D01*
X101604803Y-67961144D01*
X101777730Y-67884151D01*
X101930871Y-67772888D01*
X102057533Y-67632216D01*
X102152179Y-67468284D01*
X102210674Y-67288256D01*
X102230460Y-67100000D01*
X102210674Y-66911744D01*
X102152179Y-66731716D01*
X102057533Y-66567784D01*
X101930871Y-66427112D01*
X101888231Y-66396132D01*
X101777734Y-66315851D01*
X101777729Y-66315848D01*
X101604807Y-66238857D01*
X101604802Y-66238855D01*
X101459001Y-66207865D01*
X101421998Y-66200000D01*
X111394659Y-66200000D01*
X111413975Y-66396129D01*
X111413976Y-66396132D01*
X111466046Y-66567784D01*
X111471188Y-66584733D01*
X111564086Y-66758532D01*
X111564090Y-66758539D01*
X111689116Y-66910883D01*
X111841460Y-67035909D01*
X111841467Y-67035913D01*
X112015266Y-67128811D01*
X112015269Y-67128811D01*
X112015273Y-67128814D01*
X112203868Y-67186024D01*
X112400000Y-67205341D01*
X112596132Y-67186024D01*
X112784727Y-67128814D01*
X112958538Y-67035910D01*
X113110883Y-66910883D01*
X113235910Y-66758538D01*
X113328814Y-66584727D01*
X113386024Y-66396132D01*
X113405341Y-66200000D01*
X113386024Y-66003868D01*
X113328814Y-65815273D01*
X113328811Y-65815269D01*
X113328811Y-65815266D01*
X113235913Y-65641467D01*
X113235909Y-65641460D01*
X113110883Y-65489116D01*
X112958539Y-65364090D01*
X112958532Y-65364086D01*
X112784733Y-65271188D01*
X112784727Y-65271186D01*
X112596132Y-65213976D01*
X112596129Y-65213975D01*
X112400000Y-65194659D01*
X112203870Y-65213975D01*
X112015266Y-65271188D01*
X111841467Y-65364086D01*
X111841460Y-65364090D01*
X111689116Y-65489116D01*
X111564090Y-65641460D01*
X111564086Y-65641467D01*
X111471188Y-65815266D01*
X111413975Y-66003870D01*
X111394659Y-66200000D01*
X101421998Y-66200000D01*
X101419646Y-66199500D01*
X101230354Y-66199500D01*
X101197897Y-66206398D01*
X101045197Y-66238855D01*
X101045192Y-66238857D01*
X100872270Y-66315848D01*
X100872265Y-66315851D01*
X100719129Y-66427111D01*
X100592466Y-66567785D01*
X100497821Y-66731715D01*
X100497818Y-66731722D01*
X100439327Y-66911740D01*
X100439326Y-66911744D01*
X100419540Y-67100000D01*
X85696998Y-67100000D01*
X85694646Y-67099500D01*
X85505354Y-67099500D01*
X85472897Y-67106398D01*
X85320197Y-67138855D01*
X85320192Y-67138857D01*
X85147270Y-67215848D01*
X85147265Y-67215851D01*
X84994129Y-67327111D01*
X84867466Y-67467785D01*
X84772821Y-67631715D01*
X84772818Y-67631722D01*
X84726951Y-67772888D01*
X84714326Y-67811744D01*
X84694540Y-68000000D01*
X59343410Y-68000000D01*
X59355659Y-67860000D01*
X59335063Y-67624592D01*
X59273903Y-67396337D01*
X59174035Y-67182171D01*
X59143707Y-67138857D01*
X59038494Y-66988597D01*
X58871402Y-66821506D01*
X58871396Y-66821501D01*
X58685842Y-66691575D01*
X58642217Y-66636998D01*
X58635023Y-66567500D01*
X58666546Y-66505145D01*
X58685842Y-66488425D01*
X58773407Y-66427111D01*
X58871401Y-66358495D01*
X59038495Y-66191401D01*
X59174035Y-65997830D01*
X59273903Y-65783663D01*
X59323115Y-65600000D01*
X75294540Y-65600000D01*
X75314326Y-65788256D01*
X75314327Y-65788259D01*
X75372818Y-65968277D01*
X75372821Y-65968284D01*
X75467467Y-66132216D01*
X75563487Y-66238857D01*
X75594129Y-66272888D01*
X75747265Y-66384148D01*
X75747270Y-66384151D01*
X75920192Y-66461142D01*
X75920197Y-66461144D01*
X76105354Y-66500500D01*
X76105355Y-66500500D01*
X76294644Y-66500500D01*
X76294646Y-66500500D01*
X76479803Y-66461144D01*
X76652730Y-66384151D01*
X76805871Y-66272888D01*
X76932533Y-66132216D01*
X77027179Y-65968284D01*
X77085674Y-65788256D01*
X77105460Y-65600000D01*
X77085674Y-65411744D01*
X77027179Y-65231716D01*
X76932533Y-65067784D01*
X76805871Y-64927112D01*
X76805870Y-64927111D01*
X76652734Y-64815851D01*
X76652729Y-64815848D01*
X76479807Y-64738857D01*
X76479802Y-64738855D01*
X76334001Y-64707865D01*
X76294646Y-64699500D01*
X76105354Y-64699500D01*
X76072897Y-64706398D01*
X75920197Y-64738855D01*
X75920192Y-64738857D01*
X75747270Y-64815848D01*
X75747265Y-64815851D01*
X75594129Y-64927111D01*
X75467466Y-65067785D01*
X75372821Y-65231715D01*
X75372818Y-65231722D01*
X75314327Y-65411740D01*
X75314326Y-65411744D01*
X75294540Y-65600000D01*
X59323115Y-65600000D01*
X59335063Y-65555408D01*
X59355659Y-65320000D01*
X59335063Y-65084592D01*
X59273903Y-64856337D01*
X59174035Y-64642171D01*
X59117299Y-64561142D01*
X59038494Y-64448597D01*
X58871402Y-64281506D01*
X58871396Y-64281501D01*
X58685842Y-64151575D01*
X58642217Y-64096998D01*
X58635023Y-64027500D01*
X58666546Y-63965145D01*
X58685842Y-63948425D01*
X58708026Y-63932891D01*
X58871401Y-63818495D01*
X58989896Y-63700000D01*
X83894540Y-63700000D01*
X83914326Y-63888256D01*
X83914327Y-63888259D01*
X83972818Y-64068277D01*
X83972821Y-64068284D01*
X84067467Y-64232216D01*
X84194129Y-64372888D01*
X84347265Y-64484148D01*
X84347270Y-64484151D01*
X84520192Y-64561142D01*
X84520197Y-64561144D01*
X84705354Y-64600500D01*
X84705355Y-64600500D01*
X84894644Y-64600500D01*
X84894646Y-64600500D01*
X85079803Y-64561144D01*
X85252730Y-64484151D01*
X85405871Y-64372888D01*
X85532533Y-64232216D01*
X85627179Y-64068284D01*
X85685674Y-63888256D01*
X85705460Y-63700000D01*
X85685674Y-63511744D01*
X85627179Y-63331716D01*
X85532533Y-63167784D01*
X85405871Y-63027112D01*
X85389755Y-63015403D01*
X85252734Y-62915851D01*
X85252729Y-62915848D01*
X85079807Y-62838857D01*
X85079802Y-62838855D01*
X84934001Y-62807865D01*
X84894646Y-62799500D01*
X84705354Y-62799500D01*
X84672897Y-62806398D01*
X84520197Y-62838855D01*
X84520192Y-62838857D01*
X84347270Y-62915848D01*
X84347265Y-62915851D01*
X84194129Y-63027111D01*
X84067466Y-63167785D01*
X83972821Y-63331715D01*
X83972818Y-63331722D01*
X83914327Y-63511740D01*
X83914326Y-63511744D01*
X83894540Y-63700000D01*
X58989896Y-63700000D01*
X59038495Y-63651401D01*
X59174035Y-63457830D01*
X59273903Y-63243663D01*
X59335063Y-63015408D01*
X59355659Y-62780000D01*
X59335063Y-62544592D01*
X59273903Y-62316337D01*
X59174035Y-62102171D01*
X59150308Y-62068284D01*
X59038494Y-61908597D01*
X58871402Y-61741506D01*
X58871396Y-61741501D01*
X58812126Y-61700000D01*
X78494540Y-61700000D01*
X78514326Y-61888256D01*
X78514327Y-61888259D01*
X78572818Y-62068277D01*
X78572821Y-62068284D01*
X78667467Y-62232216D01*
X78794129Y-62372888D01*
X78947265Y-62484148D01*
X78947270Y-62484151D01*
X79120192Y-62561142D01*
X79120197Y-62561144D01*
X79305354Y-62600500D01*
X79305355Y-62600500D01*
X79494644Y-62600500D01*
X79494646Y-62600500D01*
X79679803Y-62561144D01*
X79852730Y-62484151D01*
X80005871Y-62372888D01*
X80132533Y-62232216D01*
X80227179Y-62068284D01*
X80285674Y-61888256D01*
X80305460Y-61700000D01*
X80285674Y-61511744D01*
X80227179Y-61331716D01*
X80132533Y-61167784D01*
X80005871Y-61027112D01*
X80005870Y-61027111D01*
X79852734Y-60915851D01*
X79852729Y-60915848D01*
X79679807Y-60838857D01*
X79679802Y-60838855D01*
X79534001Y-60807865D01*
X79494646Y-60799500D01*
X79305354Y-60799500D01*
X79272897Y-60806398D01*
X79120197Y-60838855D01*
X79120192Y-60838857D01*
X78947270Y-60915848D01*
X78947265Y-60915851D01*
X78794129Y-61027111D01*
X78667466Y-61167785D01*
X78572821Y-61331715D01*
X78572818Y-61331722D01*
X78514327Y-61511740D01*
X78514326Y-61511744D01*
X78494540Y-61700000D01*
X58812126Y-61700000D01*
X58685842Y-61611575D01*
X58642217Y-61556998D01*
X58635023Y-61487500D01*
X58666546Y-61425145D01*
X58685842Y-61408425D01*
X58795385Y-61331722D01*
X58871401Y-61278495D01*
X59038495Y-61111401D01*
X59174035Y-60917830D01*
X59273903Y-60703663D01*
X59335063Y-60475408D01*
X59355659Y-60240000D01*
X59335063Y-60004592D01*
X59273903Y-59776337D01*
X59174035Y-59562171D01*
X59038495Y-59368599D01*
X59038494Y-59368597D01*
X58871402Y-59201506D01*
X58871401Y-59201505D01*
X58703844Y-59084180D01*
X58685405Y-59071269D01*
X58641781Y-59016692D01*
X58634588Y-58947193D01*
X58666110Y-58884839D01*
X58685405Y-58868119D01*
X58782688Y-58800000D01*
X98694540Y-58800000D01*
X98714326Y-58988256D01*
X98714327Y-58988259D01*
X98772818Y-59168277D01*
X98772821Y-59168284D01*
X98867467Y-59332216D01*
X98994129Y-59472888D01*
X99147265Y-59584148D01*
X99147270Y-59584151D01*
X99320192Y-59661142D01*
X99320197Y-59661144D01*
X99505354Y-59700500D01*
X99505355Y-59700500D01*
X99694644Y-59700500D01*
X99694646Y-59700500D01*
X99879803Y-59661144D01*
X100052730Y-59584151D01*
X100205871Y-59472888D01*
X100332533Y-59332216D01*
X100427179Y-59168284D01*
X100485674Y-58988256D01*
X100505460Y-58800000D01*
X100485674Y-58611744D01*
X100427179Y-58431716D01*
X100332533Y-58267784D01*
X100205871Y-58127112D01*
X100168691Y-58100099D01*
X100052734Y-58015851D01*
X100052729Y-58015848D01*
X99879807Y-57938857D01*
X99879802Y-57938855D01*
X99734001Y-57907865D01*
X99694646Y-57899500D01*
X99505354Y-57899500D01*
X99472897Y-57906398D01*
X99320197Y-57938855D01*
X99320192Y-57938857D01*
X99147270Y-58015848D01*
X99147265Y-58015851D01*
X98994129Y-58127111D01*
X98867466Y-58267785D01*
X98772821Y-58431715D01*
X98772818Y-58431722D01*
X98727436Y-58571395D01*
X98714326Y-58611744D01*
X98694540Y-58800000D01*
X58782688Y-58800000D01*
X58871082Y-58738105D01*
X59038105Y-58571082D01*
X59173600Y-58377578D01*
X59273429Y-58163492D01*
X59273432Y-58163486D01*
X59330636Y-57950000D01*
X58433012Y-57950000D01*
X58465925Y-57892993D01*
X58500000Y-57765826D01*
X58500000Y-57634174D01*
X58465925Y-57507007D01*
X58433012Y-57450000D01*
X59330636Y-57450000D01*
X59330635Y-57449999D01*
X59273432Y-57236513D01*
X59273429Y-57236507D01*
X59173600Y-57022422D01*
X59173599Y-57022420D01*
X59052869Y-56850000D01*
X113194540Y-56850000D01*
X113214326Y-57038256D01*
X113214327Y-57038259D01*
X113272818Y-57218277D01*
X113272821Y-57218284D01*
X113367467Y-57382216D01*
X113479830Y-57507007D01*
X113494129Y-57522888D01*
X113647265Y-57634148D01*
X113647270Y-57634151D01*
X113820192Y-57711142D01*
X113820197Y-57711144D01*
X114005354Y-57750500D01*
X114005355Y-57750500D01*
X114194644Y-57750500D01*
X114194646Y-57750500D01*
X114379803Y-57711144D01*
X114552730Y-57634151D01*
X114705871Y-57522888D01*
X114832533Y-57382216D01*
X114927179Y-57218284D01*
X114985674Y-57038256D01*
X115005460Y-56850000D01*
X114985674Y-56661744D01*
X114927179Y-56481716D01*
X114901361Y-56436999D01*
X114884888Y-56369101D01*
X114901362Y-56313000D01*
X114927179Y-56268284D01*
X114985674Y-56088256D01*
X115005460Y-55900000D01*
X114985674Y-55711744D01*
X114927179Y-55531716D01*
X114908868Y-55500000D01*
X117194540Y-55500000D01*
X117214326Y-55688256D01*
X117214327Y-55688259D01*
X117272818Y-55868277D01*
X117272821Y-55868284D01*
X117367467Y-56032216D01*
X117494129Y-56172888D01*
X117647265Y-56284148D01*
X117647270Y-56284151D01*
X117820192Y-56361142D01*
X117820197Y-56361144D01*
X118005354Y-56400500D01*
X118005355Y-56400500D01*
X118194644Y-56400500D01*
X118194646Y-56400500D01*
X118379803Y-56361144D01*
X118552730Y-56284151D01*
X118705871Y-56172888D01*
X118832533Y-56032216D01*
X118927179Y-55868284D01*
X118985674Y-55688256D01*
X119005460Y-55500000D01*
X118985674Y-55311744D01*
X118927179Y-55131716D01*
X118832533Y-54967784D01*
X118705871Y-54827112D01*
X118705870Y-54827111D01*
X118552734Y-54715851D01*
X118552729Y-54715848D01*
X118379807Y-54638857D01*
X118379802Y-54638855D01*
X118220446Y-54604984D01*
X118194646Y-54599500D01*
X118005354Y-54599500D01*
X117979554Y-54604984D01*
X117820197Y-54638855D01*
X117820192Y-54638857D01*
X117647270Y-54715848D01*
X117647265Y-54715851D01*
X117494129Y-54827111D01*
X117367466Y-54967785D01*
X117272821Y-55131715D01*
X117272818Y-55131722D01*
X117214327Y-55311740D01*
X117214326Y-55311744D01*
X117194540Y-55500000D01*
X114908868Y-55500000D01*
X114832533Y-55367784D01*
X114705871Y-55227112D01*
X114705870Y-55227111D01*
X114552734Y-55115851D01*
X114552729Y-55115848D01*
X114379807Y-55038857D01*
X114379802Y-55038855D01*
X114234001Y-55007865D01*
X114194646Y-54999500D01*
X114005354Y-54999500D01*
X113972897Y-55006398D01*
X113820197Y-55038855D01*
X113820192Y-55038857D01*
X113647270Y-55115848D01*
X113647265Y-55115851D01*
X113494129Y-55227111D01*
X113367466Y-55367785D01*
X113272821Y-55531715D01*
X113272818Y-55531722D01*
X113214327Y-55711740D01*
X113214326Y-55711744D01*
X113194540Y-55900000D01*
X113214326Y-56088256D01*
X113214327Y-56088259D01*
X113272821Y-56268285D01*
X113298637Y-56313000D01*
X113315110Y-56380900D01*
X113298637Y-56437000D01*
X113272821Y-56481714D01*
X113214403Y-56661506D01*
X113214326Y-56661744D01*
X113194540Y-56850000D01*
X59052869Y-56850000D01*
X59038113Y-56828926D01*
X59038108Y-56828920D01*
X58871078Y-56661890D01*
X58685405Y-56531879D01*
X58641780Y-56477302D01*
X58634588Y-56407804D01*
X58666110Y-56345449D01*
X58685406Y-56328730D01*
X58707872Y-56312999D01*
X58871401Y-56198495D01*
X59038495Y-56031401D01*
X59174035Y-55837830D01*
X59273903Y-55623663D01*
X59335063Y-55395408D01*
X59355659Y-55160000D01*
X59335063Y-54924592D01*
X59273903Y-54696337D01*
X59227987Y-54597870D01*
X87874500Y-54597870D01*
X87874501Y-54597876D01*
X87880908Y-54657483D01*
X87931202Y-54792328D01*
X87931206Y-54792335D01*
X88017452Y-54907544D01*
X88017455Y-54907547D01*
X88132664Y-54993793D01*
X88132671Y-54993797D01*
X88267517Y-55044091D01*
X88267516Y-55044091D01*
X88274444Y-55044835D01*
X88327127Y-55050500D01*
X90122872Y-55050499D01*
X90182483Y-55044091D01*
X90317331Y-54993796D01*
X90432546Y-54907546D01*
X90518796Y-54792331D01*
X90567810Y-54660916D01*
X90609681Y-54604984D01*
X90675145Y-54580566D01*
X90743418Y-54595417D01*
X90771673Y-54616569D01*
X90893599Y-54738495D01*
X90990384Y-54806265D01*
X91087165Y-54874032D01*
X91087167Y-54874033D01*
X91087170Y-54874035D01*
X91301337Y-54973903D01*
X91529592Y-55035063D01*
X91706034Y-55050500D01*
X91764999Y-55055659D01*
X91765000Y-55055659D01*
X91765001Y-55055659D01*
X91823966Y-55050500D01*
X92000408Y-55035063D01*
X92228663Y-54973903D01*
X92442830Y-54874035D01*
X92636401Y-54738495D01*
X92803495Y-54571401D01*
X92939035Y-54377830D01*
X93038903Y-54163663D01*
X93100063Y-53935408D01*
X93120659Y-53700000D01*
X93100063Y-53464592D01*
X93038903Y-53236337D01*
X92939035Y-53022171D01*
X92822271Y-52855413D01*
X92803494Y-52828597D01*
X92636402Y-52661506D01*
X92636395Y-52661501D01*
X92442834Y-52525967D01*
X92442830Y-52525965D01*
X92442828Y-52525964D01*
X92228663Y-52426097D01*
X92228659Y-52426096D01*
X92228655Y-52426094D01*
X92000413Y-52364938D01*
X92000403Y-52364936D01*
X91765001Y-52344341D01*
X91764999Y-52344341D01*
X91529596Y-52364936D01*
X91529586Y-52364938D01*
X91301344Y-52426094D01*
X91301335Y-52426098D01*
X91087171Y-52525964D01*
X91087169Y-52525965D01*
X90893600Y-52661503D01*
X90771673Y-52783430D01*
X90710350Y-52816914D01*
X90640658Y-52811930D01*
X90584725Y-52770058D01*
X90567810Y-52739081D01*
X90518797Y-52607671D01*
X90518793Y-52607664D01*
X90432547Y-52492455D01*
X90432544Y-52492452D01*
X90317335Y-52406206D01*
X90317328Y-52406202D01*
X90182482Y-52355908D01*
X90182483Y-52355908D01*
X90122883Y-52349501D01*
X90122881Y-52349500D01*
X90122873Y-52349500D01*
X90122864Y-52349500D01*
X88327129Y-52349500D01*
X88327123Y-52349501D01*
X88267516Y-52355908D01*
X88132671Y-52406202D01*
X88132664Y-52406206D01*
X88017455Y-52492452D01*
X88017452Y-52492455D01*
X87931206Y-52607664D01*
X87931202Y-52607671D01*
X87880908Y-52742517D01*
X87874501Y-52802116D01*
X87874500Y-52802135D01*
X87874500Y-54597870D01*
X59227987Y-54597870D01*
X59174035Y-54482171D01*
X59038495Y-54288599D01*
X59038494Y-54288597D01*
X58871402Y-54121506D01*
X58871396Y-54121501D01*
X58685842Y-53991575D01*
X58642217Y-53936998D01*
X58635023Y-53867500D01*
X58666546Y-53805145D01*
X58685842Y-53788425D01*
X58708026Y-53772891D01*
X58871401Y-53658495D01*
X59038495Y-53491401D01*
X59174035Y-53297830D01*
X59273903Y-53083663D01*
X59335063Y-52855408D01*
X59355659Y-52620000D01*
X59335063Y-52384592D01*
X59273903Y-52156337D01*
X59174035Y-51942171D01*
X59038495Y-51748599D01*
X59038494Y-51748597D01*
X58871402Y-51581506D01*
X58871396Y-51581501D01*
X58685842Y-51451575D01*
X58644615Y-51399998D01*
X108194659Y-51399998D01*
X108213975Y-51596127D01*
X108271188Y-51784731D01*
X108364086Y-51958530D01*
X108364090Y-51958537D01*
X108489116Y-52110881D01*
X108641460Y-52235907D01*
X108641467Y-52235911D01*
X108815266Y-52328809D01*
X108815269Y-52328809D01*
X108815273Y-52328812D01*
X109003868Y-52386022D01*
X109200000Y-52405339D01*
X109396132Y-52386022D01*
X109584727Y-52328812D01*
X109758538Y-52235908D01*
X109910883Y-52110881D01*
X110035910Y-51958536D01*
X110128814Y-51784725D01*
X110186024Y-51596130D01*
X110205341Y-51399998D01*
X110186024Y-51203866D01*
X110128814Y-51015271D01*
X110128811Y-51015267D01*
X110128811Y-51015264D01*
X110035913Y-50841465D01*
X110035909Y-50841458D01*
X109910883Y-50689114D01*
X109758539Y-50564088D01*
X109758532Y-50564084D01*
X109584733Y-50471186D01*
X109584727Y-50471184D01*
X109396132Y-50413974D01*
X109396129Y-50413973D01*
X109200000Y-50394657D01*
X109003870Y-50413973D01*
X108815266Y-50471186D01*
X108641467Y-50564084D01*
X108641460Y-50564088D01*
X108489116Y-50689114D01*
X108364090Y-50841458D01*
X108364086Y-50841465D01*
X108271188Y-51015264D01*
X108213975Y-51203868D01*
X108194659Y-51399998D01*
X58644615Y-51399998D01*
X58642217Y-51396998D01*
X58635023Y-51327500D01*
X58666546Y-51265145D01*
X58685842Y-51248425D01*
X58749479Y-51203866D01*
X58871401Y-51118495D01*
X59038495Y-50951401D01*
X59174035Y-50757830D01*
X59273903Y-50543663D01*
X59335063Y-50315408D01*
X59355659Y-50080000D01*
X59353034Y-50050000D01*
X112994540Y-50050000D01*
X113014326Y-50238256D01*
X113014327Y-50238259D01*
X113072818Y-50418277D01*
X113072821Y-50418284D01*
X113167467Y-50582216D01*
X113263719Y-50689114D01*
X113294129Y-50722888D01*
X113447265Y-50834148D01*
X113447270Y-50834151D01*
X113620192Y-50911142D01*
X113620197Y-50911144D01*
X113805354Y-50950500D01*
X113805355Y-50950500D01*
X113994644Y-50950500D01*
X113994646Y-50950500D01*
X114179803Y-50911144D01*
X114352730Y-50834151D01*
X114505871Y-50722888D01*
X114632533Y-50582216D01*
X114727179Y-50418284D01*
X114785674Y-50238256D01*
X114805460Y-50050000D01*
X114785674Y-49861744D01*
X114727179Y-49681716D01*
X114632533Y-49517784D01*
X114505871Y-49377112D01*
X114505870Y-49377111D01*
X114352734Y-49265851D01*
X114352729Y-49265848D01*
X114179807Y-49188857D01*
X114179802Y-49188855D01*
X114034001Y-49157865D01*
X113994646Y-49149500D01*
X113805354Y-49149500D01*
X113772897Y-49156398D01*
X113620197Y-49188855D01*
X113620192Y-49188857D01*
X113447270Y-49265848D01*
X113447265Y-49265851D01*
X113294129Y-49377111D01*
X113167466Y-49517785D01*
X113072821Y-49681715D01*
X113072818Y-49681722D01*
X113014327Y-49861740D01*
X113014326Y-49861744D01*
X112994540Y-50050000D01*
X59353034Y-50050000D01*
X59335063Y-49844592D01*
X59273903Y-49616337D01*
X59174035Y-49402171D01*
X59078584Y-49265851D01*
X59038494Y-49208597D01*
X58871402Y-49041506D01*
X58871401Y-49041505D01*
X58685405Y-48911269D01*
X58641781Y-48856692D01*
X58634588Y-48787193D01*
X58666110Y-48724839D01*
X58685405Y-48708119D01*
X58871082Y-48578105D01*
X59038105Y-48411082D01*
X59173600Y-48217578D01*
X59273429Y-48003492D01*
X59273432Y-48003486D01*
X59330636Y-47790000D01*
X58433012Y-47790000D01*
X58465925Y-47732993D01*
X58500000Y-47605826D01*
X58500000Y-47474174D01*
X58465925Y-47347007D01*
X58433012Y-47290000D01*
X59330636Y-47290000D01*
X59330635Y-47289999D01*
X59273432Y-47076513D01*
X59273429Y-47076507D01*
X59173600Y-46862422D01*
X59173599Y-46862420D01*
X59038113Y-46668926D01*
X59038108Y-46668920D01*
X58916053Y-46546865D01*
X58882568Y-46485542D01*
X58887552Y-46415850D01*
X58929424Y-46359917D01*
X58960400Y-46343002D01*
X59092331Y-46293796D01*
X59207546Y-46207546D01*
X59239396Y-46165000D01*
X84044341Y-46165000D01*
X84064936Y-46400403D01*
X84064938Y-46400413D01*
X84126094Y-46628655D01*
X84126096Y-46628659D01*
X84126097Y-46628663D01*
X84205597Y-46799151D01*
X84225965Y-46842830D01*
X84225967Y-46842834D01*
X84284462Y-46926373D01*
X84361505Y-47036401D01*
X84528599Y-47203495D01*
X84625384Y-47271265D01*
X84722165Y-47339032D01*
X84722167Y-47339033D01*
X84722170Y-47339035D01*
X84936337Y-47438903D01*
X85164592Y-47500063D01*
X85352918Y-47516539D01*
X85399999Y-47520659D01*
X85400000Y-47520659D01*
X85400001Y-47520659D01*
X85439234Y-47517226D01*
X85635408Y-47500063D01*
X85863663Y-47438903D01*
X86077830Y-47339035D01*
X86271401Y-47203495D01*
X86438495Y-47036401D01*
X86568732Y-46850403D01*
X86623307Y-46806780D01*
X86692805Y-46799586D01*
X86755160Y-46831109D01*
X86771880Y-46850405D01*
X86825073Y-46926373D01*
X87457037Y-46294409D01*
X87474075Y-46357993D01*
X87539901Y-46472007D01*
X87632993Y-46565099D01*
X87747007Y-46630925D01*
X87810590Y-46647962D01*
X87178625Y-47279925D01*
X87262421Y-47338599D01*
X87476507Y-47438429D01*
X87476516Y-47438433D01*
X87704673Y-47499567D01*
X87704684Y-47499569D01*
X87939998Y-47520157D01*
X87940002Y-47520157D01*
X88175315Y-47499569D01*
X88175326Y-47499567D01*
X88403483Y-47438433D01*
X88403492Y-47438429D01*
X88617578Y-47338600D01*
X88617582Y-47338598D01*
X88701373Y-47279926D01*
X88701373Y-47279925D01*
X88069409Y-46647962D01*
X88132993Y-46630925D01*
X88247007Y-46565099D01*
X88340099Y-46472007D01*
X88405925Y-46357993D01*
X88422962Y-46294410D01*
X89054925Y-46926373D01*
X89108425Y-46849968D01*
X89163002Y-46806344D01*
X89232501Y-46799151D01*
X89294855Y-46830673D01*
X89311576Y-46849969D01*
X89365073Y-46926372D01*
X89997037Y-46294409D01*
X90014075Y-46357993D01*
X90079901Y-46472007D01*
X90172993Y-46565099D01*
X90287007Y-46630925D01*
X90350590Y-46647962D01*
X89718625Y-47279925D01*
X89802421Y-47338599D01*
X90016507Y-47438429D01*
X90016516Y-47438433D01*
X90244673Y-47499567D01*
X90244684Y-47499569D01*
X90479998Y-47520157D01*
X90480002Y-47520157D01*
X90715315Y-47499569D01*
X90715326Y-47499567D01*
X90943483Y-47438433D01*
X90943492Y-47438429D01*
X91157578Y-47338600D01*
X91157582Y-47338598D01*
X91241373Y-47279926D01*
X91241373Y-47279925D01*
X90609409Y-46647962D01*
X90672993Y-46630925D01*
X90787007Y-46565099D01*
X90880099Y-46472007D01*
X90945925Y-46357993D01*
X90962962Y-46294410D01*
X91594925Y-46926373D01*
X91648425Y-46849968D01*
X91703002Y-46806344D01*
X91772501Y-46799151D01*
X91834855Y-46830673D01*
X91851576Y-46849969D01*
X91905073Y-46926372D01*
X92537037Y-46294409D01*
X92554075Y-46357993D01*
X92619901Y-46472007D01*
X92712993Y-46565099D01*
X92827007Y-46630925D01*
X92890590Y-46647962D01*
X92258625Y-47279925D01*
X92342421Y-47338599D01*
X92556507Y-47438429D01*
X92556516Y-47438433D01*
X92784673Y-47499567D01*
X92784684Y-47499569D01*
X93019998Y-47520157D01*
X93020002Y-47520157D01*
X93255315Y-47499569D01*
X93255326Y-47499567D01*
X93483483Y-47438433D01*
X93483492Y-47438429D01*
X93697578Y-47338600D01*
X93697582Y-47338598D01*
X93781373Y-47279926D01*
X93781373Y-47279925D01*
X93149409Y-46647962D01*
X93212993Y-46630925D01*
X93327007Y-46565099D01*
X93420099Y-46472007D01*
X93485925Y-46357993D01*
X93502962Y-46294410D01*
X94134925Y-46926373D01*
X94188119Y-46850405D01*
X94242696Y-46806781D01*
X94312195Y-46799588D01*
X94374549Y-46831110D01*
X94391269Y-46850405D01*
X94521505Y-47036401D01*
X94688599Y-47203495D01*
X94785384Y-47271265D01*
X94882165Y-47339032D01*
X94882167Y-47339033D01*
X94882170Y-47339035D01*
X95096337Y-47438903D01*
X95324592Y-47500063D01*
X95512918Y-47516539D01*
X95559999Y-47520659D01*
X95560000Y-47520659D01*
X95560001Y-47520659D01*
X95599234Y-47517226D01*
X95795408Y-47500063D01*
X96023663Y-47438903D01*
X96237830Y-47339035D01*
X96390188Y-47232353D01*
X116326893Y-47232353D01*
X116346679Y-47420609D01*
X116346680Y-47420612D01*
X116405171Y-47600630D01*
X116405174Y-47600637D01*
X116499820Y-47764569D01*
X116574048Y-47847007D01*
X116626482Y-47905241D01*
X116779618Y-48016501D01*
X116779623Y-48016504D01*
X116952545Y-48093495D01*
X116952550Y-48093497D01*
X117137707Y-48132853D01*
X117137708Y-48132853D01*
X117326997Y-48132853D01*
X117326999Y-48132853D01*
X117512156Y-48093497D01*
X117685083Y-48016504D01*
X117838224Y-47905241D01*
X117964886Y-47764569D01*
X118059532Y-47600637D01*
X118118027Y-47420609D01*
X118137813Y-47232353D01*
X118118027Y-47044097D01*
X118059532Y-46864069D01*
X117964886Y-46700137D01*
X117838224Y-46559465D01*
X117820619Y-46546674D01*
X117685087Y-46448204D01*
X117685082Y-46448201D01*
X117512160Y-46371210D01*
X117512155Y-46371208D01*
X117366354Y-46340218D01*
X117326999Y-46331853D01*
X117137707Y-46331853D01*
X117105250Y-46338751D01*
X116952550Y-46371208D01*
X116952545Y-46371210D01*
X116779623Y-46448201D01*
X116779618Y-46448204D01*
X116626482Y-46559464D01*
X116499819Y-46700138D01*
X116405174Y-46864068D01*
X116405171Y-46864075D01*
X116349179Y-47036402D01*
X116346679Y-47044097D01*
X116326893Y-47232353D01*
X96390188Y-47232353D01*
X96431401Y-47203495D01*
X96598495Y-47036401D01*
X96734035Y-46842830D01*
X96833903Y-46628663D01*
X96895063Y-46400408D01*
X96915659Y-46165000D01*
X96895063Y-45929592D01*
X96833903Y-45701337D01*
X96734035Y-45487171D01*
X96728731Y-45479595D01*
X96598494Y-45293597D01*
X96431402Y-45126506D01*
X96431396Y-45126501D01*
X96245842Y-44996575D01*
X96202217Y-44941998D01*
X96195023Y-44872500D01*
X96226546Y-44810145D01*
X96245842Y-44793425D01*
X96322248Y-44739925D01*
X96431401Y-44663495D01*
X96598495Y-44496401D01*
X96734035Y-44302830D01*
X96833903Y-44088663D01*
X96895063Y-43860408D01*
X96915659Y-43625000D01*
X96895063Y-43389592D01*
X96833903Y-43161337D01*
X96734035Y-42947171D01*
X96728731Y-42939595D01*
X96598494Y-42753597D01*
X96431402Y-42586506D01*
X96431395Y-42586501D01*
X96237834Y-42450967D01*
X96237830Y-42450965D01*
X96237828Y-42450964D01*
X96023663Y-42351097D01*
X96023659Y-42351096D01*
X96023655Y-42351094D01*
X95795413Y-42289938D01*
X95795403Y-42289936D01*
X95560001Y-42269341D01*
X95559999Y-42269341D01*
X95324596Y-42289936D01*
X95324586Y-42289938D01*
X95096344Y-42351094D01*
X95096335Y-42351098D01*
X94882171Y-42450964D01*
X94882169Y-42450965D01*
X94688597Y-42586505D01*
X94521505Y-42753597D01*
X94391269Y-42939595D01*
X94336692Y-42983220D01*
X94267194Y-42990414D01*
X94204839Y-42958891D01*
X94188119Y-42939595D01*
X94134925Y-42863626D01*
X94134925Y-42863625D01*
X93502962Y-43495589D01*
X93485925Y-43432007D01*
X93420099Y-43317993D01*
X93327007Y-43224901D01*
X93212993Y-43159075D01*
X93149410Y-43142037D01*
X93781373Y-42510073D01*
X93781373Y-42510072D01*
X93697583Y-42451402D01*
X93697579Y-42451400D01*
X93483492Y-42351570D01*
X93483483Y-42351566D01*
X93255326Y-42290432D01*
X93255315Y-42290430D01*
X93020002Y-42269843D01*
X93019998Y-42269843D01*
X92784684Y-42290430D01*
X92784673Y-42290432D01*
X92556516Y-42351566D01*
X92556507Y-42351570D01*
X92342419Y-42451401D01*
X92258625Y-42510072D01*
X92890590Y-43142037D01*
X92827007Y-43159075D01*
X92712993Y-43224901D01*
X92619901Y-43317993D01*
X92554075Y-43432007D01*
X92537037Y-43495590D01*
X91905072Y-42863625D01*
X91905072Y-42863626D01*
X91851574Y-42940030D01*
X91796998Y-42983655D01*
X91727499Y-42990849D01*
X91665144Y-42959326D01*
X91648424Y-42940030D01*
X91594925Y-42863626D01*
X91594925Y-42863625D01*
X90962962Y-43495589D01*
X90945925Y-43432007D01*
X90880099Y-43317993D01*
X90787007Y-43224901D01*
X90672993Y-43159075D01*
X90609410Y-43142037D01*
X91241373Y-42510073D01*
X91241373Y-42510072D01*
X91157583Y-42451402D01*
X91157579Y-42451400D01*
X90943492Y-42351570D01*
X90943483Y-42351566D01*
X90715326Y-42290432D01*
X90715315Y-42290430D01*
X90480002Y-42269843D01*
X90479998Y-42269843D01*
X90244684Y-42290430D01*
X90244673Y-42290432D01*
X90016516Y-42351566D01*
X90016507Y-42351570D01*
X89802419Y-42451401D01*
X89718625Y-42510072D01*
X90350590Y-43142037D01*
X90287007Y-43159075D01*
X90172993Y-43224901D01*
X90079901Y-43317993D01*
X90014075Y-43432007D01*
X89997037Y-43495589D01*
X89365073Y-42863625D01*
X89365072Y-42863626D01*
X89311574Y-42940030D01*
X89256998Y-42983655D01*
X89187499Y-42990849D01*
X89125144Y-42959326D01*
X89108424Y-42940030D01*
X89054925Y-42863626D01*
X89054925Y-42863625D01*
X88422962Y-43495589D01*
X88405925Y-43432007D01*
X88340099Y-43317993D01*
X88247007Y-43224901D01*
X88132993Y-43159075D01*
X88069410Y-43142037D01*
X88701373Y-42510073D01*
X88701373Y-42510072D01*
X88617583Y-42451402D01*
X88617579Y-42451400D01*
X88403492Y-42351570D01*
X88403483Y-42351566D01*
X88175326Y-42290432D01*
X88175315Y-42290430D01*
X87940002Y-42269843D01*
X87939998Y-42269843D01*
X87704684Y-42290430D01*
X87704673Y-42290432D01*
X87476516Y-42351566D01*
X87476507Y-42351570D01*
X87262419Y-42451401D01*
X87178625Y-42510072D01*
X87810590Y-43142037D01*
X87747007Y-43159075D01*
X87632993Y-43224901D01*
X87539901Y-43317993D01*
X87474075Y-43432007D01*
X87457037Y-43495589D01*
X86786818Y-42825370D01*
X86753333Y-42764047D01*
X86750499Y-42737689D01*
X86750499Y-42727129D01*
X86750498Y-42727123D01*
X86750497Y-42727116D01*
X86744091Y-42667517D01*
X86693796Y-42532669D01*
X86693795Y-42532668D01*
X86693793Y-42532664D01*
X86607547Y-42417455D01*
X86607544Y-42417452D01*
X86492335Y-42331206D01*
X86492328Y-42331202D01*
X86357482Y-42280908D01*
X86357483Y-42280908D01*
X86297883Y-42274501D01*
X86297881Y-42274500D01*
X86297873Y-42274500D01*
X86297864Y-42274500D01*
X84502129Y-42274500D01*
X84502123Y-42274501D01*
X84442516Y-42280908D01*
X84307671Y-42331202D01*
X84307664Y-42331206D01*
X84192455Y-42417452D01*
X84192452Y-42417455D01*
X84106206Y-42532664D01*
X84106202Y-42532671D01*
X84055908Y-42667517D01*
X84049501Y-42727116D01*
X84049501Y-42727123D01*
X84049500Y-42727135D01*
X84049500Y-44522870D01*
X84049501Y-44522876D01*
X84055908Y-44582483D01*
X84106202Y-44717328D01*
X84106206Y-44717335D01*
X84192452Y-44832544D01*
X84192455Y-44832547D01*
X84307664Y-44918793D01*
X84307671Y-44918797D01*
X84439081Y-44967810D01*
X84495015Y-45009681D01*
X84519432Y-45075145D01*
X84504580Y-45143418D01*
X84483430Y-45171673D01*
X84361503Y-45293600D01*
X84225965Y-45487169D01*
X84225964Y-45487171D01*
X84126098Y-45701335D01*
X84126094Y-45701344D01*
X84064938Y-45929586D01*
X84064936Y-45929596D01*
X84044341Y-46164999D01*
X84044341Y-46165000D01*
X59239396Y-46165000D01*
X59293796Y-46092331D01*
X59344091Y-45957483D01*
X59350500Y-45897873D01*
X59350499Y-44102128D01*
X59344091Y-44042517D01*
X59302873Y-43932007D01*
X59293797Y-43907671D01*
X59293793Y-43907664D01*
X59207547Y-43792455D01*
X59207544Y-43792452D01*
X59092335Y-43706206D01*
X59092328Y-43706202D01*
X58957482Y-43655908D01*
X58957483Y-43655908D01*
X58897883Y-43649501D01*
X58897881Y-43649500D01*
X58897873Y-43649500D01*
X58897864Y-43649500D01*
X57102129Y-43649500D01*
X57102123Y-43649501D01*
X57042516Y-43655908D01*
X56907671Y-43706202D01*
X56907664Y-43706206D01*
X56792455Y-43792452D01*
X56792452Y-43792455D01*
X56706206Y-43907664D01*
X56706202Y-43907671D01*
X56655908Y-44042517D01*
X56650947Y-44088664D01*
X56649501Y-44102123D01*
X56649500Y-44102135D01*
X56649500Y-45897870D01*
X56649501Y-45897876D01*
X56655908Y-45957483D01*
X56706202Y-46092328D01*
X56706206Y-46092335D01*
X56792452Y-46207544D01*
X56792455Y-46207547D01*
X56907664Y-46293793D01*
X56907671Y-46293797D01*
X56907674Y-46293798D01*
X57039598Y-46343002D01*
X57095531Y-46384873D01*
X57119949Y-46450337D01*
X57105098Y-46518610D01*
X57083947Y-46546865D01*
X56961886Y-46668926D01*
X56826400Y-46862420D01*
X56826399Y-46862422D01*
X56726570Y-47076507D01*
X56726567Y-47076513D01*
X56669364Y-47289999D01*
X56669364Y-47290000D01*
X57566988Y-47290000D01*
X57534075Y-47347007D01*
X57500000Y-47474174D01*
X57500000Y-47605826D01*
X57534075Y-47732993D01*
X57566988Y-47790000D01*
X56669364Y-47790000D01*
X56726567Y-48003486D01*
X56726570Y-48003492D01*
X56826399Y-48217578D01*
X56961894Y-48411082D01*
X57128917Y-48578105D01*
X57314595Y-48708119D01*
X57358219Y-48762696D01*
X57365412Y-48832195D01*
X57333890Y-48894549D01*
X57314595Y-48911269D01*
X57128594Y-49041508D01*
X56961505Y-49208597D01*
X56825965Y-49402169D01*
X56825964Y-49402171D01*
X56726098Y-49616335D01*
X56726094Y-49616344D01*
X56664938Y-49844586D01*
X56664936Y-49844596D01*
X56644341Y-50079999D01*
X56644341Y-50080000D01*
X56664936Y-50315403D01*
X56664938Y-50315413D01*
X56726094Y-50543655D01*
X56726096Y-50543659D01*
X56726097Y-50543663D01*
X56744074Y-50582214D01*
X56825965Y-50757830D01*
X56825967Y-50757834D01*
X56961501Y-50951395D01*
X56961506Y-50951402D01*
X57128597Y-51118493D01*
X57128603Y-51118498D01*
X57314158Y-51248425D01*
X57357783Y-51303002D01*
X57364977Y-51372500D01*
X57333454Y-51434855D01*
X57314158Y-51451575D01*
X57128597Y-51581505D01*
X56961505Y-51748597D01*
X56825965Y-51942169D01*
X56825964Y-51942171D01*
X56726098Y-52156335D01*
X56726094Y-52156344D01*
X56664938Y-52384586D01*
X56664936Y-52384596D01*
X56644341Y-52619999D01*
X56644341Y-52620000D01*
X56664936Y-52855403D01*
X56664938Y-52855413D01*
X56726094Y-53083655D01*
X56726096Y-53083659D01*
X56726097Y-53083663D01*
X56797289Y-53236335D01*
X56825965Y-53297830D01*
X56825967Y-53297834D01*
X56961501Y-53491395D01*
X56961506Y-53491402D01*
X57128597Y-53658493D01*
X57128603Y-53658498D01*
X57314158Y-53788425D01*
X57357783Y-53843002D01*
X57364977Y-53912500D01*
X57333454Y-53974855D01*
X57314158Y-53991575D01*
X57128597Y-54121505D01*
X56961505Y-54288597D01*
X56825965Y-54482169D01*
X56825964Y-54482171D01*
X56726098Y-54696335D01*
X56726094Y-54696344D01*
X56664938Y-54924586D01*
X56664936Y-54924596D01*
X56644341Y-55159999D01*
X56644341Y-55160000D01*
X56664936Y-55395403D01*
X56664938Y-55395413D01*
X56726094Y-55623655D01*
X56726096Y-55623659D01*
X56726097Y-55623663D01*
X56756219Y-55688259D01*
X56825965Y-55837830D01*
X56825967Y-55837834D01*
X56961501Y-56031395D01*
X56961506Y-56031402D01*
X57128597Y-56198493D01*
X57128603Y-56198498D01*
X57314594Y-56328730D01*
X57358219Y-56383307D01*
X57365413Y-56452805D01*
X57333890Y-56515160D01*
X57314595Y-56531880D01*
X57128922Y-56661890D01*
X57128920Y-56661891D01*
X56961891Y-56828920D01*
X56961886Y-56828926D01*
X56826400Y-57022420D01*
X56826399Y-57022422D01*
X56726570Y-57236507D01*
X56726567Y-57236513D01*
X56669364Y-57449999D01*
X56669364Y-57450000D01*
X57566988Y-57450000D01*
X57534075Y-57507007D01*
X57500000Y-57634174D01*
X57500000Y-57765826D01*
X57534075Y-57892993D01*
X57566988Y-57950000D01*
X56669364Y-57950000D01*
X56726567Y-58163486D01*
X56726570Y-58163492D01*
X56826399Y-58377578D01*
X56961894Y-58571082D01*
X57128917Y-58738105D01*
X57314595Y-58868119D01*
X57358219Y-58922696D01*
X57365412Y-58992195D01*
X57333890Y-59054549D01*
X57314595Y-59071269D01*
X57128594Y-59201508D01*
X56961505Y-59368597D01*
X56825965Y-59562169D01*
X56825964Y-59562171D01*
X56726098Y-59776335D01*
X56726094Y-59776344D01*
X56664938Y-60004586D01*
X56664936Y-60004596D01*
X56644341Y-60239999D01*
X56644341Y-60240000D01*
X56664936Y-60475403D01*
X56664938Y-60475413D01*
X56726094Y-60703655D01*
X56726096Y-60703659D01*
X56726097Y-60703663D01*
X56770787Y-60799500D01*
X56825965Y-60917830D01*
X56825967Y-60917834D01*
X56961501Y-61111395D01*
X56961506Y-61111402D01*
X57128597Y-61278493D01*
X57128603Y-61278498D01*
X57314158Y-61408425D01*
X57357783Y-61463002D01*
X57364977Y-61532500D01*
X57333454Y-61594855D01*
X57314158Y-61611575D01*
X57128597Y-61741505D01*
X56961505Y-61908597D01*
X56825965Y-62102169D01*
X56825964Y-62102171D01*
X56726098Y-62316335D01*
X56726094Y-62316344D01*
X56664938Y-62544586D01*
X56664936Y-62544596D01*
X56644341Y-62779999D01*
X56644341Y-62780000D01*
X56664936Y-63015403D01*
X56664938Y-63015413D01*
X56726094Y-63243655D01*
X56726096Y-63243659D01*
X56726097Y-63243663D01*
X56767157Y-63331716D01*
X56825965Y-63457830D01*
X56825967Y-63457834D01*
X56961501Y-63651395D01*
X56961506Y-63651402D01*
X57128597Y-63818493D01*
X57128603Y-63818498D01*
X57314158Y-63948425D01*
X57357783Y-64003002D01*
X57364977Y-64072500D01*
X57333454Y-64134855D01*
X57314158Y-64151575D01*
X57128597Y-64281505D01*
X56961505Y-64448597D01*
X56825965Y-64642169D01*
X56825964Y-64642171D01*
X56726098Y-64856335D01*
X56726094Y-64856344D01*
X56664938Y-65084586D01*
X56664936Y-65084596D01*
X56644341Y-65319999D01*
X56644341Y-65320000D01*
X56664936Y-65555403D01*
X56664938Y-65555413D01*
X56726094Y-65783655D01*
X56726096Y-65783659D01*
X56726097Y-65783663D01*
X56825965Y-65997830D01*
X56825967Y-65997834D01*
X56961501Y-66191395D01*
X56961506Y-66191402D01*
X57128597Y-66358493D01*
X57128603Y-66358498D01*
X57314158Y-66488425D01*
X57357783Y-66543002D01*
X57364977Y-66612500D01*
X57333454Y-66674855D01*
X57314158Y-66691575D01*
X57128597Y-66821505D01*
X56961505Y-66988597D01*
X56825965Y-67182169D01*
X56825964Y-67182171D01*
X56726098Y-67396335D01*
X56726094Y-67396344D01*
X56664938Y-67624586D01*
X56664936Y-67624596D01*
X56644341Y-67859999D01*
X56644341Y-67860000D01*
X56664936Y-68095403D01*
X56664938Y-68095413D01*
X56726094Y-68323655D01*
X56726096Y-68323659D01*
X56726097Y-68323663D01*
X56823346Y-68532214D01*
X56825965Y-68537830D01*
X56825967Y-68537834D01*
X56961501Y-68731395D01*
X56961506Y-68731402D01*
X57128597Y-68898493D01*
X57128603Y-68898498D01*
X57314158Y-69028425D01*
X57357783Y-69083002D01*
X57364977Y-69152500D01*
X57333454Y-69214855D01*
X57314158Y-69231575D01*
X57128597Y-69361505D01*
X56961505Y-69528597D01*
X56825965Y-69722169D01*
X56825964Y-69722171D01*
X56726098Y-69936335D01*
X56726094Y-69936344D01*
X56664938Y-70164586D01*
X56664936Y-70164596D01*
X56644341Y-70399999D01*
X56644341Y-70400000D01*
X56664936Y-70635403D01*
X56664938Y-70635413D01*
X56726094Y-70863655D01*
X56726096Y-70863659D01*
X56726097Y-70863663D01*
X56807791Y-71038855D01*
X56825965Y-71077830D01*
X56825967Y-71077834D01*
X56919730Y-71211740D01*
X56959322Y-71268284D01*
X56961501Y-71271395D01*
X56961506Y-71271402D01*
X57128597Y-71438493D01*
X57128603Y-71438498D01*
X57314158Y-71568425D01*
X57357783Y-71623002D01*
X57364977Y-71692500D01*
X57333454Y-71754855D01*
X57314158Y-71771575D01*
X57128597Y-71901505D01*
X56961505Y-72068597D01*
X56825965Y-72262169D01*
X56825964Y-72262171D01*
X56726098Y-72476335D01*
X56726094Y-72476344D01*
X56664938Y-72704586D01*
X56664936Y-72704596D01*
X56644341Y-72939999D01*
X56644341Y-72940000D01*
X55600500Y-72940000D01*
X55600500Y-39624500D01*
X55620185Y-39557461D01*
X55672989Y-39511706D01*
X55724500Y-39500500D01*
X125275500Y-39500500D01*
X125342539Y-39520185D01*
G37*
%TD.AperFunction*%
%TD*%
M02*
